<?xml version="1.0" encoding="UTF-8" standalone="no"?>
<!DOCTYPE svg PUBLIC "-//W3C//DTD SVG 1.1//EN" "http://www.w3.org/Graphics/SVG/1.1/DTD/svg11.dtd">
<svg width="100%" height="100%" viewBox="0 0 354 354" version="1.1" xmlns="http://www.w3.org/2000/svg" xmlns:xlink="http://www.w3.org/1999/xlink" xml:space="preserve" xmlns:serif="http://www.serif.com/" style="fill-rule:evenodd;clip-rule:evenodd;stroke-linejoin:round;stroke-miterlimit:2;">
    <g id="Hour-Hand" serif:id="Hour Hand">
        <g transform="matrix(1.93182,1.38778e-17,-6.93889e-18,1.89168,-141.632,-167.353)">
            <path d="M162.317,175.582L162.513,162.831C162.513,162.831 157.999,158.479 158.024,153.132C158.03,152.013 158.449,150.461 159.265,148.804C159.874,147.567 160.815,146.307 161.608,145.105C163.545,142.166 164.229,139.714 164.229,139.714L164.588,128.542L165.296,128.547L165.645,139.707C165.645,139.707 166.856,142.858 168.003,144.719C168.801,146.013 169.87,147.629 170.454,148.733C171.353,150.433 171.917,152.261 171.85,153.526C171.632,157.644 167.443,162.789 167.443,162.789L167.418,175.523C169.969,176.538 171.779,179.073 171.779,182.035C171.779,185.891 168.714,189.021 164.938,189.021C161.163,189.021 158.098,185.891 158.098,182.035C158.098,179.128 159.841,176.633 162.317,175.582Z" style="fill:rgb(208,205,200);"/>
            <path d="M161.89,175.292C161.89,175.292 162.079,163.012 162.079,163.012C161.309,162.214 157.57,158.083 157.593,153.13C157.598,151.961 158.027,150.337 158.88,148.606C159.497,147.353 160.448,146.077 161.25,144.859C162.982,142.231 163.691,140.003 163.8,139.642L164.157,128.528C164.164,128.289 164.357,128.1 164.59,128.102L165.298,128.106C165.53,128.107 165.72,128.296 165.727,128.532C165.727,128.532 166.074,139.616 166.075,139.618C166.26,140.092 167.339,142.815 168.368,144.484C169.171,145.786 170.246,147.413 170.833,148.524C171.775,150.305 172.351,152.224 172.281,153.55C172.077,157.395 168.517,162.121 167.874,162.945C167.874,162.945 167.85,175.229 167.85,175.229C170.416,176.377 172.21,178.994 172.21,182.035C172.21,186.134 168.952,189.462 164.938,189.462C160.925,189.462 157.666,186.134 157.666,182.035C157.666,179.048 159.397,176.47 161.89,175.292ZM162.317,175.582C159.841,176.633 158.098,179.128 158.098,182.035C158.098,185.891 161.163,189.021 164.938,189.021C168.714,189.021 171.779,185.891 171.779,182.035C171.779,179.073 169.969,176.538 167.418,175.523L167.443,162.789C167.443,162.789 171.632,157.644 171.85,153.526C171.917,152.261 171.353,150.433 170.454,148.733C169.87,147.629 168.801,146.013 168.003,144.719C166.856,142.858 165.645,139.707 165.645,139.707L165.296,128.547L164.588,128.542L164.229,139.714C164.229,139.714 163.545,142.166 161.608,145.105C160.815,146.307 159.874,147.567 159.265,148.804C158.449,150.461 158.03,152.013 158.024,153.132C157.999,158.479 162.513,162.831 162.513,162.831L162.317,175.582Z" style="fill-opacity:0.4;"/>
        </g>
        <g>
            <g transform="matrix(1,0,0,1.13883,0,-22.5945)">
                <path d="M174.526,161.914L174.611,143.454L172.881,139.918L177.077,133.09L181.084,139.734L179.565,143.71L179.393,161.916L174.526,161.914Z" style="fill:rgb(223,199,147);"/>
                <path d="M174.526,161.914L174.611,143.454L172.881,139.918L177.077,133.09L181.084,139.734L179.565,143.71L179.393,161.916L174.526,161.914ZM175.363,161.183C175.363,161.183 178.567,161.184 178.567,161.184L178.733,143.588C178.733,143.588 180.18,139.799 180.18,139.799L177.07,134.642C177.07,134.642 173.806,139.955 173.806,139.955L175.445,143.305L175.363,161.183Z" style="fill:rgb(151,129,87);"/>
            </g>
            <g transform="matrix(1,0,0,1,0.0505,0.0685)">
                <path d="M171.246,134.948C171.246,134.948 166.442,130.379 166.343,123.1C166.258,116.829 171.425,111.281 171.425,111.281C171.425,111.281 175.761,116.454 175.805,122.829C175.848,129.212 171.246,134.948 171.246,134.948Z" style="fill:rgb(223,199,147);"/>
                <path d="M171.246,134.948C171.246,134.948 166.442,130.379 166.343,123.1C166.258,116.829 171.425,111.281 171.425,111.281C171.425,111.281 175.761,116.454 175.805,122.829C175.848,129.212 171.246,134.948 171.246,134.948ZM171.174,133.637C172.37,131.907 175.004,127.557 174.971,122.835C174.94,118.208 172.535,114.245 171.386,112.613C170.048,114.282 167.114,118.477 167.177,123.088C167.248,128.363 169.915,132.143 171.174,133.637Z" style="fill:rgb(151,129,87);"/>
            </g>
            <g transform="matrix(-1,0,0,1,353.986,-0.075732)">
                <path d="M171.214,134.591C171.214,134.591 166.68,128.072 166.676,122.426C166.672,116.155 171.425,111.281 171.425,111.281C171.425,111.281 175.926,116.379 175.883,122.779C175.844,128.718 171.214,134.591 171.214,134.591Z" style="fill:rgb(223,199,147);"/>
                <path d="M171.214,134.591C171.214,134.591 175.844,128.718 175.883,122.779C175.926,116.379 171.425,111.281 171.425,111.281C171.425,111.281 166.672,116.155 166.676,122.426C166.68,128.072 171.214,134.591 171.214,134.591ZM171.251,133.116C170.032,131.134 167.512,126.541 167.509,122.425C167.506,117.873 170.153,114.1 171.394,112.581C172.57,114.168 175.081,118.106 175.05,122.774C175.021,127.043 172.504,131.273 171.251,133.116Z" style="fill:rgb(151,129,87);"/>
            </g>
            <path d="M177.029,116.801L172.782,108.978L177.038,100.562L181.322,109.206L177.029,116.801Z" style="fill:rgb(223,199,147);"/>
            <path d="M177.029,116.801L172.782,108.978L177.038,100.562L181.322,109.206L177.029,116.801ZM177.044,115.081L180.379,109.18L177.03,102.423C177.03,102.423 173.722,108.964 173.722,108.964L177.044,115.081Z" style="fill:rgb(151,129,87);"/>
        </g>
    </g>
</svg>
