<?xml version="1.0" encoding="UTF-8" standalone="no"?>
<!DOCTYPE svg PUBLIC "-//W3C//DTD SVG 1.1//EN" "http://www.w3.org/Graphics/SVG/1.1/DTD/svg11.dtd">
<svg width="100%" height="100%" viewBox="0 0 354 354" version="1.1" xmlns="http://www.w3.org/2000/svg" xmlns:xlink="http://www.w3.org/1999/xlink" xml:space="preserve" xmlns:serif="http://www.serif.com/" style="fill-rule:evenodd;clip-rule:evenodd;stroke-linejoin:round;stroke-miterlimit:2;">
    <g id="Minute-Hand" serif:id="Minute Hand">
        <path d="M181.316,167.749C185.036,169.505 187.18,172.506 187.18,176.889C187.18,182.943 183.031,187.027 176.978,187.027C170.925,187.027 167.056,183.072 166.998,177.019C166.96,173.134 168.899,169.611 172.795,167.852L168.601,92.503L175.102,84.099L176.44,41.541L177.465,41.543L178.81,83.947L185.173,92.378L181.316,167.749Z" style="fill:rgb(208,205,200);"/>
        <path d="M182.176,167.245C185.891,169.175 188.013,172.348 188.013,176.889C188.013,183.439 183.527,187.861 176.978,187.861C173.701,187.861 171.022,186.77 169.148,184.88C167.277,182.993 166.196,180.297 166.164,177.027C166.125,172.993 168.057,169.32 171.932,167.342L167.769,92.55C167.758,92.35 167.82,92.152 167.942,91.994L174.277,83.803L175.607,41.515C175.621,41.065 175.991,40.707 176.442,40.708L177.467,40.71C177.916,40.711 178.284,41.068 178.298,41.517L179.634,83.656L185.838,91.876C185.956,92.032 186.015,92.225 186.005,92.42L182.176,167.245ZM181.316,167.749L185.173,92.378L178.81,83.947L177.465,41.543L176.44,41.541L175.102,84.099L168.601,92.503L172.795,167.852C168.899,169.611 166.96,173.134 166.998,177.019C167.056,183.072 170.925,187.027 176.978,187.027C183.031,187.027 187.18,182.943 187.18,176.889C187.18,172.506 185.036,169.505 181.316,167.749Z" style="fill-opacity:0.4;"/>
        <g>
            <path d="M175.083,162.031L174.796,152.606L179.481,152.616L179.047,162.034L175.083,162.031Z" style="fill:rgb(223,199,147);"/>
            <path d="M175.083,162.031L174.796,152.606L179.481,152.616L179.047,162.034L175.083,162.031ZM175.891,161.198L178.251,161.2C178.251,161.2 178.609,153.448 178.609,153.448L175.655,153.441L175.891,161.198Z" style="fill:rgb(151,129,87);"/>
            <path d="M174.612,149.027L172.938,114L181.109,113.962L179.489,149.002L174.612,149.027Z" style="fill:rgb(223,199,147);"/>
            <path d="M174.612,149.027L172.938,114L181.109,113.962L179.489,149.002L174.612,149.027ZM175.406,148.19L178.693,148.173C178.693,148.173 180.236,114.799 180.236,114.799L173.812,114.83L175.406,148.19Z" style="fill:rgb(151,129,87);"/>
            <path d="M172.49,109.986L171.488,92.972L177.036,86.145L182.491,93.039L181.535,109.997L172.49,109.986Z" style="fill:rgb(223,199,147);"/>
            <path d="M172.49,109.986L171.488,92.972L177.036,86.145L182.491,93.039L181.535,109.997L172.49,109.986ZM173.275,109.153L180.747,109.163L181.641,93.308C181.641,93.308 177.027,87.477 177.027,87.477L172.339,93.246L173.275,109.153Z" style="fill:rgb(151,129,87);"/>
        </g>
    </g>
</svg>
