<?xml version="1.0" encoding="UTF-8" standalone="no"?>
<!DOCTYPE svg PUBLIC "-//W3C//DTD SVG 1.1//EN" "http://www.w3.org/Graphics/SVG/1.1/DTD/svg11.dtd">
<svg width="100%" height="100%" viewBox="0 0 354 354" version="1.1" xmlns="http://www.w3.org/2000/svg" xmlns:xlink="http://www.w3.org/1999/xlink" xml:space="preserve" xmlns:serif="http://www.serif.com/" style="fill-rule:evenodd;clip-rule:evenodd;stroke-linejoin:round;stroke-miterlimit:2;">
    <g id="Second-Hand" serif:id="Second Hand" transform="matrix(-0.755664,0.65496,-0.65496,-0.755664,426.555,194.536)">
        <path d="M182.338,173.077C183.819,175.417 183.871,178.721 181.965,180.921C180.097,183.076 176.574,183.506 174.078,182.465L87.78,280.518L87.042,279.902L171.769,180.296C170.38,177.971 170.354,174.635 172.224,172.479C174.093,170.322 177.389,169.91 179.887,170.955L194.033,155.634L194.359,152.014L204.734,144.782L199.108,156.152L195.661,156.902L182.338,173.077Z" style="fill:rgb(207,207,207);"/>
        <path d="M183.348,173.161C184.706,175.749 184.602,179.151 182.594,181.467C180.639,183.724 177.07,184.325 174.327,183.444L88.406,281.069C88.107,281.408 87.593,281.447 87.246,281.158L86.508,280.542C86.337,280.399 86.23,280.195 86.211,279.973C86.192,279.751 86.263,279.531 86.407,279.362C86.407,279.362 170.765,180.191 170.765,180.191C169.5,177.619 169.63,174.198 171.594,171.933C173.561,169.663 176.927,169.083 179.654,169.979L193.229,155.277L193.529,151.939C193.552,151.694 193.681,151.471 193.883,151.33L204.257,144.098C204.569,143.881 204.989,143.902 205.278,144.151C205.566,144.399 205.65,144.811 205.481,145.152L199.855,156.521C199.743,156.748 199.533,156.912 199.286,156.966L196.121,157.655L183.348,173.161ZM182.338,173.077L195.661,156.902L199.108,156.152L204.734,144.782L194.359,152.014L194.033,155.634L179.887,170.955C177.389,169.91 174.093,170.322 172.224,172.479C170.354,174.635 170.38,177.971 171.769,180.296L87.042,279.902L87.78,280.518L174.078,182.465C176.574,183.506 180.097,183.076 181.965,180.921C183.871,178.721 183.819,175.417 182.338,173.077Z" style="fill-opacity:0.4;"/>
    </g>
</svg>
