<?xml version="1.0" encoding="UTF-8" standalone="no"?>
<!DOCTYPE svg PUBLIC "-//W3C//DTD SVG 1.1//EN" "http://www.w3.org/Graphics/SVG/1.1/DTD/svg11.dtd">
<svg width="100%" height="100%" viewBox="0 0 354 354" version="1.1" xmlns="http://www.w3.org/2000/svg" xmlns:xlink="http://www.w3.org/1999/xlink" xml:space="preserve" xmlns:serif="http://www.serif.com/" style="fill-rule:evenodd;clip-rule:evenodd;stroke-linejoin:round;stroke-miterlimit:2;">
    <g id="Second-Hand" serif:id="Second Hand" transform="matrix(-0.755664,0.65496,-0.65496,-0.755664,426.555,194.536)">
        <path d="M182.338,173.077C183.819,175.417 183.871,178.721 181.965,180.921C180.097,183.076 176.574,183.506 174.078,182.465L87.78,280.518L87.042,279.902L171.769,180.296C170.38,177.971 170.354,174.635 172.224,172.479C174.093,170.322 177.389,169.91 179.887,170.955L194.033,155.634L194.359,152.014L204.734,144.782L199.108,156.152L195.661,156.902L182.338,173.077Z" style="fill:rgb(207,207,207);"/>
        <path d="M183.547,173.182C184.881,175.815 184.748,179.237 182.72,181.576C180.747,183.853 177.168,184.486 174.38,183.635L88.531,281.179C88.173,281.586 87.556,281.633 87.14,281.286L86.401,280.67C86.196,280.499 86.068,280.253 86.045,279.987C86.023,279.721 86.107,279.457 86.28,279.254C86.28,279.254 170.567,180.165 170.567,180.166C169.327,177.549 169.486,174.11 171.468,171.824C173.454,169.532 176.835,168.92 179.603,169.788L193.068,155.205L193.363,151.924C193.39,151.63 193.545,151.362 193.788,151.193L204.162,143.962C204.537,143.701 205.04,143.726 205.386,144.024C205.732,144.322 205.833,144.816 205.63,145.226L200.005,156.595C199.87,156.868 199.618,157.064 199.321,157.129L196.213,157.806L183.547,173.182ZM182.338,173.077L195.661,156.902L199.108,156.152L204.734,144.782L194.359,152.014L194.033,155.634L179.887,170.955C177.389,169.91 174.093,170.322 172.224,172.479C170.354,174.635 170.38,177.971 171.769,180.296L87.042,279.902L87.78,280.518L174.078,182.465C176.574,183.506 180.097,183.076 181.965,180.921C183.871,178.721 183.819,175.417 182.338,173.077Z" style="fill-opacity:0.4;"/>
    </g>
</svg>
