<?xml version="1.0" encoding="UTF-8" standalone="no"?>
<!DOCTYPE svg PUBLIC "-//W3C//DTD SVG 1.1//EN" "http://www.w3.org/Graphics/SVG/1.1/DTD/svg11.dtd">
<svg width="100%" height="100%" viewBox="0 0 354 354" version="1.1" xmlns="http://www.w3.org/2000/svg" xmlns:xlink="http://www.w3.org/1999/xlink" xml:space="preserve" xmlns:serif="http://www.serif.com/" style="fill-rule:evenodd;clip-rule:evenodd;stroke-linecap:round;stroke-miterlimit:1.5;">
    <g id="Watch-Case" serif:id="Watch Case">
        <g transform="matrix(2.85338,0,0,2.45702,-324.254,-256.926)">
            <ellipse cx="175.67" cy="176.606" rx="61.857" ry="71.835"/>
        </g>
        <g transform="matrix(2.82913,0,0,2.43614,-319.994,-253.238)">
            <ellipse cx="175.67" cy="176.606" rx="61.857" ry="71.835" style="fill:url(#_Linear1);"/>
        </g>
        <g transform="matrix(2.54622,0,0,2.19253,-270.295,-210.214)">
            <ellipse cx="175.67" cy="176.606" rx="61.857" ry="71.835" style="fill:rgb(48,48,48);"/>
        </g>
        <g transform="matrix(2.52197,0,0,2.17165,-266.035,-206.526)">
            <ellipse cx="175.67" cy="176.606" rx="61.857" ry="71.835" style="fill:url(#_Linear2);"/>
        </g>
    </g>
    <g id="Watch-Face" serif:id="Watch Face">
        <g transform="matrix(2.36838,0,0,2.0394,-239.055,-183.171)">
            <ellipse cx="175.67" cy="176.606" rx="61.857" ry="71.835"/>
        </g>
        <g transform="matrix(2.34413,0,0,2.01852,-234.795,-179.483)">
            <ellipse cx="175.67" cy="176.606" rx="61.857" ry="71.835" style="fill:rgb(234,234,232);"/>
        </g>
        <g id="Minute-Numbers" serif:id="Minute Numbers">
            <g transform="matrix(0.328606,0,0,0.197928,116.181,10.246)">
                <g transform="matrix(50,0,0,50,214.231,204.92)">
                </g>
                <text x="155.431px" y="204.92px" style="font-family:'HiraMinProN-W3', 'Hiragino Mincho ProN', serif;font-weight:300;font-size:50px;">60</text>
            </g>
            <g transform="matrix(0.328606,0,0,0.197928,116.214,270.746)">
                <g transform="matrix(50,0,0,50,214.231,204.92)">
                </g>
                <text x="155.431px" y="204.92px" style="font-family:'HiraMinProN-W3', 'Hiragino Mincho ProN', serif;font-weight:300;font-size:50px;">30</text>
            </g>
            <g transform="matrix(0.164303,0.284581,-0.171411,0.098964,65.4206,171.231)">
                <g transform="matrix(50,0,0,50,214.231,204.92)">
                </g>
                <text x="155.431px" y="204.92px" style="font-family:'HiraMinProN-W3', 'Hiragino Mincho ProN', serif;font-weight:300;font-size:50px;">40</text>
            </g>
            <g transform="matrix(0.284581,0.164303,-0.098964,0.171411,77.4848,227.793)">
                <g transform="matrix(50,0,0,50,214.231,204.92)">
                </g>
                <text x="155.431px" y="204.92px" style="font-family:'HiraMinProN-W3', 'Hiragino Mincho ProN', serif;font-weight:300;font-size:50px;">35</text>
            </g>
            <g transform="matrix(0.164303,-0.284581,0.171411,0.098964,227.794,276.515)">
                <g transform="matrix(50,0,0,50,214.231,204.92)">
                </g>
                <text x="155.431px" y="204.92px" style="font-family:'HiraMinProN-W3', 'Hiragino Mincho ProN', serif;font-weight:300;font-size:50px;">20</text>
            </g>
            <g transform="matrix(0.284581,-0.164303,0.098964,0.171411,171.231,288.579)">
                <g transform="matrix(50,0,0,50,214.231,204.92)">
                </g>
                <text x="155.431px" y="204.92px" style="font-family:'HiraMinProN-W3', 'Hiragino Mincho ProN', serif;font-weight:300;font-size:50px;">25</text>
            </g>
            <g transform="matrix(0.284581,-0.164303,0.098964,0.171411,41.0029,62.9944)">
                <g transform="matrix(50,0,0,50,214.231,204.92)">
                </g>
                <text x="155.431px" y="204.92px" style="font-family:'HiraMinProN-W3', 'Hiragino Mincho ProN', serif;font-weight:300;font-size:50px;">55</text>
            </g>
            <g transform="matrix(0.164303,-0.284581,0.171411,0.098964,2.11296,146.29)">
                <g transform="matrix(50,0,0,50,214.231,204.92)">
                </g>
                <text x="155.431px" y="204.92px" style="font-family:'HiraMinProN-W3', 'Hiragino Mincho ProN', serif;font-weight:300;font-size:50px;">50</text>
            </g>
            <g id="_45" serif:id="45" transform="matrix(2.01213e-17,-0.328606,0.197928,1.21196e-17,10.2463,237.813)">
                <g transform="matrix(50,0,0,50,214.231,204.92)">
                </g>
                <text x="155.431px" y="204.92px" style="font-family:'HiraMinProN-W3', 'Hiragino Mincho ProN', serif;font-weight:300;font-size:50px;">45</text>
            </g>
            <g transform="matrix(2.01213e-17,0.328606,-0.197928,1.21196e-17,343.748,116.181)">
                <g transform="matrix(50,0,0,50,214.231,204.92)">
                </g>
                <text x="155.431px" y="204.92px" style="font-family:'HiraMinProN-W3', 'Hiragino Mincho ProN', serif;font-weight:300;font-size:50px;">15</text>
            </g>
            <g transform="matrix(0.164303,0.284581,-0.171411,0.098964,290.578,40.2196)">
                <g transform="matrix(50,0,0,50,214.231,204.92)">
                </g>
                <text x="155.431px" y="204.92px" style="font-family:'HiraMinProN-W3', 'Hiragino Mincho ProN', serif;font-weight:300;font-size:50px;">10</text>
            </g>
            <g transform="matrix(0.284581,0.164303,-0.098964,0.171411,211.933,4.61464)">
                <g transform="matrix(50,0,0,50,184.831,204.92)">
                </g>
                <text x="155.431px" y="204.92px" style="font-family:'HiraMinProN-W3', 'Hiragino Mincho ProN', serif;font-weight:300;font-size:50px;">5</text>
            </g>
        </g>
        <g id="Second-Marks" serif:id="Second Marks">
            <g id="_45-60-Second-Marks" serif:id="45-60 Second Marks" transform="matrix(6.12323e-17,-1,1,6.12323e-17,-9.33092e-06,353.997)">
                <g id="_10-15-Second-Marks" serif:id="10-15 Second Marks" transform="matrix(0.5,0.866025,-0.866025,0.5,241.786,-64.7844)">
                    <g id="Second-Marks1" serif:id="Second Marks">
                        <g transform="matrix(1.22994,0.129272,-0.112908,1.07425,-40.3781,-28.5775)">
                            <rect x="191.779" y="36.712" width="0.809" height="14.35"/>
                        </g>
                        <g transform="matrix(1.1298,0.503017,-0.439344,0.986783,33.7873,-85.6887)">
                            <rect x="191.779" y="36.712" width="0.809" height="14.35"/>
                        </g>
                        <g transform="matrix(1.17619,0.382166,-0.333791,1.0273,7.11363,-69.2801)">
                            <rect x="191.779" y="36.712" width="0.809" height="14.35"/>
                        </g>
                        <g transform="matrix(1.20969,0.257128,-0.22458,1.05656,-17.6988,-50.1733)">
                            <rect x="191.779" y="36.712" width="0.809" height="14.35"/>
                        </g>
                    </g>
                    <g id="Second-Fraction-Marks" serif:id="Second Fraction Marks" transform="matrix(1,0,0,1,-0.000515182,0)">
                        <g transform="matrix(0.361463,0.192193,-0.217887,0.409785,193.988,-20.0519)">
                            <rect x="188.112" y="86.315" width="2.443" height="12.928" style="fill:rgb(18,14,11);"/>
                        </g>
                        <g transform="matrix(0.36795,0.179461,-0.203453,0.41714,187.1,-20.5246)">
                            <rect x="188.112" y="86.315" width="2.443" height="12.928" style="fill:rgb(18,14,11);"/>
                        </g>
                        <g transform="matrix(0.379572,0.153357,-0.173859,0.430316,173.297,-20.748)">
                            <rect x="188.112" y="86.315" width="2.443" height="12.928" style="fill:rgb(18,14,11);"/>
                        </g>
                        <g transform="matrix(0.384693,0.140017,-0.158735,0.436121,166.398,-20.4983)">
                            <rect x="188.112" y="86.315" width="2.443" height="12.928" style="fill:rgb(18,14,11);"/>
                        </g>
                        <g transform="matrix(0.393523,0.112841,-0.127926,0.446132,152.648,-19.2776)">
                            <rect x="188.112" y="86.315" width="2.443" height="12.928" style="fill:rgb(18,14,11);"/>
                        </g>
                        <g transform="matrix(0.397221,0.0990384,-0.112279,0.450325,145.813,-18.3081)">
                            <rect x="188.112" y="86.315" width="2.443" height="12.928" style="fill:rgb(18,14,11);"/>
                        </g>
                        <g transform="matrix(0.403162,0.0710884,-0.080592,0.45706,132.265,-15.6568)">
                            <rect x="188.112" y="86.315" width="2.443" height="12.928" style="fill:rgb(18,14,11);"/>
                        </g>
                        <g transform="matrix(0.405398,0.0569749,-0.0645917,0.459594,125.569,-13.9781)">
                            <rect x="188.112" y="86.315" width="2.443" height="12.928" style="fill:rgb(18,14,11);"/>
                        </g>
                        <g transform="matrix(0.408384,0.028557,-0.0323747,0.46298,112.372,-9.9252)">
                            <rect x="188.112" y="86.315" width="2.443" height="12.928" style="fill:rgb(18,14,11);"/>
                        </g>
                        <g transform="matrix(0.409132,0.0142872,-0.0161972,0.463828,105.888,-7.55582)">
                            <rect x="188.112" y="86.315" width="2.443" height="12.928" style="fill:rgb(18,14,11);"/>
                        </g>
                    </g>
                    <g transform="matrix(0.818763,0,0,0.464111,21.9805,-4.9616)">
                        <g id="Hour-Marks" serif:id="Hour Marks">
                            <rect x="188.112" y="86.315" width="2.443" height="12.928" style="fill:rgb(18,14,11);"/>
                        </g>
                    </g>
                </g>
                <g id="_5-10-Second-Marks" serif:id="5-10 Second Marks" transform="matrix(0.866025,0.5,-0.5,0.866025,112.213,-64.7854)">
                    <g id="Second-Marks2" serif:id="Second Marks">
                        <g transform="matrix(1.22994,0.129272,-0.112908,1.07425,-40.3781,-28.5775)">
                            <rect x="191.779" y="36.712" width="0.809" height="14.35"/>
                        </g>
                        <g transform="matrix(1.1298,0.503017,-0.439344,0.986783,33.7873,-85.6887)">
                            <rect x="191.779" y="36.712" width="0.809" height="14.35"/>
                        </g>
                        <g transform="matrix(1.17619,0.382166,-0.333791,1.0273,7.11363,-69.2801)">
                            <rect x="191.779" y="36.712" width="0.809" height="14.35"/>
                        </g>
                        <g transform="matrix(1.20969,0.257128,-0.22458,1.05656,-17.6988,-50.1733)">
                            <rect x="191.779" y="36.712" width="0.809" height="14.35"/>
                        </g>
                    </g>
                    <g id="Second-Fraction-Marks1" serif:id="Second Fraction Marks" transform="matrix(1,0,0,1,-0.000515182,0)">
                        <g transform="matrix(0.361463,0.192193,-0.217887,0.409785,193.988,-20.0519)">
                            <rect x="188.112" y="86.315" width="2.443" height="12.928" style="fill:rgb(18,14,11);"/>
                        </g>
                        <g transform="matrix(0.36795,0.179461,-0.203453,0.41714,187.1,-20.5246)">
                            <rect x="188.112" y="86.315" width="2.443" height="12.928" style="fill:rgb(18,14,11);"/>
                        </g>
                        <g transform="matrix(0.379572,0.153357,-0.173859,0.430316,173.297,-20.748)">
                            <rect x="188.112" y="86.315" width="2.443" height="12.928" style="fill:rgb(18,14,11);"/>
                        </g>
                        <g transform="matrix(0.384693,0.140017,-0.158735,0.436121,166.398,-20.4983)">
                            <rect x="188.112" y="86.315" width="2.443" height="12.928" style="fill:rgb(18,14,11);"/>
                        </g>
                        <g transform="matrix(0.393523,0.112841,-0.127926,0.446132,152.648,-19.2776)">
                            <rect x="188.112" y="86.315" width="2.443" height="12.928" style="fill:rgb(18,14,11);"/>
                        </g>
                        <g transform="matrix(0.397221,0.0990384,-0.112279,0.450325,145.813,-18.3081)">
                            <rect x="188.112" y="86.315" width="2.443" height="12.928" style="fill:rgb(18,14,11);"/>
                        </g>
                        <g transform="matrix(0.403162,0.0710884,-0.080592,0.45706,132.265,-15.6568)">
                            <rect x="188.112" y="86.315" width="2.443" height="12.928" style="fill:rgb(18,14,11);"/>
                        </g>
                        <g transform="matrix(0.405398,0.0569749,-0.0645917,0.459594,125.569,-13.9781)">
                            <rect x="188.112" y="86.315" width="2.443" height="12.928" style="fill:rgb(18,14,11);"/>
                        </g>
                        <g transform="matrix(0.408384,0.028557,-0.0323747,0.46298,112.372,-9.9252)">
                            <rect x="188.112" y="86.315" width="2.443" height="12.928" style="fill:rgb(18,14,11);"/>
                        </g>
                        <g transform="matrix(0.409132,0.0142872,-0.0161972,0.463828,105.888,-7.55582)">
                            <rect x="188.112" y="86.315" width="2.443" height="12.928" style="fill:rgb(18,14,11);"/>
                        </g>
                    </g>
                    <g transform="matrix(0.818763,0,0,0.464111,21.9805,-4.9616)">
                        <g id="Hour-Marks1" serif:id="Hour Marks">
                            <rect x="188.112" y="86.315" width="2.443" height="12.928" style="fill:rgb(18,14,11);"/>
                        </g>
                    </g>
                </g>
                <g id="_0-5-Second-Marks" serif:id="0-5 Second Marks">
                    <g id="Second-Marks3" serif:id="Second Marks">
                        <g transform="matrix(1.22994,0.129272,-0.112908,1.07425,-40.3781,-28.5775)">
                            <rect x="191.779" y="36.712" width="0.809" height="14.35"/>
                        </g>
                        <g transform="matrix(1.1298,0.503017,-0.439344,0.986783,33.7873,-85.6887)">
                            <rect x="191.779" y="36.712" width="0.809" height="14.35"/>
                        </g>
                        <g transform="matrix(1.17619,0.382166,-0.333791,1.0273,7.11363,-69.2801)">
                            <rect x="191.779" y="36.712" width="0.809" height="14.35"/>
                        </g>
                        <g transform="matrix(1.20969,0.257128,-0.22458,1.05656,-17.6988,-50.1733)">
                            <rect x="191.779" y="36.712" width="0.809" height="14.35"/>
                        </g>
                    </g>
                    <g id="Second-Fraction-Marks2" serif:id="Second Fraction Marks" transform="matrix(1,0,0,1,-0.000515182,0)">
                        <g transform="matrix(0.361463,0.192193,-0.217887,0.409785,193.988,-20.0519)">
                            <rect x="188.112" y="86.315" width="2.443" height="12.928" style="fill:rgb(18,14,11);"/>
                        </g>
                        <g transform="matrix(0.36795,0.179461,-0.203453,0.41714,187.1,-20.5246)">
                            <rect x="188.112" y="86.315" width="2.443" height="12.928" style="fill:rgb(18,14,11);"/>
                        </g>
                        <g transform="matrix(0.379572,0.153357,-0.173859,0.430316,173.297,-20.748)">
                            <rect x="188.112" y="86.315" width="2.443" height="12.928" style="fill:rgb(18,14,11);"/>
                        </g>
                        <g transform="matrix(0.384693,0.140017,-0.158735,0.436121,166.398,-20.4983)">
                            <rect x="188.112" y="86.315" width="2.443" height="12.928" style="fill:rgb(18,14,11);"/>
                        </g>
                        <g transform="matrix(0.393523,0.112841,-0.127926,0.446132,152.648,-19.2776)">
                            <rect x="188.112" y="86.315" width="2.443" height="12.928" style="fill:rgb(18,14,11);"/>
                        </g>
                        <g transform="matrix(0.397221,0.0990384,-0.112279,0.450325,145.813,-18.3081)">
                            <rect x="188.112" y="86.315" width="2.443" height="12.928" style="fill:rgb(18,14,11);"/>
                        </g>
                        <g transform="matrix(0.403162,0.0710884,-0.080592,0.45706,132.265,-15.6568)">
                            <rect x="188.112" y="86.315" width="2.443" height="12.928" style="fill:rgb(18,14,11);"/>
                        </g>
                        <g transform="matrix(0.405398,0.0569749,-0.0645917,0.459594,125.569,-13.9781)">
                            <rect x="188.112" y="86.315" width="2.443" height="12.928" style="fill:rgb(18,14,11);"/>
                        </g>
                        <g transform="matrix(0.408384,0.028557,-0.0323747,0.46298,112.372,-9.9252)">
                            <rect x="188.112" y="86.315" width="2.443" height="12.928" style="fill:rgb(18,14,11);"/>
                        </g>
                        <g transform="matrix(0.409132,0.0142872,-0.0161972,0.463828,105.888,-7.55582)">
                            <rect x="188.112" y="86.315" width="2.443" height="12.928" style="fill:rgb(18,14,11);"/>
                        </g>
                    </g>
                    <g transform="matrix(0.818763,0,0,0.464111,21.9805,-4.9616)">
                        <g id="Hour-Marks2" serif:id="Hour Marks">
                            <rect x="188.112" y="86.315" width="2.443" height="12.928" style="fill:rgb(18,14,11);"/>
                        </g>
                    </g>
                </g>
            </g>
            <g id="_30-45-Second-Marks" serif:id="30-45 Second Marks" transform="matrix(-1,-1.22465e-16,1.22465e-16,-1,353.997,353.997)">
                <g id="_10-15-Second-Marks1" serif:id="10-15 Second Marks" transform="matrix(0.5,0.866025,-0.866025,0.5,241.786,-64.7844)">
                    <g id="Second-Marks4" serif:id="Second Marks">
                        <g transform="matrix(1.22994,0.129272,-0.112908,1.07425,-40.3781,-28.5775)">
                            <rect x="191.779" y="36.712" width="0.809" height="14.35"/>
                        </g>
                        <g transform="matrix(1.1298,0.503017,-0.439344,0.986783,33.7873,-85.6887)">
                            <rect x="191.779" y="36.712" width="0.809" height="14.35"/>
                        </g>
                        <g transform="matrix(1.17619,0.382166,-0.333791,1.0273,7.11363,-69.2801)">
                            <rect x="191.779" y="36.712" width="0.809" height="14.35"/>
                        </g>
                        <g transform="matrix(1.20969,0.257128,-0.22458,1.05656,-17.6988,-50.1733)">
                            <rect x="191.779" y="36.712" width="0.809" height="14.35"/>
                        </g>
                    </g>
                    <g id="Second-Fraction-Marks3" serif:id="Second Fraction Marks" transform="matrix(1,0,0,1,-0.000515182,0)">
                        <g transform="matrix(0.361463,0.192193,-0.217887,0.409785,193.988,-20.0519)">
                            <rect x="188.112" y="86.315" width="2.443" height="12.928" style="fill:rgb(18,14,11);"/>
                        </g>
                        <g transform="matrix(0.36795,0.179461,-0.203453,0.41714,187.1,-20.5246)">
                            <rect x="188.112" y="86.315" width="2.443" height="12.928" style="fill:rgb(18,14,11);"/>
                        </g>
                        <g transform="matrix(0.379572,0.153357,-0.173859,0.430316,173.297,-20.748)">
                            <rect x="188.112" y="86.315" width="2.443" height="12.928" style="fill:rgb(18,14,11);"/>
                        </g>
                        <g transform="matrix(0.384693,0.140017,-0.158735,0.436121,166.398,-20.4983)">
                            <rect x="188.112" y="86.315" width="2.443" height="12.928" style="fill:rgb(18,14,11);"/>
                        </g>
                        <g transform="matrix(0.393523,0.112841,-0.127926,0.446132,152.648,-19.2776)">
                            <rect x="188.112" y="86.315" width="2.443" height="12.928" style="fill:rgb(18,14,11);"/>
                        </g>
                        <g transform="matrix(0.397221,0.0990384,-0.112279,0.450325,145.813,-18.3081)">
                            <rect x="188.112" y="86.315" width="2.443" height="12.928" style="fill:rgb(18,14,11);"/>
                        </g>
                        <g transform="matrix(0.403162,0.0710884,-0.080592,0.45706,132.265,-15.6568)">
                            <rect x="188.112" y="86.315" width="2.443" height="12.928" style="fill:rgb(18,14,11);"/>
                        </g>
                        <g transform="matrix(0.405398,0.0569749,-0.0645917,0.459594,125.569,-13.9781)">
                            <rect x="188.112" y="86.315" width="2.443" height="12.928" style="fill:rgb(18,14,11);"/>
                        </g>
                        <g transform="matrix(0.408384,0.028557,-0.0323747,0.46298,112.372,-9.9252)">
                            <rect x="188.112" y="86.315" width="2.443" height="12.928" style="fill:rgb(18,14,11);"/>
                        </g>
                        <g transform="matrix(0.409132,0.0142872,-0.0161972,0.463828,105.888,-7.55582)">
                            <rect x="188.112" y="86.315" width="2.443" height="12.928" style="fill:rgb(18,14,11);"/>
                        </g>
                    </g>
                    <g transform="matrix(0.818763,0,0,0.464111,21.9805,-4.9616)">
                        <g id="Hour-Marks3" serif:id="Hour Marks">
                            <rect x="188.112" y="86.315" width="2.443" height="12.928" style="fill:rgb(18,14,11);"/>
                        </g>
                    </g>
                </g>
                <g id="_5-10-Second-Marks1" serif:id="5-10 Second Marks" transform="matrix(0.866025,0.5,-0.5,0.866025,112.213,-64.7854)">
                    <g id="Second-Marks5" serif:id="Second Marks">
                        <g transform="matrix(1.22994,0.129272,-0.112908,1.07425,-40.3781,-28.5775)">
                            <rect x="191.779" y="36.712" width="0.809" height="14.35"/>
                        </g>
                        <g transform="matrix(1.1298,0.503017,-0.439344,0.986783,33.7873,-85.6887)">
                            <rect x="191.779" y="36.712" width="0.809" height="14.35"/>
                        </g>
                        <g transform="matrix(1.17619,0.382166,-0.333791,1.0273,7.11363,-69.2801)">
                            <rect x="191.779" y="36.712" width="0.809" height="14.35"/>
                        </g>
                        <g transform="matrix(1.20969,0.257128,-0.22458,1.05656,-17.6988,-50.1733)">
                            <rect x="191.779" y="36.712" width="0.809" height="14.35"/>
                        </g>
                    </g>
                    <g id="Second-Fraction-Marks4" serif:id="Second Fraction Marks" transform="matrix(1,0,0,1,-0.000515182,0)">
                        <g transform="matrix(0.361463,0.192193,-0.217887,0.409785,193.988,-20.0519)">
                            <rect x="188.112" y="86.315" width="2.443" height="12.928" style="fill:rgb(18,14,11);"/>
                        </g>
                        <g transform="matrix(0.36795,0.179461,-0.203453,0.41714,187.1,-20.5246)">
                            <rect x="188.112" y="86.315" width="2.443" height="12.928" style="fill:rgb(18,14,11);"/>
                        </g>
                        <g transform="matrix(0.379572,0.153357,-0.173859,0.430316,173.297,-20.748)">
                            <rect x="188.112" y="86.315" width="2.443" height="12.928" style="fill:rgb(18,14,11);"/>
                        </g>
                        <g transform="matrix(0.384693,0.140017,-0.158735,0.436121,166.398,-20.4983)">
                            <rect x="188.112" y="86.315" width="2.443" height="12.928" style="fill:rgb(18,14,11);"/>
                        </g>
                        <g transform="matrix(0.393523,0.112841,-0.127926,0.446132,152.648,-19.2776)">
                            <rect x="188.112" y="86.315" width="2.443" height="12.928" style="fill:rgb(18,14,11);"/>
                        </g>
                        <g transform="matrix(0.397221,0.0990384,-0.112279,0.450325,145.813,-18.3081)">
                            <rect x="188.112" y="86.315" width="2.443" height="12.928" style="fill:rgb(18,14,11);"/>
                        </g>
                        <g transform="matrix(0.403162,0.0710884,-0.080592,0.45706,132.265,-15.6568)">
                            <rect x="188.112" y="86.315" width="2.443" height="12.928" style="fill:rgb(18,14,11);"/>
                        </g>
                        <g transform="matrix(0.405398,0.0569749,-0.0645917,0.459594,125.569,-13.9781)">
                            <rect x="188.112" y="86.315" width="2.443" height="12.928" style="fill:rgb(18,14,11);"/>
                        </g>
                        <g transform="matrix(0.408384,0.028557,-0.0323747,0.46298,112.372,-9.9252)">
                            <rect x="188.112" y="86.315" width="2.443" height="12.928" style="fill:rgb(18,14,11);"/>
                        </g>
                        <g transform="matrix(0.409132,0.0142872,-0.0161972,0.463828,105.888,-7.55582)">
                            <rect x="188.112" y="86.315" width="2.443" height="12.928" style="fill:rgb(18,14,11);"/>
                        </g>
                    </g>
                    <g transform="matrix(0.818763,0,0,0.464111,21.9805,-4.9616)">
                        <g id="Hour-Marks4" serif:id="Hour Marks">
                            <rect x="188.112" y="86.315" width="2.443" height="12.928" style="fill:rgb(18,14,11);"/>
                        </g>
                    </g>
                </g>
                <g id="_0-5-Second-Marks1" serif:id="0-5 Second Marks">
                    <g id="Second-Marks6" serif:id="Second Marks">
                        <g transform="matrix(1.22994,0.129272,-0.112908,1.07425,-40.3781,-28.5775)">
                            <rect x="191.779" y="36.712" width="0.809" height="14.35"/>
                        </g>
                        <g transform="matrix(1.1298,0.503017,-0.439344,0.986783,33.7873,-85.6887)">
                            <rect x="191.779" y="36.712" width="0.809" height="14.35"/>
                        </g>
                        <g transform="matrix(1.17619,0.382166,-0.333791,1.0273,7.11363,-69.2801)">
                            <rect x="191.779" y="36.712" width="0.809" height="14.35"/>
                        </g>
                        <g transform="matrix(1.20969,0.257128,-0.22458,1.05656,-17.6988,-50.1733)">
                            <rect x="191.779" y="36.712" width="0.809" height="14.35"/>
                        </g>
                    </g>
                    <g id="Second-Fraction-Marks5" serif:id="Second Fraction Marks" transform="matrix(1,0,0,1,-0.000515182,0)">
                        <g transform="matrix(0.361463,0.192193,-0.217887,0.409785,193.988,-20.0519)">
                            <rect x="188.112" y="86.315" width="2.443" height="12.928" style="fill:rgb(18,14,11);"/>
                        </g>
                        <g transform="matrix(0.36795,0.179461,-0.203453,0.41714,187.1,-20.5246)">
                            <rect x="188.112" y="86.315" width="2.443" height="12.928" style="fill:rgb(18,14,11);"/>
                        </g>
                        <g transform="matrix(0.379572,0.153357,-0.173859,0.430316,173.297,-20.748)">
                            <rect x="188.112" y="86.315" width="2.443" height="12.928" style="fill:rgb(18,14,11);"/>
                        </g>
                        <g transform="matrix(0.384693,0.140017,-0.158735,0.436121,166.398,-20.4983)">
                            <rect x="188.112" y="86.315" width="2.443" height="12.928" style="fill:rgb(18,14,11);"/>
                        </g>
                        <g transform="matrix(0.393523,0.112841,-0.127926,0.446132,152.648,-19.2776)">
                            <rect x="188.112" y="86.315" width="2.443" height="12.928" style="fill:rgb(18,14,11);"/>
                        </g>
                        <g transform="matrix(0.397221,0.0990384,-0.112279,0.450325,145.813,-18.3081)">
                            <rect x="188.112" y="86.315" width="2.443" height="12.928" style="fill:rgb(18,14,11);"/>
                        </g>
                        <g transform="matrix(0.403162,0.0710884,-0.080592,0.45706,132.265,-15.6568)">
                            <rect x="188.112" y="86.315" width="2.443" height="12.928" style="fill:rgb(18,14,11);"/>
                        </g>
                        <g transform="matrix(0.405398,0.0569749,-0.0645917,0.459594,125.569,-13.9781)">
                            <rect x="188.112" y="86.315" width="2.443" height="12.928" style="fill:rgb(18,14,11);"/>
                        </g>
                        <g transform="matrix(0.408384,0.028557,-0.0323747,0.46298,112.372,-9.9252)">
                            <rect x="188.112" y="86.315" width="2.443" height="12.928" style="fill:rgb(18,14,11);"/>
                        </g>
                        <g transform="matrix(0.409132,0.0142872,-0.0161972,0.463828,105.888,-7.55582)">
                            <rect x="188.112" y="86.315" width="2.443" height="12.928" style="fill:rgb(18,14,11);"/>
                        </g>
                    </g>
                    <g transform="matrix(0.818763,0,0,0.464111,21.9805,-4.9616)">
                        <g id="Hour-Marks5" serif:id="Hour Marks">
                            <rect x="188.112" y="86.315" width="2.443" height="12.928" style="fill:rgb(18,14,11);"/>
                        </g>
                    </g>
                </g>
            </g>
            <g id="_15-30-Second-Marks" serif:id="15-30 Second Marks" transform="matrix(0,1,-1,0,353.997,9.33092e-06)">
                <g id="_10-15-Second-Marks2" serif:id="10-15 Second Marks" transform="matrix(0.5,0.866025,-0.866025,0.5,241.786,-64.7844)">
                    <g id="Second-Marks7" serif:id="Second Marks">
                        <g transform="matrix(1.22994,0.129272,-0.112908,1.07425,-40.3781,-28.5775)">
                            <rect x="191.779" y="36.712" width="0.809" height="14.35"/>
                        </g>
                        <g transform="matrix(1.1298,0.503017,-0.439344,0.986783,33.7873,-85.6887)">
                            <rect x="191.779" y="36.712" width="0.809" height="14.35"/>
                        </g>
                        <g transform="matrix(1.17619,0.382166,-0.333791,1.0273,7.11363,-69.2801)">
                            <rect x="191.779" y="36.712" width="0.809" height="14.35"/>
                        </g>
                        <g transform="matrix(1.20969,0.257128,-0.22458,1.05656,-17.6988,-50.1733)">
                            <rect x="191.779" y="36.712" width="0.809" height="14.35"/>
                        </g>
                    </g>
                    <g id="Second-Fraction-Marks6" serif:id="Second Fraction Marks" transform="matrix(1,0,0,1,-0.000515182,0)">
                        <g transform="matrix(0.361463,0.192193,-0.217887,0.409785,193.988,-20.0519)">
                            <rect x="188.112" y="86.315" width="2.443" height="12.928" style="fill:rgb(18,14,11);"/>
                        </g>
                        <g transform="matrix(0.36795,0.179461,-0.203453,0.41714,187.1,-20.5246)">
                            <rect x="188.112" y="86.315" width="2.443" height="12.928" style="fill:rgb(18,14,11);"/>
                        </g>
                        <g transform="matrix(0.379572,0.153357,-0.173859,0.430316,173.297,-20.748)">
                            <rect x="188.112" y="86.315" width="2.443" height="12.928" style="fill:rgb(18,14,11);"/>
                        </g>
                        <g transform="matrix(0.384693,0.140017,-0.158735,0.436121,166.398,-20.4983)">
                            <rect x="188.112" y="86.315" width="2.443" height="12.928" style="fill:rgb(18,14,11);"/>
                        </g>
                        <g transform="matrix(0.393523,0.112841,-0.127926,0.446132,152.648,-19.2776)">
                            <rect x="188.112" y="86.315" width="2.443" height="12.928" style="fill:rgb(18,14,11);"/>
                        </g>
                        <g transform="matrix(0.397221,0.0990384,-0.112279,0.450325,145.813,-18.3081)">
                            <rect x="188.112" y="86.315" width="2.443" height="12.928" style="fill:rgb(18,14,11);"/>
                        </g>
                        <g transform="matrix(0.403162,0.0710884,-0.080592,0.45706,132.265,-15.6568)">
                            <rect x="188.112" y="86.315" width="2.443" height="12.928" style="fill:rgb(18,14,11);"/>
                        </g>
                        <g transform="matrix(0.405398,0.0569749,-0.0645917,0.459594,125.569,-13.9781)">
                            <rect x="188.112" y="86.315" width="2.443" height="12.928" style="fill:rgb(18,14,11);"/>
                        </g>
                        <g transform="matrix(0.408384,0.028557,-0.0323747,0.46298,112.372,-9.9252)">
                            <rect x="188.112" y="86.315" width="2.443" height="12.928" style="fill:rgb(18,14,11);"/>
                        </g>
                        <g transform="matrix(0.409132,0.0142872,-0.0161972,0.463828,105.888,-7.55582)">
                            <rect x="188.112" y="86.315" width="2.443" height="12.928" style="fill:rgb(18,14,11);"/>
                        </g>
                    </g>
                    <g transform="matrix(0.818763,0,0,0.464111,21.9805,-4.9616)">
                        <g id="Hour-Marks6" serif:id="Hour Marks">
                            <rect x="188.112" y="86.315" width="2.443" height="12.928" style="fill:rgb(18,14,11);"/>
                        </g>
                    </g>
                </g>
                <g id="_5-10-Second-Marks2" serif:id="5-10 Second Marks" transform="matrix(0.866025,0.5,-0.5,0.866025,112.213,-64.7854)">
                    <g id="Second-Marks8" serif:id="Second Marks">
                        <g transform="matrix(1.22994,0.129272,-0.112908,1.07425,-40.3781,-28.5775)">
                            <rect x="191.779" y="36.712" width="0.809" height="14.35"/>
                        </g>
                        <g transform="matrix(1.1298,0.503017,-0.439344,0.986783,33.7873,-85.6887)">
                            <rect x="191.779" y="36.712" width="0.809" height="14.35"/>
                        </g>
                        <g transform="matrix(1.17619,0.382166,-0.333791,1.0273,7.11363,-69.2801)">
                            <rect x="191.779" y="36.712" width="0.809" height="14.35"/>
                        </g>
                        <g transform="matrix(1.20969,0.257128,-0.22458,1.05656,-17.6988,-50.1733)">
                            <rect x="191.779" y="36.712" width="0.809" height="14.35"/>
                        </g>
                    </g>
                    <g id="Second-Fraction-Marks7" serif:id="Second Fraction Marks" transform="matrix(1,0,0,1,-0.000515182,0)">
                        <g transform="matrix(0.361463,0.192193,-0.217887,0.409785,193.988,-20.0519)">
                            <rect x="188.112" y="86.315" width="2.443" height="12.928" style="fill:rgb(18,14,11);"/>
                        </g>
                        <g transform="matrix(0.36795,0.179461,-0.203453,0.41714,187.1,-20.5246)">
                            <rect x="188.112" y="86.315" width="2.443" height="12.928" style="fill:rgb(18,14,11);"/>
                        </g>
                        <g transform="matrix(0.379572,0.153357,-0.173859,0.430316,173.297,-20.748)">
                            <rect x="188.112" y="86.315" width="2.443" height="12.928" style="fill:rgb(18,14,11);"/>
                        </g>
                        <g transform="matrix(0.384693,0.140017,-0.158735,0.436121,166.398,-20.4983)">
                            <rect x="188.112" y="86.315" width="2.443" height="12.928" style="fill:rgb(18,14,11);"/>
                        </g>
                        <g transform="matrix(0.393523,0.112841,-0.127926,0.446132,152.648,-19.2776)">
                            <rect x="188.112" y="86.315" width="2.443" height="12.928" style="fill:rgb(18,14,11);"/>
                        </g>
                        <g transform="matrix(0.397221,0.0990384,-0.112279,0.450325,145.813,-18.3081)">
                            <rect x="188.112" y="86.315" width="2.443" height="12.928" style="fill:rgb(18,14,11);"/>
                        </g>
                        <g transform="matrix(0.403162,0.0710884,-0.080592,0.45706,132.265,-15.6568)">
                            <rect x="188.112" y="86.315" width="2.443" height="12.928" style="fill:rgb(18,14,11);"/>
                        </g>
                        <g transform="matrix(0.405398,0.0569749,-0.0645917,0.459594,125.569,-13.9781)">
                            <rect x="188.112" y="86.315" width="2.443" height="12.928" style="fill:rgb(18,14,11);"/>
                        </g>
                        <g transform="matrix(0.408384,0.028557,-0.0323747,0.46298,112.372,-9.9252)">
                            <rect x="188.112" y="86.315" width="2.443" height="12.928" style="fill:rgb(18,14,11);"/>
                        </g>
                        <g transform="matrix(0.409132,0.0142872,-0.0161972,0.463828,105.888,-7.55582)">
                            <rect x="188.112" y="86.315" width="2.443" height="12.928" style="fill:rgb(18,14,11);"/>
                        </g>
                    </g>
                    <g transform="matrix(0.818763,0,0,0.464111,21.9805,-4.9616)">
                        <g id="Hour-Marks7" serif:id="Hour Marks">
                            <rect x="188.112" y="86.315" width="2.443" height="12.928" style="fill:rgb(18,14,11);"/>
                        </g>
                    </g>
                </g>
                <g id="_0-5-Second-Marks2" serif:id="0-5 Second Marks">
                    <g id="Second-Marks9" serif:id="Second Marks">
                        <g transform="matrix(1.22994,0.129272,-0.112908,1.07425,-40.3781,-28.5775)">
                            <rect x="191.779" y="36.712" width="0.809" height="14.35"/>
                        </g>
                        <g transform="matrix(1.1298,0.503017,-0.439344,0.986783,33.7873,-85.6887)">
                            <rect x="191.779" y="36.712" width="0.809" height="14.35"/>
                        </g>
                        <g transform="matrix(1.17619,0.382166,-0.333791,1.0273,7.11363,-69.2801)">
                            <rect x="191.779" y="36.712" width="0.809" height="14.35"/>
                        </g>
                        <g transform="matrix(1.20969,0.257128,-0.22458,1.05656,-17.6988,-50.1733)">
                            <rect x="191.779" y="36.712" width="0.809" height="14.35"/>
                        </g>
                    </g>
                    <g id="Second-Fraction-Marks8" serif:id="Second Fraction Marks" transform="matrix(1,0,0,1,-0.000515182,0)">
                        <g transform="matrix(0.361463,0.192193,-0.217887,0.409785,193.988,-20.0519)">
                            <rect x="188.112" y="86.315" width="2.443" height="12.928" style="fill:rgb(18,14,11);"/>
                        </g>
                        <g transform="matrix(0.36795,0.179461,-0.203453,0.41714,187.1,-20.5246)">
                            <rect x="188.112" y="86.315" width="2.443" height="12.928" style="fill:rgb(18,14,11);"/>
                        </g>
                        <g transform="matrix(0.379572,0.153357,-0.173859,0.430316,173.297,-20.748)">
                            <rect x="188.112" y="86.315" width="2.443" height="12.928" style="fill:rgb(18,14,11);"/>
                        </g>
                        <g transform="matrix(0.384693,0.140017,-0.158735,0.436121,166.398,-20.4983)">
                            <rect x="188.112" y="86.315" width="2.443" height="12.928" style="fill:rgb(18,14,11);"/>
                        </g>
                        <g transform="matrix(0.393523,0.112841,-0.127926,0.446132,152.648,-19.2776)">
                            <rect x="188.112" y="86.315" width="2.443" height="12.928" style="fill:rgb(18,14,11);"/>
                        </g>
                        <g transform="matrix(0.397221,0.0990384,-0.112279,0.450325,145.813,-18.3081)">
                            <rect x="188.112" y="86.315" width="2.443" height="12.928" style="fill:rgb(18,14,11);"/>
                        </g>
                        <g transform="matrix(0.403162,0.0710884,-0.080592,0.45706,132.265,-15.6568)">
                            <rect x="188.112" y="86.315" width="2.443" height="12.928" style="fill:rgb(18,14,11);"/>
                        </g>
                        <g transform="matrix(0.405398,0.0569749,-0.0645917,0.459594,125.569,-13.9781)">
                            <rect x="188.112" y="86.315" width="2.443" height="12.928" style="fill:rgb(18,14,11);"/>
                        </g>
                        <g transform="matrix(0.408384,0.028557,-0.0323747,0.46298,112.372,-9.9252)">
                            <rect x="188.112" y="86.315" width="2.443" height="12.928" style="fill:rgb(18,14,11);"/>
                        </g>
                        <g transform="matrix(0.409132,0.0142872,-0.0161972,0.463828,105.888,-7.55582)">
                            <rect x="188.112" y="86.315" width="2.443" height="12.928" style="fill:rgb(18,14,11);"/>
                        </g>
                    </g>
                    <g transform="matrix(0.818763,0,0,0.464111,21.9805,-4.9616)">
                        <g id="Hour-Marks8" serif:id="Hour Marks">
                            <rect x="188.112" y="86.315" width="2.443" height="12.928" style="fill:rgb(18,14,11);"/>
                        </g>
                    </g>
                </g>
            </g>
            <g id="_0-15-Second-Marks" serif:id="0-15 Second Marks">
                <g id="_10-15-Second-Marks3" serif:id="10-15 Second Marks" transform="matrix(0.5,0.866025,-0.866025,0.5,241.786,-64.7844)">
                    <g id="Second-Marks10" serif:id="Second Marks">
                        <g transform="matrix(1.22994,0.129272,-0.112908,1.07425,-40.3781,-28.5775)">
                            <rect x="191.779" y="36.712" width="0.809" height="14.35"/>
                        </g>
                        <g transform="matrix(1.1298,0.503017,-0.439344,0.986783,33.7873,-85.6887)">
                            <rect x="191.779" y="36.712" width="0.809" height="14.35"/>
                        </g>
                        <g transform="matrix(1.17619,0.382166,-0.333791,1.0273,7.11363,-69.2801)">
                            <rect x="191.779" y="36.712" width="0.809" height="14.35"/>
                        </g>
                        <g transform="matrix(1.20969,0.257128,-0.22458,1.05656,-17.6988,-50.1733)">
                            <rect x="191.779" y="36.712" width="0.809" height="14.35"/>
                        </g>
                    </g>
                    <g id="Second-Fraction-Marks9" serif:id="Second Fraction Marks" transform="matrix(1,0,0,1,-0.000515182,0)">
                        <g transform="matrix(0.361463,0.192193,-0.217887,0.409785,193.988,-20.0519)">
                            <rect x="188.112" y="86.315" width="2.443" height="12.928" style="fill:rgb(18,14,11);"/>
                        </g>
                        <g transform="matrix(0.36795,0.179461,-0.203453,0.41714,187.1,-20.5246)">
                            <rect x="188.112" y="86.315" width="2.443" height="12.928" style="fill:rgb(18,14,11);"/>
                        </g>
                        <g transform="matrix(0.379572,0.153357,-0.173859,0.430316,173.297,-20.748)">
                            <rect x="188.112" y="86.315" width="2.443" height="12.928" style="fill:rgb(18,14,11);"/>
                        </g>
                        <g transform="matrix(0.384693,0.140017,-0.158735,0.436121,166.398,-20.4983)">
                            <rect x="188.112" y="86.315" width="2.443" height="12.928" style="fill:rgb(18,14,11);"/>
                        </g>
                        <g transform="matrix(0.393523,0.112841,-0.127926,0.446132,152.648,-19.2776)">
                            <rect x="188.112" y="86.315" width="2.443" height="12.928" style="fill:rgb(18,14,11);"/>
                        </g>
                        <g transform="matrix(0.397221,0.0990384,-0.112279,0.450325,145.813,-18.3081)">
                            <rect x="188.112" y="86.315" width="2.443" height="12.928" style="fill:rgb(18,14,11);"/>
                        </g>
                        <g transform="matrix(0.403162,0.0710884,-0.080592,0.45706,132.265,-15.6568)">
                            <rect x="188.112" y="86.315" width="2.443" height="12.928" style="fill:rgb(18,14,11);"/>
                        </g>
                        <g transform="matrix(0.405398,0.0569749,-0.0645917,0.459594,125.569,-13.9781)">
                            <rect x="188.112" y="86.315" width="2.443" height="12.928" style="fill:rgb(18,14,11);"/>
                        </g>
                        <g transform="matrix(0.408384,0.028557,-0.0323747,0.46298,112.372,-9.9252)">
                            <rect x="188.112" y="86.315" width="2.443" height="12.928" style="fill:rgb(18,14,11);"/>
                        </g>
                        <g transform="matrix(0.409132,0.0142872,-0.0161972,0.463828,105.888,-7.55582)">
                            <rect x="188.112" y="86.315" width="2.443" height="12.928" style="fill:rgb(18,14,11);"/>
                        </g>
                    </g>
                    <g transform="matrix(0.818763,0,0,0.464111,21.9805,-4.9616)">
                        <g id="Hour-Marks9" serif:id="Hour Marks">
                            <rect x="188.112" y="86.315" width="2.443" height="12.928" style="fill:rgb(18,14,11);"/>
                        </g>
                    </g>
                </g>
                <g id="_5-10-Second-Marks3" serif:id="5-10 Second Marks" transform="matrix(0.866025,0.5,-0.5,0.866025,112.213,-64.7854)">
                    <g id="Second-Marks11" serif:id="Second Marks">
                        <g transform="matrix(1.22994,0.129272,-0.112908,1.07425,-40.3781,-28.5775)">
                            <rect x="191.779" y="36.712" width="0.809" height="14.35"/>
                        </g>
                        <g transform="matrix(1.1298,0.503017,-0.439344,0.986783,33.7873,-85.6887)">
                            <rect x="191.779" y="36.712" width="0.809" height="14.35"/>
                        </g>
                        <g transform="matrix(1.17619,0.382166,-0.333791,1.0273,7.11363,-69.2801)">
                            <rect x="191.779" y="36.712" width="0.809" height="14.35"/>
                        </g>
                        <g transform="matrix(1.20969,0.257128,-0.22458,1.05656,-17.6988,-50.1733)">
                            <rect x="191.779" y="36.712" width="0.809" height="14.35"/>
                        </g>
                    </g>
                    <g id="Second-Fraction-Marks10" serif:id="Second Fraction Marks" transform="matrix(1,0,0,1,-0.000515182,0)">
                        <g transform="matrix(0.361463,0.192193,-0.217887,0.409785,193.988,-20.0519)">
                            <rect x="188.112" y="86.315" width="2.443" height="12.928" style="fill:rgb(18,14,11);"/>
                        </g>
                        <g transform="matrix(0.36795,0.179461,-0.203453,0.41714,187.1,-20.5246)">
                            <rect x="188.112" y="86.315" width="2.443" height="12.928" style="fill:rgb(18,14,11);"/>
                        </g>
                        <g transform="matrix(0.379572,0.153357,-0.173859,0.430316,173.297,-20.748)">
                            <rect x="188.112" y="86.315" width="2.443" height="12.928" style="fill:rgb(18,14,11);"/>
                        </g>
                        <g transform="matrix(0.384693,0.140017,-0.158735,0.436121,166.398,-20.4983)">
                            <rect x="188.112" y="86.315" width="2.443" height="12.928" style="fill:rgb(18,14,11);"/>
                        </g>
                        <g transform="matrix(0.393523,0.112841,-0.127926,0.446132,152.648,-19.2776)">
                            <rect x="188.112" y="86.315" width="2.443" height="12.928" style="fill:rgb(18,14,11);"/>
                        </g>
                        <g transform="matrix(0.397221,0.0990384,-0.112279,0.450325,145.813,-18.3081)">
                            <rect x="188.112" y="86.315" width="2.443" height="12.928" style="fill:rgb(18,14,11);"/>
                        </g>
                        <g transform="matrix(0.403162,0.0710884,-0.080592,0.45706,132.265,-15.6568)">
                            <rect x="188.112" y="86.315" width="2.443" height="12.928" style="fill:rgb(18,14,11);"/>
                        </g>
                        <g transform="matrix(0.405398,0.0569749,-0.0645917,0.459594,125.569,-13.9781)">
                            <rect x="188.112" y="86.315" width="2.443" height="12.928" style="fill:rgb(18,14,11);"/>
                        </g>
                        <g transform="matrix(0.408384,0.028557,-0.0323747,0.46298,112.372,-9.9252)">
                            <rect x="188.112" y="86.315" width="2.443" height="12.928" style="fill:rgb(18,14,11);"/>
                        </g>
                        <g transform="matrix(0.409132,0.0142872,-0.0161972,0.463828,105.888,-7.55582)">
                            <rect x="188.112" y="86.315" width="2.443" height="12.928" style="fill:rgb(18,14,11);"/>
                        </g>
                    </g>
                    <g transform="matrix(0.818763,0,0,0.464111,21.9805,-4.9616)">
                        <g id="Hour-Marks10" serif:id="Hour Marks">
                            <rect x="188.112" y="86.315" width="2.443" height="12.928" style="fill:rgb(18,14,11);"/>
                        </g>
                    </g>
                </g>
                <g id="_0-5-Second-Marks3" serif:id="0-5 Second Marks">
                    <g id="Second-Marks12" serif:id="Second Marks">
                        <g transform="matrix(1.22994,0.129272,-0.112908,1.07425,-40.3781,-28.5775)">
                            <rect x="191.779" y="36.712" width="0.809" height="14.35"/>
                        </g>
                        <g transform="matrix(1.1298,0.503017,-0.439344,0.986783,33.7873,-85.6887)">
                            <rect x="191.779" y="36.712" width="0.809" height="14.35"/>
                        </g>
                        <g transform="matrix(1.17619,0.382166,-0.333791,1.0273,7.11363,-69.2801)">
                            <rect x="191.779" y="36.712" width="0.809" height="14.35"/>
                        </g>
                        <g transform="matrix(1.20969,0.257128,-0.22458,1.05656,-17.6988,-50.1733)">
                            <rect x="191.779" y="36.712" width="0.809" height="14.35"/>
                        </g>
                    </g>
                    <g id="Second-Fraction-Marks11" serif:id="Second Fraction Marks" transform="matrix(1,0,0,1,-0.000515182,0)">
                        <g transform="matrix(0.361463,0.192193,-0.217887,0.409785,193.988,-20.0519)">
                            <rect x="188.112" y="86.315" width="2.443" height="12.928" style="fill:rgb(18,14,11);"/>
                        </g>
                        <g transform="matrix(0.36795,0.179461,-0.203453,0.41714,187.1,-20.5246)">
                            <rect x="188.112" y="86.315" width="2.443" height="12.928" style="fill:rgb(18,14,11);"/>
                        </g>
                        <g transform="matrix(0.379572,0.153357,-0.173859,0.430316,173.297,-20.748)">
                            <rect x="188.112" y="86.315" width="2.443" height="12.928" style="fill:rgb(18,14,11);"/>
                        </g>
                        <g transform="matrix(0.384693,0.140017,-0.158735,0.436121,166.398,-20.4983)">
                            <rect x="188.112" y="86.315" width="2.443" height="12.928" style="fill:rgb(18,14,11);"/>
                        </g>
                        <g transform="matrix(0.393523,0.112841,-0.127926,0.446132,152.648,-19.2776)">
                            <rect x="188.112" y="86.315" width="2.443" height="12.928" style="fill:rgb(18,14,11);"/>
                        </g>
                        <g transform="matrix(0.397221,0.0990384,-0.112279,0.450325,145.813,-18.3081)">
                            <rect x="188.112" y="86.315" width="2.443" height="12.928" style="fill:rgb(18,14,11);"/>
                        </g>
                        <g transform="matrix(0.403162,0.0710884,-0.080592,0.45706,132.265,-15.6568)">
                            <rect x="188.112" y="86.315" width="2.443" height="12.928" style="fill:rgb(18,14,11);"/>
                        </g>
                        <g transform="matrix(0.405398,0.0569749,-0.0645917,0.459594,125.569,-13.9781)">
                            <rect x="188.112" y="86.315" width="2.443" height="12.928" style="fill:rgb(18,14,11);"/>
                        </g>
                        <g transform="matrix(0.408384,0.028557,-0.0323747,0.46298,112.372,-9.9252)">
                            <rect x="188.112" y="86.315" width="2.443" height="12.928" style="fill:rgb(18,14,11);"/>
                        </g>
                        <g transform="matrix(0.409132,0.0142872,-0.0161972,0.463828,105.888,-7.55582)">
                            <rect x="188.112" y="86.315" width="2.443" height="12.928" style="fill:rgb(18,14,11);"/>
                        </g>
                    </g>
                    <g transform="matrix(0.818763,0,0,0.464111,21.9805,-4.9616)">
                        <g id="Hour-Marks11" serif:id="Hour Marks">
                            <rect x="188.112" y="86.315" width="2.443" height="12.928" style="fill:rgb(18,14,11);"/>
                        </g>
                    </g>
                </g>
            </g>
        </g>
        <g id="Hamilton-Text" serif:id="Hamilton Text" transform="matrix(0.851392,0,0,0.851392,23.8777,17.4753)">
            <path id="hamilton-N" d="M239.669,128.391L239.669,122.542C239.669,120.688 239.669,117.502 233.392,117.502C227.116,117.502 227.068,120.711 227.068,122.542L227.068,128.391L229.018,128.391L229.018,123.398C229.065,121.52 228.4,119.261 233.321,119.261C238.243,119.261 237.648,121.52 237.696,123.398L237.696,128.391L239.669,128.391Z" style="fill-rule:nonzero;"/>
            <path id="himilton-O" d="M223.921,122.732C223.921,118.358 220.688,117.098 216.86,117.098C212.937,117.098 209.799,118.31 209.799,122.732C209.799,127.154 212.913,128.367 216.86,128.367C220.498,128.391 223.921,127.154 223.921,122.732M211.582,122.756C211.582,119.475 214.126,118.833 216.86,118.833C219.451,118.833 222.138,119.475 222.138,122.756C222.138,126.013 219.523,126.703 216.86,126.703C214.102,126.679 211.582,125.989 211.582,122.756" style="fill-rule:nonzero;"/>
            <g id="hamilton-T" transform="matrix(0.0629045,0,0,0.0629045,131.083,50.29)">
                <path d="M1241.58,1096.82L1241.58,1069.98L1004.98,1069.98L1004.98,1096.82L1108.54,1096.82L1108.54,1241.58L1139.91,1241.58L1139.91,1096.82L1241.58,1096.82Z" style="fill-rule:nonzero;"/>
            </g>
            <g id="hamilton-L" transform="matrix(0.0629045,0,0,0.0629045,133.71,50.29)">
                <path d="M1003.47,1213.61L866.268,1213.61L866.268,1069.98L834.898,1069.98L834.898,1241.58L1003.47,1241.58L1003.47,1213.61Z" style="fill-rule:nonzero;"/>
            </g>
            <rect id="himilton-I" x="179.382" y="117.597" width="1.95" height="10.746"/>
            <path id="hamilton-M" d="M175.435,128.391L175.435,122.471C175.411,119.855 175.673,117.288 170.395,117.288C168.136,117.288 166.448,117.668 165.782,118.714C165.14,117.692 163.476,117.288 161.194,117.288C156.154,117.288 156.177,119.855 156.154,122.471L156.154,128.391L158.222,128.391L158.222,123.279C158.293,121.02 157.651,119.142 161.146,119.142C164.95,119.142 164.784,119.855 164.784,123.279L164.784,128.391L166.805,128.391L166.805,123.255C166.805,119.832 166.662,119.118 170.442,119.118C173.937,119.118 173.272,120.997 173.367,123.255L173.367,128.367L175.435,128.391Z" style="fill-rule:nonzero;"/>
            <path id="hamilton-A" d="M146.055,117.502C138.946,117.502 139.112,120.711 139.112,122.542L139.112,128.391L141.109,128.391L141.109,124.658L151.024,124.658L151.024,128.391L153.021,128.391L153.021,122.542C152.973,120.688 153.163,117.502 146.055,117.502M151,122.804L141.086,122.804C141.062,121.116 140.658,119.237 146.055,119.237C151.428,119.237 151.024,121.068 151,122.804" style="fill-rule:nonzero;"/>
            <path id="hamilton-H" d="M133.02,121.662L123.154,121.662L123.154,117.502L121.156,117.502L121.156,128.319L123.154,128.319L123.154,123.636L133.02,123.636L133.02,128.319L135.017,128.319L135.017,117.502L133.02,117.502L133.02,121.662Z" style="fill-rule:nonzero;"/>
        </g>
        <g id="Hour-Numbers" serif:id="Hour Numbers">
            <path d="M169.124,59.482C169.124,59.482 173.643,55.968 176.302,55.053C179.001,54.124 182.796,53.449 186.727,54.373C188.677,54.831 191.034,56.024 192.203,57.257C193.149,58.254 194.056,60.754 193.95,62.125C193.842,63.525 193.084,65.898 191.891,66.908C190.266,68.283 187.054,69.622 184.421,70.696C181.713,71.802 176.22,74.277 176.22,74.277L194.003,74.168L193.979,78.814L168.716,78.766C168.716,78.766 168.721,76.15 169.1,75.133C169.528,73.983 170.302,72.054 172.173,70.817C174.521,69.266 178.632,67.722 180.77,66.666C182.264,65.927 185.809,64.965 186.565,64.047C187.214,63.259 187.566,61.33 187.072,60.464C186.578,59.597 186.146,59.183 184.886,58.84C183.536,58.473 181.156,58.441 179.696,58.808C178.235,59.175 177.253,59.745 176.261,60.292C175.366,60.784 172.977,62.938 172.977,62.938L169.124,59.482Z" style="fill:rgb(223,199,147);stroke:black;stroke-width:0.83px;"/>
            <path d="M84.65,218.41C94.023,218.803 97.708,222.613 97.659,225.012C97.575,229.091 92.491,230.061 92.491,230.061C92.491,230.061 99.023,231.34 98.968,236.296C98.911,241.415 89.838,243.458 85.222,243.423C74.286,243.341 71.241,239.112 71.224,234.935C71.214,232.308 77.251,230.018 77.251,230.018C77.251,230.018 72.479,228.794 72.48,224.684C72.48,220.376 80.369,218.23 84.65,218.41ZM85.051,222.475C81.637,222.456 78.795,223.719 78.798,225.25C78.802,226.781 81.393,227.85 85.085,227.883C89.302,227.92 91.436,226.644 91.439,225.234C91.443,223.825 89.175,222.497 85.051,222.475ZM84.998,232.355C81.583,232.336 78.149,233.564 78.203,235.69C78.256,237.816 81.441,238.769 85.134,238.802C89.351,238.839 92.217,237.183 92.227,235.542C92.237,233.902 89.122,232.377 84.998,232.355Z" style="fill:rgb(223,199,147);stroke:rgb(1,1,0);stroke-width:0.83px;"/>
            <g transform="matrix(1,0,0,1,88.3984,54.5562)">
                <path d="M169.124,59.482C169.124,59.482 173.643,55.968 176.302,55.053C179.001,54.124 182.796,53.449 186.727,54.373C188.677,54.831 191.034,56.024 192.203,57.257C193.149,58.254 194.056,60.754 193.95,62.125C193.842,63.525 193.084,65.898 191.891,66.908C190.266,68.283 187.054,69.622 184.421,70.696C181.713,71.802 176.22,74.277 176.22,74.277L194.003,74.168L193.979,78.814L168.716,78.766C168.716,78.766 168.721,76.15 169.1,75.133C169.528,73.983 170.302,72.054 172.173,70.817C174.521,69.266 178.632,67.722 180.77,66.666C182.264,65.927 185.809,64.965 186.565,64.047C187.214,63.259 187.566,61.33 187.072,60.464C186.578,59.597 186.146,59.183 184.886,58.84C183.536,58.473 181.156,58.441 179.696,58.808C178.235,59.175 177.253,59.745 176.261,60.292C175.366,60.784 172.977,62.938 172.977,62.938L169.124,59.482Z" style="fill:rgb(223,199,147);stroke:black;stroke-width:0.83px;"/>
            </g>
            <g transform="matrix(1,0,0,1.03633,44.2827,-19.3617)">
                <path d="M116.461,71.554L121.186,71.563L121.202,95.04L116.475,95.069L116.461,71.554Z" style="fill:rgb(223,199,147);stroke:black;stroke-width:0.82px;"/>
            </g>
            <g transform="matrix(1,0,0,1.03633,-42.0532,38.0555)">
                <path d="M116.461,71.554L121.186,71.563L121.202,95.04L116.475,95.069L116.461,71.554Z" style="fill:rgb(223,199,147);stroke:black;stroke-width:0.82px;"/>
            </g>
            <g transform="matrix(1,0,0,1.03633,-0.00946021,-3.17262)">
                <path d="M116.461,71.554L121.186,71.563L121.202,95.04L116.475,95.069L116.461,71.554Z" style="fill:rgb(223,199,147);stroke:black;stroke-width:0.82px;"/>
            </g>
            <g transform="matrix(1,0,0,1.03633,10.2452,-3.5695)">
                <path d="M116.461,71.554L121.186,71.563L121.202,95.04L116.475,95.069L116.461,71.554Z" style="fill:rgb(223,199,147);stroke:black;stroke-width:0.82px;"/>
            </g>
            <g transform="matrix(1,0,0,1.03633,114,-5.31168)">
                <path d="M116.461,71.554L121.186,71.563L121.202,95.04L116.475,95.069L116.461,71.554Z" style="fill:rgb(223,199,147);stroke:black;stroke-width:0.82px;"/>
            </g>
            <path d="M94.623,111.983C102.478,112.004 108.025,117.212 108.032,124.482C108.038,130.601 104.404,137.258 95.011,137.195C84.929,137.127 81.012,131.2 81.055,125.282C81.104,118.568 84.766,111.955 94.623,111.983ZM94.965,116.583C89.789,116.646 87.342,120.669 87.407,125.032C87.481,129.923 90.813,132.802 94.73,132.767C100.07,132.72 101.945,128.394 101.925,124.362C101.902,119.971 98.842,116.536 94.965,116.583Z" style="fill:rgb(223,199,147);stroke:black;stroke-width:0.83px;"/>
            <path d="M252.222,234.633L263.944,218.8L278.934,218.77L278.807,234.446L282.192,234.456L282.088,239.149L278.989,239.107L278.915,243.037L272.967,243.026L272.957,238.968L252.277,238.852L252.222,234.633ZM258.725,234.426L272.754,234.46L272.888,223.253L267.549,223.22L258.725,234.426Z" style="fill:rgb(223,199,147);stroke:rgb(1,1,0);stroke-width:0.83px;"/>
            <path d="M72.944,175.662L72.713,180.641C72.713,180.641 67.657,181.628 65.127,181.388C61.267,181.022 58.901,180.071 57.3,178.249C55.707,176.437 54.475,173.455 55.521,170.458C56.26,168.343 60.529,162.43 73.785,165.076C78.695,166.056 82.677,170.992 82.501,177.104C82.338,182.78 77.314,188.827 70.306,189.654C60.29,190.835 55.849,186.395 55.849,186.395L58.418,182.574C58.418,182.574 62.687,185.071 65.209,185.127C68.315,185.197 75.358,186.071 75.724,177.316C76.117,167.892 67.89,168.925 66.08,169.273C64.512,169.574 61.879,170.44 61.925,172.942C62.015,177.907 68.321,176.512 69.588,176.391C70.797,176.275 72.944,175.662 72.944,175.662Z" style="fill:rgb(223,199,147);stroke:rgb(1,1,0);stroke-width:0.83px;"/>
            <path d="M115.404,261.048L140.862,261.198L140.222,265.745L126.131,285.491L118.386,285.216L132.815,266.115L115.487,265.645L115.404,261.048Z" style="fill:rgb(223,199,147);stroke:rgb(1,1,0);stroke-width:0.83px;"/>
            <path d="M187.302,282.365C187.302,282.365 182.634,280.109 180.335,279.899C177.204,279.614 171.301,279.952 170.27,285.856C169.327,291.256 170.527,295.404 177.187,295.755C179.177,295.86 183.727,296.474 184.128,291.774C184.267,290.155 182.693,288.448 178.805,288.118C177.371,287.996 173.089,289.403 173.089,289.403L172.945,284.674C172.945,284.674 177.165,283.447 179.324,283.534C182.959,283.678 186.035,284.781 187.564,285.968C189.31,287.323 190.796,289.031 190.913,291.425C191.011,293.431 189.622,296.025 188.017,297.43C186.412,298.835 183.046,300.753 177.453,300.799C171.06,300.851 167.439,298.229 165.976,296.264C164.547,294.344 163.399,290.648 163.604,288.262C164.178,281.589 167.21,275.81 176.694,275.348C184.405,274.973 190.586,278.27 190.586,278.27L187.302,282.365Z" style="fill:rgb(223,199,147);stroke:rgb(1,1,0);stroke-width:0.83px;"/>
            <path d="M219.113,272.794L219.237,258.803L243.641,258.981L243.258,263.595L225.7,263.704L225.4,267.847C225.4,267.847 236.659,267.099 240.363,268.9C243.395,270.373 245.5,273.064 245.146,275.951C244.448,281.655 236.815,283.587 235.596,283.626C232.121,283.739 218.632,283.68 218.632,283.68L219.2,278.764C219.2,278.764 223.749,279.036 228.309,278.819C236.478,278.431 237.473,278.217 238.226,275.444C239.324,271.403 225.96,273.668 220.605,274.139C219.16,274.266 219.113,272.794 219.113,272.794Z" style="fill:rgb(223,199,147);stroke:rgb(1,1,0);stroke-width:0.83px;"/>
            <path d="M275.808,172.701L272.522,169.452C272.522,169.452 277.806,164.889 284.482,164.79C295.893,164.62 297.711,168.943 297.938,169.868C299.182,174.937 294.969,176.672 294.969,176.672C294.969,176.672 299.045,178.292 299.161,180.852C299.45,187.203 295.178,188.714 291.581,189.449C284.558,190.884 277.916,188.937 276.192,188.324C274.633,187.769 271.736,186.134 271.736,186.134L273.779,181.85C273.779,181.85 278.261,184.185 280.438,184.764C282.508,185.313 285.047,185.53 286.839,185.319C295.504,184.296 292.513,179.557 288.14,179.071C286.662,178.907 282.872,178.878 282.872,178.878L282.864,174.982C282.864,174.982 286.937,175.336 288.425,174.963C293.763,173.625 292.049,169.048 285.494,169.47C278.336,169.93 275.808,172.701 275.808,172.701Z" style="fill:rgb(223,199,147);stroke:black;stroke-width:0.83px;"/>
        </g>
    </g>
    <defs>
        <linearGradient id="_Linear1" x1="0" y1="0" x2="1" y2="0" gradientUnits="userSpaceOnUse" gradientTransform="matrix(-0.924848,145.823,-125.567,-1.07404,176.885,103.67)"><stop offset="0" style="stop-color:rgb(248,248,248);stop-opacity:1"/><stop offset="1" style="stop-color:rgb(88,88,88);stop-opacity:1"/></linearGradient>
        <linearGradient id="_Linear2" x1="0" y1="0" x2="1" y2="0" gradientUnits="userSpaceOnUse" gradientTransform="matrix(0.0103259,147.051,-126.625,0.0119917,175.722,103.004)"><stop offset="0" style="stop-color:rgb(50,50,49);stop-opacity:1"/><stop offset="0.53" style="stop-color:rgb(181,181,181);stop-opacity:1"/><stop offset="1" style="stop-color:rgb(208,208,208);stop-opacity:1"/></linearGradient>
    </defs>
</svg>
