<?xml version="1.0" encoding="UTF-8" standalone="no"?>
<!DOCTYPE svg PUBLIC "-//W3C//DTD SVG 1.1//EN" "http://www.w3.org/Graphics/SVG/1.1/DTD/svg11.dtd">
<svg width="100%" height="100%" viewBox="0 0 354 354" version="1.1" xmlns="http://www.w3.org/2000/svg" xmlns:xlink="http://www.w3.org/1999/xlink" xml:space="preserve" xmlns:serif="http://www.serif.com/" style="fill-rule:evenodd;clip-rule:evenodd;stroke-linecap:round;stroke-miterlimit:1.5;">
    <g id="Watch-Case" serif:id="Watch Case">
        <g transform="matrix(2.84529,0,0,2.45006,-322.834,-255.696)">
            <ellipse cx="175.67" cy="176.606" rx="61.857" ry="71.835"/>
        </g>
        <g transform="matrix(2.82913,0,0,2.43614,-319.994,-253.238)">
            <ellipse cx="175.67" cy="176.606" rx="61.857" ry="71.835" style="fill:url(#_Linear1);"/>
        </g>
        <g transform="matrix(2.54622,0,0,2.19253,-270.295,-210.214)">
            <ellipse cx="175.67" cy="176.606" rx="61.857" ry="71.835" style="fill:rgb(48,48,48);"/>
        </g>
        <g transform="matrix(2.53005,0,0,2.17861,-267.455,-207.756)">
            <ellipse cx="175.67" cy="176.606" rx="61.857" ry="71.835" style="fill:url(#_Linear2);"/>
        </g>
    </g>
    <g id="Watch-Face" serif:id="Watch Face">
        <g transform="matrix(2.3603,0,0,2.03244,-237.635,-181.941)">
            <ellipse cx="175.67" cy="176.606" rx="61.857" ry="71.835"/>
        </g>
        <g transform="matrix(2.34413,0,0,2.01852,-234.795,-179.483)">
            <ellipse cx="175.67" cy="176.606" rx="61.857" ry="71.835" style="fill:rgb(234,234,232);"/>
        </g>
        <g id="Minute-Numbers" serif:id="Minute Numbers">
            <g transform="matrix(0.328606,0,0,0.197928,116.181,10.246)">
                <g transform="matrix(50,0,0,50,155.431,204.92)">
                    <path d="M0.148,-0.405C0.148,-0.474 0.157,-0.545 0.171,-0.596C0.198,-0.686 0.247,-0.733 0.317,-0.733C0.373,-0.733 0.402,-0.703 0.409,-0.638C0.412,-0.61 0.422,-0.601 0.453,-0.601C0.49,-0.601 0.511,-0.616 0.511,-0.642C0.511,-0.704 0.42,-0.758 0.317,-0.758C0.244,-0.758 0.186,-0.733 0.142,-0.682C0.086,-0.617 0.054,-0.497 0.054,-0.352C0.054,-0.134 0.139,-0.017 0.298,-0.017C0.441,-0.017 0.539,-0.117 0.539,-0.261C0.539,-0.324 0.517,-0.384 0.481,-0.422C0.444,-0.461 0.383,-0.484 0.319,-0.484C0.25,-0.484 0.2,-0.461 0.148,-0.405ZM0.147,-0.279C0.147,-0.339 0.162,-0.378 0.198,-0.413C0.226,-0.441 0.266,-0.457 0.304,-0.457C0.39,-0.457 0.444,-0.381 0.444,-0.259C0.444,-0.2 0.433,-0.148 0.412,-0.108C0.39,-0.068 0.346,-0.042 0.3,-0.042C0.251,-0.042 0.21,-0.069 0.185,-0.116C0.16,-0.163 0.147,-0.218 0.147,-0.279Z" style="fill-rule:nonzero;"/>
                </g>
                <g transform="matrix(50,0,0,50,184.831,204.92)">
                    <path d="M0.043,-0.388C0.043,-0.29 0.063,-0.198 0.1,-0.129C0.137,-0.06 0.209,-0.018 0.294,-0.018C0.378,-0.018 0.45,-0.059 0.487,-0.129C0.524,-0.198 0.544,-0.289 0.544,-0.388C0.544,-0.487 0.524,-0.579 0.487,-0.647C0.45,-0.717 0.378,-0.758 0.294,-0.758C0.209,-0.758 0.137,-0.717 0.1,-0.647C0.063,-0.577 0.043,-0.487 0.043,-0.388ZM0.14,-0.387C0.14,-0.626 0.187,-0.732 0.294,-0.732C0.401,-0.732 0.448,-0.627 0.448,-0.388C0.448,-0.149 0.401,-0.044 0.294,-0.044C0.187,-0.044 0.14,-0.149 0.14,-0.387Z" style="fill-rule:nonzero;"/>
                </g>
            </g>
            <g transform="matrix(0.328606,0,0,0.197928,116.214,270.746)">
                <g transform="matrix(50,0,0,50,155.431,204.92)">
                    <path d="M0.323,-0.414C0.368,-0.423 0.395,-0.432 0.423,-0.447C0.474,-0.477 0.505,-0.527 0.505,-0.583C0.505,-0.684 0.412,-0.758 0.285,-0.758C0.166,-0.758 0.067,-0.687 0.067,-0.602C0.067,-0.575 0.083,-0.564 0.12,-0.564C0.155,-0.564 0.164,-0.574 0.166,-0.612C0.171,-0.692 0.209,-0.731 0.284,-0.731C0.334,-0.731 0.367,-0.715 0.388,-0.681C0.404,-0.655 0.413,-0.62 0.413,-0.581C0.413,-0.524 0.393,-0.479 0.356,-0.454C0.327,-0.435 0.287,-0.424 0.247,-0.424L0.203,-0.424L0.203,-0.392L0.247,-0.392C0.292,-0.392 0.334,-0.383 0.363,-0.368C0.406,-0.345 0.43,-0.293 0.43,-0.223C0.43,-0.11 0.372,-0.044 0.273,-0.044C0.229,-0.044 0.194,-0.057 0.174,-0.081C0.156,-0.103 0.151,-0.122 0.149,-0.171C0.147,-0.199 0.136,-0.209 0.107,-0.209C0.068,-0.209 0.05,-0.194 0.05,-0.162C0.05,-0.079 0.147,-0.017 0.277,-0.017C0.426,-0.017 0.525,-0.099 0.525,-0.222C0.525,-0.291 0.492,-0.347 0.435,-0.377C0.403,-0.393 0.373,-0.401 0.323,-0.405L0.323,-0.414Z" style="fill-rule:nonzero;"/>
                </g>
                <g transform="matrix(50,0,0,50,184.831,204.92)">
                    <path d="M0.043,-0.388C0.043,-0.29 0.063,-0.198 0.1,-0.129C0.137,-0.06 0.209,-0.018 0.294,-0.018C0.378,-0.018 0.45,-0.059 0.487,-0.129C0.524,-0.198 0.544,-0.289 0.544,-0.388C0.544,-0.487 0.524,-0.579 0.487,-0.647C0.45,-0.717 0.378,-0.758 0.294,-0.758C0.209,-0.758 0.137,-0.717 0.1,-0.647C0.063,-0.577 0.043,-0.487 0.043,-0.388ZM0.14,-0.387C0.14,-0.626 0.187,-0.732 0.294,-0.732C0.401,-0.732 0.448,-0.627 0.448,-0.388C0.448,-0.149 0.401,-0.044 0.294,-0.044C0.187,-0.044 0.14,-0.149 0.14,-0.387Z" style="fill-rule:nonzero;"/>
                </g>
            </g>
            <g transform="matrix(0.164303,0.284581,-0.171411,0.098964,65.4206,171.231)">
                <g transform="matrix(50,0,0,50,155.431,204.92)">
                    <path d="M0.449,-0.228L0.553,-0.228L0.553,-0.272L0.449,-0.272L0.449,-0.758L0.386,-0.758L0.025,-0.275L0.025,-0.228L0.364,-0.228L0.364,-0.156C0.364,-0.108 0.359,-0.084 0.346,-0.074C0.335,-0.066 0.327,-0.064 0.283,-0.063L0.283,-0.033L0.523,-0.033L0.523,-0.063C0.484,-0.064 0.476,-0.066 0.467,-0.074C0.454,-0.084 0.449,-0.108 0.449,-0.156L0.449,-0.228ZM0.364,-0.272L0.071,-0.272L0.364,-0.667L0.364,-0.272Z" style="fill-rule:nonzero;"/>
                </g>
                <g transform="matrix(50,0,0,50,184.831,204.92)">
                    <path d="M0.043,-0.388C0.043,-0.29 0.063,-0.198 0.1,-0.129C0.137,-0.06 0.209,-0.018 0.294,-0.018C0.378,-0.018 0.45,-0.059 0.487,-0.129C0.524,-0.198 0.544,-0.289 0.544,-0.388C0.544,-0.487 0.524,-0.579 0.487,-0.647C0.45,-0.717 0.378,-0.758 0.294,-0.758C0.209,-0.758 0.137,-0.717 0.1,-0.647C0.063,-0.577 0.043,-0.487 0.043,-0.388ZM0.14,-0.387C0.14,-0.626 0.187,-0.732 0.294,-0.732C0.401,-0.732 0.448,-0.627 0.448,-0.388C0.448,-0.149 0.401,-0.044 0.294,-0.044C0.187,-0.044 0.14,-0.149 0.14,-0.387Z" style="fill-rule:nonzero;"/>
                </g>
            </g>
            <g transform="matrix(0.284581,0.164303,-0.098964,0.171411,77.4848,227.793)">
                <g transform="matrix(50,0,0,50,155.431,204.92)">
                    <path d="M0.323,-0.414C0.368,-0.423 0.395,-0.432 0.423,-0.447C0.474,-0.477 0.505,-0.527 0.505,-0.583C0.505,-0.684 0.412,-0.758 0.285,-0.758C0.166,-0.758 0.067,-0.687 0.067,-0.602C0.067,-0.575 0.083,-0.564 0.12,-0.564C0.155,-0.564 0.164,-0.574 0.166,-0.612C0.171,-0.692 0.209,-0.731 0.284,-0.731C0.334,-0.731 0.367,-0.715 0.388,-0.681C0.404,-0.655 0.413,-0.62 0.413,-0.581C0.413,-0.524 0.393,-0.479 0.356,-0.454C0.327,-0.435 0.287,-0.424 0.247,-0.424L0.203,-0.424L0.203,-0.392L0.247,-0.392C0.292,-0.392 0.334,-0.383 0.363,-0.368C0.406,-0.345 0.43,-0.293 0.43,-0.223C0.43,-0.11 0.372,-0.044 0.273,-0.044C0.229,-0.044 0.194,-0.057 0.174,-0.081C0.156,-0.103 0.151,-0.122 0.149,-0.171C0.147,-0.199 0.136,-0.209 0.107,-0.209C0.068,-0.209 0.05,-0.194 0.05,-0.162C0.05,-0.079 0.147,-0.017 0.277,-0.017C0.426,-0.017 0.525,-0.099 0.525,-0.222C0.525,-0.291 0.492,-0.347 0.435,-0.377C0.403,-0.393 0.373,-0.401 0.323,-0.405L0.323,-0.414Z" style="fill-rule:nonzero;"/>
                </g>
                <g transform="matrix(50,0,0,50,184.831,204.92)">
                    <path d="M0.154,-0.665L0.485,-0.665L0.499,-0.743L0.121,-0.743L0.088,-0.331L0.119,-0.327C0.151,-0.397 0.218,-0.443 0.288,-0.443C0.335,-0.443 0.378,-0.422 0.401,-0.386C0.424,-0.35 0.437,-0.3 0.437,-0.243C0.437,-0.124 0.374,-0.045 0.279,-0.045C0.209,-0.045 0.164,-0.084 0.159,-0.15C0.157,-0.183 0.148,-0.191 0.116,-0.191C0.08,-0.191 0.062,-0.176 0.062,-0.147C0.062,-0.077 0.159,-0.018 0.276,-0.018C0.431,-0.018 0.53,-0.109 0.53,-0.25C0.53,-0.385 0.443,-0.474 0.31,-0.474C0.236,-0.474 0.185,-0.453 0.133,-0.402L0.154,-0.665Z" style="fill-rule:nonzero;"/>
                </g>
            </g>
            <g transform="matrix(0.164303,-0.284581,0.171411,0.098964,227.794,276.515)">
                <g transform="matrix(50,0,0,50,155.431,204.92)">
                    <path d="M0.508,-0.033L0.535,-0.207L0.505,-0.214C0.485,-0.13 0.46,-0.108 0.388,-0.108L0.099,-0.108C0.117,-0.161 0.137,-0.192 0.181,-0.235C0.225,-0.278 0.252,-0.298 0.377,-0.375C0.488,-0.443 0.525,-0.494 0.525,-0.577C0.525,-0.623 0.515,-0.654 0.493,-0.683C0.455,-0.731 0.385,-0.758 0.301,-0.758C0.167,-0.758 0.067,-0.681 0.067,-0.578C0.067,-0.549 0.081,-0.537 0.118,-0.537C0.153,-0.537 0.164,-0.546 0.166,-0.58C0.168,-0.619 0.17,-0.633 0.176,-0.653C0.193,-0.703 0.236,-0.731 0.295,-0.731C0.376,-0.731 0.431,-0.674 0.431,-0.59C0.431,-0.56 0.424,-0.532 0.409,-0.506C0.395,-0.483 0.374,-0.461 0.333,-0.428C0.205,-0.324 0.163,-0.284 0.124,-0.228C0.083,-0.171 0.062,-0.114 0.05,-0.033L0.508,-0.033Z" style="fill-rule:nonzero;"/>
                </g>
                <g transform="matrix(50,0,0,50,184.831,204.92)">
                    <path d="M0.043,-0.388C0.043,-0.29 0.063,-0.198 0.1,-0.129C0.137,-0.06 0.209,-0.018 0.294,-0.018C0.378,-0.018 0.45,-0.059 0.487,-0.129C0.524,-0.198 0.544,-0.289 0.544,-0.388C0.544,-0.487 0.524,-0.579 0.487,-0.647C0.45,-0.717 0.378,-0.758 0.294,-0.758C0.209,-0.758 0.137,-0.717 0.1,-0.647C0.063,-0.577 0.043,-0.487 0.043,-0.388ZM0.14,-0.387C0.14,-0.626 0.187,-0.732 0.294,-0.732C0.401,-0.732 0.448,-0.627 0.448,-0.388C0.448,-0.149 0.401,-0.044 0.294,-0.044C0.187,-0.044 0.14,-0.149 0.14,-0.387Z" style="fill-rule:nonzero;"/>
                </g>
            </g>
            <g transform="matrix(0.284581,-0.164303,0.098964,0.171411,171.231,288.579)">
                <g transform="matrix(50,0,0,50,155.431,204.92)">
                    <path d="M0.508,-0.033L0.535,-0.207L0.505,-0.214C0.485,-0.13 0.46,-0.108 0.388,-0.108L0.099,-0.108C0.117,-0.161 0.137,-0.192 0.181,-0.235C0.225,-0.278 0.252,-0.298 0.377,-0.375C0.488,-0.443 0.525,-0.494 0.525,-0.577C0.525,-0.623 0.515,-0.654 0.493,-0.683C0.455,-0.731 0.385,-0.758 0.301,-0.758C0.167,-0.758 0.067,-0.681 0.067,-0.578C0.067,-0.549 0.081,-0.537 0.118,-0.537C0.153,-0.537 0.164,-0.546 0.166,-0.58C0.168,-0.619 0.17,-0.633 0.176,-0.653C0.193,-0.703 0.236,-0.731 0.295,-0.731C0.376,-0.731 0.431,-0.674 0.431,-0.59C0.431,-0.56 0.424,-0.532 0.409,-0.506C0.395,-0.483 0.374,-0.461 0.333,-0.428C0.205,-0.324 0.163,-0.284 0.124,-0.228C0.083,-0.171 0.062,-0.114 0.05,-0.033L0.508,-0.033Z" style="fill-rule:nonzero;"/>
                </g>
                <g transform="matrix(50,0,0,50,184.831,204.92)">
                    <path d="M0.154,-0.665L0.485,-0.665L0.499,-0.743L0.121,-0.743L0.088,-0.331L0.119,-0.327C0.151,-0.397 0.218,-0.443 0.288,-0.443C0.335,-0.443 0.378,-0.422 0.401,-0.386C0.424,-0.35 0.437,-0.3 0.437,-0.243C0.437,-0.124 0.374,-0.045 0.279,-0.045C0.209,-0.045 0.164,-0.084 0.159,-0.15C0.157,-0.183 0.148,-0.191 0.116,-0.191C0.08,-0.191 0.062,-0.176 0.062,-0.147C0.062,-0.077 0.159,-0.018 0.276,-0.018C0.431,-0.018 0.53,-0.109 0.53,-0.25C0.53,-0.385 0.443,-0.474 0.31,-0.474C0.236,-0.474 0.185,-0.453 0.133,-0.402L0.154,-0.665Z" style="fill-rule:nonzero;"/>
                </g>
            </g>
            <g transform="matrix(0.284581,-0.164303,0.098964,0.171411,41.0029,62.9944)">
                <g transform="matrix(50,0,0,50,155.431,204.92)">
                    <path d="M0.154,-0.665L0.485,-0.665L0.499,-0.743L0.121,-0.743L0.088,-0.331L0.119,-0.327C0.151,-0.397 0.218,-0.443 0.288,-0.443C0.335,-0.443 0.378,-0.422 0.401,-0.386C0.424,-0.35 0.437,-0.3 0.437,-0.243C0.437,-0.124 0.374,-0.045 0.279,-0.045C0.209,-0.045 0.164,-0.084 0.159,-0.15C0.157,-0.183 0.148,-0.191 0.116,-0.191C0.08,-0.191 0.062,-0.176 0.062,-0.147C0.062,-0.077 0.159,-0.018 0.276,-0.018C0.431,-0.018 0.53,-0.109 0.53,-0.25C0.53,-0.385 0.443,-0.474 0.31,-0.474C0.236,-0.474 0.185,-0.453 0.133,-0.402L0.154,-0.665Z" style="fill-rule:nonzero;"/>
                </g>
                <g transform="matrix(50,0,0,50,184.831,204.92)">
                    <path d="M0.154,-0.665L0.485,-0.665L0.499,-0.743L0.121,-0.743L0.088,-0.331L0.119,-0.327C0.151,-0.397 0.218,-0.443 0.288,-0.443C0.335,-0.443 0.378,-0.422 0.401,-0.386C0.424,-0.35 0.437,-0.3 0.437,-0.243C0.437,-0.124 0.374,-0.045 0.279,-0.045C0.209,-0.045 0.164,-0.084 0.159,-0.15C0.157,-0.183 0.148,-0.191 0.116,-0.191C0.08,-0.191 0.062,-0.176 0.062,-0.147C0.062,-0.077 0.159,-0.018 0.276,-0.018C0.431,-0.018 0.53,-0.109 0.53,-0.25C0.53,-0.385 0.443,-0.474 0.31,-0.474C0.236,-0.474 0.185,-0.453 0.133,-0.402L0.154,-0.665Z" style="fill-rule:nonzero;"/>
                </g>
            </g>
            <g transform="matrix(0.164303,-0.284581,0.171411,0.098964,2.11296,146.29)">
                <g transform="matrix(50,0,0,50,155.431,204.92)">
                    <path d="M0.154,-0.665L0.485,-0.665L0.499,-0.743L0.121,-0.743L0.088,-0.331L0.119,-0.327C0.151,-0.397 0.218,-0.443 0.288,-0.443C0.335,-0.443 0.378,-0.422 0.401,-0.386C0.424,-0.35 0.437,-0.3 0.437,-0.243C0.437,-0.124 0.374,-0.045 0.279,-0.045C0.209,-0.045 0.164,-0.084 0.159,-0.15C0.157,-0.183 0.148,-0.191 0.116,-0.191C0.08,-0.191 0.062,-0.176 0.062,-0.147C0.062,-0.077 0.159,-0.018 0.276,-0.018C0.431,-0.018 0.53,-0.109 0.53,-0.25C0.53,-0.385 0.443,-0.474 0.31,-0.474C0.236,-0.474 0.185,-0.453 0.133,-0.402L0.154,-0.665Z" style="fill-rule:nonzero;"/>
                </g>
                <g transform="matrix(50,0,0,50,184.831,204.92)">
                    <path d="M0.043,-0.388C0.043,-0.29 0.063,-0.198 0.1,-0.129C0.137,-0.06 0.209,-0.018 0.294,-0.018C0.378,-0.018 0.45,-0.059 0.487,-0.129C0.524,-0.198 0.544,-0.289 0.544,-0.388C0.544,-0.487 0.524,-0.579 0.487,-0.647C0.45,-0.717 0.378,-0.758 0.294,-0.758C0.209,-0.758 0.137,-0.717 0.1,-0.647C0.063,-0.577 0.043,-0.487 0.043,-0.388ZM0.14,-0.387C0.14,-0.626 0.187,-0.732 0.294,-0.732C0.401,-0.732 0.448,-0.627 0.448,-0.388C0.448,-0.149 0.401,-0.044 0.294,-0.044C0.187,-0.044 0.14,-0.149 0.14,-0.387Z" style="fill-rule:nonzero;"/>
                </g>
            </g>
            <g id="_45" serif:id="45" transform="matrix(2.01213e-17,-0.328606,0.197928,1.21196e-17,10.2463,237.813)">
                <g transform="matrix(50,0,0,50,155.431,204.92)">
                    <path d="M0.449,-0.228L0.553,-0.228L0.553,-0.272L0.449,-0.272L0.449,-0.758L0.386,-0.758L0.025,-0.275L0.025,-0.228L0.364,-0.228L0.364,-0.156C0.364,-0.108 0.359,-0.084 0.346,-0.074C0.335,-0.066 0.327,-0.064 0.283,-0.063L0.283,-0.033L0.523,-0.033L0.523,-0.063C0.484,-0.064 0.476,-0.066 0.467,-0.074C0.454,-0.084 0.449,-0.108 0.449,-0.156L0.449,-0.228ZM0.364,-0.272L0.071,-0.272L0.364,-0.667L0.364,-0.272Z" style="fill-rule:nonzero;"/>
                </g>
                <g transform="matrix(50,0,0,50,184.831,204.92)">
                    <path d="M0.154,-0.665L0.485,-0.665L0.499,-0.743L0.121,-0.743L0.088,-0.331L0.119,-0.327C0.151,-0.397 0.218,-0.443 0.288,-0.443C0.335,-0.443 0.378,-0.422 0.401,-0.386C0.424,-0.35 0.437,-0.3 0.437,-0.243C0.437,-0.124 0.374,-0.045 0.279,-0.045C0.209,-0.045 0.164,-0.084 0.159,-0.15C0.157,-0.183 0.148,-0.191 0.116,-0.191C0.08,-0.191 0.062,-0.176 0.062,-0.147C0.062,-0.077 0.159,-0.018 0.276,-0.018C0.431,-0.018 0.53,-0.109 0.53,-0.25C0.53,-0.385 0.443,-0.474 0.31,-0.474C0.236,-0.474 0.185,-0.453 0.133,-0.402L0.154,-0.665Z" style="fill-rule:nonzero;"/>
                </g>
            </g>
            <g transform="matrix(2.01213e-17,0.328606,-0.197928,1.21196e-17,343.748,116.181)">
                <g transform="matrix(50,0,0,50,155.431,204.92)">
                    <path d="M0.157,-0.033L0.43,-0.033L0.43,-0.062C0.373,-0.065 0.369,-0.066 0.357,-0.076C0.343,-0.088 0.339,-0.108 0.339,-0.175L0.339,-0.472C0.339,-0.59 0.342,-0.675 0.347,-0.754C0.298,-0.742 0.233,-0.733 0.157,-0.728L0.157,-0.699L0.195,-0.699C0.22,-0.699 0.232,-0.697 0.24,-0.69C0.248,-0.683 0.248,-0.683 0.25,-0.596L0.25,-0.175C0.25,-0.103 0.245,-0.082 0.223,-0.072C0.21,-0.066 0.2,-0.065 0.157,-0.062L0.157,-0.033Z" style="fill-rule:nonzero;"/>
                </g>
                <g transform="matrix(50,0,0,50,184.831,204.92)">
                    <path d="M0.154,-0.665L0.485,-0.665L0.499,-0.743L0.121,-0.743L0.088,-0.331L0.119,-0.327C0.151,-0.397 0.218,-0.443 0.288,-0.443C0.335,-0.443 0.378,-0.422 0.401,-0.386C0.424,-0.35 0.437,-0.3 0.437,-0.243C0.437,-0.124 0.374,-0.045 0.279,-0.045C0.209,-0.045 0.164,-0.084 0.159,-0.15C0.157,-0.183 0.148,-0.191 0.116,-0.191C0.08,-0.191 0.062,-0.176 0.062,-0.147C0.062,-0.077 0.159,-0.018 0.276,-0.018C0.431,-0.018 0.53,-0.109 0.53,-0.25C0.53,-0.385 0.443,-0.474 0.31,-0.474C0.236,-0.474 0.185,-0.453 0.133,-0.402L0.154,-0.665Z" style="fill-rule:nonzero;"/>
                </g>
            </g>
            <g transform="matrix(0.164303,0.284581,-0.171411,0.098964,290.578,40.2196)">
                <g transform="matrix(50,0,0,50,155.431,204.92)">
                    <path d="M0.157,-0.033L0.43,-0.033L0.43,-0.062C0.373,-0.065 0.369,-0.066 0.357,-0.076C0.343,-0.088 0.339,-0.108 0.339,-0.175L0.339,-0.472C0.339,-0.59 0.342,-0.675 0.347,-0.754C0.298,-0.742 0.233,-0.733 0.157,-0.728L0.157,-0.699L0.195,-0.699C0.22,-0.699 0.232,-0.697 0.24,-0.69C0.248,-0.683 0.248,-0.683 0.25,-0.596L0.25,-0.175C0.25,-0.103 0.245,-0.082 0.223,-0.072C0.21,-0.066 0.2,-0.065 0.157,-0.062L0.157,-0.033Z" style="fill-rule:nonzero;"/>
                </g>
                <g transform="matrix(50,0,0,50,184.831,204.92)">
                    <path d="M0.043,-0.388C0.043,-0.29 0.063,-0.198 0.1,-0.129C0.137,-0.06 0.209,-0.018 0.294,-0.018C0.378,-0.018 0.45,-0.059 0.487,-0.129C0.524,-0.198 0.544,-0.289 0.544,-0.388C0.544,-0.487 0.524,-0.579 0.487,-0.647C0.45,-0.717 0.378,-0.758 0.294,-0.758C0.209,-0.758 0.137,-0.717 0.1,-0.647C0.063,-0.577 0.043,-0.487 0.043,-0.388ZM0.14,-0.387C0.14,-0.626 0.187,-0.732 0.294,-0.732C0.401,-0.732 0.448,-0.627 0.448,-0.388C0.448,-0.149 0.401,-0.044 0.294,-0.044C0.187,-0.044 0.14,-0.149 0.14,-0.387Z" style="fill-rule:nonzero;"/>
                </g>
            </g>
            <g transform="matrix(0.284581,0.164303,-0.098964,0.171411,211.933,4.61464)">
                <g transform="matrix(50,0,0,50,155.431,204.92)">
                    <path d="M0.154,-0.665L0.485,-0.665L0.499,-0.743L0.121,-0.743L0.088,-0.331L0.119,-0.327C0.151,-0.397 0.218,-0.443 0.288,-0.443C0.335,-0.443 0.378,-0.422 0.401,-0.386C0.424,-0.35 0.437,-0.3 0.437,-0.243C0.437,-0.124 0.374,-0.045 0.279,-0.045C0.209,-0.045 0.164,-0.084 0.159,-0.15C0.157,-0.183 0.148,-0.191 0.116,-0.191C0.08,-0.191 0.062,-0.176 0.062,-0.147C0.062,-0.077 0.159,-0.018 0.276,-0.018C0.431,-0.018 0.53,-0.109 0.53,-0.25C0.53,-0.385 0.443,-0.474 0.31,-0.474C0.236,-0.474 0.185,-0.453 0.133,-0.402L0.154,-0.665Z" style="fill-rule:nonzero;"/>
                </g>
            </g>
        </g>
        <g id="Second-Marks" serif:id="Second Marks">
            <g id="_45-60-Second-Marks" serif:id="45-60 Second Marks" transform="matrix(6.12323e-17,-1,1,6.12323e-17,-9.33092e-06,353.997)">
                <g id="_10-15-Second-Marks" serif:id="10-15 Second Marks" transform="matrix(0.5,0.866025,-0.866025,0.5,241.786,-64.7844)">
                    <g id="Second-Marks1" serif:id="Second Marks">
                        <g transform="matrix(1.22994,0.129272,-0.112908,1.07425,-40.3781,-28.5775)">
                            <rect x="191.779" y="36.712" width="0.809" height="14.35"/>
                        </g>
                        <g transform="matrix(1.1298,0.503017,-0.439344,0.986783,33.7873,-85.6887)">
                            <rect x="191.779" y="36.712" width="0.809" height="14.35"/>
                        </g>
                        <g transform="matrix(1.17619,0.382166,-0.333791,1.0273,7.11363,-69.2801)">
                            <rect x="191.779" y="36.712" width="0.809" height="14.35"/>
                        </g>
                        <g transform="matrix(1.20969,0.257128,-0.22458,1.05656,-17.6988,-50.1733)">
                            <rect x="191.779" y="36.712" width="0.809" height="14.35"/>
                        </g>
                    </g>
                    <g id="Second-Fraction-Marks" serif:id="Second Fraction Marks" transform="matrix(1,0,0,1,-0.000515182,0)">
                        <g transform="matrix(0.361463,0.192193,-0.217887,0.409785,193.988,-20.0519)">
                            <rect x="188.112" y="86.315" width="2.443" height="12.928" style="fill:rgb(18,14,11);"/>
                        </g>
                        <g transform="matrix(0.36795,0.179461,-0.203453,0.41714,187.1,-20.5246)">
                            <rect x="188.112" y="86.315" width="2.443" height="12.928" style="fill:rgb(18,14,11);"/>
                        </g>
                        <g transform="matrix(0.379572,0.153357,-0.173859,0.430316,173.297,-20.748)">
                            <rect x="188.112" y="86.315" width="2.443" height="12.928" style="fill:rgb(18,14,11);"/>
                        </g>
                        <g transform="matrix(0.384693,0.140017,-0.158735,0.436121,166.398,-20.4983)">
                            <rect x="188.112" y="86.315" width="2.443" height="12.928" style="fill:rgb(18,14,11);"/>
                        </g>
                        <g transform="matrix(0.393523,0.112841,-0.127926,0.446132,152.648,-19.2776)">
                            <rect x="188.112" y="86.315" width="2.443" height="12.928" style="fill:rgb(18,14,11);"/>
                        </g>
                        <g transform="matrix(0.397221,0.0990384,-0.112279,0.450325,145.813,-18.3081)">
                            <rect x="188.112" y="86.315" width="2.443" height="12.928" style="fill:rgb(18,14,11);"/>
                        </g>
                        <g transform="matrix(0.403162,0.0710884,-0.080592,0.45706,132.265,-15.6568)">
                            <rect x="188.112" y="86.315" width="2.443" height="12.928" style="fill:rgb(18,14,11);"/>
                        </g>
                        <g transform="matrix(0.405398,0.0569749,-0.0645917,0.459594,125.569,-13.9781)">
                            <rect x="188.112" y="86.315" width="2.443" height="12.928" style="fill:rgb(18,14,11);"/>
                        </g>
                        <g transform="matrix(0.408384,0.028557,-0.0323747,0.46298,112.372,-9.9252)">
                            <rect x="188.112" y="86.315" width="2.443" height="12.928" style="fill:rgb(18,14,11);"/>
                        </g>
                        <g transform="matrix(0.409132,0.0142872,-0.0161972,0.463828,105.888,-7.55582)">
                            <rect x="188.112" y="86.315" width="2.443" height="12.928" style="fill:rgb(18,14,11);"/>
                        </g>
                    </g>
                    <g transform="matrix(0.818763,0,0,0.464111,21.9805,-4.9616)">
                        <g id="Hour-Marks" serif:id="Hour Marks">
                            <rect x="188.112" y="86.315" width="2.443" height="12.928" style="fill:rgb(18,14,11);"/>
                        </g>
                    </g>
                </g>
                <g id="_5-10-Second-Marks" serif:id="5-10 Second Marks" transform="matrix(0.866025,0.5,-0.5,0.866025,112.213,-64.7854)">
                    <g id="Second-Marks2" serif:id="Second Marks">
                        <g transform="matrix(1.22994,0.129272,-0.112908,1.07425,-40.3781,-28.5775)">
                            <rect x="191.779" y="36.712" width="0.809" height="14.35"/>
                        </g>
                        <g transform="matrix(1.1298,0.503017,-0.439344,0.986783,33.7873,-85.6887)">
                            <rect x="191.779" y="36.712" width="0.809" height="14.35"/>
                        </g>
                        <g transform="matrix(1.17619,0.382166,-0.333791,1.0273,7.11363,-69.2801)">
                            <rect x="191.779" y="36.712" width="0.809" height="14.35"/>
                        </g>
                        <g transform="matrix(1.20969,0.257128,-0.22458,1.05656,-17.6988,-50.1733)">
                            <rect x="191.779" y="36.712" width="0.809" height="14.35"/>
                        </g>
                    </g>
                    <g id="Second-Fraction-Marks1" serif:id="Second Fraction Marks" transform="matrix(1,0,0,1,-0.000515182,0)">
                        <g transform="matrix(0.361463,0.192193,-0.217887,0.409785,193.988,-20.0519)">
                            <rect x="188.112" y="86.315" width="2.443" height="12.928" style="fill:rgb(18,14,11);"/>
                        </g>
                        <g transform="matrix(0.36795,0.179461,-0.203453,0.41714,187.1,-20.5246)">
                            <rect x="188.112" y="86.315" width="2.443" height="12.928" style="fill:rgb(18,14,11);"/>
                        </g>
                        <g transform="matrix(0.379572,0.153357,-0.173859,0.430316,173.297,-20.748)">
                            <rect x="188.112" y="86.315" width="2.443" height="12.928" style="fill:rgb(18,14,11);"/>
                        </g>
                        <g transform="matrix(0.384693,0.140017,-0.158735,0.436121,166.398,-20.4983)">
                            <rect x="188.112" y="86.315" width="2.443" height="12.928" style="fill:rgb(18,14,11);"/>
                        </g>
                        <g transform="matrix(0.393523,0.112841,-0.127926,0.446132,152.648,-19.2776)">
                            <rect x="188.112" y="86.315" width="2.443" height="12.928" style="fill:rgb(18,14,11);"/>
                        </g>
                        <g transform="matrix(0.397221,0.0990384,-0.112279,0.450325,145.813,-18.3081)">
                            <rect x="188.112" y="86.315" width="2.443" height="12.928" style="fill:rgb(18,14,11);"/>
                        </g>
                        <g transform="matrix(0.403162,0.0710884,-0.080592,0.45706,132.265,-15.6568)">
                            <rect x="188.112" y="86.315" width="2.443" height="12.928" style="fill:rgb(18,14,11);"/>
                        </g>
                        <g transform="matrix(0.405398,0.0569749,-0.0645917,0.459594,125.569,-13.9781)">
                            <rect x="188.112" y="86.315" width="2.443" height="12.928" style="fill:rgb(18,14,11);"/>
                        </g>
                        <g transform="matrix(0.408384,0.028557,-0.0323747,0.46298,112.372,-9.9252)">
                            <rect x="188.112" y="86.315" width="2.443" height="12.928" style="fill:rgb(18,14,11);"/>
                        </g>
                        <g transform="matrix(0.409132,0.0142872,-0.0161972,0.463828,105.888,-7.55582)">
                            <rect x="188.112" y="86.315" width="2.443" height="12.928" style="fill:rgb(18,14,11);"/>
                        </g>
                    </g>
                    <g transform="matrix(0.818763,0,0,0.464111,21.9805,-4.9616)">
                        <g id="Hour-Marks1" serif:id="Hour Marks">
                            <rect x="188.112" y="86.315" width="2.443" height="12.928" style="fill:rgb(18,14,11);"/>
                        </g>
                    </g>
                </g>
                <g id="_0-5-Second-Marks" serif:id="0-5 Second Marks">
                    <g id="Second-Marks3" serif:id="Second Marks">
                        <g transform="matrix(1.22994,0.129272,-0.112908,1.07425,-40.3781,-28.5775)">
                            <rect x="191.779" y="36.712" width="0.809" height="14.35"/>
                        </g>
                        <g transform="matrix(1.1298,0.503017,-0.439344,0.986783,33.7873,-85.6887)">
                            <rect x="191.779" y="36.712" width="0.809" height="14.35"/>
                        </g>
                        <g transform="matrix(1.17619,0.382166,-0.333791,1.0273,7.11363,-69.2801)">
                            <rect x="191.779" y="36.712" width="0.809" height="14.35"/>
                        </g>
                        <g transform="matrix(1.20969,0.257128,-0.22458,1.05656,-17.6988,-50.1733)">
                            <rect x="191.779" y="36.712" width="0.809" height="14.35"/>
                        </g>
                    </g>
                    <g id="Second-Fraction-Marks2" serif:id="Second Fraction Marks" transform="matrix(1,0,0,1,-0.000515182,0)">
                        <g transform="matrix(0.361463,0.192193,-0.217887,0.409785,193.988,-20.0519)">
                            <rect x="188.112" y="86.315" width="2.443" height="12.928" style="fill:rgb(18,14,11);"/>
                        </g>
                        <g transform="matrix(0.36795,0.179461,-0.203453,0.41714,187.1,-20.5246)">
                            <rect x="188.112" y="86.315" width="2.443" height="12.928" style="fill:rgb(18,14,11);"/>
                        </g>
                        <g transform="matrix(0.379572,0.153357,-0.173859,0.430316,173.297,-20.748)">
                            <rect x="188.112" y="86.315" width="2.443" height="12.928" style="fill:rgb(18,14,11);"/>
                        </g>
                        <g transform="matrix(0.384693,0.140017,-0.158735,0.436121,166.398,-20.4983)">
                            <rect x="188.112" y="86.315" width="2.443" height="12.928" style="fill:rgb(18,14,11);"/>
                        </g>
                        <g transform="matrix(0.393523,0.112841,-0.127926,0.446132,152.648,-19.2776)">
                            <rect x="188.112" y="86.315" width="2.443" height="12.928" style="fill:rgb(18,14,11);"/>
                        </g>
                        <g transform="matrix(0.397221,0.0990384,-0.112279,0.450325,145.813,-18.3081)">
                            <rect x="188.112" y="86.315" width="2.443" height="12.928" style="fill:rgb(18,14,11);"/>
                        </g>
                        <g transform="matrix(0.403162,0.0710884,-0.080592,0.45706,132.265,-15.6568)">
                            <rect x="188.112" y="86.315" width="2.443" height="12.928" style="fill:rgb(18,14,11);"/>
                        </g>
                        <g transform="matrix(0.405398,0.0569749,-0.0645917,0.459594,125.569,-13.9781)">
                            <rect x="188.112" y="86.315" width="2.443" height="12.928" style="fill:rgb(18,14,11);"/>
                        </g>
                        <g transform="matrix(0.408384,0.028557,-0.0323747,0.46298,112.372,-9.9252)">
                            <rect x="188.112" y="86.315" width="2.443" height="12.928" style="fill:rgb(18,14,11);"/>
                        </g>
                        <g transform="matrix(0.409132,0.0142872,-0.0161972,0.463828,105.888,-7.55582)">
                            <rect x="188.112" y="86.315" width="2.443" height="12.928" style="fill:rgb(18,14,11);"/>
                        </g>
                    </g>
                    <g transform="matrix(0.818763,0,0,0.464111,21.9805,-4.9616)">
                        <g id="Hour-Marks2" serif:id="Hour Marks">
                            <rect x="188.112" y="86.315" width="2.443" height="12.928" style="fill:rgb(18,14,11);"/>
                        </g>
                    </g>
                </g>
            </g>
            <g id="_30-45-Second-Marks" serif:id="30-45 Second Marks" transform="matrix(-1,-1.22465e-16,1.22465e-16,-1,353.997,353.997)">
                <g id="_10-15-Second-Marks1" serif:id="10-15 Second Marks" transform="matrix(0.5,0.866025,-0.866025,0.5,241.786,-64.7844)">
                    <g id="Second-Marks4" serif:id="Second Marks">
                        <g transform="matrix(1.22994,0.129272,-0.112908,1.07425,-40.3781,-28.5775)">
                            <rect x="191.779" y="36.712" width="0.809" height="14.35"/>
                        </g>
                        <g transform="matrix(1.1298,0.503017,-0.439344,0.986783,33.7873,-85.6887)">
                            <rect x="191.779" y="36.712" width="0.809" height="14.35"/>
                        </g>
                        <g transform="matrix(1.17619,0.382166,-0.333791,1.0273,7.11363,-69.2801)">
                            <rect x="191.779" y="36.712" width="0.809" height="14.35"/>
                        </g>
                        <g transform="matrix(1.20969,0.257128,-0.22458,1.05656,-17.6988,-50.1733)">
                            <rect x="191.779" y="36.712" width="0.809" height="14.35"/>
                        </g>
                    </g>
                    <g id="Second-Fraction-Marks3" serif:id="Second Fraction Marks" transform="matrix(1,0,0,1,-0.000515182,0)">
                        <g transform="matrix(0.361463,0.192193,-0.217887,0.409785,193.988,-20.0519)">
                            <rect x="188.112" y="86.315" width="2.443" height="12.928" style="fill:rgb(18,14,11);"/>
                        </g>
                        <g transform="matrix(0.36795,0.179461,-0.203453,0.41714,187.1,-20.5246)">
                            <rect x="188.112" y="86.315" width="2.443" height="12.928" style="fill:rgb(18,14,11);"/>
                        </g>
                        <g transform="matrix(0.379572,0.153357,-0.173859,0.430316,173.297,-20.748)">
                            <rect x="188.112" y="86.315" width="2.443" height="12.928" style="fill:rgb(18,14,11);"/>
                        </g>
                        <g transform="matrix(0.384693,0.140017,-0.158735,0.436121,166.398,-20.4983)">
                            <rect x="188.112" y="86.315" width="2.443" height="12.928" style="fill:rgb(18,14,11);"/>
                        </g>
                        <g transform="matrix(0.393523,0.112841,-0.127926,0.446132,152.648,-19.2776)">
                            <rect x="188.112" y="86.315" width="2.443" height="12.928" style="fill:rgb(18,14,11);"/>
                        </g>
                        <g transform="matrix(0.397221,0.0990384,-0.112279,0.450325,145.813,-18.3081)">
                            <rect x="188.112" y="86.315" width="2.443" height="12.928" style="fill:rgb(18,14,11);"/>
                        </g>
                        <g transform="matrix(0.403162,0.0710884,-0.080592,0.45706,132.265,-15.6568)">
                            <rect x="188.112" y="86.315" width="2.443" height="12.928" style="fill:rgb(18,14,11);"/>
                        </g>
                        <g transform="matrix(0.405398,0.0569749,-0.0645917,0.459594,125.569,-13.9781)">
                            <rect x="188.112" y="86.315" width="2.443" height="12.928" style="fill:rgb(18,14,11);"/>
                        </g>
                        <g transform="matrix(0.408384,0.028557,-0.0323747,0.46298,112.372,-9.9252)">
                            <rect x="188.112" y="86.315" width="2.443" height="12.928" style="fill:rgb(18,14,11);"/>
                        </g>
                        <g transform="matrix(0.409132,0.0142872,-0.0161972,0.463828,105.888,-7.55582)">
                            <rect x="188.112" y="86.315" width="2.443" height="12.928" style="fill:rgb(18,14,11);"/>
                        </g>
                    </g>
                    <g transform="matrix(0.818763,0,0,0.464111,21.9805,-4.9616)">
                        <g id="Hour-Marks3" serif:id="Hour Marks">
                            <rect x="188.112" y="86.315" width="2.443" height="12.928" style="fill:rgb(18,14,11);"/>
                        </g>
                    </g>
                </g>
                <g id="_5-10-Second-Marks1" serif:id="5-10 Second Marks" transform="matrix(0.866025,0.5,-0.5,0.866025,112.213,-64.7854)">
                    <g id="Second-Marks5" serif:id="Second Marks">
                        <g transform="matrix(1.22994,0.129272,-0.112908,1.07425,-40.3781,-28.5775)">
                            <rect x="191.779" y="36.712" width="0.809" height="14.35"/>
                        </g>
                        <g transform="matrix(1.1298,0.503017,-0.439344,0.986783,33.7873,-85.6887)">
                            <rect x="191.779" y="36.712" width="0.809" height="14.35"/>
                        </g>
                        <g transform="matrix(1.17619,0.382166,-0.333791,1.0273,7.11363,-69.2801)">
                            <rect x="191.779" y="36.712" width="0.809" height="14.35"/>
                        </g>
                        <g transform="matrix(1.20969,0.257128,-0.22458,1.05656,-17.6988,-50.1733)">
                            <rect x="191.779" y="36.712" width="0.809" height="14.35"/>
                        </g>
                    </g>
                    <g id="Second-Fraction-Marks4" serif:id="Second Fraction Marks" transform="matrix(1,0,0,1,-0.000515182,0)">
                        <g transform="matrix(0.361463,0.192193,-0.217887,0.409785,193.988,-20.0519)">
                            <rect x="188.112" y="86.315" width="2.443" height="12.928" style="fill:rgb(18,14,11);"/>
                        </g>
                        <g transform="matrix(0.36795,0.179461,-0.203453,0.41714,187.1,-20.5246)">
                            <rect x="188.112" y="86.315" width="2.443" height="12.928" style="fill:rgb(18,14,11);"/>
                        </g>
                        <g transform="matrix(0.379572,0.153357,-0.173859,0.430316,173.297,-20.748)">
                            <rect x="188.112" y="86.315" width="2.443" height="12.928" style="fill:rgb(18,14,11);"/>
                        </g>
                        <g transform="matrix(0.384693,0.140017,-0.158735,0.436121,166.398,-20.4983)">
                            <rect x="188.112" y="86.315" width="2.443" height="12.928" style="fill:rgb(18,14,11);"/>
                        </g>
                        <g transform="matrix(0.393523,0.112841,-0.127926,0.446132,152.648,-19.2776)">
                            <rect x="188.112" y="86.315" width="2.443" height="12.928" style="fill:rgb(18,14,11);"/>
                        </g>
                        <g transform="matrix(0.397221,0.0990384,-0.112279,0.450325,145.813,-18.3081)">
                            <rect x="188.112" y="86.315" width="2.443" height="12.928" style="fill:rgb(18,14,11);"/>
                        </g>
                        <g transform="matrix(0.403162,0.0710884,-0.080592,0.45706,132.265,-15.6568)">
                            <rect x="188.112" y="86.315" width="2.443" height="12.928" style="fill:rgb(18,14,11);"/>
                        </g>
                        <g transform="matrix(0.405398,0.0569749,-0.0645917,0.459594,125.569,-13.9781)">
                            <rect x="188.112" y="86.315" width="2.443" height="12.928" style="fill:rgb(18,14,11);"/>
                        </g>
                        <g transform="matrix(0.408384,0.028557,-0.0323747,0.46298,112.372,-9.9252)">
                            <rect x="188.112" y="86.315" width="2.443" height="12.928" style="fill:rgb(18,14,11);"/>
                        </g>
                        <g transform="matrix(0.409132,0.0142872,-0.0161972,0.463828,105.888,-7.55582)">
                            <rect x="188.112" y="86.315" width="2.443" height="12.928" style="fill:rgb(18,14,11);"/>
                        </g>
                    </g>
                    <g transform="matrix(0.818763,0,0,0.464111,21.9805,-4.9616)">
                        <g id="Hour-Marks4" serif:id="Hour Marks">
                            <rect x="188.112" y="86.315" width="2.443" height="12.928" style="fill:rgb(18,14,11);"/>
                        </g>
                    </g>
                </g>
                <g id="_0-5-Second-Marks1" serif:id="0-5 Second Marks">
                    <g id="Second-Marks6" serif:id="Second Marks">
                        <g transform="matrix(1.22994,0.129272,-0.112908,1.07425,-40.3781,-28.5775)">
                            <rect x="191.779" y="36.712" width="0.809" height="14.35"/>
                        </g>
                        <g transform="matrix(1.1298,0.503017,-0.439344,0.986783,33.7873,-85.6887)">
                            <rect x="191.779" y="36.712" width="0.809" height="14.35"/>
                        </g>
                        <g transform="matrix(1.17619,0.382166,-0.333791,1.0273,7.11363,-69.2801)">
                            <rect x="191.779" y="36.712" width="0.809" height="14.35"/>
                        </g>
                        <g transform="matrix(1.20969,0.257128,-0.22458,1.05656,-17.6988,-50.1733)">
                            <rect x="191.779" y="36.712" width="0.809" height="14.35"/>
                        </g>
                    </g>
                    <g id="Second-Fraction-Marks5" serif:id="Second Fraction Marks" transform="matrix(1,0,0,1,-0.000515182,0)">
                        <g transform="matrix(0.361463,0.192193,-0.217887,0.409785,193.988,-20.0519)">
                            <rect x="188.112" y="86.315" width="2.443" height="12.928" style="fill:rgb(18,14,11);"/>
                        </g>
                        <g transform="matrix(0.36795,0.179461,-0.203453,0.41714,187.1,-20.5246)">
                            <rect x="188.112" y="86.315" width="2.443" height="12.928" style="fill:rgb(18,14,11);"/>
                        </g>
                        <g transform="matrix(0.379572,0.153357,-0.173859,0.430316,173.297,-20.748)">
                            <rect x="188.112" y="86.315" width="2.443" height="12.928" style="fill:rgb(18,14,11);"/>
                        </g>
                        <g transform="matrix(0.384693,0.140017,-0.158735,0.436121,166.398,-20.4983)">
                            <rect x="188.112" y="86.315" width="2.443" height="12.928" style="fill:rgb(18,14,11);"/>
                        </g>
                        <g transform="matrix(0.393523,0.112841,-0.127926,0.446132,152.648,-19.2776)">
                            <rect x="188.112" y="86.315" width="2.443" height="12.928" style="fill:rgb(18,14,11);"/>
                        </g>
                        <g transform="matrix(0.397221,0.0990384,-0.112279,0.450325,145.813,-18.3081)">
                            <rect x="188.112" y="86.315" width="2.443" height="12.928" style="fill:rgb(18,14,11);"/>
                        </g>
                        <g transform="matrix(0.403162,0.0710884,-0.080592,0.45706,132.265,-15.6568)">
                            <rect x="188.112" y="86.315" width="2.443" height="12.928" style="fill:rgb(18,14,11);"/>
                        </g>
                        <g transform="matrix(0.405398,0.0569749,-0.0645917,0.459594,125.569,-13.9781)">
                            <rect x="188.112" y="86.315" width="2.443" height="12.928" style="fill:rgb(18,14,11);"/>
                        </g>
                        <g transform="matrix(0.408384,0.028557,-0.0323747,0.46298,112.372,-9.9252)">
                            <rect x="188.112" y="86.315" width="2.443" height="12.928" style="fill:rgb(18,14,11);"/>
                        </g>
                        <g transform="matrix(0.409132,0.0142872,-0.0161972,0.463828,105.888,-7.55582)">
                            <rect x="188.112" y="86.315" width="2.443" height="12.928" style="fill:rgb(18,14,11);"/>
                        </g>
                    </g>
                    <g transform="matrix(0.818763,0,0,0.464111,21.9805,-4.9616)">
                        <g id="Hour-Marks5" serif:id="Hour Marks">
                            <rect x="188.112" y="86.315" width="2.443" height="12.928" style="fill:rgb(18,14,11);"/>
                        </g>
                    </g>
                </g>
            </g>
            <g id="_15-30-Second-Marks" serif:id="15-30 Second Marks" transform="matrix(0,1,-1,0,353.997,9.33092e-06)">
                <g id="_10-15-Second-Marks2" serif:id="10-15 Second Marks" transform="matrix(0.5,0.866025,-0.866025,0.5,241.786,-64.7844)">
                    <g id="Second-Marks7" serif:id="Second Marks">
                        <g transform="matrix(1.22994,0.129272,-0.112908,1.07425,-40.3781,-28.5775)">
                            <rect x="191.779" y="36.712" width="0.809" height="14.35"/>
                        </g>
                        <g transform="matrix(1.1298,0.503017,-0.439344,0.986783,33.7873,-85.6887)">
                            <rect x="191.779" y="36.712" width="0.809" height="14.35"/>
                        </g>
                        <g transform="matrix(1.17619,0.382166,-0.333791,1.0273,7.11363,-69.2801)">
                            <rect x="191.779" y="36.712" width="0.809" height="14.35"/>
                        </g>
                        <g transform="matrix(1.20969,0.257128,-0.22458,1.05656,-17.6988,-50.1733)">
                            <rect x="191.779" y="36.712" width="0.809" height="14.35"/>
                        </g>
                    </g>
                    <g id="Second-Fraction-Marks6" serif:id="Second Fraction Marks" transform="matrix(1,0,0,1,-0.000515182,0)">
                        <g transform="matrix(0.361463,0.192193,-0.217887,0.409785,193.988,-20.0519)">
                            <rect x="188.112" y="86.315" width="2.443" height="12.928" style="fill:rgb(18,14,11);"/>
                        </g>
                        <g transform="matrix(0.36795,0.179461,-0.203453,0.41714,187.1,-20.5246)">
                            <rect x="188.112" y="86.315" width="2.443" height="12.928" style="fill:rgb(18,14,11);"/>
                        </g>
                        <g transform="matrix(0.379572,0.153357,-0.173859,0.430316,173.297,-20.748)">
                            <rect x="188.112" y="86.315" width="2.443" height="12.928" style="fill:rgb(18,14,11);"/>
                        </g>
                        <g transform="matrix(0.384693,0.140017,-0.158735,0.436121,166.398,-20.4983)">
                            <rect x="188.112" y="86.315" width="2.443" height="12.928" style="fill:rgb(18,14,11);"/>
                        </g>
                        <g transform="matrix(0.393523,0.112841,-0.127926,0.446132,152.648,-19.2776)">
                            <rect x="188.112" y="86.315" width="2.443" height="12.928" style="fill:rgb(18,14,11);"/>
                        </g>
                        <g transform="matrix(0.397221,0.0990384,-0.112279,0.450325,145.813,-18.3081)">
                            <rect x="188.112" y="86.315" width="2.443" height="12.928" style="fill:rgb(18,14,11);"/>
                        </g>
                        <g transform="matrix(0.403162,0.0710884,-0.080592,0.45706,132.265,-15.6568)">
                            <rect x="188.112" y="86.315" width="2.443" height="12.928" style="fill:rgb(18,14,11);"/>
                        </g>
                        <g transform="matrix(0.405398,0.0569749,-0.0645917,0.459594,125.569,-13.9781)">
                            <rect x="188.112" y="86.315" width="2.443" height="12.928" style="fill:rgb(18,14,11);"/>
                        </g>
                        <g transform="matrix(0.408384,0.028557,-0.0323747,0.46298,112.372,-9.9252)">
                            <rect x="188.112" y="86.315" width="2.443" height="12.928" style="fill:rgb(18,14,11);"/>
                        </g>
                        <g transform="matrix(0.409132,0.0142872,-0.0161972,0.463828,105.888,-7.55582)">
                            <rect x="188.112" y="86.315" width="2.443" height="12.928" style="fill:rgb(18,14,11);"/>
                        </g>
                    </g>
                    <g transform="matrix(0.818763,0,0,0.464111,21.9805,-4.9616)">
                        <g id="Hour-Marks6" serif:id="Hour Marks">
                            <rect x="188.112" y="86.315" width="2.443" height="12.928" style="fill:rgb(18,14,11);"/>
                        </g>
                    </g>
                </g>
                <g id="_5-10-Second-Marks2" serif:id="5-10 Second Marks" transform="matrix(0.866025,0.5,-0.5,0.866025,112.213,-64.7854)">
                    <g id="Second-Marks8" serif:id="Second Marks">
                        <g transform="matrix(1.22994,0.129272,-0.112908,1.07425,-40.3781,-28.5775)">
                            <rect x="191.779" y="36.712" width="0.809" height="14.35"/>
                        </g>
                        <g transform="matrix(1.1298,0.503017,-0.439344,0.986783,33.7873,-85.6887)">
                            <rect x="191.779" y="36.712" width="0.809" height="14.35"/>
                        </g>
                        <g transform="matrix(1.17619,0.382166,-0.333791,1.0273,7.11363,-69.2801)">
                            <rect x="191.779" y="36.712" width="0.809" height="14.35"/>
                        </g>
                        <g transform="matrix(1.20969,0.257128,-0.22458,1.05656,-17.6988,-50.1733)">
                            <rect x="191.779" y="36.712" width="0.809" height="14.35"/>
                        </g>
                    </g>
                    <g id="Second-Fraction-Marks7" serif:id="Second Fraction Marks" transform="matrix(1,0,0,1,-0.000515182,0)">
                        <g transform="matrix(0.361463,0.192193,-0.217887,0.409785,193.988,-20.0519)">
                            <rect x="188.112" y="86.315" width="2.443" height="12.928" style="fill:rgb(18,14,11);"/>
                        </g>
                        <g transform="matrix(0.36795,0.179461,-0.203453,0.41714,187.1,-20.5246)">
                            <rect x="188.112" y="86.315" width="2.443" height="12.928" style="fill:rgb(18,14,11);"/>
                        </g>
                        <g transform="matrix(0.379572,0.153357,-0.173859,0.430316,173.297,-20.748)">
                            <rect x="188.112" y="86.315" width="2.443" height="12.928" style="fill:rgb(18,14,11);"/>
                        </g>
                        <g transform="matrix(0.384693,0.140017,-0.158735,0.436121,166.398,-20.4983)">
                            <rect x="188.112" y="86.315" width="2.443" height="12.928" style="fill:rgb(18,14,11);"/>
                        </g>
                        <g transform="matrix(0.393523,0.112841,-0.127926,0.446132,152.648,-19.2776)">
                            <rect x="188.112" y="86.315" width="2.443" height="12.928" style="fill:rgb(18,14,11);"/>
                        </g>
                        <g transform="matrix(0.397221,0.0990384,-0.112279,0.450325,145.813,-18.3081)">
                            <rect x="188.112" y="86.315" width="2.443" height="12.928" style="fill:rgb(18,14,11);"/>
                        </g>
                        <g transform="matrix(0.403162,0.0710884,-0.080592,0.45706,132.265,-15.6568)">
                            <rect x="188.112" y="86.315" width="2.443" height="12.928" style="fill:rgb(18,14,11);"/>
                        </g>
                        <g transform="matrix(0.405398,0.0569749,-0.0645917,0.459594,125.569,-13.9781)">
                            <rect x="188.112" y="86.315" width="2.443" height="12.928" style="fill:rgb(18,14,11);"/>
                        </g>
                        <g transform="matrix(0.408384,0.028557,-0.0323747,0.46298,112.372,-9.9252)">
                            <rect x="188.112" y="86.315" width="2.443" height="12.928" style="fill:rgb(18,14,11);"/>
                        </g>
                        <g transform="matrix(0.409132,0.0142872,-0.0161972,0.463828,105.888,-7.55582)">
                            <rect x="188.112" y="86.315" width="2.443" height="12.928" style="fill:rgb(18,14,11);"/>
                        </g>
                    </g>
                    <g transform="matrix(0.818763,0,0,0.464111,21.9805,-4.9616)">
                        <g id="Hour-Marks7" serif:id="Hour Marks">
                            <rect x="188.112" y="86.315" width="2.443" height="12.928" style="fill:rgb(18,14,11);"/>
                        </g>
                    </g>
                </g>
                <g id="_0-5-Second-Marks2" serif:id="0-5 Second Marks">
                    <g id="Second-Marks9" serif:id="Second Marks">
                        <g transform="matrix(1.22994,0.129272,-0.112908,1.07425,-40.3781,-28.5775)">
                            <rect x="191.779" y="36.712" width="0.809" height="14.35"/>
                        </g>
                        <g transform="matrix(1.1298,0.503017,-0.439344,0.986783,33.7873,-85.6887)">
                            <rect x="191.779" y="36.712" width="0.809" height="14.35"/>
                        </g>
                        <g transform="matrix(1.17619,0.382166,-0.333791,1.0273,7.11363,-69.2801)">
                            <rect x="191.779" y="36.712" width="0.809" height="14.35"/>
                        </g>
                        <g transform="matrix(1.20969,0.257128,-0.22458,1.05656,-17.6988,-50.1733)">
                            <rect x="191.779" y="36.712" width="0.809" height="14.35"/>
                        </g>
                    </g>
                    <g id="Second-Fraction-Marks8" serif:id="Second Fraction Marks" transform="matrix(1,0,0,1,-0.000515182,0)">
                        <g transform="matrix(0.361463,0.192193,-0.217887,0.409785,193.988,-20.0519)">
                            <rect x="188.112" y="86.315" width="2.443" height="12.928" style="fill:rgb(18,14,11);"/>
                        </g>
                        <g transform="matrix(0.36795,0.179461,-0.203453,0.41714,187.1,-20.5246)">
                            <rect x="188.112" y="86.315" width="2.443" height="12.928" style="fill:rgb(18,14,11);"/>
                        </g>
                        <g transform="matrix(0.379572,0.153357,-0.173859,0.430316,173.297,-20.748)">
                            <rect x="188.112" y="86.315" width="2.443" height="12.928" style="fill:rgb(18,14,11);"/>
                        </g>
                        <g transform="matrix(0.384693,0.140017,-0.158735,0.436121,166.398,-20.4983)">
                            <rect x="188.112" y="86.315" width="2.443" height="12.928" style="fill:rgb(18,14,11);"/>
                        </g>
                        <g transform="matrix(0.393523,0.112841,-0.127926,0.446132,152.648,-19.2776)">
                            <rect x="188.112" y="86.315" width="2.443" height="12.928" style="fill:rgb(18,14,11);"/>
                        </g>
                        <g transform="matrix(0.397221,0.0990384,-0.112279,0.450325,145.813,-18.3081)">
                            <rect x="188.112" y="86.315" width="2.443" height="12.928" style="fill:rgb(18,14,11);"/>
                        </g>
                        <g transform="matrix(0.403162,0.0710884,-0.080592,0.45706,132.265,-15.6568)">
                            <rect x="188.112" y="86.315" width="2.443" height="12.928" style="fill:rgb(18,14,11);"/>
                        </g>
                        <g transform="matrix(0.405398,0.0569749,-0.0645917,0.459594,125.569,-13.9781)">
                            <rect x="188.112" y="86.315" width="2.443" height="12.928" style="fill:rgb(18,14,11);"/>
                        </g>
                        <g transform="matrix(0.408384,0.028557,-0.0323747,0.46298,112.372,-9.9252)">
                            <rect x="188.112" y="86.315" width="2.443" height="12.928" style="fill:rgb(18,14,11);"/>
                        </g>
                        <g transform="matrix(0.409132,0.0142872,-0.0161972,0.463828,105.888,-7.55582)">
                            <rect x="188.112" y="86.315" width="2.443" height="12.928" style="fill:rgb(18,14,11);"/>
                        </g>
                    </g>
                    <g transform="matrix(0.818763,0,0,0.464111,21.9805,-4.9616)">
                        <g id="Hour-Marks8" serif:id="Hour Marks">
                            <rect x="188.112" y="86.315" width="2.443" height="12.928" style="fill:rgb(18,14,11);"/>
                        </g>
                    </g>
                </g>
            </g>
            <g id="_0-15-Second-Marks" serif:id="0-15 Second Marks">
                <g id="_10-15-Second-Marks3" serif:id="10-15 Second Marks" transform="matrix(0.5,0.866025,-0.866025,0.5,241.786,-64.7844)">
                    <g id="Second-Marks10" serif:id="Second Marks">
                        <g transform="matrix(1.22994,0.129272,-0.112908,1.07425,-40.3781,-28.5775)">
                            <rect x="191.779" y="36.712" width="0.809" height="14.35"/>
                        </g>
                        <g transform="matrix(1.1298,0.503017,-0.439344,0.986783,33.7873,-85.6887)">
                            <rect x="191.779" y="36.712" width="0.809" height="14.35"/>
                        </g>
                        <g transform="matrix(1.17619,0.382166,-0.333791,1.0273,7.11363,-69.2801)">
                            <rect x="191.779" y="36.712" width="0.809" height="14.35"/>
                        </g>
                        <g transform="matrix(1.20969,0.257128,-0.22458,1.05656,-17.6988,-50.1733)">
                            <rect x="191.779" y="36.712" width="0.809" height="14.35"/>
                        </g>
                    </g>
                    <g id="Second-Fraction-Marks9" serif:id="Second Fraction Marks" transform="matrix(1,0,0,1,-0.000515182,0)">
                        <g transform="matrix(0.361463,0.192193,-0.217887,0.409785,193.988,-20.0519)">
                            <rect x="188.112" y="86.315" width="2.443" height="12.928" style="fill:rgb(18,14,11);"/>
                        </g>
                        <g transform="matrix(0.36795,0.179461,-0.203453,0.41714,187.1,-20.5246)">
                            <rect x="188.112" y="86.315" width="2.443" height="12.928" style="fill:rgb(18,14,11);"/>
                        </g>
                        <g transform="matrix(0.379572,0.153357,-0.173859,0.430316,173.297,-20.748)">
                            <rect x="188.112" y="86.315" width="2.443" height="12.928" style="fill:rgb(18,14,11);"/>
                        </g>
                        <g transform="matrix(0.384693,0.140017,-0.158735,0.436121,166.398,-20.4983)">
                            <rect x="188.112" y="86.315" width="2.443" height="12.928" style="fill:rgb(18,14,11);"/>
                        </g>
                        <g transform="matrix(0.393523,0.112841,-0.127926,0.446132,152.648,-19.2776)">
                            <rect x="188.112" y="86.315" width="2.443" height="12.928" style="fill:rgb(18,14,11);"/>
                        </g>
                        <g transform="matrix(0.397221,0.0990384,-0.112279,0.450325,145.813,-18.3081)">
                            <rect x="188.112" y="86.315" width="2.443" height="12.928" style="fill:rgb(18,14,11);"/>
                        </g>
                        <g transform="matrix(0.403162,0.0710884,-0.080592,0.45706,132.265,-15.6568)">
                            <rect x="188.112" y="86.315" width="2.443" height="12.928" style="fill:rgb(18,14,11);"/>
                        </g>
                        <g transform="matrix(0.405398,0.0569749,-0.0645917,0.459594,125.569,-13.9781)">
                            <rect x="188.112" y="86.315" width="2.443" height="12.928" style="fill:rgb(18,14,11);"/>
                        </g>
                        <g transform="matrix(0.408384,0.028557,-0.0323747,0.46298,112.372,-9.9252)">
                            <rect x="188.112" y="86.315" width="2.443" height="12.928" style="fill:rgb(18,14,11);"/>
                        </g>
                        <g transform="matrix(0.409132,0.0142872,-0.0161972,0.463828,105.888,-7.55582)">
                            <rect x="188.112" y="86.315" width="2.443" height="12.928" style="fill:rgb(18,14,11);"/>
                        </g>
                    </g>
                    <g transform="matrix(0.818763,0,0,0.464111,21.9805,-4.9616)">
                        <g id="Hour-Marks9" serif:id="Hour Marks">
                            <rect x="188.112" y="86.315" width="2.443" height="12.928" style="fill:rgb(18,14,11);"/>
                        </g>
                    </g>
                </g>
                <g id="_5-10-Second-Marks3" serif:id="5-10 Second Marks" transform="matrix(0.866025,0.5,-0.5,0.866025,112.213,-64.7854)">
                    <g id="Second-Marks11" serif:id="Second Marks">
                        <g transform="matrix(1.22994,0.129272,-0.112908,1.07425,-40.3781,-28.5775)">
                            <rect x="191.779" y="36.712" width="0.809" height="14.35"/>
                        </g>
                        <g transform="matrix(1.1298,0.503017,-0.439344,0.986783,33.7873,-85.6887)">
                            <rect x="191.779" y="36.712" width="0.809" height="14.35"/>
                        </g>
                        <g transform="matrix(1.17619,0.382166,-0.333791,1.0273,7.11363,-69.2801)">
                            <rect x="191.779" y="36.712" width="0.809" height="14.35"/>
                        </g>
                        <g transform="matrix(1.20969,0.257128,-0.22458,1.05656,-17.6988,-50.1733)">
                            <rect x="191.779" y="36.712" width="0.809" height="14.35"/>
                        </g>
                    </g>
                    <g id="Second-Fraction-Marks10" serif:id="Second Fraction Marks" transform="matrix(1,0,0,1,-0.000515182,0)">
                        <g transform="matrix(0.361463,0.192193,-0.217887,0.409785,193.988,-20.0519)">
                            <rect x="188.112" y="86.315" width="2.443" height="12.928" style="fill:rgb(18,14,11);"/>
                        </g>
                        <g transform="matrix(0.36795,0.179461,-0.203453,0.41714,187.1,-20.5246)">
                            <rect x="188.112" y="86.315" width="2.443" height="12.928" style="fill:rgb(18,14,11);"/>
                        </g>
                        <g transform="matrix(0.379572,0.153357,-0.173859,0.430316,173.297,-20.748)">
                            <rect x="188.112" y="86.315" width="2.443" height="12.928" style="fill:rgb(18,14,11);"/>
                        </g>
                        <g transform="matrix(0.384693,0.140017,-0.158735,0.436121,166.398,-20.4983)">
                            <rect x="188.112" y="86.315" width="2.443" height="12.928" style="fill:rgb(18,14,11);"/>
                        </g>
                        <g transform="matrix(0.393523,0.112841,-0.127926,0.446132,152.648,-19.2776)">
                            <rect x="188.112" y="86.315" width="2.443" height="12.928" style="fill:rgb(18,14,11);"/>
                        </g>
                        <g transform="matrix(0.397221,0.0990384,-0.112279,0.450325,145.813,-18.3081)">
                            <rect x="188.112" y="86.315" width="2.443" height="12.928" style="fill:rgb(18,14,11);"/>
                        </g>
                        <g transform="matrix(0.403162,0.0710884,-0.080592,0.45706,132.265,-15.6568)">
                            <rect x="188.112" y="86.315" width="2.443" height="12.928" style="fill:rgb(18,14,11);"/>
                        </g>
                        <g transform="matrix(0.405398,0.0569749,-0.0645917,0.459594,125.569,-13.9781)">
                            <rect x="188.112" y="86.315" width="2.443" height="12.928" style="fill:rgb(18,14,11);"/>
                        </g>
                        <g transform="matrix(0.408384,0.028557,-0.0323747,0.46298,112.372,-9.9252)">
                            <rect x="188.112" y="86.315" width="2.443" height="12.928" style="fill:rgb(18,14,11);"/>
                        </g>
                        <g transform="matrix(0.409132,0.0142872,-0.0161972,0.463828,105.888,-7.55582)">
                            <rect x="188.112" y="86.315" width="2.443" height="12.928" style="fill:rgb(18,14,11);"/>
                        </g>
                    </g>
                    <g transform="matrix(0.818763,0,0,0.464111,21.9805,-4.9616)">
                        <g id="Hour-Marks10" serif:id="Hour Marks">
                            <rect x="188.112" y="86.315" width="2.443" height="12.928" style="fill:rgb(18,14,11);"/>
                        </g>
                    </g>
                </g>
                <g id="_0-5-Second-Marks3" serif:id="0-5 Second Marks">
                    <g id="Second-Marks12" serif:id="Second Marks">
                        <g transform="matrix(1.22994,0.129272,-0.112908,1.07425,-40.3781,-28.5775)">
                            <rect x="191.779" y="36.712" width="0.809" height="14.35"/>
                        </g>
                        <g transform="matrix(1.1298,0.503017,-0.439344,0.986783,33.7873,-85.6887)">
                            <rect x="191.779" y="36.712" width="0.809" height="14.35"/>
                        </g>
                        <g transform="matrix(1.17619,0.382166,-0.333791,1.0273,7.11363,-69.2801)">
                            <rect x="191.779" y="36.712" width="0.809" height="14.35"/>
                        </g>
                        <g transform="matrix(1.20969,0.257128,-0.22458,1.05656,-17.6988,-50.1733)">
                            <rect x="191.779" y="36.712" width="0.809" height="14.35"/>
                        </g>
                    </g>
                    <g id="Second-Fraction-Marks11" serif:id="Second Fraction Marks" transform="matrix(1,0,0,1,-0.000515182,0)">
                        <g transform="matrix(0.361463,0.192193,-0.217887,0.409785,193.988,-20.0519)">
                            <rect x="188.112" y="86.315" width="2.443" height="12.928" style="fill:rgb(18,14,11);"/>
                        </g>
                        <g transform="matrix(0.36795,0.179461,-0.203453,0.41714,187.1,-20.5246)">
                            <rect x="188.112" y="86.315" width="2.443" height="12.928" style="fill:rgb(18,14,11);"/>
                        </g>
                        <g transform="matrix(0.379572,0.153357,-0.173859,0.430316,173.297,-20.748)">
                            <rect x="188.112" y="86.315" width="2.443" height="12.928" style="fill:rgb(18,14,11);"/>
                        </g>
                        <g transform="matrix(0.384693,0.140017,-0.158735,0.436121,166.398,-20.4983)">
                            <rect x="188.112" y="86.315" width="2.443" height="12.928" style="fill:rgb(18,14,11);"/>
                        </g>
                        <g transform="matrix(0.393523,0.112841,-0.127926,0.446132,152.648,-19.2776)">
                            <rect x="188.112" y="86.315" width="2.443" height="12.928" style="fill:rgb(18,14,11);"/>
                        </g>
                        <g transform="matrix(0.397221,0.0990384,-0.112279,0.450325,145.813,-18.3081)">
                            <rect x="188.112" y="86.315" width="2.443" height="12.928" style="fill:rgb(18,14,11);"/>
                        </g>
                        <g transform="matrix(0.403162,0.0710884,-0.080592,0.45706,132.265,-15.6568)">
                            <rect x="188.112" y="86.315" width="2.443" height="12.928" style="fill:rgb(18,14,11);"/>
                        </g>
                        <g transform="matrix(0.405398,0.0569749,-0.0645917,0.459594,125.569,-13.9781)">
                            <rect x="188.112" y="86.315" width="2.443" height="12.928" style="fill:rgb(18,14,11);"/>
                        </g>
                        <g transform="matrix(0.408384,0.028557,-0.0323747,0.46298,112.372,-9.9252)">
                            <rect x="188.112" y="86.315" width="2.443" height="12.928" style="fill:rgb(18,14,11);"/>
                        </g>
                        <g transform="matrix(0.409132,0.0142872,-0.0161972,0.463828,105.888,-7.55582)">
                            <rect x="188.112" y="86.315" width="2.443" height="12.928" style="fill:rgb(18,14,11);"/>
                        </g>
                    </g>
                    <g transform="matrix(0.818763,0,0,0.464111,21.9805,-4.9616)">
                        <g id="Hour-Marks11" serif:id="Hour Marks">
                            <rect x="188.112" y="86.315" width="2.443" height="12.928" style="fill:rgb(18,14,11);"/>
                        </g>
                    </g>
                </g>
            </g>
        </g>
        <g id="Hamilton-Text" serif:id="Hamilton Text" transform="matrix(0.851392,0,0,0.851392,23.8777,17.4753)">
            <path id="hamilton-N" d="M239.669,128.391L239.669,122.542C239.669,120.688 239.669,117.502 233.392,117.502C227.116,117.502 227.068,120.711 227.068,122.542L227.068,128.391L229.018,128.391L229.018,123.398C229.065,121.52 228.4,119.261 233.321,119.261C238.243,119.261 237.648,121.52 237.696,123.398L237.696,128.391L239.669,128.391Z" style="fill-rule:nonzero;"/>
            <path id="himilton-O" d="M223.921,122.732C223.921,118.358 220.688,117.098 216.86,117.098C212.937,117.098 209.799,118.31 209.799,122.732C209.799,127.154 212.913,128.367 216.86,128.367C220.498,128.391 223.921,127.154 223.921,122.732M211.582,122.756C211.582,119.475 214.126,118.833 216.86,118.833C219.451,118.833 222.138,119.475 222.138,122.756C222.138,126.013 219.523,126.703 216.86,126.703C214.102,126.679 211.582,125.989 211.582,122.756" style="fill-rule:nonzero;"/>
            <g id="hamilton-T" transform="matrix(0.0629045,0,0,0.0629045,131.083,50.29)">
                <path d="M1241.58,1096.82L1241.58,1069.98L1004.98,1069.98L1004.98,1096.82L1108.54,1096.82L1108.54,1241.58L1139.91,1241.58L1139.91,1096.82L1241.58,1096.82Z" style="fill-rule:nonzero;"/>
            </g>
            <g id="hamilton-L" transform="matrix(0.0629045,0,0,0.0629045,133.71,50.29)">
                <path d="M1003.47,1213.61L866.268,1213.61L866.268,1069.98L834.898,1069.98L834.898,1241.58L1003.47,1241.58L1003.47,1213.61Z" style="fill-rule:nonzero;"/>
            </g>
            <rect id="himilton-I" x="179.382" y="117.597" width="1.95" height="10.746"/>
            <path id="hamilton-M" d="M175.435,128.391L175.435,122.471C175.411,119.855 175.673,117.288 170.395,117.288C168.136,117.288 166.448,117.668 165.782,118.714C165.14,117.692 163.476,117.288 161.194,117.288C156.154,117.288 156.177,119.855 156.154,122.471L156.154,128.391L158.222,128.391L158.222,123.279C158.293,121.02 157.651,119.142 161.146,119.142C164.95,119.142 164.784,119.855 164.784,123.279L164.784,128.391L166.805,128.391L166.805,123.255C166.805,119.832 166.662,119.118 170.442,119.118C173.937,119.118 173.272,120.997 173.367,123.255L173.367,128.367L175.435,128.391Z" style="fill-rule:nonzero;"/>
            <path id="hamilton-A" d="M146.055,117.502C138.946,117.502 139.112,120.711 139.112,122.542L139.112,128.391L141.109,128.391L141.109,124.658L151.024,124.658L151.024,128.391L153.021,128.391L153.021,122.542C152.973,120.688 153.163,117.502 146.055,117.502M151,122.804L141.086,122.804C141.062,121.116 140.658,119.237 146.055,119.237C151.428,119.237 151.024,121.068 151,122.804" style="fill-rule:nonzero;"/>
            <path id="hamilton-H" d="M133.02,121.662L123.154,121.662L123.154,117.502L121.156,117.502L121.156,128.319L123.154,128.319L123.154,123.636L133.02,123.636L133.02,128.319L135.017,128.319L135.017,117.502L133.02,117.502L133.02,121.662Z" style="fill-rule:nonzero;"/>
        </g>
        <g id="Hour-Numbers" serif:id="Hour Numbers">
            <path d="M169.124,59.482C169.124,59.482 173.643,55.968 176.302,55.053C179.001,54.124 182.796,53.449 186.727,54.373C188.677,54.831 191.034,56.024 192.203,57.257C193.149,58.254 194.056,60.754 193.95,62.125C193.842,63.525 193.084,65.898 191.891,66.908C190.266,68.283 187.054,69.622 184.421,70.696C181.713,71.802 176.22,74.277 176.22,74.277L194.003,74.168L193.979,78.814L168.716,78.766C168.716,78.766 168.721,76.15 169.1,75.133C169.528,73.983 170.302,72.054 172.173,70.817C174.521,69.266 178.632,67.722 180.77,66.666C182.264,65.927 185.809,64.965 186.565,64.047C187.214,63.259 187.566,61.33 187.072,60.464C186.578,59.597 186.146,59.183 184.886,58.84C183.536,58.473 181.156,58.441 179.696,58.808C178.235,59.175 177.253,59.745 176.261,60.292C175.366,60.784 172.977,62.938 172.977,62.938L169.124,59.482Z" style="fill:rgb(223,199,147);stroke:black;stroke-width:0.83px;"/>
            <path d="M84.65,218.41C94.023,218.803 97.708,222.613 97.659,225.012C97.575,229.091 92.491,230.061 92.491,230.061C92.491,230.061 99.023,231.34 98.968,236.296C98.911,241.415 89.838,243.458 85.222,243.423C74.286,243.341 71.241,239.112 71.224,234.935C71.214,232.308 77.251,230.018 77.251,230.018C77.251,230.018 72.479,228.794 72.48,224.684C72.48,220.376 80.369,218.23 84.65,218.41ZM85.051,222.475C81.637,222.456 78.795,223.719 78.798,225.25C78.802,226.781 81.393,227.85 85.085,227.883C89.302,227.92 91.436,226.644 91.439,225.234C91.443,223.825 89.175,222.497 85.051,222.475ZM84.998,232.355C81.583,232.336 78.149,233.564 78.203,235.69C78.256,237.816 81.441,238.769 85.134,238.802C89.351,238.839 92.217,237.183 92.227,235.542C92.237,233.902 89.122,232.377 84.998,232.355Z" style="fill:rgb(223,199,147);stroke:rgb(1,1,0);stroke-width:0.83px;"/>
            <g transform="matrix(1,0,0,1,88.3984,54.5562)">
                <path d="M169.124,59.482C169.124,59.482 173.643,55.968 176.302,55.053C179.001,54.124 182.796,53.449 186.727,54.373C188.677,54.831 191.034,56.024 192.203,57.257C193.149,58.254 194.056,60.754 193.95,62.125C193.842,63.525 193.084,65.898 191.891,66.908C190.266,68.283 187.054,69.622 184.421,70.696C181.713,71.802 176.22,74.277 176.22,74.277L194.003,74.168L193.979,78.814L168.716,78.766C168.716,78.766 168.721,76.15 169.1,75.133C169.528,73.983 170.302,72.054 172.173,70.817C174.521,69.266 178.632,67.722 180.77,66.666C182.264,65.927 185.809,64.965 186.565,64.047C187.214,63.259 187.566,61.33 187.072,60.464C186.578,59.597 186.146,59.183 184.886,58.84C183.536,58.473 181.156,58.441 179.696,58.808C178.235,59.175 177.253,59.745 176.261,60.292C175.366,60.784 172.977,62.938 172.977,62.938L169.124,59.482Z" style="fill:rgb(223,199,147);stroke:black;stroke-width:0.83px;"/>
            </g>
            <g transform="matrix(1,0,0,1.03633,44.2827,-19.3617)">
                <path d="M116.461,71.554L121.186,71.563L121.202,95.04L116.475,95.069L116.461,71.554Z" style="fill:rgb(223,199,147);stroke:black;stroke-width:0.82px;"/>
            </g>
            <g transform="matrix(1,0,0,1.03633,-42.0532,38.0555)">
                <path d="M116.461,71.554L121.186,71.563L121.202,95.04L116.475,95.069L116.461,71.554Z" style="fill:rgb(223,199,147);stroke:black;stroke-width:0.82px;"/>
            </g>
            <g transform="matrix(1,0,0,1.03633,-0.00946021,-3.17262)">
                <path d="M116.461,71.554L121.186,71.563L121.202,95.04L116.475,95.069L116.461,71.554Z" style="fill:rgb(223,199,147);stroke:black;stroke-width:0.82px;"/>
            </g>
            <g transform="matrix(1,0,0,1.03633,10.2452,-3.5695)">
                <path d="M116.461,71.554L121.186,71.563L121.202,95.04L116.475,95.069L116.461,71.554Z" style="fill:rgb(223,199,147);stroke:black;stroke-width:0.82px;"/>
            </g>
            <g transform="matrix(1,0,0,1.03633,114,-5.31168)">
                <path d="M116.461,71.554L121.186,71.563L121.202,95.04L116.475,95.069L116.461,71.554Z" style="fill:rgb(223,199,147);stroke:black;stroke-width:0.82px;"/>
            </g>
            <path d="M94.623,111.983C102.478,112.004 108.025,117.212 108.032,124.482C108.038,130.601 104.404,137.258 95.011,137.195C84.929,137.127 81.012,131.2 81.055,125.282C81.104,118.568 84.766,111.955 94.623,111.983ZM94.965,116.583C89.789,116.646 87.342,120.669 87.407,125.032C87.481,129.923 90.813,132.802 94.73,132.767C100.07,132.72 101.945,128.394 101.925,124.362C101.902,119.971 98.842,116.536 94.965,116.583Z" style="fill:rgb(223,199,147);stroke:black;stroke-width:0.83px;"/>
            <path d="M252.222,234.633L263.944,218.8L278.934,218.77L278.807,234.446L282.192,234.456L282.088,239.149L278.989,239.107L278.915,243.037L272.967,243.026L272.957,238.968L252.277,238.852L252.222,234.633ZM258.725,234.426L272.754,234.46L272.888,223.253L267.549,223.22L258.725,234.426Z" style="fill:rgb(223,199,147);stroke:rgb(1,1,0);stroke-width:0.83px;"/>
            <path d="M72.944,175.662L72.713,180.641C72.713,180.641 67.657,181.628 65.127,181.388C61.267,181.022 58.901,180.071 57.3,178.249C55.707,176.437 54.475,173.455 55.521,170.458C56.26,168.343 60.529,162.43 73.785,165.076C78.695,166.056 82.677,170.992 82.501,177.104C82.338,182.78 77.314,188.827 70.306,189.654C60.29,190.835 55.849,186.395 55.849,186.395L58.418,182.574C58.418,182.574 62.687,185.071 65.209,185.127C68.315,185.197 75.358,186.071 75.724,177.316C76.117,167.892 67.89,168.925 66.08,169.273C64.512,169.574 61.879,170.44 61.925,172.942C62.015,177.907 68.321,176.512 69.588,176.391C70.797,176.275 72.944,175.662 72.944,175.662Z" style="fill:rgb(223,199,147);stroke:rgb(1,1,0);stroke-width:0.83px;"/>
            <path d="M115.404,261.048L140.862,261.198L140.222,265.745L126.131,285.491L118.386,285.216L132.815,266.115L115.487,265.645L115.404,261.048Z" style="fill:rgb(223,199,147);stroke:rgb(1,1,0);stroke-width:0.83px;"/>
            <path d="M187.302,282.365C187.302,282.365 182.634,280.109 180.335,279.899C177.204,279.614 171.301,279.952 170.27,285.856C169.327,291.256 170.527,295.404 177.187,295.755C179.177,295.86 183.727,296.474 184.128,291.774C184.267,290.155 182.693,288.448 178.805,288.118C177.371,287.996 173.089,289.403 173.089,289.403L172.945,284.674C172.945,284.674 177.165,283.447 179.324,283.534C182.959,283.678 186.035,284.781 187.564,285.968C189.31,287.323 190.796,289.031 190.913,291.425C191.011,293.431 189.622,296.025 188.017,297.43C186.412,298.835 183.046,300.753 177.453,300.799C171.06,300.851 167.439,298.229 165.976,296.264C164.547,294.344 163.399,290.648 163.604,288.262C164.178,281.589 167.21,275.81 176.694,275.348C184.405,274.973 190.586,278.27 190.586,278.27L187.302,282.365Z" style="fill:rgb(223,199,147);stroke:rgb(1,1,0);stroke-width:0.83px;"/>
            <path d="M219.113,272.794L219.237,258.803L243.641,258.981L243.258,263.595L225.7,263.704L225.4,267.847C225.4,267.847 236.659,267.099 240.363,268.9C243.395,270.373 245.5,273.064 245.146,275.951C244.448,281.655 236.815,283.587 235.596,283.626C232.121,283.739 218.632,283.68 218.632,283.68L219.2,278.764C219.2,278.764 223.749,279.036 228.309,278.819C236.478,278.431 237.473,278.217 238.226,275.444C239.324,271.403 225.96,273.668 220.605,274.139C219.16,274.266 219.113,272.794 219.113,272.794Z" style="fill:rgb(223,199,147);stroke:rgb(1,1,0);stroke-width:0.83px;"/>
            <path d="M275.808,172.701L272.522,169.452C272.522,169.452 277.806,164.889 284.482,164.79C295.893,164.62 297.711,168.943 297.938,169.868C299.182,174.937 294.969,176.672 294.969,176.672C294.969,176.672 299.045,178.292 299.161,180.852C299.45,187.203 295.178,188.714 291.581,189.449C284.558,190.884 277.916,188.937 276.192,188.324C274.633,187.769 271.736,186.134 271.736,186.134L273.779,181.85C273.779,181.85 278.261,184.185 280.438,184.764C282.508,185.313 285.047,185.53 286.839,185.319C295.504,184.296 292.513,179.557 288.14,179.071C286.662,178.907 282.872,178.878 282.872,178.878L282.864,174.982C282.864,174.982 286.937,175.336 288.425,174.963C293.763,173.625 292.049,169.048 285.494,169.47C278.336,169.93 275.808,172.701 275.808,172.701Z" style="fill:rgb(223,199,147);stroke:black;stroke-width:0.83px;"/>
        </g>
        <g>
            <g transform="matrix(0.820256,0,0,0.820256,8.00572,59.5218)">
                <g transform="matrix(8.85789,0,0,8.85789,161.484,214.75)">
                    <path d="M0.966,-0.222L0.205,-0.222L0.205,-0L0.07,-0L0.07,-0.469C0.07,-0.505 0.078,-0.536 0.094,-0.563C0.109,-0.589 0.13,-0.612 0.157,-0.631C0.184,-0.65 0.214,-0.665 0.249,-0.677C0.284,-0.689 0.32,-0.698 0.359,-0.705C0.397,-0.712 0.436,-0.716 0.475,-0.719C0.514,-0.722 0.55,-0.723 0.585,-0.723C0.62,-0.723 0.658,-0.722 0.697,-0.719C0.736,-0.716 0.774,-0.712 0.812,-0.705C0.85,-0.698 0.886,-0.689 0.922,-0.677C0.957,-0.665 0.987,-0.65 1.014,-0.631C1.041,-0.612 1.062,-0.589 1.078,-0.563C1.093,-0.536 1.101,-0.505 1.101,-0.469L1.101,-0L0.966,-0L0.966,-0.222ZM0.966,-0.448C0.966,-0.474 0.96,-0.496 0.948,-0.515C0.935,-0.533 0.919,-0.548 0.898,-0.56C0.877,-0.572 0.854,-0.581 0.828,-0.588C0.801,-0.595 0.774,-0.6 0.746,-0.603C0.717,-0.606 0.689,-0.607 0.662,-0.608C0.634,-0.609 0.608,-0.609 0.585,-0.609C0.562,-0.609 0.536,-0.609 0.509,-0.608C0.481,-0.607 0.453,-0.606 0.425,-0.603C0.396,-0.6 0.369,-0.595 0.343,-0.588C0.316,-0.581 0.293,-0.572 0.273,-0.56C0.252,-0.548 0.236,-0.533 0.224,-0.515C0.211,-0.496 0.205,-0.474 0.205,-0.448L0.205,-0.338L0.966,-0.338L0.966,-0.448Z" style="fill-rule:nonzero;"/>
                </g>
                <g transform="matrix(8.85789,0,0,8.85789,171.857,214.75)">
                    <path d="M0.946,-0.7L1.081,-0.7L1.081,-0.231C1.081,-0.196 1.073,-0.165 1.058,-0.138C1.043,-0.111 1.022,-0.089 0.996,-0.07C0.969,-0.051 0.939,-0.036 0.905,-0.024C0.871,-0.012 0.835,-0.003 0.798,0.005C0.76,0.012 0.722,0.016 0.684,0.019C0.646,0.022 0.61,0.023 0.576,0.023C0.542,0.023 0.506,0.022 0.468,0.019C0.429,0.016 0.391,0.012 0.354,0.005C0.317,-0.003 0.281,-0.012 0.247,-0.024C0.212,-0.036 0.182,-0.051 0.156,-0.07C0.13,-0.089 0.109,-0.111 0.094,-0.138C0.078,-0.164 0.07,-0.195 0.07,-0.231L0.07,-0.7L0.205,-0.7L0.205,-0.252C0.205,-0.22 0.216,-0.194 0.238,-0.173C0.259,-0.152 0.288,-0.136 0.323,-0.124C0.358,-0.112 0.397,-0.103 0.442,-0.099C0.486,-0.093 0.531,-0.091 0.576,-0.091C0.621,-0.091 0.666,-0.093 0.71,-0.099C0.754,-0.103 0.794,-0.112 0.829,-0.124C0.864,-0.136 0.892,-0.152 0.914,-0.173C0.935,-0.194 0.946,-0.22 0.946,-0.252L0.946,-0.7Z" style="fill-rule:nonzero;"/>
                </g>
                <g transform="matrix(8.85789,0,0,8.85789,182.052,214.75)">
                    <path d="M0.993,-0.579C0.943,-0.586 0.893,-0.591 0.844,-0.595C0.795,-0.598 0.75,-0.601 0.71,-0.603C0.663,-0.606 0.619,-0.607 0.578,-0.607L0.578,-0L0.443,-0L0.443,-0.607C0.401,-0.607 0.357,-0.606 0.311,-0.603C0.271,-0.601 0.227,-0.598 0.178,-0.595C0.129,-0.591 0.079,-0.586 0.029,-0.579L0.02,-0.692C0.06,-0.698 0.101,-0.703 0.144,-0.707C0.186,-0.711 0.228,-0.714 0.271,-0.717C0.314,-0.719 0.356,-0.721 0.398,-0.722C0.439,-0.723 0.479,-0.723 0.518,-0.723C0.594,-0.723 0.674,-0.721 0.759,-0.716C0.843,-0.711 0.924,-0.703 1.002,-0.692L0.993,-0.579Z" style="fill-rule:nonzero;"/>
                </g>
                <g transform="matrix(8.85789,0,0,8.85789,191.105,214.75)">
                    <path d="M0.055,-0.35C0.055,-0.415 0.065,-0.47 0.085,-0.517C0.105,-0.564 0.137,-0.602 0.182,-0.633C0.227,-0.664 0.285,-0.686 0.357,-0.701C0.428,-0.716 0.516,-0.723 0.62,-0.723C0.724,-0.723 0.812,-0.716 0.884,-0.701C0.955,-0.686 1.013,-0.664 1.058,-0.633C1.103,-0.602 1.135,-0.564 1.155,-0.517C1.175,-0.47 1.185,-0.415 1.185,-0.35C1.185,-0.285 1.176,-0.23 1.159,-0.183C1.141,-0.135 1.11,-0.097 1.067,-0.067C1.024,-0.036 0.966,-0.014 0.894,0.001C0.821,0.016 0.73,0.023 0.62,0.023C0.51,0.023 0.419,0.016 0.347,0.001C0.274,-0.014 0.216,-0.036 0.173,-0.067C0.13,-0.097 0.099,-0.135 0.082,-0.183C0.064,-0.23 0.055,-0.285 0.055,-0.35ZM1.039,-0.35C1.039,-0.394 1.034,-0.432 1.024,-0.465C1.013,-0.498 0.993,-0.525 0.963,-0.546C0.932,-0.567 0.89,-0.583 0.835,-0.594C0.78,-0.604 0.709,-0.609 0.62,-0.609C0.531,-0.609 0.46,-0.604 0.405,-0.594C0.35,-0.583 0.308,-0.567 0.278,-0.546C0.247,-0.525 0.227,-0.498 0.217,-0.465C0.206,-0.432 0.201,-0.394 0.201,-0.35C0.201,-0.306 0.206,-0.268 0.217,-0.235C0.227,-0.202 0.247,-0.175 0.278,-0.155C0.308,-0.133 0.35,-0.118 0.405,-0.108C0.46,-0.097 0.531,-0.092 0.62,-0.092C0.709,-0.092 0.78,-0.097 0.835,-0.108C0.89,-0.118 0.932,-0.133 0.963,-0.155C0.993,-0.175 1.013,-0.202 1.024,-0.235C1.034,-0.268 1.039,-0.306 1.039,-0.35Z" style="fill-rule:nonzero;"/>
                </g>
                <g transform="matrix(8.85789,0,0,8.85789,202.089,214.75)">
                    <path d="M1.399,-0.723C1.424,-0.723 1.453,-0.722 1.487,-0.72C1.521,-0.717 1.556,-0.713 1.593,-0.706C1.629,-0.699 1.665,-0.689 1.701,-0.677C1.737,-0.664 1.769,-0.648 1.798,-0.628C1.826,-0.608 1.849,-0.584 1.866,-0.555C1.883,-0.526 1.892,-0.493 1.892,-0.454L1.892,-0L1.757,-0L1.757,-0.433C1.757,-0.458 1.751,-0.479 1.739,-0.497C1.726,-0.515 1.71,-0.531 1.69,-0.544C1.669,-0.557 1.646,-0.568 1.621,-0.577C1.595,-0.585 1.569,-0.591 1.542,-0.596C1.515,-0.601 1.49,-0.604 1.465,-0.606C1.44,-0.608 1.418,-0.609 1.399,-0.609C1.381,-0.609 1.36,-0.608 1.336,-0.607C1.311,-0.605 1.286,-0.602 1.26,-0.598C1.234,-0.593 1.209,-0.587 1.184,-0.58C1.159,-0.573 1.136,-0.564 1.116,-0.553C1.096,-0.542 1.08,-0.53 1.068,-0.515C1.055,-0.5 1.049,-0.483 1.049,-0.464L1.049,-0L0.914,-0L0.914,-0.465C0.914,-0.484 0.909,-0.501 0.898,-0.516C0.886,-0.53 0.872,-0.542 0.854,-0.553C0.835,-0.564 0.815,-0.573 0.792,-0.58C0.769,-0.587 0.745,-0.593 0.721,-0.598C0.696,-0.602 0.672,-0.605 0.649,-0.607C0.626,-0.608 0.605,-0.609 0.587,-0.609C0.568,-0.609 0.546,-0.608 0.52,-0.606C0.493,-0.604 0.466,-0.601 0.438,-0.596C0.409,-0.591 0.381,-0.585 0.354,-0.577C0.326,-0.568 0.301,-0.557 0.279,-0.544C0.257,-0.531 0.239,-0.515 0.226,-0.497C0.212,-0.479 0.205,-0.458 0.205,-0.433L0.205,-0L0.07,-0L0.07,-0.454C0.07,-0.493 0.079,-0.526 0.098,-0.555C0.117,-0.584 0.141,-0.608 0.171,-0.628C0.201,-0.648 0.235,-0.664 0.273,-0.677C0.311,-0.689 0.349,-0.699 0.388,-0.706C0.426,-0.713 0.462,-0.717 0.498,-0.72C0.533,-0.722 0.562,-0.723 0.587,-0.723C0.614,-0.723 0.645,-0.721 0.68,-0.719C0.715,-0.716 0.75,-0.71 0.787,-0.702C0.823,-0.693 0.858,-0.682 0.893,-0.667C0.927,-0.652 0.957,-0.634 0.983,-0.611C1.011,-0.634 1.043,-0.652 1.08,-0.667C1.117,-0.682 1.154,-0.693 1.193,-0.702C1.231,-0.71 1.268,-0.716 1.305,-0.719C1.341,-0.721 1.372,-0.723 1.399,-0.723Z" style="fill-rule:nonzero;"/>
                </g>
                <g transform="matrix(8.85789,0,0,8.85789,219.468,214.75)">
                    <path d="M0.966,-0.222L0.205,-0.222L0.205,-0L0.07,-0L0.07,-0.469C0.07,-0.505 0.078,-0.536 0.094,-0.563C0.109,-0.589 0.13,-0.612 0.157,-0.631C0.184,-0.65 0.214,-0.665 0.249,-0.677C0.284,-0.689 0.32,-0.698 0.359,-0.705C0.397,-0.712 0.436,-0.716 0.475,-0.719C0.514,-0.722 0.55,-0.723 0.585,-0.723C0.62,-0.723 0.658,-0.722 0.697,-0.719C0.736,-0.716 0.774,-0.712 0.812,-0.705C0.85,-0.698 0.886,-0.689 0.922,-0.677C0.957,-0.665 0.987,-0.65 1.014,-0.631C1.041,-0.612 1.062,-0.589 1.078,-0.563C1.093,-0.536 1.101,-0.505 1.101,-0.469L1.101,-0L0.966,-0L0.966,-0.222ZM0.966,-0.448C0.966,-0.474 0.96,-0.496 0.948,-0.515C0.935,-0.533 0.919,-0.548 0.898,-0.56C0.877,-0.572 0.854,-0.581 0.828,-0.588C0.801,-0.595 0.774,-0.6 0.746,-0.603C0.717,-0.606 0.689,-0.607 0.662,-0.608C0.634,-0.609 0.608,-0.609 0.585,-0.609C0.562,-0.609 0.536,-0.609 0.509,-0.608C0.481,-0.607 0.453,-0.606 0.425,-0.603C0.396,-0.6 0.369,-0.595 0.343,-0.588C0.316,-0.581 0.293,-0.572 0.273,-0.56C0.252,-0.548 0.236,-0.533 0.224,-0.515C0.211,-0.496 0.205,-0.474 0.205,-0.448L0.205,-0.338L0.966,-0.338L0.966,-0.448Z" style="fill-rule:nonzero;"/>
                </g>
                <g transform="matrix(8.85789,0,0,8.85789,229.752,214.75)">
                    <path d="M0.993,-0.579C0.943,-0.586 0.893,-0.591 0.844,-0.595C0.795,-0.598 0.75,-0.601 0.71,-0.603C0.663,-0.606 0.619,-0.607 0.578,-0.607L0.578,-0L0.443,-0L0.443,-0.607C0.401,-0.607 0.357,-0.606 0.311,-0.603C0.271,-0.601 0.227,-0.598 0.178,-0.595C0.129,-0.591 0.079,-0.586 0.029,-0.579L0.02,-0.692C0.06,-0.698 0.101,-0.703 0.144,-0.707C0.186,-0.711 0.228,-0.714 0.271,-0.717C0.314,-0.719 0.356,-0.721 0.398,-0.722C0.439,-0.723 0.479,-0.723 0.518,-0.723C0.594,-0.723 0.674,-0.721 0.759,-0.716C0.843,-0.711 0.924,-0.703 1.002,-0.692L0.993,-0.579Z" style="fill-rule:nonzero;"/>
                </g>
                <g transform="matrix(8.85789,0,0,8.85789,238.805,214.75)">
                    <rect x="0.08" y="-0.7" width="0.135" height="0.7" style="fill-rule:nonzero;"/>
                </g>
                <g transform="matrix(8.85789,0,0,8.85789,241.418,214.75)">
                    <path d="M0.055,-0.348C0.055,-0.405 0.062,-0.454 0.075,-0.495C0.088,-0.536 0.107,-0.57 0.132,-0.598C0.156,-0.625 0.186,-0.647 0.221,-0.664C0.256,-0.681 0.295,-0.693 0.338,-0.702C0.381,-0.711 0.428,-0.716 0.479,-0.719C0.53,-0.722 0.583,-0.723 0.639,-0.723C0.717,-0.723 0.782,-0.721 0.833,-0.719C0.884,-0.716 0.924,-0.713 0.954,-0.71L0.943,-0.592C0.926,-0.594 0.906,-0.596 0.883,-0.598C0.86,-0.599 0.835,-0.601 0.809,-0.602C0.782,-0.603 0.755,-0.604 0.728,-0.605C0.701,-0.606 0.675,-0.606 0.651,-0.606C0.573,-0.606 0.506,-0.604 0.45,-0.6C0.393,-0.596 0.346,-0.586 0.31,-0.569C0.273,-0.552 0.245,-0.527 0.228,-0.493C0.21,-0.458 0.201,-0.411 0.201,-0.351C0.201,-0.309 0.206,-0.273 0.217,-0.244C0.228,-0.215 0.243,-0.191 0.262,-0.172C0.281,-0.153 0.305,-0.139 0.332,-0.129C0.359,-0.118 0.389,-0.111 0.422,-0.106C0.455,-0.101 0.491,-0.099 0.529,-0.098C0.567,-0.097 0.607,-0.097 0.649,-0.097C0.68,-0.097 0.71,-0.097 0.741,-0.098C0.771,-0.099 0.8,-0.1 0.828,-0.101C0.855,-0.102 0.881,-0.104 0.904,-0.105C0.927,-0.106 0.947,-0.108 0.963,-0.109L0.963,0.008C0.944,0.01 0.923,0.012 0.901,0.014C0.879,0.015 0.855,0.017 0.828,0.019C0.801,0.02 0.772,0.021 0.739,0.022C0.706,0.023 0.67,0.023 0.629,0.023C0.584,0.023 0.538,0.022 0.493,0.02C0.447,0.018 0.403,0.013 0.36,0.006C0.317,-0.002 0.278,-0.014 0.241,-0.03C0.204,-0.045 0.171,-0.067 0.144,-0.094C0.116,-0.121 0.094,-0.156 0.079,-0.197C0.063,-0.238 0.055,-0.289 0.055,-0.348Z" style="fill-rule:nonzero;"/>
                </g>
            </g>
            <g transform="matrix(0.820256,0,0,0.820256,18.1995,50.5127)">
                <g transform="matrix(8.85789,0,0,8.85789,164.806,214.75)">
                    <path d="M1.399,-0.723C1.424,-0.723 1.453,-0.722 1.487,-0.72C1.521,-0.717 1.556,-0.713 1.593,-0.706C1.629,-0.699 1.665,-0.689 1.701,-0.677C1.737,-0.664 1.769,-0.648 1.798,-0.628C1.826,-0.608 1.849,-0.584 1.866,-0.555C1.883,-0.526 1.892,-0.493 1.892,-0.454L1.892,-0L1.757,-0L1.757,-0.433C1.757,-0.458 1.751,-0.479 1.739,-0.497C1.726,-0.515 1.71,-0.531 1.69,-0.544C1.669,-0.557 1.646,-0.568 1.621,-0.577C1.595,-0.585 1.569,-0.591 1.542,-0.596C1.515,-0.601 1.49,-0.604 1.465,-0.606C1.44,-0.608 1.418,-0.609 1.399,-0.609C1.381,-0.609 1.36,-0.608 1.336,-0.607C1.311,-0.605 1.286,-0.602 1.26,-0.598C1.234,-0.593 1.209,-0.587 1.184,-0.58C1.159,-0.573 1.136,-0.564 1.116,-0.553C1.096,-0.542 1.08,-0.53 1.068,-0.515C1.055,-0.5 1.049,-0.483 1.049,-0.464L1.049,-0L0.914,-0L0.914,-0.465C0.914,-0.484 0.909,-0.501 0.898,-0.516C0.886,-0.53 0.872,-0.542 0.854,-0.553C0.835,-0.564 0.815,-0.573 0.792,-0.58C0.769,-0.587 0.745,-0.593 0.721,-0.598C0.696,-0.602 0.672,-0.605 0.649,-0.607C0.626,-0.608 0.605,-0.609 0.587,-0.609C0.568,-0.609 0.546,-0.608 0.52,-0.606C0.493,-0.604 0.466,-0.601 0.438,-0.596C0.409,-0.591 0.381,-0.585 0.354,-0.577C0.326,-0.568 0.301,-0.557 0.279,-0.544C0.257,-0.531 0.239,-0.515 0.226,-0.497C0.212,-0.479 0.205,-0.458 0.205,-0.433L0.205,-0L0.07,-0L0.07,-0.454C0.07,-0.493 0.079,-0.526 0.098,-0.555C0.117,-0.584 0.141,-0.608 0.171,-0.628C0.201,-0.648 0.235,-0.664 0.273,-0.677C0.311,-0.689 0.349,-0.699 0.388,-0.706C0.426,-0.713 0.462,-0.717 0.498,-0.72C0.533,-0.722 0.562,-0.723 0.587,-0.723C0.614,-0.723 0.645,-0.721 0.68,-0.719C0.715,-0.716 0.75,-0.71 0.787,-0.702C0.823,-0.693 0.858,-0.682 0.893,-0.667C0.927,-0.652 0.957,-0.634 0.983,-0.611C1.011,-0.634 1.043,-0.652 1.08,-0.667C1.117,-0.682 1.154,-0.693 1.193,-0.702C1.231,-0.71 1.268,-0.716 1.305,-0.719C1.341,-0.721 1.372,-0.723 1.399,-0.723Z" style="fill-rule:nonzero;"/>
                </g>
                <g transform="matrix(8.85789,0,0,8.85789,182.185,214.75)">
                    <path d="M0.946,-0.7L1.081,-0.7L1.081,-0.231C1.081,-0.196 1.073,-0.165 1.058,-0.138C1.043,-0.111 1.022,-0.089 0.996,-0.07C0.969,-0.051 0.939,-0.036 0.905,-0.024C0.871,-0.012 0.835,-0.003 0.798,0.005C0.76,0.012 0.722,0.016 0.684,0.019C0.646,0.022 0.61,0.023 0.576,0.023C0.542,0.023 0.506,0.022 0.468,0.019C0.429,0.016 0.391,0.012 0.354,0.005C0.317,-0.003 0.281,-0.012 0.247,-0.024C0.212,-0.036 0.182,-0.051 0.156,-0.07C0.13,-0.089 0.109,-0.111 0.094,-0.138C0.078,-0.164 0.07,-0.195 0.07,-0.231L0.07,-0.7L0.205,-0.7L0.205,-0.252C0.205,-0.22 0.216,-0.194 0.238,-0.173C0.259,-0.152 0.288,-0.136 0.323,-0.124C0.358,-0.112 0.397,-0.103 0.442,-0.099C0.486,-0.093 0.531,-0.091 0.576,-0.091C0.621,-0.091 0.666,-0.093 0.71,-0.099C0.754,-0.103 0.794,-0.112 0.829,-0.124C0.864,-0.136 0.892,-0.152 0.914,-0.173C0.935,-0.194 0.946,-0.22 0.946,-0.252L0.946,-0.7Z" style="fill-rule:nonzero;"/>
                </g>
                <g transform="matrix(8.85789,0,0,8.85789,192.381,214.75)">
                    <path d="M0.727,-0.26C0.743,-0.242 0.763,-0.225 0.787,-0.208C0.811,-0.191 0.839,-0.175 0.871,-0.162C0.902,-0.149 0.938,-0.138 0.978,-0.129C1.017,-0.12 1.061,-0.115 1.109,-0.114L1.109,-0L1.076,-0C1.013,-0 0.955,-0.007 0.904,-0.022C0.852,-0.036 0.805,-0.055 0.763,-0.079C0.721,-0.102 0.683,-0.129 0.65,-0.16C0.617,-0.191 0.587,-0.223 0.561,-0.256L0.215,-0.256L0.215,-0L0.08,-0L0.08,-0.7L0.737,-0.7C0.79,-0.7 0.834,-0.695 0.869,-0.685C0.904,-0.674 0.933,-0.66 0.954,-0.641C0.974,-0.622 0.989,-0.599 0.998,-0.573C1.007,-0.546 1.011,-0.517 1.011,-0.485C1.011,-0.45 1.006,-0.42 0.996,-0.395C0.986,-0.37 0.973,-0.349 0.957,-0.332C0.941,-0.315 0.923,-0.302 0.904,-0.293C0.885,-0.283 0.866,-0.276 0.847,-0.271C0.828,-0.266 0.811,-0.263 0.796,-0.262C0.78,-0.261 0.768,-0.26 0.76,-0.26L0.727,-0.26ZM0.733,-0.372C0.783,-0.372 0.818,-0.381 0.839,-0.4C0.86,-0.418 0.87,-0.444 0.87,-0.479C0.87,-0.497 0.868,-0.513 0.864,-0.526C0.859,-0.539 0.852,-0.55 0.841,-0.559C0.83,-0.567 0.815,-0.573 0.797,-0.578C0.778,-0.582 0.755,-0.584 0.728,-0.584L0.215,-0.584L0.215,-0.372L0.733,-0.372Z" style="fill-rule:nonzero;"/>
                </g>
                <g transform="matrix(8.85789,0,0,8.85789,202.47,214.75)">
                    <path d="M0.741,-0.7C0.79,-0.7 0.831,-0.694 0.865,-0.683C0.899,-0.671 0.927,-0.655 0.948,-0.634C0.969,-0.613 0.984,-0.589 0.994,-0.561C1.003,-0.533 1.008,-0.503 1.008,-0.471C1.008,-0.436 1.003,-0.403 0.994,-0.375C0.984,-0.345 0.969,-0.321 0.948,-0.3C0.927,-0.279 0.899,-0.262 0.865,-0.251C0.831,-0.239 0.79,-0.233 0.741,-0.233L0.215,-0.233L0.215,-0L0.08,-0L0.08,-0.7L0.741,-0.7ZM0.713,-0.349C0.763,-0.349 0.801,-0.359 0.826,-0.379C0.851,-0.399 0.864,-0.428 0.864,-0.466C0.864,-0.504 0.851,-0.533 0.826,-0.554C0.801,-0.574 0.763,-0.584 0.713,-0.584L0.215,-0.584L0.215,-0.349L0.713,-0.349Z" style="fill-rule:nonzero;"/>
                </g>
                <g transform="matrix(8.85789,0,0,8.85789,211.797,214.75)">
                    <path d="M1.126,-0L0.991,-0L0.991,-0.29L0.215,-0.29L0.215,-0L0.08,-0L0.08,-0.7L0.215,-0.7L0.215,-0.406L0.991,-0.406L0.991,-0.7L1.126,-0.7L1.126,-0Z" style="fill-rule:nonzero;"/>
                </g>
            </g>
        </g>
    </g>
    <defs>
        <linearGradient id="_Linear1" x1="0" y1="0" x2="1" y2="0" gradientUnits="userSpaceOnUse" gradientTransform="matrix(-0.924848,145.823,-125.567,-1.07404,176.885,103.67)"><stop offset="0" style="stop-color:rgb(248,248,248);stop-opacity:1"/><stop offset="1" style="stop-color:rgb(88,88,88);stop-opacity:1"/></linearGradient>
        <linearGradient id="_Linear2" x1="0" y1="0" x2="1" y2="0" gradientUnits="userSpaceOnUse" gradientTransform="matrix(0.0103259,147.051,-126.625,0.0119917,175.722,103.004)"><stop offset="0" style="stop-color:rgb(50,50,49);stop-opacity:1"/><stop offset="0.53" style="stop-color:rgb(181,181,181);stop-opacity:1"/><stop offset="1" style="stop-color:rgb(208,208,208);stop-opacity:1"/></linearGradient>
    </defs>
</svg>
