<?xml version="1.0" encoding="UTF-8" standalone="no"?>
<!DOCTYPE svg PUBLIC "-//W3C//DTD SVG 1.1//EN" "http://www.w3.org/Graphics/SVG/1.1/DTD/svg11.dtd">
<svg width="100%" height="100%" viewBox="0 0 512 512" version="1.1" xmlns="http://www.w3.org/2000/svg" xmlns:xlink="http://www.w3.org/1999/xlink" xml:space="preserve" xmlns:serif="http://www.serif.com/" style="fill-rule:evenodd;clip-rule:evenodd;stroke-linejoin:round;stroke-miterlimit:2;">
    <g id="New-Base" serif:id="New Base" transform="matrix(1.05499,0,0,1.05499,-47.8053,-38.69)">
        <path d="M287.969,54.209C412.217,54.209 513.09,155.082 513.09,279.329C513.09,403.576 412.217,504.449 287.969,504.449C163.722,504.449 62.849,403.576 62.849,279.329C62.849,155.082 163.722,54.209 287.969,54.209ZM287.969,208.239C248.733,208.239 216.879,240.093 216.879,279.329C216.879,318.565 248.733,350.42 287.969,350.42C327.205,350.42 359.06,318.565 359.06,279.329C359.06,240.093 327.205,208.239 287.969,208.239Z" style="fill:white;"/>
        <path d="M287.969,50.417C414.309,50.417 516.881,152.989 516.881,279.329C516.881,405.669 414.309,508.241 287.969,508.241C161.629,508.241 59.058,405.669 59.058,279.329C59.058,152.989 161.629,50.417 287.969,50.417ZM287.969,54.209C163.722,54.209 62.849,155.082 62.849,279.329C62.849,403.576 163.722,504.449 287.969,504.449C412.217,504.449 513.09,403.576 513.09,279.329C513.09,155.082 412.217,54.209 287.969,54.209ZM287.969,208.239C327.205,208.239 359.06,240.093 359.06,279.329C359.06,318.565 327.205,350.42 287.969,350.42C248.733,350.42 216.879,318.565 216.879,279.329C216.879,240.093 248.733,208.239 287.969,208.239ZM287.969,212.03C250.826,212.03 220.67,242.186 220.67,279.329C220.67,316.473 250.826,346.628 287.969,346.628C325.113,346.628 355.268,316.473 355.268,279.329C355.268,242.186 325.113,212.03 287.969,212.03Z"/>
    </g>
</svg>
