<?xml version="1.0" encoding="UTF-8" standalone="no"?>
<!DOCTYPE svg PUBLIC "-//W3C//DTD SVG 1.1//EN" "http://www.w3.org/Graphics/SVG/1.1/DTD/svg11.dtd">
<svg width="100%" height="100%" viewBox="0 0 512 512" version="1.1" xmlns="http://www.w3.org/2000/svg" xmlns:xlink="http://www.w3.org/1999/xlink" xml:space="preserve" xmlns:serif="http://www.serif.com/" style="fill-rule:evenodd;clip-rule:evenodd;stroke-linejoin:round;stroke-miterlimit:2;">
    <g id="New-Masks" serif:id="New Masks">
        <g id="Minutes-Mask" serif:id="Minutes Mask" transform="matrix(1.76054,0,0,1.76054,-307.843,-326.388)">
            <path d="M422.37,336.149C419.584,390.095 374.901,433.041 320.267,433.041C263.838,433.041 218.026,387.229 218.026,330.8C218.026,274.372 263.838,228.559 320.267,228.559C374.899,228.559 419.581,271.501 422.37,325.445L395.142,326.872C393.097,287.314 360.33,255.823 320.267,255.823C278.886,255.823 245.29,289.419 245.29,330.8C245.29,372.181 278.886,405.777 320.267,405.777C360.332,405.777 393.1,374.283 395.143,334.722L422.37,336.149Z" style="fill:white;fill-opacity:0.83;"/>
        </g>
        <g id="Hour-Mask" serif:id="Hour Mask" transform="matrix(1.32646,0,0,1.32646,-177.804,-189.336)">
            <path d="M423.21,361.375C411.888,403.887 373.096,435.244 327.038,435.244C272.116,435.244 227.526,390.654 227.526,335.732C227.526,280.809 272.116,236.219 327.038,236.219C373.053,236.219 411.815,267.518 423.178,309.969L381.663,321.093C375.206,296.973 353.182,279.19 327.038,279.19C295.832,279.19 270.497,304.526 270.497,335.732C270.497,366.938 295.832,392.273 327.038,392.273C353.208,392.273 375.249,374.456 381.682,350.301L423.21,361.375Z" style="fill:white;fill-opacity:0.83;"/>
        </g>
        <g id="Second-Mask" serif:id="Second Mask" transform="matrix(1.25889,0,0,1.25889,-70.6522,-90.5406)">
            <path d="M447.88,285.145C442.739,384.688 360.289,463.933 259.476,463.933C155.353,463.933 70.818,379.398 70.818,275.275C70.818,171.151 155.353,86.616 259.476,86.616C360.285,86.616 442.733,165.855 447.88,265.394L402.266,267.785C398.365,192.346 335.879,132.292 259.476,132.292C180.562,132.292 116.493,196.36 116.493,275.275C116.493,354.189 180.562,418.258 259.476,418.258C335.882,418.258 398.371,358.198 402.267,282.754L447.88,285.145Z" style="fill:white;fill-opacity:0.83;"/>
        </g>
    </g>
</svg>
