<?xml version="1.0" encoding="UTF-8" standalone="no"?>
<!DOCTYPE svg PUBLIC "-//W3C//DTD SVG 1.1//EN" "http://www.w3.org/Graphics/SVG/1.1/DTD/svg11.dtd">
<svg width="100%" height="100%" viewBox="0 0 420 420" version="1.1" xmlns="http://www.w3.org/2000/svg" xmlns:xlink="http://www.w3.org/1999/xlink" xml:space="preserve" xmlns:serif="http://www.serif.com/" style="fill-rule:evenodd;clip-rule:evenodd;stroke-linecap:square;stroke-linejoin:round;stroke-miterlimit:2;">
    <g id="Hour-Hand" serif:id="Hour Hand" transform="matrix(0.893595,0,0,0.893595,-13.425511,-13.368989)">
        <path id="Hour-Hand-Shadow" serif:id="Hour Hand Shadow" d="M248.003,145.388C247.145,146.88 231.471,183.272 231.703,184.416C232.015,185.958 241.586,190.529 241.586,190.529L242.5,236.373C237.543,239.099 234.446,244.32 234.43,249.977L234.43,249.978C234.43,258.523 241.461,265.555 250.007,265.555L250.009,265.555C258.554,265.555 265.586,258.523 265.586,249.978L265.586,249.977C265.584,244.342 262.525,239.131 257.605,236.383L258.875,190.559C258.875,190.559 267.912,185.586 268.207,184.499C268.579,183.128 252.658,146.675 251.95,145.313C250.894,143.278 249.223,143.266 248.003,145.388Z" style="fill:rgb(231,231,232);fill-rule:nonzero;stroke:black;stroke-opacity:0.38;stroke-width:3.36px;"/>
        <path id="Hour-Hand-Base" serif:id="Hour Hand Base" d="M248.003,145.388C247.145,146.88 231.471,183.272 231.703,184.416C232.015,185.958 241.586,190.529 241.586,190.529L242.5,236.373C237.543,239.099 234.446,244.32 234.43,249.977L234.43,249.978C234.43,258.523 241.461,265.555 250.007,265.555L250.009,265.555C258.554,265.555 265.586,258.523 265.586,249.978L265.586,249.977C265.584,244.342 262.525,239.131 257.605,236.383L258.875,190.559C258.875,190.559 267.912,185.586 268.207,184.499C268.579,183.128 252.658,146.675 251.95,145.313C250.894,143.278 249.223,143.266 248.003,145.388Z" style="fill:rgb(231,231,232);fill-rule:nonzero;"/>
        <g id="Hour-Hand-Stem-Clip" serif:id="Hour Hand Stem Clip" transform="matrix(1,0,0,1,0,1)">
            <path d="M254.194,228.535C253.952,228.992 246,229.013 245.751,228.542C245.153,227.409 244.583,194.745 244.638,187.027C244.642,186.462 248.938,183.212 249.964,183.231C250.99,183.251 255.303,186.451 255.307,187.02C255.362,194.738 254.793,227.402 254.194,228.535Z" style="fill:rgb(216,199,150);fill-opacity:0;"/>
            <clipPath id="_clip1">
                <path d="M254.194,228.535C253.952,228.992 246,229.013 245.751,228.542C245.153,227.409 244.583,194.745 244.638,187.027C244.642,186.462 248.938,183.212 249.964,183.231C250.99,183.251 255.303,186.451 255.307,187.02C255.362,194.738 254.793,227.402 254.194,228.535Z"/>
            </clipPath>
            <g clip-path="url(#_clip1)">
                <path id="Hour-Hand-Stem" serif:id="Hour Hand Stem" d="M254.194,228.535C253.952,228.992 246,229.013 245.751,228.542C245.153,227.409 244.583,194.745 244.638,187.027C244.642,186.462 248.938,183.212 249.964,183.231C250.99,183.251 255.303,186.451 255.307,187.02C255.362,194.738 254.793,227.402 254.194,228.535Z" style="fill:rgb(173,50,42);stroke:black;stroke-opacity:0.24;stroke-width:2.24px;stroke-linecap:butt;"/>
            </g>
        </g>
        <g id="Hour-Hand-Pointer-Clip" serif:id="Hour Hand Pointer Clip" transform="matrix(0.841552,0,0,0.950935,39.549855,8.933183)">
            <path d="M249.879,180.441C246.034,180.441 239.669,186.085 238.346,186.324C237.223,186.526 232.85,184.676 232.66,183.563C232.652,183.514 242.684,160.871 246.905,152.003C248.073,149.43 248.834,147.748 248.883,147.624C249.103,147.073 249.5,146.885 249.879,146.924C250.257,146.885 250.654,147.073 250.874,147.624C250.924,147.748 251.684,149.43 252.852,152.003C257.074,160.871 267.041,182.811 267.086,183.399C267.137,184.067 262.534,186.526 261.411,186.324C260.088,186.085 253.723,180.441 249.879,180.441Z" style="fill:rgb(198,177,132);fill-opacity:0;"/>
            <clipPath id="_clip2">
                <path d="M249.879,180.441C246.034,180.441 239.669,186.085 238.346,186.324C237.223,186.526 232.85,184.676 232.66,183.563C232.652,183.514 242.684,160.871 246.905,152.003C248.073,149.43 248.834,147.748 248.883,147.624C249.103,147.073 249.5,146.885 249.879,146.924C250.257,146.885 250.654,147.073 250.874,147.624C250.924,147.748 251.684,149.43 252.852,152.003C257.074,160.871 267.041,182.811 267.086,183.399C267.137,184.067 262.534,186.526 261.411,186.324C260.088,186.085 253.723,180.441 249.879,180.441Z"/>
            </clipPath>
            <g clip-path="url(#_clip2)">
                <path id="Hour-Hand-Pointer" serif:id="Hour Hand Pointer" d="M249.879,180.441C246.034,180.441 239.669,186.085 238.346,186.324C237.223,186.526 232.85,184.676 232.66,183.563C232.652,183.514 242.684,160.871 246.905,152.003C248.073,149.43 248.834,147.748 248.883,147.624C249.103,147.073 249.5,146.885 249.879,146.924C250.257,146.885 250.654,147.073 250.874,147.624C250.924,147.748 251.684,149.43 252.852,152.003C257.074,160.871 267.041,182.811 267.086,183.399C267.137,184.067 262.534,186.526 261.411,186.324C260.088,186.085 253.723,180.441 249.879,180.441Z" style="fill:rgb(173,50,42);stroke:black;stroke-opacity:0.23;stroke-width:2.49px;stroke-linecap:butt;"/>
            </g>
            <path d="M249.879,180.441C246.034,180.441 239.669,186.085 238.346,186.324C237.223,186.526 232.85,184.676 232.66,183.563C232.652,183.514 242.684,160.871 246.905,152.003C248.073,149.43 248.834,147.748 248.883,147.624C249.103,147.073 249.5,146.885 249.879,146.924C250.257,146.885 250.654,147.073 250.874,147.624C250.924,147.748 251.684,149.43 252.852,152.003C257.074,160.871 267.041,182.811 267.086,183.399C267.137,184.067 262.534,186.526 261.411,186.324C260.088,186.085 253.723,180.441 249.879,180.441Z" style="fill:none;stroke:rgb(198,177,132);stroke-opacity:0.17;stroke-width:1.25px;stroke-linecap:butt;"/>
        </g>
    </g>
</svg>
