<?xml version="1.0" encoding="UTF-8" standalone="no"?>
<!DOCTYPE svg PUBLIC "-//W3C//DTD SVG 1.1//EN" "http://www.w3.org/Graphics/SVG/1.1/DTD/svg11.dtd">
<svg width="100%" height="100%" viewBox="0 0 420 420" version="1.1" xmlns="http://www.w3.org/2000/svg" xmlns:xlink="http://www.w3.org/1999/xlink" xml:space="preserve" xmlns:serif="http://www.serif.com/" style="fill-rule:evenodd;clip-rule:evenodd;stroke-linejoin:round;stroke-miterlimit:2;">
    <g id="Second-Hand" serif:id="Second Hand" transform="matrix(0.880456,0,0,0.880456,-11.593226,-10.262983)">
        <g id="Second-Hand-Components" serif:id="Second Hand Components" transform="matrix(1.016316,0,0,-1.016316,68.673895,433.809065)">
            <g id="Second-Hand-Shadow" serif:id="Second Hand Shadow" transform="matrix(0.727355,-0.686261,0.686261,0.727355,0,0)">
                <path d="M-81.984,351.025L2.394,261.672C3.741,262.586 5.331,263.077 6.959,263.081C11.438,263.081 15.124,259.395 15.124,254.916C15.116,253.131 14.523,251.396 13.436,249.98L32.416,229.88C33.251,230.357 34.195,230.611 35.156,230.616C38.221,230.616 40.742,228.094 40.742,225.03C40.742,223.411 40.038,221.868 38.815,220.808C37.799,219.928 36.5,219.443 35.156,219.443C32.092,219.443 29.571,221.965 29.571,225.029C29.573,226.129 29.9,227.205 30.511,228.12L11.562,248.187C10.207,247.256 8.602,246.755 6.958,246.751C2.479,246.751 -1.206,250.437 -1.207,254.915C-1.199,256.717 -0.595,258.466 0.51,259.889L-83.845,349.218L-87.401,347.01L-104.997,372.042L-104.771,373.191L-103.403,373.45L-79.711,354.51L-81.984,351.025Z" style="fill:rgb(231,231,232);stroke:black;stroke-opacity:0.38;stroke-width:3.35px;"/>
            </g>
            <g id="Second-Hand-Body" serif:id="Second Hand Body" transform="matrix(0.727355,-0.686261,0.686261,0.727355,0,0)">
                <path d="M38.815,220.808C37.799,219.928 36.5,219.443 35.156,219.443C32.092,219.443 29.571,221.964 29.571,225.028C29.571,225.029 29.571,225.029 29.571,225.029C29.573,226.13 29.9,227.205 30.511,228.12L11.562,248.187C10.207,247.256 8.602,246.755 6.958,246.751C2.479,246.751 -1.206,250.437 -1.207,254.915C-1.199,256.717 -0.595,258.466 0.51,259.889L-95.656,361.725L-93.786,363.523L2.394,261.672C3.741,262.586 5.331,263.077 6.958,263.081C6.959,263.081 6.959,263.081 6.96,263.081C11.439,263.081 15.124,259.395 15.124,254.916C15.124,254.916 15.124,254.916 15.124,254.916C15.116,253.13 14.523,251.396 13.436,249.98L32.416,229.88C33.251,230.357 34.195,230.611 35.156,230.616C38.221,230.616 40.742,228.094 40.742,225.03C40.742,225.03 40.742,225.03 40.742,225.029C40.742,223.41 40.038,221.868 38.815,220.808Z" style="fill:rgb(231,231,232);fill-rule:nonzero;"/>
            </g>
            <path id="Second-Hand-Pointer" serif:id="Second Hand Pointer" d="M174.568,312.38L179.991,311.276L185.309,312.557L181.074,342.592L179.9,343.343L178.948,342.662L174.568,312.38Z" style="fill:rgb(255,191,0);fill-rule:nonzero;"/>
        </g>
    </g>
</svg>
