<?xml version="1.0" encoding="UTF-8" standalone="no"?>
<!DOCTYPE svg PUBLIC "-//W3C//DTD SVG 1.1//EN" "http://www.w3.org/Graphics/SVG/1.1/DTD/svg11.dtd">
<svg width="100%" height="100%" viewBox="0 0 512 512" version="1.1" xmlns="http://www.w3.org/2000/svg" xmlns:xlink="http://www.w3.org/1999/xlink" xml:space="preserve" xmlns:serif="http://www.serif.com/" style="fill-rule:evenodd;clip-rule:evenodd;stroke-linecap:round;stroke-linejoin:round;stroke-miterlimit:1.5;">
    <g transform="matrix(1.16938,0,0,1.16938,-69.6118,-63.8561)">
        <path d="M278.449,59.738C396.443,59.738 492.239,155.534 492.239,273.527C492.239,391.521 396.443,487.317 278.449,487.317C160.456,487.317 64.66,391.521 64.66,273.527C64.66,155.534 160.456,59.738 278.449,59.738ZM278.449,215.377C246.355,215.377 220.299,241.433 220.299,273.527C220.299,305.622 246.355,331.678 278.449,331.678C310.544,331.678 336.6,305.622 336.6,273.527C336.6,241.433 310.544,215.377 278.449,215.377Z" style="fill:white;stroke:black;stroke-width:1.71px;"/>
    </g>
    <g id="RIngs">
        <g id="Seconds-Ring" serif:id="Seconds Ring" transform="matrix(0.971674,-0.0107401,0.0107401,0.971674,256,256)">
            <path d="M0,-246.981C136.313,-246.981 246.981,-136.313 246.981,0C246.981,136.313 136.313,246.981 0,246.981C-136.313,246.981 -246.981,136.313 -246.981,-0C-246.981,-136.313 -136.313,-246.981 0,-246.981ZM-0,-182.663C-100.815,-182.663 -182.663,-100.815 -182.663,-0C-182.663,100.815 -100.815,182.663 -0,182.663C100.815,182.663 182.663,100.815 182.663,-0C182.663,-100.815 100.815,-182.663 -0,-182.663Z" style="fill:rgb(240,240,240);"/>
        </g>
        <g id="Hours-Ring" serif:id="Hours Ring" transform="matrix(0.984821,0,0,0.984821,256,256)">
            <path d="M0,-134.542C74.256,-134.542 134.542,-74.256 134.542,0C134.542,74.256 74.256,134.542 0,134.542C-74.256,134.542 -134.542,74.256 -134.542,0C-134.542,-74.256 -74.256,-134.542 0,-134.542ZM0,-78.694C-43.433,-78.694 -78.694,-43.433 -78.694,0C-78.694,43.433 -43.433,78.694 0,78.694C43.433,78.694 78.694,43.433 78.694,0C78.694,-43.433 43.433,-78.694 0,-78.694Z" style="fill:white;"/>
        </g>
        <g id="Minutes-Ring" serif:id="Minutes Ring" transform="matrix(0.984664,-5.62907e-17,5.62907e-17,0.984664,256,256)">
            <path d="M0,-182.804C100.892,-182.804 182.804,-100.892 182.804,0C182.804,100.892 100.892,182.804 0,182.804C-100.892,182.804 -182.804,100.892 -182.804,0C-182.804,-100.892 -100.892,-182.804 0,-182.804ZM0,-134.564C-74.268,-134.564 -134.564,-74.268 -134.564,0C-134.564,74.268 -74.268,134.564 0,134.564C74.268,134.564 134.564,74.268 134.564,0C134.564,-74.268 74.268,-134.564 0,-134.564Z" style="fill:white;"/>
        </g>
    </g>
</svg>
