<?xml version="1.0" encoding="UTF-8" standalone="no"?>
<!DOCTYPE svg PUBLIC "-//W3C//DTD SVG 1.1//EN" "http://www.w3.org/Graphics/SVG/1.1/DTD/svg11.dtd">
<svg width="100%" height="100%" viewBox="0 0 512 512" version="1.1" xmlns="http://www.w3.org/2000/svg" xmlns:xlink="http://www.w3.org/1999/xlink" xml:space="preserve" xmlns:serif="http://www.serif.com/" style="fill-rule:evenodd;clip-rule:evenodd;stroke-linejoin:round;stroke-miterlimit:2;">
    <g id="Hours">
        <g transform="matrix(0.642386,0,0,1,117.8,19.4051)">
            <path d="M340.831,223.659C344.319,222.283 347.871,221.315 351.487,220.755C355.103,220.195 361.15,219.915 364.958,219.915L364.958,253.947L356.143,253.947L356.143,225.675C353.583,225.835 351.183,226.187 348.943,226.731C346.703,227.275 344.383,227.963 341.983,228.795L340.831,223.659Z" style="fill:rgb(255,0,26);fill-rule:nonzero;"/>
            <path d="M411.823,253.947L371.887,253.947L371.887,248.427C371.887,245.547 372.391,243.251 373.399,241.539C374.407,239.827 375.791,238.491 377.551,237.531C379.311,236.571 381.391,235.891 383.791,235.491C386.191,235.091 388.783,234.763 391.567,234.507C394.095,234.283 399.571,233.387 400.643,233.067C401.715,232.747 402.491,232.339 402.971,231.843C403.451,231.347 403.691,230.715 403.691,229.947C403.691,228.987 403.451,228.187 402.971,227.547C402.491,226.907 401.75,226.367 400.715,225.963C399.111,225.337 396.019,224.836 392.239,224.811C389.967,224.796 388.015,224.827 386.383,224.859C384.751,224.891 383.335,224.939 382.135,225.003C380.935,225.067 379.895,225.139 379.015,225.219C378.135,225.299 377.343,225.387 376.639,225.483L375.631,220.107C378.223,219.755 380.983,219.523 383.911,219.411C386.839,219.299 390.015,219.243 393.439,219.243C396.159,219.243 398.679,219.403 400.999,219.723C403.319,220.043 405.319,220.595 406.999,221.379C408.679,222.163 409.991,223.211 410.935,224.523C411.879,225.835 412.351,227.483 412.351,229.467C412.351,231.643 411.927,233.379 411.079,234.675C410.231,235.971 409.047,236.987 407.527,237.723C406.007,238.459 404.175,239.003 402.031,239.355C399.887,239.707 397.519,240.011 394.927,240.267L391.039,240.651C388.863,240.875 384.591,242.019 383.583,242.547C382.575,243.075 381.839,243.803 381.375,244.731C380.911,245.659 380.679,246.891 380.679,248.427L411.823,248.427L411.823,253.947Z" style="fill:rgb(255,0,26);fill-rule:nonzero;"/>
        </g>
        <g transform="matrix(0.866025,-0.5,0.5,0.866025,-113.192,195.319)">
            <g transform="matrix(48,0,0,48,388.447,253.947)">
                <path d="M0.048,-0.631C0.121,-0.66 0.195,-0.68 0.27,-0.692C0.345,-0.703 0.423,-0.709 0.502,-0.709L0.502,-0L0.367,-0L0.367,-0.589C0.314,-0.586 0.264,-0.578 0.217,-0.567C0.17,-0.556 0.122,-0.541 0.072,-0.524L0.048,-0.631Z" style="fill-rule:nonzero;"/>
            </g>
        </g>
        <g transform="matrix(0.5,-0.866025,0.866025,0.5,-94.0702,388.045)">
            <g transform="matrix(48,0,0,48,369.055,253.947)">
                <path d="M0.917,-0L0.085,-0L0.085,-0.115C0.085,-0.175 0.096,-0.223 0.117,-0.259C0.137,-0.294 0.166,-0.322 0.203,-0.342C0.24,-0.362 0.283,-0.376 0.333,-0.385C0.383,-0.393 0.437,-0.4 0.495,-0.405C0.548,-0.41 0.592,-0.414 0.629,-0.419C0.665,-0.423 0.694,-0.428 0.717,-0.435C0.739,-0.442 0.755,-0.45 0.765,-0.461C0.775,-0.471 0.78,-0.484 0.78,-0.5C0.78,-0.52 0.775,-0.537 0.765,-0.55C0.755,-0.563 0.739,-0.574 0.718,-0.583C0.697,-0.592 0.669,-0.598 0.634,-0.602C0.599,-0.605 0.558,-0.607 0.509,-0.607C0.462,-0.607 0.421,-0.607 0.387,-0.606C0.353,-0.605 0.324,-0.604 0.299,-0.603C0.274,-0.602 0.252,-0.6 0.234,-0.599C0.215,-0.597 0.199,-0.595 0.184,-0.593L0.163,-0.705C0.217,-0.712 0.275,-0.717 0.336,-0.72C0.397,-0.722 0.463,-0.723 0.534,-0.723C0.591,-0.723 0.643,-0.72 0.692,-0.713C0.74,-0.706 0.782,-0.695 0.817,-0.679C0.852,-0.662 0.879,-0.64 0.899,-0.613C0.918,-0.586 0.928,-0.551 0.928,-0.51C0.928,-0.465 0.919,-0.429 0.902,-0.402C0.884,-0.375 0.859,-0.353 0.828,-0.338C0.796,-0.323 0.758,-0.311 0.713,-0.304C0.668,-0.297 0.619,-0.29 0.565,-0.285L0.484,-0.277C0.439,-0.272 0.4,-0.267 0.367,-0.262C0.334,-0.257 0.308,-0.249 0.287,-0.238C0.266,-0.227 0.25,-0.211 0.241,-0.192C0.231,-0.173 0.226,-0.147 0.226,-0.115L0.917,-0.115L0.917,-0Z" style="fill-rule:nonzero;"/>
            </g>
        </g>
        <g transform="matrix(1.66533e-16,-1,1,1.66533e-16,18.8528,545.389)">
            <g transform="matrix(48,0,0,48,373.471,253.947)">
                <path d="M0.227,-0.424L0.344,-0.424C0.41,-0.424 0.465,-0.425 0.508,-0.428C0.551,-0.43 0.586,-0.434 0.612,-0.441C0.638,-0.448 0.656,-0.456 0.667,-0.468C0.678,-0.478 0.683,-0.493 0.683,-0.51C0.683,-0.529 0.673,-0.545 0.654,-0.557C0.635,-0.569 0.609,-0.579 0.577,-0.586C0.545,-0.592 0.509,-0.597 0.468,-0.6C0.427,-0.603 0.384,-0.604 0.341,-0.604C0.28,-0.604 0.228,-0.602 0.186,-0.598C0.143,-0.594 0.114,-0.591 0.097,-0.59L0.075,-0.705C0.123,-0.712 0.172,-0.717 0.222,-0.72C0.272,-0.722 0.327,-0.723 0.388,-0.723C0.453,-0.723 0.512,-0.72 0.567,-0.714C0.622,-0.707 0.669,-0.696 0.709,-0.681C0.748,-0.665 0.779,-0.644 0.802,-0.618C0.824,-0.591 0.835,-0.558 0.835,-0.519C0.835,-0.477 0.825,-0.444 0.806,-0.421C0.786,-0.398 0.758,-0.381 0.722,-0.371C0.767,-0.36 0.802,-0.341 0.827,-0.314C0.852,-0.287 0.864,-0.248 0.864,-0.197C0.864,-0.154 0.853,-0.118 0.831,-0.09C0.808,-0.061 0.777,-0.039 0.738,-0.022C0.698,-0.005 0.651,0.006 0.597,0.013C0.542,0.02 0.483,0.023 0.418,0.023C0.347,0.023 0.28,0.021 0.218,0.018C0.155,0.014 0.095,0.007 0.037,-0.003L0.06,-0.119C0.086,-0.115 0.11,-0.112 0.133,-0.109C0.156,-0.106 0.178,-0.103 0.201,-0.101C0.224,-0.099 0.248,-0.098 0.273,-0.097C0.298,-0.096 0.325,-0.096 0.356,-0.096C0.401,-0.096 0.445,-0.097 0.488,-0.101C0.531,-0.103 0.569,-0.109 0.602,-0.118C0.635,-0.127 0.662,-0.138 0.683,-0.153C0.703,-0.167 0.713,-0.186 0.713,-0.209C0.713,-0.23 0.708,-0.247 0.697,-0.26C0.686,-0.273 0.667,-0.284 0.64,-0.292C0.612,-0.299 0.576,-0.305 0.531,-0.308C0.485,-0.311 0.428,-0.312 0.359,-0.312L0.227,-0.312L0.227,-0.424Z" style="fill-rule:nonzero;"/>
            </g>
        </g>
        <g transform="matrix(-0.5,-0.866025,0.866025,-0.5,195.319,625.192)">
            <g transform="matrix(48,0,0,48,369.727,253.947)">
                <path d="M0.834,-0.7L0.834,-0.259L0.952,-0.259L0.952,-0.145L0.834,-0.145L0.834,-0L0.7,-0L0.7,-0.145L0.048,-0.145L0.048,-0.249C0.071,-0.283 0.101,-0.318 0.139,-0.353C0.177,-0.388 0.218,-0.423 0.262,-0.456C0.306,-0.489 0.351,-0.521 0.398,-0.551C0.445,-0.58 0.489,-0.606 0.53,-0.628C0.571,-0.65 0.607,-0.668 0.638,-0.681C0.669,-0.694 0.692,-0.7 0.705,-0.7L0.834,-0.7ZM0.7,-0.259L0.7,-0.58C0.631,-0.55 0.568,-0.517 0.509,-0.481C0.45,-0.444 0.398,-0.409 0.354,-0.376C0.303,-0.337 0.256,-0.298 0.214,-0.259L0.7,-0.259Z" style="fill-rule:nonzero;"/>
            </g>
        </g>
        <g transform="matrix(-0.866025,-0.5,0.5,-0.866025,388.045,606.07)">
            <g transform="matrix(48,0,0,48,372.223,253.947)">
                <path d="M0.249,-0.584L0.222,-0.424C0.261,-0.425 0.297,-0.427 0.332,-0.428C0.347,-0.429 0.362,-0.429 0.377,-0.43C0.392,-0.43 0.407,-0.43 0.422,-0.431C0.437,-0.432 0.45,-0.432 0.463,-0.433C0.475,-0.433 0.486,-0.433 0.495,-0.433C0.559,-0.433 0.616,-0.43 0.665,-0.423C0.714,-0.416 0.756,-0.404 0.79,-0.388C0.824,-0.371 0.85,-0.35 0.867,-0.323C0.884,-0.296 0.893,-0.263 0.893,-0.224C0.893,-0.177 0.882,-0.137 0.861,-0.106C0.839,-0.074 0.809,-0.049 0.77,-0.03C0.731,-0.011 0.685,0.003 0.632,0.011C0.579,0.019 0.52,0.023 0.457,0.023C0.382,0.023 0.311,0.022 0.243,0.019C0.174,0.016 0.112,0.012 0.055,0.006L0.076,-0.108C0.091,-0.106 0.108,-0.104 0.129,-0.103C0.149,-0.101 0.173,-0.099 0.201,-0.098C0.229,-0.096 0.262,-0.095 0.3,-0.094C0.337,-0.093 0.381,-0.093 0.431,-0.093C0.531,-0.093 0.609,-0.103 0.665,-0.123C0.72,-0.142 0.748,-0.173 0.748,-0.215C0.748,-0.256 0.721,-0.284 0.669,-0.299C0.615,-0.313 0.534,-0.32 0.424,-0.32C0.397,-0.32 0.365,-0.319 0.326,-0.317C0.287,-0.315 0.249,-0.313 0.212,-0.311C0.169,-0.308 0.125,-0.306 0.079,-0.303L0.142,-0.7L0.809,-0.7L0.809,-0.584L0.249,-0.584Z" style="fill-rule:nonzero;"/>
            </g>
        </g>
        <g transform="matrix(-1,-3.33067e-16,3.33067e-16,-1,545.389,493.147)">
            <g transform="matrix(48,0,0,48,368.479,253.947)">
                <path d="M0.061,-0.344C0.061,-0.423 0.072,-0.488 0.095,-0.537C0.117,-0.586 0.149,-0.625 0.19,-0.653C0.231,-0.68 0.28,-0.699 0.337,-0.709C0.394,-0.718 0.458,-0.723 0.528,-0.723C0.571,-0.723 0.611,-0.722 0.65,-0.72C0.689,-0.717 0.723,-0.714 0.753,-0.711C0.788,-0.708 0.82,-0.704 0.85,-0.7L0.85,-0.592C0.818,-0.597 0.779,-0.6 0.732,-0.603C0.685,-0.606 0.628,-0.607 0.559,-0.607C0.509,-0.607 0.462,-0.605 0.419,-0.601C0.376,-0.597 0.338,-0.589 0.307,-0.577C0.276,-0.565 0.251,-0.548 0.233,-0.525C0.215,-0.501 0.206,-0.471 0.206,-0.433L0.206,-0.411C0.235,-0.419 0.268,-0.427 0.304,-0.434C0.335,-0.439 0.37,-0.444 0.411,-0.45C0.452,-0.455 0.496,-0.457 0.543,-0.457C0.613,-0.457 0.672,-0.452 0.72,-0.443C0.768,-0.434 0.808,-0.422 0.839,-0.407C0.87,-0.392 0.895,-0.376 0.912,-0.358C0.929,-0.339 0.941,-0.321 0.949,-0.303C0.956,-0.285 0.961,-0.268 0.962,-0.253C0.963,-0.237 0.964,-0.224 0.964,-0.214C0.964,-0.177 0.956,-0.145 0.94,-0.118C0.923,-0.091 0.902,-0.069 0.876,-0.052C0.85,-0.035 0.821,-0.021 0.789,-0.011C0.757,-0.001 0.725,0.007 0.694,0.012C0.663,0.017 0.633,0.02 0.606,0.021C0.578,0.022 0.556,0.023 0.539,0.023C0.5,0.023 0.461,0.022 0.422,0.019C0.383,0.016 0.346,0.011 0.311,0.002C0.276,-0.007 0.243,-0.019 0.212,-0.036C0.181,-0.052 0.155,-0.074 0.133,-0.101C0.11,-0.128 0.093,-0.161 0.08,-0.201C0.067,-0.24 0.061,-0.288 0.061,-0.344ZM0.206,-0.291C0.206,-0.218 0.234,-0.167 0.29,-0.137C0.346,-0.106 0.427,-0.091 0.532,-0.091C0.543,-0.091 0.559,-0.091 0.578,-0.092C0.597,-0.093 0.618,-0.094 0.64,-0.098C0.661,-0.1 0.683,-0.105 0.705,-0.111C0.727,-0.116 0.747,-0.124 0.765,-0.134C0.782,-0.144 0.797,-0.156 0.808,-0.171C0.819,-0.186 0.825,-0.204 0.825,-0.225C0.825,-0.244 0.82,-0.26 0.81,-0.273C0.8,-0.286 0.787,-0.298 0.77,-0.307C0.753,-0.316 0.735,-0.323 0.714,-0.328C0.693,-0.333 0.671,-0.336 0.65,-0.339C0.629,-0.341 0.608,-0.342 0.588,-0.343C0.567,-0.344 0.55,-0.344 0.535,-0.344C0.484,-0.344 0.439,-0.341 0.398,-0.336C0.357,-0.331 0.323,-0.325 0.295,-0.319C0.266,-0.312 0.244,-0.306 0.229,-0.301C0.214,-0.295 0.206,-0.292 0.206,-0.291Z" style="fill-rule:nonzero;"/>
            </g>
        </g>
        <g transform="matrix(-0.866025,0.5,-0.5,-0.866025,625.192,316.68)">
            <g transform="matrix(48,0,0,48,374.383,253.947)">
                <path d="M0.334,-0L0.148,-0L0.721,-0.585L0.042,-0.585L0.042,-0.7L0.861,-0.7L0.861,-0.56L0.334,-0Z" style="fill-rule:nonzero;"/>
            </g>
        </g>
        <g transform="matrix(-0.5,0.866025,-0.866025,-0.5,606.07,123.955)">
            <g transform="matrix(48,0,0,48,367.807,253.947)">
                <path d="M0.06,-0.195C0.06,-0.242 0.074,-0.28 0.102,-0.309C0.129,-0.338 0.169,-0.359 0.222,-0.372C0.185,-0.385 0.156,-0.403 0.134,-0.428C0.112,-0.453 0.101,-0.485 0.101,-0.525C0.101,-0.56 0.111,-0.591 0.13,-0.616C0.149,-0.641 0.176,-0.661 0.212,-0.677C0.248,-0.693 0.292,-0.705 0.344,-0.712C0.396,-0.719 0.455,-0.723 0.52,-0.723C0.585,-0.723 0.644,-0.719 0.696,-0.712C0.747,-0.705 0.791,-0.693 0.827,-0.677C0.863,-0.661 0.891,-0.641 0.91,-0.616C0.929,-0.591 0.939,-0.56 0.939,-0.525C0.939,-0.485 0.928,-0.453 0.906,-0.428C0.884,-0.403 0.854,-0.385 0.816,-0.372C0.869,-0.359 0.91,-0.337 0.938,-0.309C0.966,-0.28 0.98,-0.242 0.98,-0.195C0.98,-0.156 0.97,-0.122 0.949,-0.095C0.928,-0.068 0.898,-0.045 0.859,-0.028C0.819,-0.01 0.771,0.003 0.714,0.011C0.657,0.019 0.592,0.023 0.52,0.023C0.447,0.023 0.383,0.019 0.326,0.011C0.269,0.003 0.22,-0.01 0.181,-0.028C0.142,-0.045 0.112,-0.068 0.091,-0.095C0.07,-0.122 0.06,-0.156 0.06,-0.195ZM0.835,-0.205C0.835,-0.246 0.81,-0.275 0.76,-0.292C0.709,-0.309 0.629,-0.317 0.52,-0.317C0.409,-0.317 0.329,-0.309 0.28,-0.292C0.231,-0.275 0.206,-0.246 0.206,-0.205C0.206,-0.165 0.231,-0.136 0.28,-0.119C0.329,-0.102 0.409,-0.093 0.52,-0.093C0.629,-0.093 0.709,-0.102 0.76,-0.119C0.81,-0.136 0.835,-0.165 0.835,-0.205ZM0.8,-0.505C0.8,-0.524 0.795,-0.541 0.785,-0.554C0.774,-0.567 0.758,-0.578 0.736,-0.586C0.713,-0.594 0.684,-0.6 0.649,-0.604C0.613,-0.607 0.57,-0.609 0.52,-0.609C0.47,-0.609 0.427,-0.607 0.392,-0.604C0.356,-0.6 0.327,-0.594 0.305,-0.586C0.282,-0.578 0.266,-0.567 0.256,-0.554C0.245,-0.541 0.24,-0.524 0.24,-0.505C0.24,-0.49 0.245,-0.476 0.256,-0.465C0.266,-0.454 0.282,-0.444 0.305,-0.438C0.327,-0.431 0.356,-0.425 0.392,-0.422C0.427,-0.419 0.47,-0.417 0.52,-0.417C0.57,-0.417 0.613,-0.419 0.649,-0.422C0.684,-0.425 0.713,-0.431 0.736,-0.438C0.758,-0.444 0.774,-0.454 0.785,-0.465C0.795,-0.476 0.8,-0.49 0.8,-0.505Z" style="fill-rule:nonzero;"/>
            </g>
        </g>
        <g transform="matrix(-5.55112e-17,1,-1,-5.55112e-17,493.147,-33.3894)">
            <g transform="matrix(48,0,0,48,368.479,253.947)">
                <path d="M0.964,-0.357C0.964,-0.278 0.953,-0.213 0.931,-0.164C0.908,-0.114 0.877,-0.075 0.836,-0.048C0.795,-0.02 0.745,-0.001 0.688,0.009C0.631,0.018 0.567,0.023 0.498,0.023C0.455,0.023 0.41,0.022 0.364,0.019C0.318,0.016 0.276,0.012 0.237,0.008C0.192,0.004 0.147,-0.001 0.104,-0.007L0.104,-0.125C0.12,-0.123 0.141,-0.12 0.169,-0.117C0.196,-0.113 0.225,-0.109 0.258,-0.106C0.291,-0.103 0.325,-0.1 0.361,-0.098C0.397,-0.095 0.432,-0.094 0.466,-0.094C0.517,-0.094 0.564,-0.096 0.607,-0.1C0.65,-0.103 0.687,-0.111 0.718,-0.124C0.749,-0.136 0.774,-0.154 0.792,-0.177C0.81,-0.2 0.819,-0.23 0.819,-0.268L0.819,-0.29C0.79,-0.281 0.757,-0.273 0.721,-0.266C0.69,-0.26 0.655,-0.255 0.614,-0.25C0.573,-0.245 0.53,-0.243 0.483,-0.243C0.413,-0.243 0.354,-0.248 0.306,-0.257C0.257,-0.266 0.217,-0.278 0.186,-0.293C0.155,-0.308 0.131,-0.324 0.114,-0.343C0.096,-0.361 0.084,-0.379 0.077,-0.397C0.069,-0.415 0.064,-0.432 0.063,-0.448C0.062,-0.464 0.061,-0.477 0.061,-0.487C0.061,-0.524 0.069,-0.556 0.086,-0.583C0.102,-0.609 0.123,-0.631 0.149,-0.648C0.174,-0.665 0.203,-0.679 0.235,-0.689C0.267,-0.699 0.299,-0.707 0.331,-0.712C0.362,-0.716 0.392,-0.72 0.42,-0.721C0.447,-0.722 0.47,-0.723 0.487,-0.723C0.526,-0.723 0.565,-0.722 0.604,-0.719C0.643,-0.716 0.68,-0.711 0.715,-0.702C0.75,-0.693 0.783,-0.681 0.814,-0.665C0.844,-0.648 0.87,-0.627 0.893,-0.6C0.915,-0.573 0.932,-0.539 0.945,-0.5C0.958,-0.46 0.964,-0.412 0.964,-0.357ZM0.819,-0.409C0.819,-0.481 0.791,-0.532 0.736,-0.563C0.68,-0.594 0.6,-0.609 0.495,-0.609C0.484,-0.609 0.469,-0.609 0.45,-0.608C0.431,-0.607 0.411,-0.606 0.389,-0.603C0.367,-0.6 0.345,-0.595 0.323,-0.59C0.3,-0.584 0.28,-0.576 0.262,-0.566C0.243,-0.556 0.228,-0.544 0.217,-0.529C0.206,-0.514 0.2,-0.497 0.2,-0.476C0.2,-0.457 0.205,-0.44 0.215,-0.428C0.225,-0.415 0.238,-0.404 0.254,-0.395C0.27,-0.386 0.288,-0.379 0.309,-0.374C0.33,-0.369 0.351,-0.365 0.372,-0.363C0.393,-0.36 0.414,-0.359 0.434,-0.358C0.454,-0.357 0.472,-0.357 0.487,-0.357C0.538,-0.357 0.584,-0.36 0.625,-0.365C0.666,-0.37 0.7,-0.375 0.729,-0.382C0.758,-0.388 0.78,-0.394 0.796,-0.399C0.811,-0.404 0.819,-0.408 0.819,-0.409Z" style="fill-rule:nonzero;"/>
            </g>
        </g>
        <g transform="matrix(0.323098,0.559623,-0.866025,0.5,390.89,15.3453)">
            <path d="M340.831,223.659C344.319,222.283 347.871,221.315 351.487,220.755C355.103,220.195 361.291,219.915 365.099,219.915L365.099,253.947L356.143,253.947L356.143,225.675C353.583,225.835 351.183,226.187 348.943,226.731C346.703,227.275 344.383,227.963 341.983,228.795L340.831,223.659Z" style="fill-rule:nonzero;"/>
            <path d="M369.679,237.195C369.679,233.995 370.191,231.259 371.215,228.987C372.239,226.715 373.735,224.859 375.703,223.419C377.671,221.979 380.087,220.923 382.951,220.251C385.815,219.579 389.087,219.243 392.767,219.243C396.415,219.243 399.671,219.579 402.535,220.251C405.399,220.923 407.815,221.979 409.783,223.419C411.751,224.859 413.255,226.715 414.295,228.987C415.335,231.259 415.855,233.995 415.855,237.195C415.855,240.363 415.335,243.075 414.295,245.331C413.255,247.587 411.751,249.435 409.783,250.875C407.815,252.315 405.399,253.371 402.535,254.043C399.671,254.715 396.415,255.051 392.767,255.051C389.087,255.051 385.815,254.715 382.951,254.043C380.087,253.371 377.671,252.315 375.703,250.875C373.735,249.435 372.239,247.587 371.215,245.331C370.191,243.075 369.679,240.363 369.679,237.195ZM407.193,237.195C407.193,232.747 405.841,229.555 403.137,227.619C400.433,225.683 398.111,224.715 392.767,224.715C387.391,224.715 385.371,225.683 382.683,227.619C379.995,229.555 378.651,232.747 378.651,237.195C378.651,241.611 379.995,244.771 382.683,246.675C385.371,248.579 387.391,249.531 392.767,249.531C398.111,249.531 400.433,248.579 403.137,246.675C405.841,244.771 407.193,241.611 407.193,237.195Z" style="fill-rule:nonzero;"/>
        </g>
        <g transform="matrix(0.735603,0.4247,-0.5,0.866025,178.419,-62.6229)">
            <path d="M361.471,223.659C364.959,222.283 368.511,221.315 372.127,220.755C375.743,220.195 380.868,219.915 384.676,219.915L384.676,253.947L376.783,253.947L376.783,225.675C374.223,225.835 371.823,226.187 369.583,226.731C367.343,227.275 365.023,227.963 362.623,228.795L361.471,223.659Z" style="fill-rule:nonzero;"/>
            <path d="M390.751,223.659C394.239,222.283 397.791,221.315 401.407,220.755C405.023,220.195 410.148,219.915 413.956,219.915L413.956,253.947L406.063,253.947L406.063,225.675C403.503,225.835 401.103,226.187 398.863,226.731C396.623,227.275 394.303,227.963 391.903,228.795L390.751,223.659Z" style="fill-rule:nonzero;"/>
        </g>
    </g>
</svg>
