<?xml version="1.0" encoding="UTF-8" standalone="no"?>
<!DOCTYPE svg PUBLIC "-//W3C//DTD SVG 1.1//EN" "http://www.w3.org/Graphics/SVG/1.1/DTD/svg11.dtd">
<svg width="100%" height="100%" viewBox="0 0 512 512" version="1.1" xmlns="http://www.w3.org/2000/svg" xmlns:xlink="http://www.w3.org/1999/xlink" xml:space="preserve" xmlns:serif="http://www.serif.com/" style="fill-rule:evenodd;clip-rule:evenodd;stroke-linejoin:round;stroke-miterlimit:2;">
    <g id="Masks">
        <g id="Seconds-Mask" serif:id="Seconds Mask" transform="matrix(0.971674,-0.0107401,0.0107401,0.971674,256,256)">
            <path d="M246.573,14.306C239.153,143.972 131.511,246.981 0,246.981C-136.313,246.981 -246.981,136.313 -246.981,-0C-246.981,-136.313 -136.313,-246.981 0,-246.981C133.35,-246.981 242.158,-141.072 246.825,-8.852L182.417,-9.564C177.435,-105.941 97.607,-182.663 -0,-182.663C-100.815,-182.663 -182.663,-100.815 -182.663,-0C-182.663,100.815 -100.815,182.663 -0,182.663C96.242,182.663 175.2,108.07 182.164,13.594L246.573,14.306Z" style="fill:rgb(205,205,205);fill-opacity:0.83;"/>
        </g>
        <g id="Hours-Mask" serif:id="Hours Mask" transform="matrix(0.984821,0,0,0.984821,256,256)">
            <path d="M132.306,24.536C120.759,87.093 65.877,134.542 0,134.542C-74.256,134.542 -134.542,74.256 -134.542,0C-134.542,-74.256 -74.256,-134.542 0,-134.542C65.877,-134.542 120.759,-87.093 132.306,-24.536L74.788,-24.536C64.468,-55.97 34.867,-78.694 0,-78.694C-43.433,-78.694 -78.694,-43.433 -78.694,0C-78.694,43.433 -43.433,78.694 0,78.694C34.867,78.694 64.468,55.97 74.788,24.536L132.306,24.536Z" style="fill:rgb(224,224,224);fill-opacity:0.87;"/>
        </g>
        <g id="Minutes-Mask" serif:id="Minutes Mask" transform="matrix(0.984664,-5.62907e-17,5.62907e-17,0.984664,256,256)">
            <path d="M182.591,8.891C177.947,105.66 97.911,182.804 0,182.804C-100.892,182.804 -182.804,100.892 -182.804,0C-182.804,-100.892 -100.892,-182.804 0,-182.804C97.911,-182.804 177.947,-105.66 182.591,-8.891L134.274,-8.891C129.691,-79.021 71.281,-134.564 0,-134.564C-74.268,-134.564 -134.564,-74.268 -134.564,0C-134.564,74.268 -74.268,134.564 0,134.564C71.281,134.564 129.691,79.021 134.274,8.891L182.591,8.891Z" style="fill:rgb(238,165,20);fill-opacity:0.87;"/>
        </g>
    </g>
</svg>
