<?xml version="1.0" encoding="UTF-8" standalone="no"?>
<!DOCTYPE svg PUBLIC "-//W3C//DTD SVG 1.1//EN" "http://www.w3.org/Graphics/SVG/1.1/DTD/svg11.dtd">
<svg width="100%" height="100%" viewBox="0 0 500 500" version="1.1" xmlns="http://www.w3.org/2000/svg" xmlns:xlink="http://www.w3.org/1999/xlink" xml:space="preserve" xmlns:serif="http://www.serif.com/" style="fill-rule:evenodd;clip-rule:evenodd;stroke-linejoin:round;stroke-miterlimit:2;">
    <g id="Hands">
        <g id="Hour-Hand" serif:id="Hour Hand">
            <g transform="matrix(1.09256,0,0,1.09256,-21.3006,-27.0387)">
                <path d="M251.731,243.141C256.116,244.578 259.286,248.705 259.286,253.568C259.286,259.622 254.371,264.538 248.316,264.538C242.261,264.538 237.346,259.622 237.346,253.568C237.346,248.875 240.299,244.867 244.446,243.301C242.778,231.347 240.254,212.612 240.255,208.728C240.256,204.052 247.514,156.54 247.514,156.54C247.514,156.54 247.564,156.02 248.334,156.011C249.072,156.003 249.134,156.554 249.134,156.554C249.134,156.554 255.708,205.375 255.739,209.382C255.762,212.393 253.348,231.016 251.731,243.141Z" style="fill:rgb(211,214,213);"/>
                <path d="M250.043,156.449C250.18,157.465 256.623,205.402 256.654,209.375C256.676,212.338 254.356,230.358 252.735,242.533C257.109,244.288 260.201,248.57 260.201,253.568C260.201,260.128 254.876,265.453 248.316,265.453C241.756,265.453 236.43,260.128 236.43,253.568C236.43,248.744 239.31,244.588 243.442,242.726C241.769,230.711 239.339,212.551 239.34,208.728C239.341,204.084 246.471,157.312 246.607,156.421L246.609,156.406L246.773,155.925L246.917,155.711L247.124,155.5C247.359,155.303 247.723,155.103 248.324,155.096C248.597,155.093 248.82,155.136 249.002,155.2L249.296,155.336L249.542,155.514L249.743,155.73L249.88,155.944L250.038,156.409C250.038,156.409 250.042,156.442 250.043,156.449L249.241,157.35C249.172,156.833 249.134,156.554 249.134,156.554C249.134,156.554 249.072,156.003 248.334,156.011C247.564,156.02 247.514,156.54 247.514,156.54C247.514,156.54 240.256,204.052 240.255,208.728C240.254,212.612 242.778,231.347 244.446,243.301C240.299,244.867 237.346,248.875 237.346,253.568C237.346,259.622 242.261,264.538 248.316,264.538C254.371,264.538 259.286,259.622 259.286,253.568C259.286,248.705 256.116,244.578 251.731,243.141C253.348,231.016 255.762,212.393 255.739,209.382C255.71,205.699 250.154,164.153 249.256,157.462C249.474,157.432 249.676,157.325 249.823,157.157C249.993,156.962 250.073,156.705 250.043,156.449Z" style="fill-opacity:0.08;"/>
            </g>
            <g transform="matrix(0.564678,0.825311,-0.825311,0.564678,314.982,-96.6045)">
                <path d="M236.867,243.165C236.867,243.165 209.487,229.125 206.267,227.004C203.549,225.213 176.323,201.02 176.323,201.02C176.323,201.02 175.726,200.383 176.367,199.423C177.014,198.454 177.764,198.824 177.764,198.824C177.764,198.824 209.982,215.773 212.733,217.661C215.717,219.709 239.202,240.023 239.202,240.023C239.202,240.023 239.865,240.998 238.982,242.284C238.093,243.579 236.867,243.165 236.867,243.165Z" style="fill:rgb(200,200,200);"/>
                <path d="M178.499,199.212C183.316,201.749 210.229,215.943 212.733,217.661C215.717,219.709 239.202,240.023 239.202,240.023C239.202,240.023 239.865,240.998 238.982,242.284C238.093,243.579 236.867,243.165 236.867,243.165C236.867,243.165 209.487,229.125 206.267,227.004C203.808,225.383 181.293,205.43 177.021,201.639C177.047,201.61 177.071,201.579 177.094,201.547C177.333,201.197 177.304,200.735 177.037,200.419C177.033,200.414 177.017,200.395 177.012,200.389L177.094,201.547C177.094,201.547 176.993,201.518 176.843,201.481C176.506,201.182 176.323,201.02 176.323,201.02C176.323,201.02 175.726,200.383 176.367,199.423C177.014,198.454 177.764,198.824 177.764,198.824C177.764,198.824 178.023,198.961 178.497,199.21L178.534,199.351L178.499,199.212ZM177.409,199.692C177.378,199.708 177.25,199.782 177.143,199.941C177.005,200.149 177.024,200.346 177.034,200.403C178.746,201.923 204.163,224.499 206.781,226.224C209.881,228.267 235.452,241.39 237.199,242.286L237.201,242.286C237.334,242.303 237.824,242.322 238.213,241.755C238.563,241.246 238.485,240.772 238.438,240.596C236.414,238.846 215.039,220.375 212.205,218.43C209.541,216.602 179.171,200.619 177.409,199.692Z" style="fill:rgb(0,31,4);fill-opacity:0.08;"/>
            </g>
        </g>
    </g>
</svg>
