<?xml version="1.0" encoding="UTF-8" standalone="no"?>
<!DOCTYPE svg PUBLIC "-//W3C//DTD SVG 1.1//EN" "http://www.w3.org/Graphics/SVG/1.1/DTD/svg11.dtd">
<svg width="100%" height="100%" viewBox="0 0 390 390" version="1.1" xmlns="http://www.w3.org/2000/svg" xmlns:xlink="http://www.w3.org/1999/xlink" xml:space="preserve" xmlns:serif="http://www.serif.com/" style="fill-rule:evenodd;clip-rule:evenodd;stroke-linejoin:round;stroke-miterlimit:2;">
    <g id="Minute-Hand" serif:id="Minute Hand" transform="matrix(1,0,0,1,-54.0672,-52.9719)">
        <g id="Hands">
            <g id="Minute-Hand1" serif:id="Minute Hand">
                <g transform="matrix(1,0,0,1,-4.41133,-4.36133)">
                    <path d="M256.836,243.952C260.157,245.285 262.505,248.537 262.505,252.333C262.505,257.315 258.461,261.36 253.479,261.36C248.496,261.36 244.452,257.315 244.452,252.333C244.452,248.578 246.75,245.355 250.015,243.996C248.36,227.263 245.66,172.968 245.595,166.862C245.515,159.387 252.376,108.452 252.376,108.452C252.376,108.452 252.532,107.878 253.49,107.885C254.374,107.891 254.509,108.405 254.509,108.405C254.509,108.405 261.171,162.721 261.307,167.278C261.434,171.541 258.507,224.001 256.836,243.952Z" style="fill:rgb(214,214,214);"/>
                    <path d="M254.616,109.283L255.501,108.283C255.501,108.283 262.17,162.684 262.306,167.248C262.432,171.468 259.573,222.845 257.891,243.328C261.215,244.961 263.505,248.382 263.505,252.333C263.505,257.867 259.013,262.36 253.479,262.36C247.944,262.36 243.452,257.867 243.452,252.333C243.452,248.428 245.689,245.04 248.951,243.386C247.29,225.864 244.66,172.903 244.595,166.873C244.515,159.379 251.385,108.319 251.385,108.319C251.346,108.605 251.433,108.893 251.623,109.11C251.784,109.294 252.004,109.411 252.243,109.443C251.289,116.577 245.522,160.005 245.595,166.862C245.66,172.968 248.36,227.263 250.015,243.996C246.75,245.355 244.452,248.578 244.452,252.333C244.452,257.315 248.496,261.36 253.479,261.36C258.461,261.36 262.505,257.315 262.505,252.333C262.505,248.537 260.157,245.285 256.836,243.952C258.507,224.001 261.434,171.541 261.307,167.278C261.181,163.064 255.475,116.298 254.616,109.283ZM252.281,109.159C252.11,108.654 251.744,107.7 251.509,107.972L251.612,107.76L251.905,107.423C252.183,107.172 252.657,106.879 253.496,106.885C254.11,106.889 254.509,107.059 254.775,107.232L255.197,107.612L255.461,108.097L255.475,108.147L254.615,109.267C254.546,108.706 254.509,108.405 254.509,108.405C254.509,108.405 254.374,107.891 253.49,107.885C252.532,107.878 252.376,108.452 252.376,108.452C252.376,108.452 252.343,108.698 252.281,109.159ZM251.509,107.972L251.423,108.148C251.449,108.065 251.478,108.008 251.509,107.972Z" style="fill-opacity:0.1;"/>
                </g>
                <g transform="matrix(0.673267,-0.7394,0.7394,0.673267,-103.428,264.673)">
                    <path d="M260.285,236.896C260.285,236.896 305.508,191.168 308.056,188.808C311.157,185.934 344.347,161.572 344.347,161.572C344.347,161.572 344.703,161.14 345.551,162.055C346.337,162.902 345.902,163.351 345.902,163.351C345.902,163.351 317.88,194.8 315.567,196.833C313.274,198.848 263.211,239.745 263.211,239.745C263.211,239.745 261.862,240.686 260.662,239.385C259.12,237.712 260.285,236.896 260.285,236.896Z" style="fill:rgb(200,200,200);"/>
                    <path d="M345.414,163.899C341.678,168.088 317.699,194.959 315.567,196.833C313.274,198.848 263.211,239.745 263.211,239.745C263.211,239.745 261.862,240.686 260.662,239.385C259.12,237.712 260.285,236.896 260.285,236.896C260.285,236.896 305.508,191.168 308.056,188.808C311.157,185.934 344.347,161.572 344.347,161.572C344.347,161.572 344.703,161.14 345.551,162.055C346.337,162.902 345.902,163.351 345.902,163.351C345.902,163.351 345.748,163.524 345.461,163.846L345.36,163.845L345.373,162.843L345.354,162.864C345.347,162.872 345.289,162.986 345.289,162.986L345.279,162.964C345.108,163.238 345.136,163.599 345.36,163.845C345.377,163.864 345.395,163.882 345.414,163.899ZM260.727,237.481C260.727,237.481 260.377,237.993 261.202,238.888C261.894,239.639 262.662,239.222 262.778,239.152C264.168,238.016 312.824,198.268 315.083,196.282C317.319,194.317 343.639,164.789 345.275,162.953C345.243,162.882 345.158,162.71 345.013,162.554C344.888,162.419 344.746,162.312 344.659,162.253C342.471,163.859 311.54,186.579 308.554,189.346C306.008,191.705 260.807,237.411 260.807,237.411C260.782,237.437 260.755,237.46 260.727,237.481ZM344.769,162.162C344.833,162.128 344.869,162.088 344.883,162.073L344.91,162.042L343.805,162.066L344.769,162.162Z" style="fill:rgb(0,31,4);fill-opacity:0.08;"/>
                </g>
            </g>
        </g>
    </g>
</svg>
