<?xml version="1.0" encoding="UTF-8" standalone="no"?>
<!DOCTYPE svg PUBLIC "-//W3C//DTD SVG 1.1//EN" "http://www.w3.org/Graphics/SVG/1.1/DTD/svg11.dtd">
<svg width="100%" height="100%" viewBox="0 0 500 500" version="1.1" xmlns="http://www.w3.org/2000/svg" xmlns:xlink="http://www.w3.org/1999/xlink" xml:space="preserve" xmlns:serif="http://www.serif.com/" style="fill-rule:evenodd;clip-rule:evenodd;stroke-linejoin:round;stroke-miterlimit:2;">
    <g transform="matrix(1,0,0,1,-1.55599,-0.892449)">
        <g id="Second-Hand" serif:id="Second Hand">
            <path d="M249.013,256.342C246.964,255.384 245.543,253.303 245.543,250.892C245.543,248.44 247.014,246.328 249.122,245.393L250.54,102.897L252.552,102.887L253.996,245.396C256.101,246.332 257.569,248.442 257.569,250.892C257.569,253.299 256.152,255.378 254.107,256.338L254.569,301.893C254.569,301.893 254.336,303.943 251.544,303.945C248.72,303.947 248.56,301.876 248.56,301.876L249.013,256.342Z" style="fill:rgb(189,21,17);"/>
            <path d="M249.013,256.342C246.964,255.384 245.543,253.303 245.543,250.892C245.543,248.44 247.014,246.328 249.122,245.393L250.54,102.897L252.552,102.887L253.996,245.396C256.101,246.332 257.569,248.442 257.569,250.892C257.569,253.299 256.152,255.378 254.107,256.338L254.569,301.893C254.569,301.893 254.336,303.943 251.544,303.945C248.72,303.947 248.56,301.876 248.56,301.876L249.013,256.342ZM249.746,256.35C249.746,256.35 249.294,301.837 249.294,301.84C249.31,301.936 249.397,302.339 249.767,302.675C250.107,302.984 250.664,303.212 251.543,303.212C252.418,303.211 252.98,302.98 253.33,302.672C253.702,302.343 253.81,301.953 253.835,301.838L253.374,256.346C253.371,256.059 253.536,255.797 253.795,255.675C255.591,254.831 256.836,253.006 256.836,250.892C256.836,248.741 255.546,246.888 253.698,246.066C253.436,245.949 253.266,245.69 253.263,245.403L251.826,103.624L251.266,103.627L249.855,245.4C249.852,245.687 249.682,245.947 249.419,246.063C247.569,246.884 246.276,248.739 246.276,250.892C246.276,253.009 247.524,254.836 249.324,255.678C249.584,255.8 249.749,256.062 249.746,256.35Z" style="fill:rgb(239,117,120);"/>
        </g>
    </g>
</svg>
