<?xml version="1.0" encoding="UTF-8" standalone="no"?>
<!DOCTYPE svg PUBLIC "-//W3C//DTD SVG 1.1//EN" "http://www.w3.org/Graphics/SVG/1.1/DTD/svg11.dtd">
<svg width="100%" height="100%" viewBox="0 0 354 354" version="1.1" xmlns="http://www.w3.org/2000/svg" xmlns:xlink="http://www.w3.org/1999/xlink" xml:space="preserve" xmlns:serif="http://www.serif.com/" style="fill-rule:evenodd;clip-rule:evenodd;stroke-linejoin:round;stroke-miterlimit:2;">
    <g id="Watch-Face" serif:id="Watch Face" transform="matrix(0.9,0,0,0.9,-14.0585,-14.0585)">
        <g id="Outer-Case" serif:id="Outer Case" transform="matrix(0.903331,0,0,0.903331,20.5216,20.5216)">
            <circle cx="212.287" cy="212.287" r="217.713" style="fill:url(#_Linear1);"/>
        </g>
        <circle id="Inner-Case" serif:id="Inner Case" cx="212.287" cy="212.287" r="184.201" style="fill:rgb(66,66,68);"/>
        <circle id="Face-Background" serif:id="Face Background" cx="212.287" cy="212.287" r="180" style="fill:rgb(2,2,4);"/>
        <g id="Hamilton-Text" serif:id="Hamilton Text" transform="matrix(1,0,0,1,31.8436,31.8436)">
            <path id="hamilton-N" d="M239.669,128.391L239.669,122.542C239.669,120.688 239.669,117.502 233.392,117.502C227.116,117.502 227.068,120.711 227.068,122.542L227.068,128.391L229.018,128.391L229.018,123.398C229.065,121.52 228.4,119.261 233.321,119.261C238.243,119.261 237.648,121.52 237.696,123.398L237.696,128.391L239.669,128.391Z" style="fill:rgb(248,248,248);fill-rule:nonzero;"/>
            <path id="himilton-O" d="M223.921,122.732C223.921,118.358 220.688,117.098 216.86,117.098C212.937,117.098 209.799,118.31 209.799,122.732C209.799,127.154 212.913,128.367 216.86,128.367C220.498,128.391 223.921,127.154 223.921,122.732M211.582,122.756C211.582,119.475 214.126,118.833 216.86,118.833C219.451,118.833 222.138,119.475 222.138,122.756C222.138,126.013 219.523,126.703 216.86,126.703C214.102,126.679 211.582,125.989 211.582,122.756" style="fill:rgb(248,248,248);fill-rule:nonzero;"/>
            <g id="hamilton-T" transform="matrix(0.0629045,0,0,0.0629045,131.083,50.29)">
                <path d="M1241.58,1096.82L1241.58,1069.98L1004.98,1069.98L1004.98,1096.82L1108.54,1096.82L1108.54,1241.58L1139.91,1241.58L1139.91,1096.82L1241.58,1096.82Z" style="fill:rgb(248,248,248);fill-rule:nonzero;"/>
            </g>
            <g id="hamilton-L" transform="matrix(0.0629045,0,0,0.0629045,133.71,50.29)">
                <path d="M1003.47,1213.61L866.268,1213.61L866.268,1069.98L834.898,1069.98L834.898,1241.58L1003.47,1241.58L1003.47,1213.61Z" style="fill:rgb(248,248,248);fill-rule:nonzero;"/>
            </g>
            <rect id="himilton-I" x="179.382" y="117.597" width="1.95" height="10.746" style="fill:rgb(248,248,248);"/>
            <path id="hamilton-M" d="M175.435,128.391L175.435,122.471C175.411,119.855 175.673,117.288 170.395,117.288C168.136,117.288 166.448,117.668 165.782,118.714C165.14,117.692 163.476,117.288 161.194,117.288C156.154,117.288 156.177,119.855 156.154,122.471L156.154,128.391L158.222,128.391L158.222,123.279C158.293,121.02 157.651,119.142 161.146,119.142C164.95,119.142 164.784,119.855 164.784,123.279L164.784,128.391L166.805,128.391L166.805,123.255C166.805,119.832 166.662,119.118 170.442,119.118C173.937,119.118 173.272,120.997 173.367,123.255L173.367,128.367L175.435,128.391Z" style="fill:rgb(248,248,248);fill-rule:nonzero;"/>
            <path id="hamilton-A" d="M146.055,117.502C138.946,117.502 139.112,120.711 139.112,122.542L139.112,128.391L141.109,128.391L141.109,124.658L151.024,124.658L151.024,128.391L153.021,128.391L153.021,122.542C152.973,120.688 153.163,117.502 146.055,117.502M151,122.804L141.086,122.804C141.062,121.116 140.658,119.237 146.055,119.237C151.428,119.237 151.024,121.068 151,122.804" style="fill:rgb(248,248,248);fill-rule:nonzero;"/>
            <path id="hamilton-H" d="M133.02,121.662L123.154,121.662L123.154,117.502L121.156,117.502L121.156,128.319L123.154,128.319L123.154,123.636L133.02,123.636L133.02,128.319L135.017,128.319L135.017,117.502L133.02,117.502L133.02,121.662Z" style="fill:rgb(248,248,248);fill-rule:nonzero;"/>
        </g>
        <path id="Hamilton-Logo" serif:id="Hamilton Logo" d="M205.882,132.662L205.882,124.538L206.751,124.483L210.354,132.657L214.15,132.697L217.644,124.849L218.374,124.874L218.453,132.612L225.956,132.721L225.962,133.602L218.513,136.299L218.423,144.19L217.748,144.16L214.404,136.858L210.081,136.823L206.83,144.042L206.081,144.102L205.883,136.397L198.608,133.646L198.627,132.8L205.882,132.662Z" style="fill:rgb(213,219,221);fill-rule:nonzero;"/>
        <g id="big-ticks" transform="matrix(1,0,0,1,32.1935,31.7411)">
            <path id="big-tick-11" d="M92.389,34.052C92.914,33.728 96.735,31.546 97.357,31.184C97.979,30.822 98.471,30.963 98.881,31.692C99.29,32.421 105.848,43.798 106.256,44.467C106.663,45.136 106.661,45.667 106.042,46.009C105.424,46.352 101.689,48.481 101.037,48.868C100.385,49.255 99.806,48.823 99.363,48.099C98.92,47.375 92.592,36.454 92.142,35.645C91.693,34.837 91.865,34.376 92.389,34.052L92.389,34.052Z" style="fill:rgb(198,177,132);fill-rule:nonzero;"/>
            <path id="big-tick-10" d="M30.991,97.658C31.282,97.115 33.488,93.307 33.844,92.682C34.2,92.056 34.696,91.931 35.416,92.355C36.137,92.78 47.525,99.317 48.214,99.691C48.903,100.065 49.167,100.524 48.805,101.132C48.442,101.739 46.284,105.456 45.915,106.118C45.546,106.781 44.829,106.699 44.082,106.296C43.334,105.893 32.374,99.633 31.579,99.16C30.784,98.687 30.701,98.202 30.991,97.658L30.991,97.658Z" style="fill:rgb(198,177,132);fill-rule:nonzero;"/>
            <path id="big-tick-9" d="M9.78,183.162C9.761,182.546 9.775,178.145 9.772,177.426C9.768,176.707 10.136,176.35 10.972,176.359C11.808,176.368 24.939,176.356 25.723,176.337C26.506,176.318 26.965,176.584 26.953,177.291C26.942,177.998 26.924,182.297 26.935,183.055C26.945,183.813 26.282,184.099 25.434,184.123C24.585,184.146 11.963,184.185 11.038,184.171C10.113,184.157 9.799,183.778 9.78,183.162L9.78,183.162Z" style="fill:rgb(198,177,132);fill-rule:nonzero;"/>
            <path id="big-tick-8" d="M34.004,268.072C33.679,267.548 31.487,263.731 31.124,263.11C30.761,262.489 30.901,261.996 31.629,261.586C32.357,261.175 43.718,254.59 44.387,254.181C45.055,253.772 45.586,253.773 45.93,254.391C46.274,255.009 48.411,258.739 48.799,259.39C49.188,260.041 48.758,260.621 48.035,261.065C47.312,261.51 36.405,267.864 35.598,268.315C34.79,268.766 34.329,268.595 34.004,268.072L34.004,268.072Z" style="fill:rgb(198,177,132);fill-rule:nonzero;"/>
            <path id="big-tick-7" d="M97.464,329.433C96.92,329.142 93.113,326.934 92.488,326.579C91.863,326.223 91.738,325.726 92.162,325.006C92.587,324.286 99.129,312.9 99.503,312.211C99.877,311.523 100.337,311.258 100.944,311.621C101.551,311.984 105.267,314.143 105.929,314.513C106.592,314.882 106.509,315.599 106.106,316.346C105.703,317.093 99.439,328.051 98.966,328.846C98.492,329.641 98.007,329.724 97.464,329.433L97.464,329.433Z" style="fill:rgb(198,177,132);fill-rule:nonzero;"/>
            <path id="big-tick-6" d="M183.064,350.902C182.448,350.921 178.047,350.904 177.328,350.908C176.608,350.911 176.252,350.543 176.261,349.707C176.271,348.871 176.265,335.739 176.246,334.956C176.228,334.173 176.494,333.714 177.201,333.726C177.908,333.738 182.207,333.757 182.965,333.747C183.723,333.737 184.009,334.4 184.032,335.249C184.055,336.097 184.088,348.719 184.074,349.644C184.059,350.569 183.68,350.883 183.064,350.902L183.064,350.902Z" style="fill:rgb(198,177,132);fill-rule:nonzero;"/>
            <path id="big-tick-5" d="M268.156,326.427C267.632,326.752 263.814,328.941 263.193,329.304C262.572,329.667 262.079,329.527 261.669,328.799C261.258,328.07 254.679,316.706 254.271,316.037C253.862,315.369 253.863,314.838 254.481,314.494C255.099,314.151 258.83,312.015 259.481,311.627C260.133,311.239 260.712,311.67 261.157,312.393C261.601,313.116 267.949,324.025 268.4,324.833C268.851,325.641 268.68,326.102 268.156,326.427L268.156,326.427Z" style="fill:rgb(198,177,132);fill-rule:nonzero;"/>
            <path id="big-tick-4" d="M329.563,262.909C329.271,263.452 327.055,267.254 326.698,267.879C326.341,268.503 325.844,268.628 325.125,268.201C324.405,267.775 313.033,261.21 312.345,260.835C311.657,260.459 311.394,259.999 311.758,259.392C312.122,258.786 314.289,255.074 314.66,254.412C315.03,253.751 315.747,253.835 316.493,254.24C317.24,254.645 328.185,260.931 328.979,261.406C329.773,261.881 329.855,262.366 329.563,262.909L329.563,262.909Z" style="fill:rgb(198,177,132);fill-rule:nonzero;"/>
            <path id="big-tick-3" d="M350.867,177.19C350.883,177.806 350.847,182.207 350.847,182.926C350.847,183.646 350.478,184 349.642,183.987C348.806,183.974 335.675,183.922 334.891,183.938C334.108,183.953 333.65,183.684 333.665,182.977C333.68,182.27 333.719,177.972 333.712,177.214C333.706,176.456 334.37,176.172 335.218,176.153C336.067,176.135 348.689,176.157 349.614,176.175C350.539,176.193 350.851,176.574 350.867,177.19L350.867,177.19Z" style="fill:rgb(198,177,132);fill-rule:nonzero;"/>
            <path id="big-tick-2" d="M326.637,92.556C326.957,93.082 329.115,96.918 329.473,97.542C329.831,98.166 329.687,98.658 328.955,99.062C328.223,99.467 316.805,105.952 316.133,106.355C315.461,106.758 314.93,106.752 314.592,106.132C314.253,105.511 312.149,101.763 311.766,101.108C311.383,100.454 311.818,99.878 312.545,99.439C313.272,99.001 324.233,92.743 325.045,92.299C325.857,91.854 326.317,92.029 326.637,92.556L326.637,92.556Z" style="fill:rgb(198,177,132);fill-rule:nonzero;"/>
            <path id="big-tick-1" d="M263.153,31.247C263.695,31.542 267.487,33.775 268.11,34.135C268.733,34.495 268.855,34.992 268.425,35.71C267.996,36.427 261.379,47.769 261,48.456C260.622,49.142 260.16,49.403 259.556,49.036C258.951,48.67 255.249,46.485 254.589,46.112C253.929,45.738 254.016,45.021 254.425,44.277C254.833,43.533 261.169,32.616 261.647,31.825C262.126,31.033 262.612,30.953 263.153,31.247L263.153,31.247Z" style="fill:rgb(198,177,132);fill-rule:nonzero;"/>
            <path id="big-tick-0" d="M177.107,9.807C177.723,9.788 182.124,9.809 182.843,9.807C183.562,9.804 183.918,10.172 183.908,11.008C183.898,11.844 183.89,24.976 183.908,25.759C183.926,26.543 183.659,27.001 182.952,26.988C182.245,26.976 177.947,26.952 177.189,26.961C176.43,26.97 176.145,26.307 176.123,25.459C176.101,24.61 176.081,11.988 176.096,11.063C176.111,10.138 176.491,9.825 177.107,9.807L177.107,9.807Z" style="fill:rgb(198,177,132);fill-rule:nonzero;"/>
        </g>
        <g id="Top-Right-Ticks" serif:id="Top Right Ticks" transform="matrix(1,0,0,1,32.0186,31.8436)">
            <path id="rect6-1-6" d="M248.987,24.161C249.182,23.738 249.329,23.778 250.178,24.16C251.027,24.541 251.161,24.628 251.011,24.962C250.861,25.296 243.899,40.789 243.758,41.1C243.617,41.412 243.459,41.482 242.563,41.068C241.666,40.655 241.608,40.573 241.815,40.103C242.022,39.632 248.791,24.583 248.987,24.16L248.987,24.161Z" style="fill:rgb(226,226,226);fill-rule:nonzero;"/>
            <path id="rect6-1-4" d="M232.146,17.923C232.297,17.482 232.446,17.506 233.331,17.797C234.215,18.087 234.358,18.16 234.244,18.507C234.13,18.855 228.831,34.993 228.724,35.317C228.616,35.642 228.466,35.728 227.531,35.411C226.597,35.094 226.53,35.019 226.686,34.529C226.843,34.04 231.996,18.363 232.146,17.923L232.146,17.923Z" style="fill:rgb(226,226,226);fill-rule:nonzero;"/>
            <path id="rect6-1-7" d="M214.961,13.37C215.064,12.916 215.216,12.925 216.126,13.122C217.036,13.318 217.185,13.375 217.108,13.733C217.031,14.091 213.444,30.693 213.371,31.027C213.298,31.361 213.157,31.463 212.195,31.245C211.232,31.027 211.158,30.959 211.262,30.456C211.367,29.952 214.857,13.824 214.961,13.37L214.961,13.37Z" style="fill:rgb(226,226,226);fill-rule:nonzero;"/>
            <path id="rect6-1-8" d="M197.247,10.62C197.302,10.157 197.454,10.15 198.379,10.25C199.305,10.35 199.46,10.391 199.421,10.755C199.381,11.118 197.56,28.006 197.522,28.346C197.485,28.686 197.356,28.801 196.375,28.686C195.395,28.57 195.315,28.511 195.365,27.999C195.416,27.488 197.192,11.082 197.247,10.62L197.247,10.62Z" style="fill:rgb(226,226,226);fill-rule:nonzero;"/>
            <path id="rect6-1-6-2" d="M350.281,161.425C350.745,161.383 350.783,161.53 350.879,162.456C350.974,163.381 350.966,163.542 350.602,163.579C350.238,163.617 333.342,165.356 333.002,165.39C332.661,165.425 332.521,165.323 332.43,164.34C332.339,163.357 332.38,163.266 332.891,163.209C333.402,163.152 349.817,161.468 350.281,161.425L350.281,161.425Z" style="fill:rgb(226,226,226);fill-rule:nonzero;"/>
            <path id="rect6-1-4-8" d="M347.535,143.897C347.992,143.806 348.046,143.948 348.237,144.859C348.429,145.77 348.438,145.93 348.08,146.005C347.722,146.081 331.102,149.583 330.767,149.653C330.432,149.723 330.282,149.636 330.088,148.668C329.894,147.7 329.926,147.605 330.428,147.495C330.93,147.385 347.078,143.988 347.535,143.897L347.535,143.897Z" style="fill:rgb(226,226,226);fill-rule:nonzero;"/>
            <path id="rect6-1-7-3" d="M342.612,126.744C343.056,126.606 343.125,126.742 343.411,127.627C343.696,128.513 343.722,128.672 343.374,128.784C343.025,128.896 326.861,134.113 326.535,134.217C326.209,134.321 326.051,134.25 325.757,133.308C325.464,132.366 325.485,132.268 325.973,132.106C326.461,131.944 342.167,126.882 342.611,126.744L342.612,126.744Z" style="fill:rgb(226,226,226);fill-rule:nonzero;"/>
            <path id="rect6-1-8-7" d="M335.99,110.162C336.417,109.978 336.5,110.105 336.877,110.956C337.254,111.807 337.296,111.962 336.962,112.11C336.627,112.259 321.101,119.145 320.788,119.283C320.475,119.421 320.31,119.368 319.919,118.462C319.528,117.555 319.539,117.456 320.007,117.243C320.475,117.031 335.562,110.346 335.99,110.162L335.99,110.162Z" style="fill:rgb(226,226,226);fill-rule:nonzero;"/>
            <path id="rect6-1-6-5" d="M318.215,79.067C318.596,78.799 318.702,78.907 319.246,79.663C319.79,80.418 319.863,80.561 319.566,80.775C319.269,80.989 305.485,90.913 305.207,91.112C304.929,91.311 304.756,91.293 304.188,90.486C303.619,89.679 303.609,89.579 304.024,89.276C304.439,88.972 317.834,79.335 318.215,79.067L318.215,79.067Z" style="fill:rgb(226,226,226);fill-rule:nonzero;"/>
            <path id="rect6-1-4-7" d="M306.682,65.44C307.033,65.133 307.15,65.229 307.77,65.924C308.39,66.618 308.478,66.752 308.205,66.996C307.932,67.24 295.265,78.555 295.009,78.782C294.754,79.01 294.58,79.009 293.93,78.267C293.28,77.524 293.26,77.426 293.64,77.08C294.021,76.735 306.331,65.746 306.682,65.439L306.682,65.44Z" style="fill:rgb(226,226,226);fill-rule:nonzero;"/>
            <path id="rect6-1-7-4" d="M293.836,53.144C294.153,52.802 294.28,52.886 294.969,53.512C295.658,54.137 295.759,54.262 295.513,54.533C295.267,54.804 283.849,67.378 283.618,67.631C283.388,67.884 283.215,67.901 282.491,67.23C281.767,66.56 281.737,66.464 282.079,66.081C282.422,65.697 293.519,53.485 293.836,53.144L293.836,53.144Z" style="fill:rgb(226,226,226);fill-rule:nonzero;"/>
            <path id="rect6-1-8-8" d="M280.006,41.768C280.285,41.395 280.42,41.464 281.171,42.014C281.922,42.564 282.035,42.677 281.819,42.973C281.603,43.268 271.57,56.973 271.367,57.249C271.164,57.524 270.995,57.56 270.204,56.969C269.414,56.378 269.374,56.286 269.674,55.869C269.974,55.452 279.726,42.14 280.005,41.767L280.006,41.768Z" style="fill:rgb(226,226,226);fill-rule:nonzero;"/>
        </g>
        <g id="Bottom-Right-Ticks" serif:id="Bottom Right Ticks" transform="matrix(1,0,0,-1,31.93,392.768)">
            <path id="rect6-1-61" serif:id="rect6-1-6" d="M248.987,24.161C249.182,23.738 249.329,23.778 250.178,24.16C251.027,24.541 251.161,24.628 251.011,24.962C250.861,25.296 243.899,40.789 243.758,41.1C243.617,41.412 243.459,41.482 242.563,41.068C241.666,40.655 241.608,40.573 241.815,40.103C242.022,39.632 248.791,24.583 248.987,24.16L248.987,24.161Z" style="fill:rgb(226,226,226);fill-rule:nonzero;"/>
            <path id="rect6-1-41" serif:id="rect6-1-4" d="M232.146,17.923C232.297,17.482 232.446,17.506 233.331,17.797C234.215,18.087 234.358,18.16 234.244,18.507C234.13,18.855 228.831,34.993 228.724,35.317C228.616,35.642 228.466,35.728 227.531,35.411C226.597,35.094 226.53,35.019 226.686,34.529C226.843,34.04 231.996,18.363 232.146,17.923L232.146,17.923Z" style="fill:rgb(226,226,226);fill-rule:nonzero;"/>
            <path id="rect6-1-71" serif:id="rect6-1-7" d="M214.961,13.37C215.064,12.916 215.216,12.925 216.126,13.122C217.036,13.318 217.185,13.375 217.108,13.733C217.031,14.091 213.444,30.693 213.371,31.027C213.298,31.361 213.157,31.463 212.195,31.245C211.232,31.027 211.158,30.959 211.262,30.456C211.367,29.952 214.857,13.824 214.961,13.37L214.961,13.37Z" style="fill:rgb(226,226,226);fill-rule:nonzero;"/>
            <path id="rect6-1-81" serif:id="rect6-1-8" d="M197.247,10.62C197.302,10.157 197.454,10.15 198.379,10.25C199.305,10.35 199.46,10.391 199.421,10.755C199.381,11.118 197.56,28.006 197.522,28.346C197.485,28.686 197.356,28.801 196.375,28.686C195.395,28.57 195.315,28.511 195.365,27.999C195.416,27.488 197.192,11.082 197.247,10.62L197.247,10.62Z" style="fill:rgb(226,226,226);fill-rule:nonzero;"/>
            <path id="rect6-1-6-21" serif:id="rect6-1-6-2" d="M350.281,161.425C350.745,161.383 350.783,161.53 350.879,162.456C350.974,163.381 350.966,163.542 350.602,163.579C350.238,163.617 333.342,165.356 333.002,165.39C332.661,165.425 332.521,165.323 332.43,164.34C332.339,163.357 332.38,163.266 332.891,163.209C333.402,163.152 349.817,161.468 350.281,161.425L350.281,161.425Z" style="fill:rgb(226,226,226);fill-rule:nonzero;"/>
            <path id="rect6-1-4-81" serif:id="rect6-1-4-8" d="M347.535,143.897C347.992,143.806 348.046,143.948 348.237,144.859C348.429,145.77 348.438,145.93 348.08,146.005C347.722,146.081 331.102,149.583 330.767,149.653C330.432,149.723 330.282,149.636 330.088,148.668C329.894,147.7 329.926,147.605 330.428,147.495C330.93,147.385 347.078,143.988 347.535,143.897L347.535,143.897Z" style="fill:rgb(226,226,226);fill-rule:nonzero;"/>
            <path id="rect6-1-7-31" serif:id="rect6-1-7-3" d="M342.612,126.744C343.056,126.606 343.125,126.742 343.411,127.627C343.696,128.513 343.722,128.672 343.374,128.784C343.025,128.896 326.861,134.113 326.535,134.217C326.209,134.321 326.051,134.25 325.757,133.308C325.464,132.366 325.485,132.268 325.973,132.106C326.461,131.944 342.167,126.882 342.611,126.744L342.612,126.744Z" style="fill:rgb(226,226,226);fill-rule:nonzero;"/>
            <path id="rect6-1-8-71" serif:id="rect6-1-8-7" d="M335.99,110.162C336.417,109.978 336.5,110.105 336.877,110.956C337.254,111.807 337.296,111.962 336.962,112.11C336.627,112.259 321.101,119.145 320.788,119.283C320.475,119.421 320.31,119.368 319.919,118.462C319.528,117.555 319.539,117.456 320.007,117.243C320.475,117.031 335.562,110.346 335.99,110.162L335.99,110.162Z" style="fill:rgb(226,226,226);fill-rule:nonzero;"/>
            <path id="rect6-1-6-51" serif:id="rect6-1-6-5" d="M318.215,79.067C318.596,78.799 318.702,78.907 319.246,79.663C319.79,80.418 319.863,80.561 319.566,80.775C319.269,80.989 305.485,90.913 305.207,91.112C304.929,91.311 304.756,91.293 304.188,90.486C303.619,89.679 303.609,89.579 304.024,89.276C304.439,88.972 317.834,79.335 318.215,79.067L318.215,79.067Z" style="fill:rgb(226,226,226);fill-rule:nonzero;"/>
            <path id="rect6-1-4-71" serif:id="rect6-1-4-7" d="M306.682,65.44C307.033,65.133 307.15,65.229 307.77,65.924C308.39,66.618 308.478,66.752 308.205,66.996C307.932,67.24 295.265,78.555 295.009,78.782C294.754,79.01 294.58,79.009 293.93,78.267C293.28,77.524 293.26,77.426 293.64,77.08C294.021,76.735 306.331,65.746 306.682,65.439L306.682,65.44Z" style="fill:rgb(226,226,226);fill-rule:nonzero;"/>
            <path id="rect6-1-7-41" serif:id="rect6-1-7-4" d="M293.836,53.144C294.153,52.802 294.28,52.886 294.969,53.512C295.658,54.137 295.759,54.262 295.513,54.533C295.267,54.804 283.849,67.378 283.618,67.631C283.388,67.884 283.215,67.901 282.491,67.23C281.767,66.56 281.737,66.464 282.079,66.081C282.422,65.697 293.519,53.485 293.836,53.144L293.836,53.144Z" style="fill:rgb(226,226,226);fill-rule:nonzero;"/>
            <path id="rect6-1-8-81" serif:id="rect6-1-8-8" d="M280.006,41.768C280.285,41.395 280.42,41.464 281.171,42.014C281.922,42.564 282.035,42.677 281.819,42.973C281.603,43.268 271.57,56.973 271.367,57.249C271.164,57.524 270.995,57.56 270.204,56.969C269.414,56.378 269.374,56.286 269.674,55.869C269.974,55.452 279.726,42.14 280.005,41.767L280.006,41.768Z" style="fill:rgb(226,226,226);fill-rule:nonzero;"/>
        </g>
        <g id="Top-Left-Ticks" serif:id="Top Left Ticks" transform="matrix(-1,0,0,1,393.063,31.8739)">
            <path id="rect6-1-6-9" d="M248.987,24.161C249.182,23.738 249.329,23.778 250.178,24.16C251.027,24.541 251.161,24.628 251.011,24.962C250.861,25.296 243.899,40.789 243.758,41.1C243.617,41.412 243.459,41.482 242.563,41.068C241.666,40.655 241.608,40.573 241.815,40.103C242.022,39.632 248.791,24.583 248.987,24.16L248.987,24.161Z" style="fill:rgb(226,226,226);fill-rule:nonzero;"/>
            <path id="rect6-1-4-6" d="M232.146,17.923C232.297,17.482 232.446,17.506 233.331,17.797C234.215,18.087 234.358,18.16 234.244,18.507C234.13,18.855 228.831,34.993 228.724,35.317C228.616,35.642 228.466,35.728 227.531,35.411C226.597,35.094 226.53,35.019 226.686,34.529C226.843,34.04 231.996,18.363 232.146,17.923L232.146,17.923Z" style="fill:rgb(226,226,226);fill-rule:nonzero;"/>
            <path id="rect6-1-7-49" d="M214.961,13.37C215.064,12.916 215.216,12.925 216.126,13.122C217.036,13.318 217.185,13.375 217.108,13.733C217.031,14.091 213.444,30.693 213.371,31.027C213.298,31.361 213.157,31.463 212.195,31.245C211.232,31.027 211.158,30.959 211.262,30.456C211.367,29.952 214.857,13.824 214.961,13.37L214.961,13.37Z" style="fill:rgb(226,226,226);fill-rule:nonzero;"/>
            <path id="rect6-1-8-2" d="M197.247,10.62C197.302,10.157 197.454,10.15 198.379,10.25C199.305,10.35 199.46,10.391 199.421,10.755C199.381,11.118 197.56,28.006 197.522,28.346C197.485,28.686 197.356,28.801 196.375,28.686C195.395,28.57 195.315,28.511 195.365,27.999C195.416,27.488 197.192,11.082 197.247,10.62L197.247,10.62Z" style="fill:rgb(226,226,226);fill-rule:nonzero;"/>
            <path id="rect6-1-6-2-3" d="M350.281,161.425C350.745,161.383 350.783,161.53 350.879,162.456C350.974,163.381 350.966,163.542 350.602,163.579C350.238,163.617 333.342,165.356 333.002,165.39C332.661,165.425 332.521,165.323 332.43,164.34C332.339,163.357 332.38,163.266 332.891,163.209C333.402,163.152 349.817,161.468 350.281,161.425L350.281,161.425Z" style="fill:rgb(226,226,226);fill-rule:nonzero;"/>
            <path id="rect6-1-4-8-5" d="M347.535,143.897C347.992,143.806 348.046,143.948 348.237,144.859C348.429,145.77 348.438,145.93 348.08,146.005C347.722,146.081 331.102,149.583 330.767,149.653C330.432,149.723 330.282,149.636 330.088,148.668C329.894,147.7 329.926,147.605 330.428,147.495C330.93,147.385 347.078,143.988 347.535,143.897L347.535,143.897Z" style="fill:rgb(226,226,226);fill-rule:nonzero;"/>
            <path id="rect6-1-7-3-9" d="M342.612,126.744C343.056,126.606 343.125,126.742 343.411,127.627C343.696,128.513 343.722,128.672 343.374,128.784C343.025,128.896 326.861,134.113 326.535,134.217C326.209,134.321 326.051,134.25 325.757,133.308C325.464,132.366 325.485,132.268 325.973,132.106C326.461,131.944 342.167,126.882 342.611,126.744L342.612,126.744Z" style="fill:rgb(226,226,226);fill-rule:nonzero;"/>
            <path id="rect6-1-8-7-7" d="M335.99,110.162C336.417,109.978 336.5,110.105 336.877,110.956C337.254,111.807 337.296,111.962 336.962,112.11C336.627,112.259 321.101,119.145 320.788,119.283C320.475,119.421 320.31,119.368 319.919,118.462C319.528,117.555 319.539,117.456 320.007,117.243C320.475,117.031 335.562,110.346 335.99,110.162L335.99,110.162Z" style="fill:rgb(226,226,226);fill-rule:nonzero;"/>
            <path id="rect6-1-6-5-2" d="M318.215,79.067C318.596,78.799 318.702,78.907 319.246,79.663C319.79,80.418 319.863,80.561 319.566,80.775C319.269,80.989 305.485,90.913 305.207,91.112C304.929,91.311 304.756,91.293 304.188,90.486C303.619,89.679 303.609,89.579 304.024,89.276C304.439,88.972 317.834,79.335 318.215,79.067L318.215,79.067Z" style="fill:rgb(226,226,226);fill-rule:nonzero;"/>
            <path id="rect6-1-4-7-4" d="M306.682,65.44C307.033,65.133 307.15,65.229 307.77,65.924C308.39,66.618 308.478,66.752 308.205,66.996C307.932,67.24 295.265,78.555 295.009,78.782C294.754,79.01 294.58,79.009 293.93,78.267C293.28,77.524 293.26,77.426 293.64,77.08C294.021,76.735 306.331,65.746 306.682,65.439L306.682,65.44Z" style="fill:rgb(226,226,226);fill-rule:nonzero;"/>
            <path id="rect6-1-7-4-2" d="M293.836,53.144C294.153,52.802 294.28,52.886 294.969,53.512C295.658,54.137 295.759,54.262 295.513,54.533C295.267,54.804 283.849,67.378 283.618,67.631C283.388,67.884 283.215,67.901 282.491,67.23C281.767,66.56 281.737,66.464 282.079,66.081C282.422,65.697 293.519,53.485 293.836,53.144L293.836,53.144Z" style="fill:rgb(226,226,226);fill-rule:nonzero;"/>
            <path id="rect6-1-8-8-4" d="M280.006,41.768C280.285,41.395 280.42,41.464 281.171,42.014C281.922,42.564 282.035,42.677 281.819,42.973C281.603,43.268 271.57,56.973 271.367,57.249C271.164,57.524 270.995,57.56 270.204,56.969C269.414,56.378 269.374,56.286 269.674,55.869C269.974,55.452 279.726,42.14 280.005,41.767L280.006,41.768Z" style="fill:rgb(226,226,226);fill-rule:nonzero;"/>
        </g>
        <g id="Bottom-Left-Ticks" serif:id="Bottom Left Ticks" transform="matrix(-1,0,0,-1,392.955,392.98)">
            <path id="rect6-1-6-91" serif:id="rect6-1-6-9" d="M248.987,24.161C249.182,23.738 249.329,23.778 250.178,24.16C251.027,24.541 251.161,24.628 251.011,24.962C250.861,25.296 243.899,40.789 243.758,41.1C243.617,41.412 243.459,41.482 242.563,41.068C241.666,40.655 241.608,40.573 241.815,40.103C242.022,39.632 248.791,24.583 248.987,24.16L248.987,24.161Z" style="fill:rgb(226,226,226);fill-rule:nonzero;"/>
            <path id="rect6-1-4-61" serif:id="rect6-1-4-6" d="M232.146,17.923C232.297,17.482 232.446,17.506 233.331,17.797C234.215,18.087 234.358,18.16 234.244,18.507C234.13,18.855 228.831,34.993 228.724,35.317C228.616,35.642 228.466,35.728 227.531,35.411C226.597,35.094 226.53,35.019 226.686,34.529C226.843,34.04 231.996,18.363 232.146,17.923L232.146,17.923Z" style="fill:rgb(226,226,226);fill-rule:nonzero;"/>
            <path id="rect6-1-7-491" serif:id="rect6-1-7-49" d="M214.961,13.37C215.064,12.916 215.216,12.925 216.126,13.122C217.036,13.318 217.185,13.375 217.108,13.733C217.031,14.091 213.444,30.693 213.371,31.027C213.298,31.361 213.157,31.463 212.195,31.245C211.232,31.027 211.158,30.959 211.262,30.456C211.367,29.952 214.857,13.824 214.961,13.37L214.961,13.37Z" style="fill:rgb(226,226,226);fill-rule:nonzero;"/>
            <path id="rect6-1-8-21" serif:id="rect6-1-8-2" d="M197.247,10.62C197.302,10.157 197.454,10.15 198.379,10.25C199.305,10.35 199.46,10.391 199.421,10.755C199.381,11.118 197.56,28.006 197.522,28.346C197.485,28.686 197.356,28.801 196.375,28.686C195.395,28.57 195.315,28.511 195.365,27.999C195.416,27.488 197.192,11.082 197.247,10.62L197.247,10.62Z" style="fill:rgb(226,226,226);fill-rule:nonzero;"/>
            <path id="rect6-1-6-2-31" serif:id="rect6-1-6-2-3" d="M350.281,161.425C350.745,161.383 350.783,161.53 350.879,162.456C350.974,163.381 350.966,163.542 350.602,163.579C350.238,163.617 333.342,165.356 333.002,165.39C332.661,165.425 332.521,165.323 332.43,164.34C332.339,163.357 332.38,163.266 332.891,163.209C333.402,163.152 349.817,161.468 350.281,161.425L350.281,161.425Z" style="fill:rgb(226,226,226);fill-rule:nonzero;"/>
            <path id="rect6-1-4-8-51" serif:id="rect6-1-4-8-5" d="M347.535,143.897C347.992,143.806 348.046,143.948 348.237,144.859C348.429,145.77 348.438,145.93 348.08,146.005C347.722,146.081 331.102,149.583 330.767,149.653C330.432,149.723 330.282,149.636 330.088,148.668C329.894,147.7 329.926,147.605 330.428,147.495C330.93,147.385 347.078,143.988 347.535,143.897L347.535,143.897Z" style="fill:rgb(226,226,226);fill-rule:nonzero;"/>
            <path id="rect6-1-7-3-91" serif:id="rect6-1-7-3-9" d="M342.612,126.744C343.056,126.606 343.125,126.742 343.411,127.627C343.696,128.513 343.722,128.672 343.374,128.784C343.025,128.896 326.861,134.113 326.535,134.217C326.209,134.321 326.051,134.25 325.757,133.308C325.464,132.366 325.485,132.268 325.973,132.106C326.461,131.944 342.167,126.882 342.611,126.744L342.612,126.744Z" style="fill:rgb(226,226,226);fill-rule:nonzero;"/>
            <path id="rect6-1-8-7-71" serif:id="rect6-1-8-7-7" d="M335.99,110.162C336.417,109.978 336.5,110.105 336.877,110.956C337.254,111.807 337.296,111.962 336.962,112.11C336.627,112.259 321.101,119.145 320.788,119.283C320.475,119.421 320.31,119.368 319.919,118.462C319.528,117.555 319.539,117.456 320.007,117.243C320.475,117.031 335.562,110.346 335.99,110.162L335.99,110.162Z" style="fill:rgb(226,226,226);fill-rule:nonzero;"/>
            <path id="rect6-1-6-5-21" serif:id="rect6-1-6-5-2" d="M318.215,79.067C318.596,78.799 318.702,78.907 319.246,79.663C319.79,80.418 319.863,80.561 319.566,80.775C319.269,80.989 305.485,90.913 305.207,91.112C304.929,91.311 304.756,91.293 304.188,90.486C303.619,89.679 303.609,89.579 304.024,89.276C304.439,88.972 317.834,79.335 318.215,79.067L318.215,79.067Z" style="fill:rgb(226,226,226);fill-rule:nonzero;"/>
            <path id="rect6-1-4-7-41" serif:id="rect6-1-4-7-4" d="M306.682,65.44C307.033,65.133 307.15,65.229 307.77,65.924C308.39,66.618 308.478,66.752 308.205,66.996C307.932,67.24 295.265,78.555 295.009,78.782C294.754,79.01 294.58,79.009 293.93,78.267C293.28,77.524 293.26,77.426 293.64,77.08C294.021,76.735 306.331,65.746 306.682,65.439L306.682,65.44Z" style="fill:rgb(226,226,226);fill-rule:nonzero;"/>
            <path id="rect6-1-7-4-21" serif:id="rect6-1-7-4-2" d="M293.836,53.144C294.153,52.802 294.28,52.886 294.969,53.512C295.658,54.137 295.759,54.262 295.513,54.533C295.267,54.804 283.849,67.378 283.618,67.631C283.388,67.884 283.215,67.901 282.491,67.23C281.767,66.56 281.737,66.464 282.079,66.081C282.422,65.697 293.519,53.485 293.836,53.144L293.836,53.144Z" style="fill:rgb(226,226,226);fill-rule:nonzero;"/>
            <path id="rect6-1-8-8-41" serif:id="rect6-1-8-8-4" d="M280.006,41.768C280.285,41.395 280.42,41.464 281.171,42.014C281.922,42.564 282.035,42.677 281.819,42.973C281.603,43.268 271.57,56.973 271.367,57.249C271.164,57.524 270.995,57.56 270.204,56.969C269.414,56.378 269.374,56.286 269.674,55.869C269.974,55.452 279.726,42.14 280.005,41.767L280.006,41.768Z" style="fill:rgb(226,226,226);fill-rule:nonzero;"/>
        </g>
        <g id="numbers" transform="matrix(0.386057,-0.00183142,0.00183694,0.384897,80.337,23.9907)">
            <path id="twelve-two" d="M334.854,130.418C342.491,127.684 353.277,125.589 361.432,125.783C369.586,125.976 378.856,127.556 384.456,130.418C390.055,133.28 393.891,135.693 396.354,140.617C398.817,145.541 400.241,152.289 398.826,159.16C397.412,166.031 394.56,168.049 390.328,171.831C386.095,175.612 379.042,178.958 373.485,181.102C367.927,183.247 362.401,184.469 358.65,185.738C354.899,187.007 351.697,188.395 349.688,190.219C361.705,192.295 398.58,187.627 399.128,194.029C399.675,200.431 399.485,201.759 399,204.443C398.514,207.127 399.219,207.537 396.983,208.498C394.747,209.459 317.755,209.229 315.029,208.754C312.303,208.279 312.43,208.107 311.848,203.806C311.266,199.505 311.273,199.496 312.138,196.555C313.003,193.614 313.894,191.146 316.929,187.747C319.963,184.347 325.312,179.525 330.218,176.775C335.123,174.026 342.128,170.945 347.679,168.74C353.23,166.535 361.63,164.125 364.831,162.25C368.032,160.376 370.942,159.198 372.094,157.151C373.245,155.104 374.393,152.878 373.639,150.661C372.885,148.444 371.472,146.85 368.694,145.562C365.917,144.273 361.401,144.62 357.259,144.789C353.118,144.958 347.894,146.167 343.97,147.57C340.047,148.974 336.795,150.731 334.39,152.052C331.881,153.386 330.05,155.739 327.282,154.679C324.553,153.617 316.372,147.562 316.62,143.707C316.867,139.853 328.044,132.598 334.853,130.418L334.854,130.418Z" style="fill:rgb(226,226,226);fill-rule:nonzero;"/>
            <path id="twelve-one" d="M285.842,125.429C288.29,125.33 295.481,125.47 297.783,125.4C300.086,125.329 301.72,126.805 301.692,130.052C301.661,133.299 301.273,201.935 301.311,205.009C301.349,208.084 300.47,208.734 297.957,208.801C295.443,208.867 289.095,209.066 287.166,209C285.238,208.935 283.306,208.382 283.32,205.506C283.335,202.63 283.222,134.632 283.194,131.011C283.168,127.39 283.392,125.528 285.84,125.429L285.842,125.429Z" style="fill:rgb(226,226,226);fill-rule:nonzero;"/>
            <path id="eleven-right-one" d="M185.794,166.604C188.243,166.504 195.433,166.645 197.736,166.574C200.038,166.503 201.672,167.979 201.644,171.226C201.614,174.473 201.235,241.101 201.273,244.176C201.311,247.251 200.432,247.901 197.918,247.967C195.405,248.034 189.057,248.233 187.128,248.167C185.2,248.102 183.268,247.548 183.282,244.673C183.297,241.797 183.174,175.806 183.147,172.185C183.12,168.564 183.344,166.703 185.792,166.604L185.794,166.604Z" style="fill:rgb(226,226,226);fill-rule:nonzero;"/>
            <path id="eleven-left-one" d="M147.013,166.478C149.461,166.379 156.652,166.519 158.954,166.448C161.256,166.377 162.891,167.853 162.862,171.1C162.832,174.347 162.453,240.976 162.491,244.05C162.529,247.125 161.651,247.775 159.137,247.842C156.623,247.908 150.275,248.107 148.347,248.041C146.419,247.976 144.486,247.423 144.5,244.547C144.515,241.671 144.393,175.68 144.365,172.059C144.339,168.438 144.563,166.577 147.011,166.478L147.013,166.478Z" style="fill:rgb(226,226,226);fill-rule:nonzero;"/>
            <path id="ten-one" d="M21.495,289.501C23.943,289.401 31.134,289.542 33.436,289.471C35.738,289.4 37.373,290.876 37.344,294.123C37.314,297.37 36.939,363.195 36.977,366.27C37.015,369.345 36.137,369.995 33.623,370.061C31.109,370.128 24.761,370.327 22.833,370.261C20.904,370.196 18.972,369.642 18.986,366.767C19.001,363.891 18.875,298.703 18.847,295.082C18.821,291.461 19.045,289.6 21.493,289.5L21.495,289.501Z" style="fill:rgb(226,226,226);fill-rule:nonzero;"/>
            <path id="ten-zero" d="M94.26,289.27C67.424,289.105 49.539,310.643 49.756,330.682C49.972,350.72 70.894,372.618 93.332,372.094C115.77,371.57 138.288,355.899 137.527,332.227C136.767,308.554 121.095,289.435 94.26,289.27ZM94.346,307.391C106.728,307.482 114.267,318.113 114.618,331.275C114.969,344.438 104.889,353.152 94.536,353.443C84.183,353.735 73.603,343.103 73.503,331.961C73.404,320.819 81.964,307.299 94.346,307.391Z" style="fill:rgb(226,226,226);fill-rule:nonzero;"/>
            <path id="nine" d="M28.477,529.649C37.712,527.468 49.852,523.2 57.145,512.043C61.507,505.371 64.51,496.179 64.532,488.286C64.575,473.494 58.506,461.598 44.035,452.964C35.366,447.792 21.305,447.742 13.557,448.228C-4.848,449.382 -23.884,457.615 -23.348,476.846C-23.161,483.595 -19.049,489.635 -14.586,493.935C-5.432,502.754 12.176,504.783 21.991,503.029C28.176,501.924 33.745,500.605 38.189,498.766C38.189,498.766 38.397,502.822 37.106,504.69C33.132,510.437 21.451,514.083 17.299,514.162C-2.968,514.545 -9.145,505.923 -13.447,508.241C-16.827,510.063 -20.7,517.229 -18.616,520.844C-16.469,524.567 -4.882,527.636 -0.23,528.659C4.422,529.681 19.242,531.83 28.477,529.649ZM-0.88,479.832C-3.82,475.196 0.173,468.344 6.033,466.253C11.894,464.162 25.479,464.433 30.91,468.029C36.341,471.625 39.688,474.859 40.087,482.086C35.006,483.525 28.556,485.114 19.93,485.262C11.181,485.285 2.06,484.468 -0.88,479.832Z" style="fill:rgb(226,226,226);fill-rule:nonzero;"/>
            <path id="eight" d="M63.18,604.731C33.852,604.913 23.48,617.212 23.495,625.405C23.51,633.597 25.16,634.868 33.319,642.308C26.385,648.624 18.742,650.787 18.912,662.581C19.081,674.374 33.961,686.268 62.057,686.411C89.798,686.553 105.312,674.5 105.638,663.478C105.855,656.121 100.985,648.23 92.657,642.308C98.541,638.747 103.988,635.836 103.795,627.196C103.601,618.556 92.507,604.549 63.18,604.731ZM62.634,622.882C69.461,622.845 79.22,624.554 79.04,628.83C78.86,633.107 70.379,634.958 62.37,634.864C54.361,634.771 46.665,632.774 46.737,628.502C46.808,624.231 55.806,622.918 62.634,622.882ZM81.121,660.36C81.086,664.436 70.471,668.545 62.022,668.37C53.573,668.194 44.391,666.376 44.264,661.209C44.137,656.042 52.795,652.651 61.789,652.662C70.783,652.673 81.155,656.285 81.121,660.36Z" style="fill:rgb(226,226,226);fill-rule:nonzero;"/>
            <path id="seven" d="M154.418,725.962C160.479,725.923 226.018,726.166 227.508,726.503C228.997,726.84 230.426,727.93 231.139,729.362C231.852,730.793 231.732,736.472 231.603,737.938C231.474,739.403 230.549,741.779 229.903,742.882C229.257,743.986 182.736,804.658 180.533,806.469C178.329,808.28 172.767,807.908 169.098,807.937C165.428,807.967 158.256,808.55 158.127,804.46C157.997,800.371 198.322,751.38 201.702,744.814C191.716,743.502 150.897,743.666 148.855,743.114C146.813,742.563 144.95,741.639 144.837,740.333C144.725,739.027 144.803,730.067 144.915,728.203C145.026,726.338 148.357,726.001 154.418,725.962L154.418,725.962Z" style="fill:rgb(226,226,226);fill-rule:nonzero;"/>
            <path id="six" d="M344.156,773.508C342.51,773.478 340.847,773.509 339.158,773.604C332.403,773.982 325.026,774.872 318.727,777.756C312.427,780.64 306.832,783.848 302.336,790.43C297.84,797.012 294.652,806.142 294.469,814.032C294.286,821.922 296.084,830.308 299.494,836.104C302.904,841.9 308.63,846.698 314.246,849.762C319.862,852.826 334.645,856.192 344.621,855.116C354.598,854.04 365.541,852.206 372.047,846.592C378.553,840.978 382.151,834.005 382.1,827.252C382.049,820.5 378.061,814.378 373.686,809.989C369.311,805.599 360.413,801.799 356.203,801.03C351.994,800.26 343.508,799.175 337.301,800.155C331.094,801.134 325.5,802.34 321.02,804.088C321.02,804.088 320.894,800.03 322.223,798.188C323.552,796.346 327.511,793.353 330.635,792.071C333.759,790.788 339.519,789.116 342.217,789.12C344.915,789.123 351.916,789.462 356.203,790.758C360.49,792.055 364.064,794.026 367.457,794.582C370.85,795.138 371.302,795.584 373.467,794.473C375.632,793.363 377.959,789.768 378.604,787.59C379.249,785.413 380.843,786.01 378.276,782.565C375.708,779.12 365.409,776.837 358.826,775.352C353.889,774.239 349.095,773.599 344.156,773.508L344.156,773.508ZM344.983,818.913C346.245,818.916 347.419,818.991 348.445,819.168C352.55,819.877 357.188,822.774 357.188,822.774C357.188,822.774 359.74,824.512 360.246,825.833C360.753,827.153 360.685,828.304 360.028,829.985C359.37,831.666 357.748,833.613 355.766,835.12C353.784,836.627 351.745,837.83 348.227,838.508C344.709,839.187 338.626,838.792 335.006,837.961C331.386,837.131 329.043,835.864 326.701,834.356C324.36,832.848 322.343,831.31 321.02,829.219C319.696,827.128 318.944,822.336 318.944,822.336C318.944,822.336 328.005,820.475 332.93,819.932C336.623,819.525 341.196,818.901 344.983,818.913L344.983,818.913Z" style="fill:rgb(226,226,226);fill-rule:nonzero;"/>
            <path id="five" d="M460.994,727.198C460.994,727.198 531.452,727.424 532.847,727.971C534.243,728.518 534.345,728.051 535.474,730.443C536.603,732.835 536.249,740.517 536.284,742.677C536.318,744.837 534.753,746.002 532.693,746.05C530.633,746.099 493.012,745.893 477.546,746.634C477.16,750.435 476.46,754.975 478.549,756.539C493.094,756.137 513.728,756.081 517.248,756.739C520.769,757.397 528.088,760.102 532.075,763.357C536.062,766.612 539.706,770.78 541.037,776.028C542.369,781.276 541.561,788 539.028,792.871C536.496,797.742 532.212,800.765 527.13,803.533C522.048,806.302 515.032,807.46 509.051,808.478C503.07,809.496 497.339,809.584 491.435,809.714C485.531,809.844 478.672,809.524 472.9,809.36C467.128,809.196 457.436,808.555 456.204,807.216C454.971,805.876 454.97,802.329 455.457,799.628C455.945,796.927 456.917,792.029 458.695,790.87C460.472,789.711 472.068,791.868 478.764,791.944C485.46,792.021 492.77,792.736 498.543,792.099C504.316,791.462 509.912,790.536 513.223,788.699C516.534,786.863 517.879,785.196 518.631,783.291C519.383,781.386 519.352,780.279 518.477,778.655C517.601,777.032 516.319,776.07 513.223,774.947C510.126,773.824 504.522,774.026 499.934,773.865C495.345,773.704 485.717,774.02 485.717,774.02L472.119,775.874C472.119,775.874 465.622,777.663 462.848,776.646C460.074,775.63 458.525,774.73 457.775,772.738C457.026,770.746 457.675,732.118 457.975,729.78C458.276,727.443 460.994,727.198 460.994,727.198L460.994,727.198Z" style="fill:rgb(226,226,226);fill-rule:nonzero;"/>
            <path id="four" d="M595.743,606.105C582.55,620.174 565.163,642.691 553.557,657.407C553.694,668.106 553.304,672.007 554.949,674.869C559.529,675.876 565.931,675.764 577.663,675.949C589.394,676.135 615.051,675.401 621.703,676.722C622.946,678.97 622.309,684.066 623.248,686.456C624.187,688.847 626.909,688.343 633.91,688.311C640.91,688.281 643.555,687.4 643.954,685.22C644.352,683.04 643.931,681.751 643.954,678.112C643.977,674.473 651.503,676.371 653.381,675.331C656.525,673.526 655.645,670.909 655.698,667.605C655.739,665.007 656.402,658.75 654.461,657.869C652.52,656.989 644.524,658.729 644.572,654.78C644.619,650.83 644.238,620.305 644.263,617.848C644.289,615.391 645.804,606.458 641.483,606.414C637.161,606.369 624.279,606.156 615.676,606.105C609.032,606.065 604.453,605.943 595.743,606.105L595.743,606.105ZM605.014,624.956C611.949,624.941 616.265,625.13 622.476,625.419C623.125,635.907 622.765,648.749 622.631,656.789C610.907,657.103 590.376,656.884 581.526,655.861C584.111,650.974 588.953,646.443 593.888,639.327C598.824,632.211 601.479,629.609 605.014,624.956L605.014,624.956Z" style="fill:rgb(226,226,226);fill-rule:nonzero;"/>
            <path id="three" d="M654.926,450.808C649.329,451.396 643.462,453.408 640.235,454.705C637.007,456.001 631.668,458.814 630.202,459.616C627.506,461.131 624.822,462.423 623.557,463.788C622.293,465.152 622.102,465.743 622.012,466.723C621.923,467.704 621.637,467.235 622.784,469.196C623.93,471.157 625.784,473.139 627.652,474.913C629.519,476.687 631.444,478.222 633.138,478.235C634.833,478.247 640.578,474.463 643.954,473.059C647.329,471.656 649.784,470.801 653.844,470.122C657.905,469.442 664.477,469.048 668.215,469.504C671.954,469.961 674.387,470.842 676.096,471.823C677.805,472.803 678.219,473.072 678.721,474.295C679.224,475.519 679.271,477.263 678.567,478.622C677.863,479.98 676.697,480.563 674.704,481.557C672.711,482.552 669.799,482.927 666.733,483.329C663.666,483.731 658.141,482.965 656.089,483.667C654.037,484.368 654.335,486.571 653.934,488.58C653.534,490.588 653.674,492.371 654.115,494.572C654.555,496.774 655.36,498.14 656.934,498.864C658.509,499.588 662.155,498.732 669.215,500.01C676.275,501.287 678.65,501.838 680.112,503.19C681.574,504.542 681.511,506.262 681.348,507.672C681.185,509.083 681.444,509.426 679.495,511.071C677.545,512.716 673.085,514.114 668.678,514.78C664.272,515.446 658.372,514.945 653.38,514.317C648.387,513.689 643.187,512.45 638.854,511.071C634.522,509.691 629.48,506.264 627.421,506.282C625.361,506.301 624.264,507.286 622.708,509.139C621.153,510.992 619.802,512.832 618.921,514.934C618.04,517.036 617.824,517.699 618.149,519.106C618.474,520.513 619.201,521.313 620.776,522.661C622.351,524.008 625.68,525.515 628.811,526.988C631.941,528.461 635.552,530.175 639.628,531.315C643.704,532.455 647.675,532.864 652.143,533.168C656.611,533.473 661.799,533.227 666.36,533.014C670.921,532.802 674.943,532.912 679.495,531.932C684.047,530.953 689.78,529.038 693.401,526.987C697.022,524.936 699.293,522.973 701.282,520.497C703.271,518.02 704.622,515.32 705.299,512.616C705.977,509.912 706.127,507.467 705.456,504.737C704.784,502.006 702.834,499.342 701.127,496.856C699.421,494.37 695.32,492.354 695.256,489.901C695.193,487.448 697.514,487.092 698.655,485.42C699.796,483.749 701.41,481.559 702.055,479.858C702.701,478.157 702.856,477.395 702.829,475.532C702.802,473.668 702.442,471.196 701.438,468.887C700.434,466.578 699.195,464.529 696.647,462.086C694.099,459.644 689.739,456.878 685.831,455.133C681.922,453.389 678.634,452.564 673.469,451.735C668.304,450.906 660.523,450.219 654.926,450.807L654.926,450.808Z" style="fill:rgb(226,226,226);fill-rule:nonzero;"/>
            <path id="two" d="M594.425,296.476C602.062,293.742 612.849,291.647 621.003,291.84C629.158,292.034 638.428,293.614 644.027,296.476C649.627,299.338 653.463,301.751 655.926,306.675C658.388,311.599 659.812,318.347 658.398,325.218C656.984,332.089 654.132,334.107 649.899,337.889C645.666,341.67 638.613,345.015 633.056,347.16C627.499,349.305 621.973,350.527 618.222,351.796C614.471,353.065 611.269,354.453 609.259,356.277C621.276,358.353 658.152,353.685 658.699,360.087C659.247,366.489 659.057,367.817 658.571,370.501C658.086,373.185 658.791,373.595 656.555,374.556C654.319,375.517 577.327,375.287 574.601,374.812C571.875,374.337 572.001,374.165 571.42,369.864C570.838,365.563 570.845,365.553 571.71,362.612C572.575,359.671 573.465,357.204 576.5,353.804C579.535,350.405 584.884,345.583 589.789,342.833C594.695,340.084 601.699,337.003 607.25,334.798C612.801,332.593 621.202,330.182 624.403,328.308C627.603,326.434 630.514,325.256 631.665,323.209C632.816,321.162 633.965,318.936 633.21,316.719C632.456,314.502 631.043,312.908 628.266,311.619C625.488,310.331 620.973,310.678 616.831,310.847C612.689,311.016 607.465,312.225 603.542,313.628C599.618,315.032 596.367,316.789 593.961,318.109C591.452,319.444 589.621,321.796 586.853,320.736C584.125,319.675 575.944,313.62 576.191,309.765C576.439,305.911 587.616,298.656 594.425,296.476L594.425,296.476Z" style="fill:rgb(226,226,226);fill-rule:nonzero;"/>
            <path id="one" d="M496.143,167.154C498.591,167.055 505.782,167.195 508.085,167.124C510.387,167.053 512.021,168.529 511.993,171.776C511.963,175.023 511.582,242.053 511.62,245.128C511.658,248.202 510.779,248.852 508.266,248.919C505.752,248.986 499.404,249.184 497.475,249.119C495.547,249.053 493.615,248.5 493.629,245.624C493.644,242.749 493.523,176.356 493.496,172.735C493.469,169.114 493.693,167.253 496.141,167.154L496.143,167.154Z" style="fill:rgb(226,226,226);fill-rule:nonzero;"/>
        </g>
        <g id="Face-Text" serif:id="Face Text" transform="matrix(1.11111,0,0,1.11111,5.96008,-9.935)">
            <path d="M136.476,240.037C135.708,240.037 135.002,239.907 134.358,239.647C133.714,239.387 133.212,239.029 132.852,238.573C132.788,238.493 132.756,238.409 132.756,238.321C132.756,238.209 132.816,238.101 132.936,237.997C133,237.949 133.068,237.925 133.14,237.925C133.284,237.925 133.412,237.993 133.524,238.129C133.852,238.489 134.266,238.767 134.766,238.963C135.266,239.159 135.836,239.257 136.476,239.257C137.18,239.257 137.724,239.127 138.108,238.867C138.492,238.607 138.684,238.237 138.684,237.757C138.684,237.341 138.498,237.005 138.126,236.749C137.754,236.493 137.124,236.265 136.236,236.065C135.076,235.809 134.242,235.487 133.734,235.099C133.226,234.711 132.972,234.197 132.972,233.557C132.972,232.893 133.254,232.367 133.818,231.979C134.382,231.591 135.144,231.397 136.104,231.397C136.832,231.397 137.49,231.525 138.078,231.781C138.666,232.037 139.084,232.381 139.332,232.813C139.38,232.893 139.404,232.969 139.404,233.041C139.404,233.169 139.336,233.281 139.2,233.377C139.144,233.409 139.08,233.425 139.008,233.425C138.832,233.425 138.696,233.357 138.6,233.221C138.368,232.885 138.04,232.627 137.616,232.447C137.192,232.267 136.688,232.177 136.104,232.177C134.624,232.177 133.884,232.637 133.884,233.557C133.884,233.837 133.96,234.071 134.112,234.259C134.264,234.447 134.51,234.615 134.85,234.763C135.19,234.911 135.664,235.057 136.272,235.201C137.456,235.481 138.308,235.819 138.828,236.215C139.348,236.611 139.608,237.125 139.608,237.757C139.608,238.461 139.326,239.017 138.762,239.425C138.198,239.833 137.436,240.037 136.476,240.037Z" style="fill:white;fill-rule:nonzero;"/>
            <path d="M144.552,240.037C144.064,240.037 143.676,239.847 143.388,239.467C143.1,239.087 142.828,238.473 142.572,237.625L140.856,231.937C140.832,231.849 140.82,231.777 140.82,231.721C140.82,231.505 140.96,231.397 141.24,231.397C141.384,231.397 141.492,231.427 141.564,231.487C141.636,231.547 141.696,231.661 141.744,231.829L143.448,237.541C143.64,238.181 143.818,238.631 143.982,238.891C144.146,239.151 144.336,239.281 144.552,239.281C144.76,239.281 144.948,239.149 145.116,238.885C145.284,238.621 145.464,238.173 145.656,237.541L147.36,231.817C147.408,231.657 147.468,231.547 147.54,231.487C147.612,231.427 147.72,231.397 147.864,231.397C148.144,231.397 148.284,231.505 148.284,231.721C148.284,231.777 148.272,231.849 148.248,231.937L146.52,237.625C146.248,238.513 145.966,239.137 145.674,239.497C145.382,239.857 145.008,240.037 144.552,240.037Z" style="fill:white;fill-rule:nonzero;"/>
            <path d="M153.492,240.037C152.644,240.037 151.904,239.861 151.272,239.509C150.64,239.157 150.152,238.655 149.808,238.003C149.464,237.351 149.292,236.593 149.292,235.729C149.292,234.865 149.464,234.105 149.808,233.449C150.152,232.793 150.642,232.287 151.278,231.931C151.914,231.575 152.652,231.397 153.492,231.397C154.172,231.397 154.806,231.513 155.394,231.745C155.982,231.977 156.432,232.297 156.744,232.705C156.816,232.785 156.852,232.881 156.852,232.993C156.852,233.121 156.796,233.221 156.684,233.293C156.612,233.341 156.532,233.365 156.444,233.365C156.372,233.365 156.3,233.347 156.228,233.311C156.156,233.275 156.096,233.229 156.048,233.173C155.8,232.861 155.456,232.615 155.016,232.435C154.576,232.255 154.068,232.165 153.492,232.165C152.82,232.165 152.236,232.309 151.74,232.597C151.244,232.885 150.864,233.297 150.6,233.833C150.336,234.369 150.204,235.001 150.204,235.729C150.204,236.833 150.496,237.699 151.08,238.327C151.664,238.955 152.468,239.269 153.492,239.269C154.028,239.269 154.504,239.183 154.92,239.011C155.336,238.839 155.662,238.599 155.898,238.291C156.134,237.983 156.252,237.633 156.252,237.241L156.252,236.833C156.252,236.617 156.21,236.461 156.126,236.365C156.042,236.269 155.884,236.221 155.652,236.221L153.828,236.221C153.524,236.221 153.372,236.101 153.372,235.861C153.372,235.605 153.524,235.477 153.828,235.477L155.808,235.477C156.264,235.477 156.604,235.577 156.828,235.777C157.052,235.977 157.164,236.285 157.164,236.701L157.164,237.157C157.164,237.693 157.004,238.181 156.684,238.621C156.364,239.061 155.924,239.407 155.364,239.659C154.804,239.911 154.18,240.037 153.492,240.037Z" style="fill:white;fill-rule:nonzero;"/>
            <path d="M164.58,240.037C163.324,240.037 162.352,239.581 161.664,238.669C161.592,238.581 161.556,238.493 161.556,238.405C161.556,238.285 161.612,238.181 161.724,238.093C161.796,238.029 161.884,237.997 161.988,237.997C162.14,237.997 162.264,238.061 162.36,238.189C162.632,238.565 162.942,238.837 163.29,239.005C163.638,239.173 164.068,239.257 164.58,239.257C165.156,239.257 165.602,239.087 165.918,238.747C166.234,238.407 166.392,237.929 166.392,237.313L166.392,231.877C166.392,231.725 166.43,231.607 166.506,231.523C166.582,231.439 166.692,231.397 166.836,231.397C166.98,231.397 167.094,231.439 167.178,231.523C167.262,231.607 167.304,231.725 167.304,231.877L167.304,237.265C167.304,237.809 167.188,238.291 166.956,238.711C166.724,239.131 166.402,239.457 165.99,239.689C165.578,239.921 165.108,240.037 164.58,240.037Z" style="fill:white;fill-rule:nonzero;"/>
            <path d="M169.548,240.037C169.412,240.037 169.304,239.995 169.224,239.911C169.144,239.827 169.104,239.709 169.104,239.557L169.104,234.865C169.104,233.777 169.41,232.927 170.022,232.315C170.634,231.703 171.484,231.397 172.572,231.397C173.652,231.397 174.5,231.705 175.116,232.321C175.732,232.937 176.04,233.785 176.04,234.865L176.04,239.557C176.04,239.709 176,239.827 175.92,239.911C175.84,239.995 175.728,240.037 175.584,240.037C175.448,240.037 175.338,239.995 175.254,239.911C175.17,239.827 175.128,239.709 175.128,239.557L175.128,236.857L170.004,236.857L170.004,239.557C170.004,239.709 169.964,239.827 169.884,239.911C169.804,239.995 169.692,240.037 169.548,240.037ZM175.128,236.113L175.128,234.829C175.128,233.973 174.908,233.315 174.468,232.855C174.028,232.395 173.396,232.165 172.572,232.165C171.74,232.165 171.104,232.393 170.664,232.849C170.224,233.305 170.004,233.965 170.004,234.829L170.004,236.113L175.128,236.113Z" style="fill:white;fill-rule:nonzero;"/>
            <path d="M180.804,240.037C180.316,240.037 179.928,239.847 179.64,239.467C179.352,239.087 179.08,238.473 178.824,237.625L177.108,231.937C177.084,231.849 177.072,231.777 177.072,231.721C177.072,231.505 177.212,231.397 177.492,231.397C177.636,231.397 177.744,231.427 177.816,231.487C177.888,231.547 177.948,231.661 177.996,231.829L179.7,237.541C179.892,238.181 180.07,238.631 180.234,238.891C180.398,239.151 180.588,239.281 180.804,239.281C181.012,239.281 181.2,239.149 181.368,238.885C181.536,238.621 181.716,238.173 181.908,237.541L183.612,231.817C183.66,231.657 183.72,231.547 183.792,231.487C183.864,231.427 183.972,231.397 184.116,231.397C184.396,231.397 184.536,231.505 184.536,231.721C184.536,231.777 184.524,231.849 184.5,231.937L182.772,237.625C182.5,238.513 182.218,239.137 181.926,239.497C181.634,239.857 181.26,240.037 180.804,240.037Z" style="fill:white;fill-rule:nonzero;"/>
            <path d="M186,240.037C185.864,240.037 185.756,239.995 185.676,239.911C185.596,239.827 185.556,239.709 185.556,239.557L185.556,234.865C185.556,233.777 185.862,232.927 186.474,232.315C187.086,231.703 187.936,231.397 189.024,231.397C190.104,231.397 190.952,231.705 191.568,232.321C192.184,232.937 192.492,233.785 192.492,234.865L192.492,239.557C192.492,239.709 192.452,239.827 192.372,239.911C192.292,239.995 192.18,240.037 192.036,240.037C191.9,240.037 191.79,239.995 191.706,239.911C191.622,239.827 191.58,239.709 191.58,239.557L191.58,236.857L186.456,236.857L186.456,239.557C186.456,239.709 186.416,239.827 186.336,239.911C186.256,239.995 186.144,240.037 186,240.037ZM191.58,236.113L191.58,234.829C191.58,233.973 191.36,233.315 190.92,232.855C190.48,232.395 189.848,232.165 189.024,232.165C188.192,232.165 187.556,232.393 187.116,232.849C186.676,233.305 186.456,233.965 186.456,234.829L186.456,236.113L191.58,236.113Z" style="fill:white;fill-rule:nonzero;"/>
            <path d="M197.772,240.037C197.004,240.037 196.298,239.907 195.654,239.647C195.01,239.387 194.508,239.029 194.148,238.573C194.084,238.493 194.052,238.409 194.052,238.321C194.052,238.209 194.112,238.101 194.232,237.997C194.296,237.949 194.364,237.925 194.436,237.925C194.58,237.925 194.708,237.993 194.82,238.129C195.148,238.489 195.562,238.767 196.062,238.963C196.562,239.159 197.132,239.257 197.772,239.257C198.476,239.257 199.02,239.127 199.404,238.867C199.788,238.607 199.98,238.237 199.98,237.757C199.98,237.341 199.794,237.005 199.422,236.749C199.05,236.493 198.42,236.265 197.532,236.065C196.372,235.809 195.538,235.487 195.03,235.099C194.522,234.711 194.268,234.197 194.268,233.557C194.268,232.893 194.55,232.367 195.114,231.979C195.678,231.591 196.44,231.397 197.4,231.397C198.128,231.397 198.786,231.525 199.374,231.781C199.962,232.037 200.38,232.381 200.628,232.813C200.676,232.893 200.7,232.969 200.7,233.041C200.7,233.169 200.632,233.281 200.496,233.377C200.44,233.409 200.376,233.425 200.304,233.425C200.128,233.425 199.992,233.357 199.896,233.221C199.664,232.885 199.336,232.627 198.912,232.447C198.488,232.267 197.984,232.177 197.4,232.177C195.92,232.177 195.18,232.637 195.18,233.557C195.18,233.837 195.256,234.071 195.408,234.259C195.56,234.447 195.806,234.615 196.146,234.763C196.486,234.911 196.96,235.057 197.568,235.201C198.752,235.481 199.604,235.819 200.124,236.215C200.644,236.611 200.904,237.125 200.904,237.757C200.904,238.461 200.622,239.017 200.058,239.425C199.494,239.833 198.732,240.037 197.772,240.037Z" style="fill:white;fill-rule:nonzero;"/>
            <path d="M206.388,240.037C205.556,240.037 204.826,239.859 204.198,239.503C203.57,239.147 203.084,238.643 202.74,237.991C202.396,237.339 202.224,236.585 202.224,235.729C202.224,234.865 202.396,234.105 202.74,233.449C203.084,232.793 203.57,232.287 204.198,231.931C204.826,231.575 205.552,231.397 206.376,231.397C207.064,231.397 207.698,231.513 208.278,231.745C208.858,231.977 209.312,232.301 209.64,232.717C209.704,232.789 209.736,232.877 209.736,232.981C209.736,233.109 209.68,233.213 209.568,233.293C209.496,233.341 209.416,233.365 209.328,233.365C209.176,233.365 209.048,233.305 208.944,233.185C208.688,232.857 208.34,232.605 207.9,232.429C207.46,232.253 206.952,232.165 206.376,232.165C205.712,232.165 205.136,232.309 204.648,232.597C204.16,232.885 203.786,233.297 203.526,233.833C203.266,234.369 203.136,235.001 203.136,235.729C203.136,236.449 203.266,237.075 203.526,237.607C203.786,238.139 204.162,238.549 204.654,238.837C205.146,239.125 205.724,239.269 206.388,239.269C207.004,239.269 207.542,239.179 208.002,238.999C208.462,238.819 208.824,238.569 209.088,238.249C209.208,238.121 209.336,238.057 209.472,238.057C209.568,238.057 209.648,238.085 209.712,238.141C209.824,238.237 209.88,238.341 209.88,238.453C209.88,238.549 209.844,238.641 209.772,238.729C209.444,239.129 208.978,239.447 208.374,239.683C207.77,239.919 207.108,240.037 206.388,240.037Z" style="fill:white;fill-rule:nonzero;"/>
            <path d="M211.44,233.017C211.44,232.561 211.574,232.197 211.842,231.925C212.11,231.653 212.5,231.517 213.012,231.517L215.256,231.517C217.432,231.517 218.52,232.421 218.52,234.229C218.52,235.101 218.256,235.761 217.728,236.209C217.2,236.657 216.404,236.881 215.34,236.881L217.668,239.293C217.74,239.365 217.776,239.457 217.776,239.569C217.776,239.713 217.716,239.829 217.596,239.917C217.5,239.989 217.4,240.025 217.296,240.025C217.136,240.025 216.984,239.945 216.84,239.785L214.08,236.881L212.46,236.881L212.46,239.521C212.46,239.681 212.414,239.807 212.322,239.899C212.23,239.991 212.104,240.037 211.944,240.037C211.784,240.037 211.66,239.991 211.572,239.899C211.484,239.807 211.44,239.681 211.44,239.521L211.44,233.017ZM215.316,236.053C216.052,236.053 216.598,235.915 216.954,235.639C217.31,235.363 217.488,234.893 217.488,234.229C217.488,233.557 217.308,233.075 216.948,232.783C216.588,232.491 216.044,232.345 215.316,232.345L213.072,232.345C212.888,232.345 212.74,232.405 212.628,232.525C212.516,232.645 212.46,232.809 212.46,233.017L212.46,236.053L215.316,236.053Z" style="fill:white;fill-rule:nonzero;"/>
            <path d="M220.908,240.037C220.772,240.037 220.664,239.995 220.584,239.911C220.504,239.827 220.464,239.709 220.464,239.557L220.464,231.877C220.464,231.725 220.504,231.607 220.584,231.523C220.664,231.439 220.772,231.397 220.908,231.397C221.052,231.397 221.164,231.441 221.244,231.529C221.324,231.617 221.364,231.733 221.364,231.877L221.364,239.557C221.364,239.701 221.324,239.817 221.244,239.905C221.164,239.993 221.052,240.037 220.908,240.037Z" style="fill:white;fill-rule:nonzero;"/>
            <path d="M224.1,240.037C223.964,240.037 223.856,239.995 223.776,239.911C223.696,239.827 223.656,239.709 223.656,239.557L223.656,232.957C223.656,232.509 223.79,232.157 224.058,231.901C224.326,231.645 224.7,231.517 225.18,231.517L227.22,231.517C229.5,231.517 230.64,232.473 230.64,234.385C230.64,235.265 230.35,235.943 229.77,236.419C229.19,236.895 228.356,237.133 227.268,237.133L224.556,237.133L224.556,239.557C224.556,239.709 224.516,239.827 224.436,239.911C224.356,239.995 224.244,240.037 224.1,240.037ZM227.268,236.377C228.044,236.377 228.646,236.225 229.074,235.921C229.502,235.617 229.716,235.105 229.716,234.385C229.716,233.633 229.508,233.091 229.092,232.759C228.676,232.427 228.072,232.261 227.28,232.261L225.192,232.261C225,232.261 224.846,232.325 224.73,232.453C224.614,232.581 224.556,232.749 224.556,232.957L224.556,236.377L227.268,236.377Z" style="fill:white;fill-rule:nonzero;"/>
            <path d="M234.948,240.037C234.804,240.037 234.694,239.995 234.618,239.911C234.542,239.827 234.504,239.709 234.504,239.557L234.504,232.261L231.756,232.261C231.612,232.261 231.498,232.231 231.414,232.171C231.33,232.111 231.288,232.021 231.288,231.901C231.288,231.645 231.444,231.517 231.756,231.517L238.164,231.517C238.476,231.517 238.632,231.645 238.632,231.901C238.632,232.013 238.592,232.101 238.512,232.165C238.432,232.229 238.316,232.261 238.164,232.261L235.416,232.261L235.416,239.557C235.416,239.709 235.374,239.827 235.29,239.911C235.206,239.995 235.092,240.037 234.948,240.037Z" style="fill:white;fill-rule:nonzero;"/>
            <path d="M143.442,252.037C142.61,252.037 141.88,251.859 141.252,251.503C140.624,251.147 140.138,250.643 139.794,249.991C139.45,249.339 139.278,248.585 139.278,247.729C139.278,246.865 139.45,246.105 139.794,245.449C140.138,244.793 140.624,244.287 141.252,243.931C141.88,243.575 142.606,243.397 143.43,243.397C144.118,243.397 144.752,243.513 145.332,243.745C145.912,243.977 146.366,244.301 146.694,244.717C146.758,244.789 146.79,244.877 146.79,244.981C146.79,245.109 146.734,245.213 146.622,245.293C146.55,245.341 146.47,245.365 146.382,245.365C146.23,245.365 146.102,245.305 145.998,245.185C145.742,244.857 145.394,244.605 144.954,244.429C144.514,244.253 144.006,244.165 143.43,244.165C142.766,244.165 142.19,244.309 141.702,244.597C141.214,244.885 140.84,245.297 140.58,245.833C140.32,246.369 140.19,247.001 140.19,247.729C140.19,248.449 140.32,249.075 140.58,249.607C140.84,250.139 141.216,250.549 141.708,250.837C142.2,251.125 142.778,251.269 143.442,251.269C144.058,251.269 144.596,251.179 145.056,250.999C145.516,250.819 145.878,250.569 146.142,250.249C146.262,250.121 146.39,250.057 146.526,250.057C146.622,250.057 146.702,250.085 146.766,250.141C146.878,250.237 146.934,250.341 146.934,250.453C146.934,250.549 146.898,250.641 146.826,250.729C146.498,251.129 146.032,251.447 145.428,251.683C144.824,251.919 144.162,252.037 143.442,252.037Z" style="fill:white;fill-rule:nonzero;"/>
            <path d="M151.962,252.037C151.194,252.037 150.488,251.907 149.844,251.647C149.2,251.387 148.698,251.029 148.338,250.573C148.274,250.493 148.242,250.409 148.242,250.321C148.242,250.209 148.302,250.101 148.422,249.997C148.486,249.949 148.554,249.925 148.626,249.925C148.77,249.925 148.898,249.993 149.01,250.129C149.338,250.489 149.752,250.767 150.252,250.963C150.752,251.159 151.322,251.257 151.962,251.257C152.666,251.257 153.21,251.127 153.594,250.867C153.978,250.607 154.17,250.237 154.17,249.757C154.17,249.341 153.984,249.005 153.612,248.749C153.24,248.493 152.61,248.265 151.722,248.065C150.562,247.809 149.728,247.487 149.22,247.099C148.712,246.711 148.458,246.197 148.458,245.557C148.458,244.893 148.74,244.367 149.304,243.979C149.868,243.591 150.63,243.397 151.59,243.397C152.318,243.397 152.976,243.525 153.564,243.781C154.152,244.037 154.57,244.381 154.818,244.813C154.866,244.893 154.89,244.969 154.89,245.041C154.89,245.169 154.822,245.281 154.686,245.377C154.63,245.409 154.566,245.425 154.494,245.425C154.318,245.425 154.182,245.357 154.086,245.221C153.854,244.885 153.526,244.627 153.102,244.447C152.678,244.267 152.174,244.177 151.59,244.177C150.11,244.177 149.37,244.637 149.37,245.557C149.37,245.837 149.446,246.071 149.598,246.259C149.75,246.447 149.996,246.615 150.336,246.763C150.676,246.911 151.15,247.057 151.758,247.201C152.942,247.481 153.794,247.819 154.314,248.215C154.834,248.611 155.094,249.125 155.094,249.757C155.094,250.461 154.812,251.017 154.248,251.425C153.684,251.833 152.922,252.037 151.962,252.037Z" style="fill:white;fill-rule:nonzero;"/>
            <path d="M160.134,252.037C159.366,252.037 158.66,251.907 158.016,251.647C157.372,251.387 156.87,251.029 156.51,250.573C156.446,250.493 156.414,250.409 156.414,250.321C156.414,250.209 156.474,250.101 156.594,249.997C156.658,249.949 156.726,249.925 156.798,249.925C156.942,249.925 157.07,249.993 157.182,250.129C157.51,250.489 157.924,250.767 158.424,250.963C158.924,251.159 159.494,251.257 160.134,251.257C160.838,251.257 161.382,251.127 161.766,250.867C162.15,250.607 162.342,250.237 162.342,249.757C162.342,249.341 162.156,249.005 161.784,248.749C161.412,248.493 160.782,248.265 159.894,248.065C158.734,247.809 157.9,247.487 157.392,247.099C156.884,246.711 156.63,246.197 156.63,245.557C156.63,244.893 156.912,244.367 157.476,243.979C158.04,243.591 158.802,243.397 159.762,243.397C160.49,243.397 161.148,243.525 161.736,243.781C162.324,244.037 162.742,244.381 162.99,244.813C163.038,244.893 163.062,244.969 163.062,245.041C163.062,245.169 162.994,245.281 162.858,245.377C162.802,245.409 162.738,245.425 162.666,245.425C162.49,245.425 162.354,245.357 162.258,245.221C162.026,244.885 161.698,244.627 161.274,244.447C160.85,244.267 160.346,244.177 159.762,244.177C158.282,244.177 157.542,244.637 157.542,245.557C157.542,245.837 157.618,246.071 157.77,246.259C157.922,246.447 158.168,246.615 158.508,246.763C158.848,246.911 159.322,247.057 159.93,247.201C161.114,247.481 161.966,247.819 162.486,248.215C163.006,248.611 163.266,249.125 163.266,249.757C163.266,250.461 162.984,251.017 162.42,251.425C161.856,251.833 161.094,252.037 160.134,252.037Z" style="fill:white;fill-rule:nonzero;"/>
            <path d="M168.534,252.037C168.398,252.037 168.29,251.995 168.21,251.911C168.13,251.827 168.09,251.709 168.09,251.557L168.09,243.877C168.09,243.725 168.13,243.607 168.21,243.523C168.29,243.439 168.398,243.397 168.534,243.397C168.678,243.397 168.79,243.439 168.87,243.523C168.95,243.607 168.99,243.725 168.99,243.877L168.99,247.225L174.258,247.225L174.258,243.877C174.258,243.725 174.298,243.607 174.378,243.523C174.458,243.439 174.57,243.397 174.714,243.397C174.85,243.397 174.958,243.439 175.038,243.523C175.118,243.607 175.158,243.725 175.158,243.877L175.158,251.557C175.158,251.709 175.118,251.827 175.038,251.911C174.958,251.995 174.85,252.037 174.714,252.037C174.578,252.037 174.468,251.995 174.384,251.911C174.3,251.827 174.258,251.709 174.258,251.557L174.258,247.981L168.99,247.981L168.99,251.557C168.99,251.709 168.95,251.827 168.87,251.911C168.79,251.995 168.678,252.037 168.534,252.037Z" style="fill:white;fill-rule:nonzero;"/>
            <path d="M180.294,252.037C180.15,252.037 180.04,251.995 179.964,251.911C179.888,251.827 179.85,251.709 179.85,251.557L179.85,244.261L177.102,244.261C176.958,244.261 176.844,244.231 176.76,244.171C176.676,244.111 176.634,244.021 176.634,243.901C176.634,243.645 176.79,243.517 177.102,243.517L183.51,243.517C183.822,243.517 183.978,243.645 183.978,243.901C183.978,244.013 183.938,244.101 183.858,244.165C183.778,244.229 183.662,244.261 183.51,244.261L180.762,244.261L180.762,251.557C180.762,251.709 180.72,251.827 180.636,251.911C180.552,251.995 180.438,252.037 180.294,252.037Z" style="fill:white;fill-rule:nonzero;"/>
            <path d="M185.298,252.037C185.162,252.037 185.054,251.995 184.974,251.911C184.894,251.827 184.854,251.709 184.854,251.557L184.854,246.133C184.854,245.285 185.094,244.617 185.574,244.129C186.054,243.641 186.714,243.397 187.554,243.397C188.042,243.397 188.492,243.523 188.904,243.775C189.316,244.027 189.626,244.361 189.834,244.777C190.042,244.353 190.348,244.017 190.752,243.769C191.156,243.521 191.61,243.397 192.114,243.397C192.954,243.397 193.614,243.639 194.094,244.123C194.574,244.607 194.814,245.277 194.814,246.133L194.814,251.557C194.814,251.709 194.772,251.827 194.688,251.911C194.604,251.995 194.494,252.037 194.358,252.037C194.214,252.037 194.104,251.995 194.028,251.911C193.952,251.827 193.914,251.709 193.914,251.557L193.914,246.133C193.914,245.501 193.772,245.017 193.488,244.681C193.204,244.345 192.738,244.177 192.09,244.177C191.522,244.177 191.078,244.351 190.758,244.699C190.438,245.047 190.278,245.525 190.278,246.133L190.278,251.557C190.278,251.709 190.238,251.827 190.158,251.911C190.078,251.995 189.97,252.037 189.834,252.037C189.698,252.037 189.592,251.995 189.516,251.911C189.44,251.827 189.402,251.709 189.402,251.557L189.402,246.133C189.402,245.541 189.234,245.067 188.898,244.711C188.562,244.355 188.122,244.177 187.578,244.177C186.93,244.177 186.464,244.345 186.18,244.681C185.896,245.017 185.754,245.501 185.754,246.133L185.754,251.557C185.754,251.709 185.714,251.827 185.634,251.911C185.554,251.995 185.442,252.037 185.298,252.037Z" style="fill:white;fill-rule:nonzero;"/>
            <path d="M198.246,251.917C197.758,251.917 197.378,251.787 197.106,251.527C196.834,251.267 196.698,250.909 196.698,250.453L196.698,243.877C196.698,243.725 196.738,243.607 196.818,243.523C196.898,243.439 197.006,243.397 197.142,243.397C197.286,243.397 197.398,243.439 197.478,243.523C197.558,243.607 197.598,243.725 197.598,243.877L197.598,250.477C197.598,250.685 197.656,250.853 197.772,250.981C197.888,251.109 198.042,251.173 198.234,251.173L202.23,251.173C202.542,251.173 202.698,251.297 202.698,251.545C202.698,251.665 202.658,251.757 202.578,251.821C202.498,251.885 202.382,251.917 202.23,251.917L198.246,251.917Z" style="fill:white;fill-rule:nonzero;"/>
            <path d="M207.858,252.037C207.722,252.037 207.614,251.995 207.534,251.911C207.454,251.827 207.414,251.709 207.414,251.557L207.414,244.957C207.414,244.509 207.548,244.157 207.816,243.901C208.084,243.645 208.458,243.517 208.938,243.517L210.978,243.517C213.258,243.517 214.398,244.473 214.398,246.385C214.398,247.265 214.108,247.943 213.528,248.419C212.948,248.895 212.114,249.133 211.026,249.133L208.314,249.133L208.314,251.557C208.314,251.709 208.274,251.827 208.194,251.911C208.114,251.995 208.002,252.037 207.858,252.037ZM211.026,248.377C211.802,248.377 212.404,248.225 212.832,247.921C213.26,247.617 213.474,247.105 213.474,246.385C213.474,245.633 213.266,245.091 212.85,244.759C212.434,244.427 211.83,244.261 211.038,244.261L208.95,244.261C208.758,244.261 208.604,244.325 208.488,244.453C208.372,244.581 208.314,244.749 208.314,244.957L208.314,248.377L211.026,248.377Z" style="fill:white;fill-rule:nonzero;"/>
            <path d="M216.45,252.037C216.314,252.037 216.206,251.995 216.126,251.911C216.046,251.827 216.006,251.709 216.006,251.557L216.006,243.877C216.006,243.725 216.046,243.607 216.126,243.523C216.206,243.439 216.314,243.397 216.45,243.397C216.594,243.397 216.706,243.439 216.786,243.523C216.866,243.607 216.906,243.725 216.906,243.877L216.906,247.225L222.174,247.225L222.174,243.877C222.174,243.725 222.214,243.607 222.294,243.523C222.374,243.439 222.486,243.397 222.63,243.397C222.766,243.397 222.874,243.439 222.954,243.523C223.034,243.607 223.074,243.725 223.074,243.877L223.074,251.557C223.074,251.709 223.034,251.827 222.954,251.911C222.874,251.995 222.766,252.037 222.63,252.037C222.494,252.037 222.384,251.995 222.3,251.911C222.216,251.827 222.174,251.709 222.174,251.557L222.174,247.981L216.906,247.981L216.906,251.557C216.906,251.709 216.866,251.827 216.786,251.911C216.706,251.995 216.594,252.037 216.45,252.037Z" style="fill:white;fill-rule:nonzero;"/>
            <path d="M225.426,252.037C225.29,252.037 225.182,251.995 225.102,251.911C225.022,251.827 224.982,251.709 224.982,251.557L224.982,244.957C224.982,244.509 225.116,244.157 225.384,243.901C225.652,243.645 226.026,243.517 226.506,243.517L228.546,243.517C230.826,243.517 231.966,244.473 231.966,246.385C231.966,247.265 231.676,247.943 231.096,248.419C230.516,248.895 229.682,249.133 228.594,249.133L225.882,249.133L225.882,251.557C225.882,251.709 225.842,251.827 225.762,251.911C225.682,251.995 225.57,252.037 225.426,252.037ZM228.594,248.377C229.37,248.377 229.972,248.225 230.4,247.921C230.828,247.617 231.042,247.105 231.042,246.385C231.042,245.633 230.834,245.091 230.418,244.759C230.002,244.427 229.398,244.261 228.606,244.261L226.518,244.261C226.326,244.261 226.172,244.325 226.056,244.453C225.94,244.581 225.882,244.749 225.882,244.957L225.882,248.377L228.594,248.377Z" style="fill:white;fill-rule:nonzero;"/>
        </g>
    </g>
    <defs>
        <linearGradient id="_Linear1" x1="0" y1="0" x2="1" y2="0" gradientUnits="userSpaceOnUse" gradientTransform="matrix(435.426,0,0,435.426,-5.42553,212.287)"><stop offset="0" style="stop-color:rgb(144,144,144);stop-opacity:1"/><stop offset="0.5" style="stop-color:rgb(226,226,226);stop-opacity:1"/><stop offset="1" style="stop-color:rgb(159,159,159);stop-opacity:1"/></linearGradient>
    </defs>
</svg>
