<?xml version="1.0" encoding="UTF-8" standalone="no"?>
<!DOCTYPE svg PUBLIC "-//W3C//DTD SVG 1.1//EN" "http://www.w3.org/Graphics/SVG/1.1/DTD/svg11.dtd">
<svg width="100%" height="100%" viewBox="0 0 310 310" version="1.1" xmlns="http://www.w3.org/2000/svg" xmlns:xlink="http://www.w3.org/1999/xlink" xml:space="preserve" xmlns:serif="http://www.serif.com/" style="fill-rule:evenodd;clip-rule:evenodd;stroke-linejoin:round;stroke-miterlimit:2;">
<defs>
    <filter id="blur">
        <feGaussianBlur stdDeviation="0.2"/>
    </filter>
</defs>
<g id="Hour-Hand-Shadow"
   transform="translate(0,0)"
   opacity="0.35"
   filter="url(#blur)">
    <path d="M163.824,147.028C164.841,148.212 167,150.571 167,155C167,161.623 161.623,167 155,167C148.377,167 143,161.623 143,155C143,153.179 143.748,150.3 144.891,148.611C145.95,147.376 148.181,144.67 148.226,142.936C148.151,140.769 147.298,127.602 146.329,110.324C145.478,95.143 144.637,79.811 144.364,75.448C144.313,74.628 144.282,74.182 144.721,73.487C146.367,70.879 154.067,60.601 154.998,60.569C156.013,60.584 162.707,70.604 164.398,73.068C164.775,73.617 165.149,75.148 165.121,75.813C164.664,86.869 161.444,139.379 161.55,143.077C161.763,144.639 162.635,146.18 163.824,147.028ZM150.04,138.81C149.983,140.074 150.827,140.838 151.42,140.975C153.049,141.134 156.874,141.152 158.429,141.002C159.043,140.894 159.311,139.863 159.386,139.245C159.748,136.253 160.295,124.318 160.159,121.376C160.128,120.719 159.69,119.938 159.037,119.856C157.492,119.662 152.279,119.679 150.833,120.072C149.959,120.31 149.472,121.013 149.474,121.919C149.48,122.841 149.719,136.039 150.04,138.81Z" style="fill:#202840;"/>
</g>

<g id="Hour-Hand" serif:id="Hour Hand">
	<path d="M163.824,147.028C164.841,148.212 167,150.571 167,155C167,161.623 161.623,167 155,167C148.377,167 143,161.623 143,155C143,153.179 143.748,150.3 144.891,148.611C145.95,147.376 148.181,144.67 148.226,142.936C148.151,140.769 147.298,127.602 146.329,110.324C145.478,95.143 144.637,79.811 144.364,75.448C144.313,74.628 144.282,74.182 144.721,73.487C146.367,70.879 154.067,60.601 154.998,60.569C156.013,60.584 162.707,70.604 164.398,73.068C164.775,73.617 165.149,75.148 165.121,75.813C164.664,86.869 161.444,139.379 161.55,143.077C161.763,144.639 162.635,146.18 163.824,147.028ZM150.04,138.81C149.983,140.074 150.827,140.838 151.42,140.975C153.049,141.134 156.874,141.152 158.429,141.002C159.043,140.894 159.311,139.863 159.386,139.245C159.748,136.253 160.295,124.318 160.159,121.376C160.128,120.719 159.69,119.938 159.037,119.856C157.492,119.662 152.279,119.679 150.833,120.072C149.959,120.31 149.472,121.013 149.474,121.919C149.48,122.841 149.719,136.039 150.04,138.81Z" style="fill:#5c6999;"/>
	<path d="M149.434,114.984C148.808,108.098 147.225,83.797 146.88,76.895C146.843,76.15 146.81,74.711 147.182,74.065C148.401,71.951 154.393,63.989 155,63.975C155.458,63.984 160.856,71.941 162.076,73.807C162.461,74.396 162.738,75.175 162.722,75.878C162.559,82.914 161.004,108.049 160.476,115.079C160.42,115.824 160.064,116.916 159.329,117.047C157.207,117.23 152.749,117.188 150.926,116.952C150.076,116.77 149.513,115.851 149.434,114.984Z" style="fill:#fff;"/>
</g>
</svg>
