<?xml version="1.0" encoding="UTF-8" standalone="no"?>
<!DOCTYPE svg PUBLIC "-//W3C//DTD SVG 1.1//EN" "http://www.w3.org/Graphics/SVG/1.1/DTD/svg11.dtd">
<svg width="100%" height="100%" viewBox="0 0 310 310" version="1.1" xmlns="http://www.w3.org/2000/svg" xmlns:xlink="http://www.w3.org/1999/xlink" xml:space="preserve" xmlns:serif="http://www.serif.com/" style="fill-rule:evenodd;clip-rule:evenodd;stroke-linejoin:round;stroke-miterlimit:2;">
    <g id="Hour-Hand" serif:id="Hour Hand">
        <g id="Hour-Hand-Shadow" serif:id="Hour Hand Shadow" transform="matrix(1,0,0,1,-0.429577,0)">
            <path d="M164.633,146.703C165.691,147.934 167.93,150.391 167.93,155C167.93,161.899 162.329,167.5 155.43,167.5C148.531,167.5 142.93,161.899 142.93,155C142.93,153.099 143.714,150.094 144.906,148.331C144.917,148.315 144.928,148.3 144.941,148.285C145.563,147.56 146.599,146.318 147.337,145.072C147.787,144.313 148.134,143.56 148.155,142.931C148.075,140.702 147.224,127.568 146.259,110.352C145.408,95.172 144.568,79.842 144.294,75.479C144.235,74.533 144.221,74.022 144.728,73.22C146.053,71.121 151.275,64.084 153.79,61.337C154.26,60.823 154.646,60.453 154.901,60.273C154.999,60.204 155.086,60.156 155.158,60.126L155.41,60.069L155.434,60.069L155.687,60.119C155.764,60.149 155.854,60.196 155.954,60.265C156.208,60.441 156.574,60.805 157.011,61.311C159.307,63.973 163.882,70.807 165.24,72.786C165.659,73.395 166.081,75.095 166.05,75.833C165.594,86.859 162.388,139.124 162.48,143.042C162.681,144.457 163.467,145.852 164.544,146.621C164.577,146.645 164.607,146.672 164.633,146.703ZM150.969,138.833C150.927,139.762 151.49,140.357 151.939,140.482C153.559,140.634 157.248,140.651 158.789,140.506C158.845,140.489 158.886,140.438 158.927,140.385C158.987,140.308 159.038,140.214 159.082,140.114C159.215,139.811 159.287,139.453 159.319,139.185C159.679,136.207 160.224,124.327 160.089,121.399C160.077,121.158 159.99,120.893 159.847,120.681C159.735,120.516 159.591,120.376 159.405,120.352C157.896,120.163 152.806,120.171 151.394,120.555C150.752,120.73 150.403,121.252 150.404,121.917C150.41,122.848 150.646,135.992 150.966,138.753C150.969,138.779 150.97,138.806 150.969,138.833Z" style="fill:rgb(46,33,0);fill-opacity:0.25;"/>
            <path d="M155.799,60.171L155.923,59.496C156.041,59.541 156.181,59.611 156.335,59.718C156.617,59.914 157.029,60.312 157.516,60.876C159.824,63.552 164.425,70.419 165.79,72.408C166.264,73.099 166.751,75.024 166.717,75.861C166.262,86.843 163.076,138.773 163.146,142.993C163.332,144.213 164.002,145.415 164.932,146.079L165.139,146.268C166.252,147.564 168.596,150.152 168.596,155C168.596,162.267 162.696,168.167 155.43,168.167C148.163,168.167 142.263,162.267 142.263,155C142.263,152.992 143.094,149.82 144.354,147.957L144.435,147.851C145.039,147.147 146.047,145.942 146.763,144.732C147.144,144.091 147.463,143.464 147.488,142.919C147.4,140.587 146.553,127.507 145.594,110.39C144.743,95.211 143.902,79.883 143.629,75.521C143.559,74.406 143.567,73.809 144.164,72.864C145.5,70.749 150.763,63.656 153.298,60.887C153.812,60.325 154.238,59.925 154.517,59.728C154.664,59.624 154.796,59.554 154.905,59.51C154.61,59.631 154.443,59.943 154.504,60.256C154.523,60.349 154.56,60.434 154.612,60.508C154.386,60.709 154.107,60.99 153.79,61.337C151.275,64.084 146.053,71.121 144.728,73.22C144.221,74.022 144.235,74.533 144.294,75.479C144.568,79.842 145.408,95.172 146.259,110.352C147.224,127.568 148.075,140.702 148.155,142.931C148.134,143.56 147.787,144.313 147.337,145.072C146.599,146.318 145.563,147.56 144.941,148.285C144.928,148.3 144.917,148.315 144.906,148.331C143.714,150.094 142.93,153.099 142.93,155C142.93,161.899 148.531,167.5 155.43,167.5C162.329,167.5 167.93,161.899 167.93,155C167.93,150.391 165.691,147.934 164.633,146.703C164.607,146.672 164.577,146.645 164.544,146.621C163.467,145.852 162.681,144.457 162.48,143.042C162.388,139.124 165.594,86.859 166.05,75.833C166.081,75.095 165.659,73.395 165.24,72.786C163.882,70.807 159.307,63.973 157.011,61.311C156.574,60.805 156.208,60.441 155.954,60.265C155.9,60.227 155.848,60.196 155.799,60.171ZM155.09,60.158L155.017,59.475L155.255,59.421L155.334,60.087L155.158,60.126C155.137,60.135 155.114,60.146 155.09,60.158ZM155.407,60.07L155.404,59.403L155.427,59.402L155.431,60.069L155.41,60.069L155.407,60.07ZM155.502,60.083L155.572,59.417L155.812,59.464L155.747,60.145C155.726,60.135 155.706,60.127 155.687,60.119L155.502,60.083ZM150.969,138.833C150.97,138.806 150.969,138.779 150.966,138.753C150.646,135.992 150.41,122.848 150.404,121.917C150.403,121.252 150.752,120.73 151.394,120.555C152.806,120.171 157.896,120.163 159.405,120.352C159.591,120.376 159.735,120.516 159.847,120.681C159.99,120.893 160.077,121.158 160.089,121.399C160.224,124.327 159.679,136.207 159.319,139.185C159.287,139.453 159.215,139.811 159.082,140.114C159.038,140.214 158.987,140.308 158.927,140.385C158.886,140.438 158.845,140.489 158.789,140.506C157.248,140.651 153.559,140.634 151.939,140.482C151.49,140.357 150.927,139.762 150.969,138.833ZM158.463,139.864L158.471,139.845C158.577,139.605 158.632,139.319 158.657,139.105C159.015,136.145 159.557,124.34 159.423,121.43C159.417,121.304 159.37,121.166 159.295,121.055C159.285,121.041 159.269,121.021 159.256,121.006C157.72,120.831 152.915,120.832 151.569,121.198C151.236,121.289 151.07,121.57 151.071,121.915C151.077,122.859 151.31,135.929 151.628,138.676L151.635,138.863C151.613,139.362 151.834,139.725 152.076,139.825C153.613,139.96 156.854,139.98 158.463,139.864Z" style="fill:rgb(59,41,0);fill-opacity:0.09;"/>
        </g>
        <g id="Hour-Hand-Frame" serif:id="Hour Hand Frame" transform="matrix(1,0,0,1,-0.429577,0)">
            <path d="M164.254,147.028C165.271,148.212 167.43,150.571 167.43,155C167.43,161.623 162.053,167 155.43,167C148.807,167 143.43,161.623 143.43,155C143.43,153.179 144.178,150.3 145.32,148.611C146.379,147.376 148.61,144.67 148.656,142.936C148.581,140.769 147.727,127.602 146.759,110.324C145.907,95.143 145.067,79.811 144.794,75.448C144.742,74.628 144.712,74.182 145.15,73.487C146.797,70.879 154.496,60.601 155.427,60.569C156.442,60.584 163.137,70.604 164.828,73.068C165.204,73.617 165.578,75.148 165.551,75.813C165.093,86.869 161.874,139.379 161.98,143.077C162.192,144.639 163.065,146.18 164.254,147.028ZM150.47,138.81C150.413,140.074 151.256,140.838 151.85,140.975C153.479,141.134 157.304,141.152 158.859,141.002C159.472,140.894 159.741,139.863 159.816,139.245C160.177,136.253 160.724,124.318 160.588,121.376C160.558,120.719 160.119,119.938 159.467,119.856C157.922,119.662 152.708,119.679 151.262,120.072C150.389,120.31 149.902,121.013 149.904,121.919C149.91,122.841 150.148,136.039 150.47,138.81Z" style="fill:rgb(92,105,153);"/>
        </g>
        <path id="Hour-Hand-Highlight" serif:id="Hour Hand Highlight" d="M149.434,114.984C148.808,108.098 147.225,83.797 146.88,76.895C146.843,76.15 146.81,74.711 147.182,74.065C148.401,71.951 154.393,63.989 155,63.975C155.458,63.984 160.856,71.941 162.076,73.807C162.461,74.396 162.738,75.175 162.722,75.878C162.559,82.914 161.004,108.049 160.476,115.079C160.42,115.824 160.064,116.916 159.329,117.047C157.207,117.23 152.749,117.188 150.926,116.952C150.076,116.77 149.513,115.851 149.434,114.984Z" style="fill:white;"/>
    </g>
</svg>
