<?xml version="1.0" encoding="UTF-8" standalone="no"?>
<!DOCTYPE svg PUBLIC "-//W3C//DTD SVG 1.1//EN" "http://www.w3.org/Graphics/SVG/1.1/DTD/svg11.dtd">
<svg width="100%" height="100%" viewBox="0 0 1292 1292" version="1.1" xmlns="http://www.w3.org/2000/svg" xmlns:xlink="http://www.w3.org/1999/xlink" xml:space="preserve" xmlns:serif="http://www.serif.com/" style="fill-rule:evenodd;clip-rule:evenodd;stroke-linejoin:round;stroke-miterlimit:2;">
<defs>
    <filter id="blur">
        <feGaussianBlur stdDeviation="1"/>
    </filter>
</defs>

<g id="Minute-Hand-Shadow"
   transform="translate(0,0)"
   opacity="0.35"
   filter="url(#blur)">
<path d="M671.431,602.883c14.61,8.732 24.402,24.707 24.402,42.951c0,27.596 -22.404,50 -50,50c-27.596,0 -50,-22.404 -50,-50c0,-17.829 9.352,-33.491 23.414,-42.344c0,0 2.1,-2.022 2.663,-4.962c0.505,-1.709 0.368,-9.459 0.368,-9.459c0,0 -14.672,-456.446 -14.97,-464.046c-0,-5.212 -1.277,-7.963 1.187,-12.322c5.852,-10.349 27.367,-42.775 34.116,-50.623c1.47,-1.709 5.358,-1.717 6.763,0.045c6.068,7.609 28.177,42.493 32.537,53.015c0.616,10.268 -13.439,473.529 -13.439,473.529c0,0 0.136,6.896 0.358,8.834c0.423,3.69 2.599,5.381 2.599,5.381Zm-16.998,-11.44c2.554,-0.546 3.424,-2.038 3.9,-3.943c0.424,-2.222 4.272,-130.235 4.167,-133.333c0,-2.812 -0.785,-3.88 -4.237,-4.149c-5.795,-0.676 -19.607,-0.531 -24.93,-0.018c-1.944,0.278 -4.167,2.202 -4.167,4.167c0,2.083 3.896,131.546 4.167,133.333c0.331,1.3 1.354,3.054 2.965,3.627c1.312,0.752 14.682,0.988 18.135,0.316Z" style="fill:#202840;"/></g>

<g id="Minute-Hand">
<g id="Minute-Hand" serif:id="Minute Hand">
        <path d="M671.431,602.883c14.61,8.732 24.402,24.707 24.402,42.951c0,27.596 -22.404,50 -50,50c-27.596,0 -50,-22.404 -50,-50c0,-17.829 9.352,-33.491 23.414,-42.344c0,0 2.1,-2.022 2.663,-4.962c0.505,-1.709 0.368,-9.459 0.368,-9.459c0,0 -14.672,-456.446 -14.97,-464.046c-0,-5.212 -1.277,-7.963 1.187,-12.322c5.852,-10.349 27.367,-42.775 34.116,-50.623c1.47,-1.709 5.358,-1.717 6.763,0.045c6.068,7.609 28.177,42.493 32.537,53.015c0.616,10.268 -13.439,473.529 -13.439,473.529c0,0 0.136,6.896 0.358,8.834c0.423,3.69 2.599,5.381 2.599,5.381Zm-16.998,-11.44c2.554,-0.546 3.424,-2.038 3.9,-3.943c0.424,-2.222 4.272,-130.235 4.167,-133.333c0,-2.812 -0.785,-3.88 -4.237,-4.149c-5.795,-0.676 -19.607,-0.531 -24.93,-0.018c-1.944,0.278 -4.167,2.202 -4.167,4.167c0,2.083 3.896,131.546 4.167,133.333c0.331,1.3 1.354,3.054 2.965,3.627c1.312,0.752 14.682,0.988 18.135,0.316Z" style="fill:#5c6999;"/>
        <path d="M656.419,440.58c-4.861,1.389 -18.919,1.203 -23.461,0.689c-5.144,-1.459 -6.549,-4.206 -6.659,-6.167c-1.296,-8.726 -11.1,-314.012 -9.636,-317.461c-0.423,-3.778 20.883,-31.208 25.206,-37.311c2.789,-3.348 5.227,-3.16 8.353,0.067c4.861,6.25 22.533,32.89 22.194,37.197c1.247,5.645 -8.757,311.642 -9.758,316.696c-0.195,3.1 -3.252,5.436 -6.238,6.289Z" style="fill:#fff;"/>
    </g></g>

    
</svg>
