<?xml version="1.0" encoding="UTF-8" standalone="no"?>
<!DOCTYPE svg PUBLIC "-//W3C//DTD SVG 1.1//EN" "http://www.w3.org/Graphics/SVG/1.1/DTD/svg11.dtd">
<svg width="100%" height="100%" viewBox="0 0 310 310" version="1.1" xmlns="http://www.w3.org/2000/svg" xmlns:xlink="http://www.w3.org/1999/xlink" xml:space="preserve" xmlns:serif="http://www.serif.com/" style="fill-rule:evenodd;clip-rule:evenodd;stroke-linejoin:round;stroke-miterlimit:2;">
    <g id="Minute-Hand" serif:id="Minute Hand" transform="matrix(1,0,0,1,-26,0)">
        <path id="Minute-Hand-Bottom-Shadow" serif:id="Minute Hand Bottom Shadow" d="M174.335,141.409C174.335,141.409 170.814,31.869 170.743,30.045L170.742,30.005C170.742,28.54 170.465,27.776 171.158,26.55C172.581,24.033 177.818,16.148 179.46,14.239C179.807,13.835 180.419,13.577 181.048,13.58C181.394,13.581 181.737,13.657 182.024,13.794L182.345,13.99L182.641,14.279C184.125,16.139 189.528,24.673 190.594,27.246C190.637,27.35 190.662,27.46 190.669,27.573C190.816,30.017 187.504,139.38 187.446,141.287C187.45,141.498 187.478,142.875 187.525,143.285C187.559,143.576 187.717,143.814 187.772,143.889C191.513,146.176 194.012,150.298 194.012,155C194.012,162.182 188.182,168.012 181,168.012C173.818,168.012 167.988,162.182 167.988,155C167.988,150.407 170.372,146.367 173.97,144.05C174.054,143.951 174.211,143.735 174.265,143.456C174.271,143.424 174.279,143.391 174.288,143.36C174.392,143.008 174.336,141.423 174.335,141.409ZM178.014,109.093C178.057,110.984 178.903,139.263 178.996,140.79C179.021,140.841 179.065,140.905 179.08,140.926C179.266,140.936 182.18,141.079 182.859,140.955L182.87,140.952C182.96,140.927 182.989,140.863 183.009,140.786C183.125,139.696 184.101,110.738 184.042,109.072C183.982,109.047 183.896,109.014 183.84,109.006C182.729,108.848 179.251,108.844 178.143,109.002C178.102,109.008 178.046,109.06 178.014,109.093Z" style="fill-opacity:0.11;"/>
        <path id="Minute-Hand-Top-Shadow" serif:id="Minute Hand Top Shadow" d="M187.458,144.254C191.1,146.449 193.537,150.442 193.537,155C193.537,161.919 187.919,167.537 181,167.537C174.081,167.537 168.463,161.919 168.463,155C168.463,150.553 170.783,146.643 174.28,144.416C174.376,144.311 174.647,143.984 174.731,143.546L174.744,143.494C174.852,143.127 174.813,141.508 174.81,141.392C174.796,140.965 171.289,31.847 171.217,30.026L171.217,30.005C171.217,29.517 171.168,29.12 171.148,28.755C171.111,28.096 171.154,27.522 171.572,26.784C172.986,24.282 178.188,16.446 179.82,14.548C180.087,14.238 180.562,14.053 181.046,14.055C181.537,14.056 182.011,14.25 182.27,14.575C183.741,16.419 189.098,24.877 190.155,27.428C190.178,27.483 190.191,27.541 190.195,27.601C190.342,30.051 187.013,139.88 186.971,141.285C186.974,141.451 187.004,142.911 187.053,143.339C187.116,143.89 187.391,144.189 187.458,144.254ZM178.933,141.382C178.98,141.389 179.337,141.441 179.667,141.461C180.724,141.526 182.395,141.528 182.957,141.42L182.96,141.419C183.296,141.345 183.408,141.14 183.475,140.884C183.587,139.942 184.488,109.754 184.463,109.018L184.463,109C184.463,108.901 184.459,108.815 184.445,108.739C184.439,108.702 184.437,108.668 184.415,108.646C184.384,108.614 184.335,108.604 184.275,108.588C184.182,108.565 184.072,108.55 183.942,108.54L183.921,108.538C182.562,108.379 179.33,108.413 178.058,108.535C177.931,108.558 177.8,108.638 177.696,108.737C177.615,108.814 177.537,108.901 177.537,109C177.537,109.493 178.446,139.824 178.53,140.903C178.58,141.072 178.692,141.294 178.892,141.365L178.933,141.382Z" style="fill-opacity:0.13;"/>
        <path d="M187.143,144.692C190.65,146.788 193,150.622 193,155C193,161.623 187.623,167 181,167C174.377,167 169,161.623 169,155C169,150.721 171.244,146.962 174.619,144.837C174.619,144.837 175.123,144.352 175.258,143.647C175.38,143.236 175.347,141.376 175.347,141.376C175.347,141.376 171.826,31.829 171.754,30.005C171.754,28.754 171.447,28.094 172.039,27.048C173.443,24.564 178.607,16.782 180.227,14.899C180.58,14.488 181.513,14.486 181.85,14.909C183.306,16.736 188.612,25.108 189.659,27.633C189.807,30.097 186.434,141.28 186.434,141.28C186.434,141.28 186.466,142.935 186.52,143.4C186.621,144.286 187.143,144.692 187.143,144.692ZM183.064,141.946C183.677,141.815 183.886,141.457 184,141C184.102,140.467 185.136,109.34 185.029,108.805C184.997,108.347 184.453,108.071 183.983,108.004C182.817,107.838 179.164,107.834 178,108C177.533,108.067 177,108.529 177,109C177,109.5 177.935,140.571 178,141C178.079,141.312 178.325,141.733 178.711,141.871C179.026,142.051 182.235,142.108 183.064,141.946Z" style="fill:rgb(92,105,153);"/>
        <path d="M183.541,105.739C182.374,106.072 179,106.028 177.91,105.905C176.675,105.554 176.338,104.895 176.312,104.424C176.001,102.33 173.647,29.062 173.999,28.234C173.897,27.327 179.011,20.744 180.048,19.279C180.718,18.476 181.303,18.521 182.053,19.295C183.22,20.795 187.461,27.189 187.38,28.223C187.679,29.577 185.278,103.017 185.038,104.23C184.991,104.974 184.257,105.534 183.541,105.739Z" style="fill:white;"/>
    </g>
</svg>
