<?xml version="1.0" encoding="UTF-8" standalone="no"?>
<!DOCTYPE svg PUBLIC "-//W3C//DTD SVG 1.1//EN" "http://www.w3.org/Graphics/SVG/1.1/DTD/svg11.dtd">
<svg width="100%" height="100%" viewBox="0 0 310 310" version="1.1" xmlns="http://www.w3.org/2000/svg" xmlns:xlink="http://www.w3.org/1999/xlink" xml:space="preserve" xmlns:serif="http://www.serif.com/" style="fill-rule:evenodd;clip-rule:evenodd;stroke-linejoin:round;stroke-miterlimit:2;">
    <g id="Minute-Hand" serif:id="Minute Hand" transform="matrix(1,0,0,1,-26,0)">
        <g id="Minute-Hand-Shadow" serif:id="Minute Hand Shadow">
            <path d="M187.458,144.254C191.1,146.449 193.537,150.442 193.537,155C193.537,161.919 187.919,167.537 181,167.537C174.081,167.537 168.463,161.919 168.463,155C168.463,150.553 170.783,146.643 174.28,144.416C174.376,144.311 174.647,143.984 174.731,143.546L174.744,143.494C174.852,143.127 174.813,141.508 174.81,141.392C174.796,140.965 171.289,31.847 171.217,30.026L171.217,30.005C171.217,29.517 171.168,29.12 171.148,28.755C171.111,28.096 171.154,27.522 171.572,26.784C172.986,24.282 178.188,16.446 179.82,14.548C180.087,14.238 180.562,14.053 181.046,14.055C181.537,14.056 182.011,14.25 182.27,14.575C183.741,16.419 189.098,24.877 190.155,27.428C190.178,27.483 190.191,27.541 190.195,27.601C190.342,30.051 187.013,139.88 186.971,141.285C186.974,141.451 187.004,142.911 187.053,143.339C187.116,143.89 187.391,144.189 187.458,144.254ZM178.933,141.382C178.98,141.389 179.337,141.441 179.667,141.461C180.724,141.526 182.395,141.528 182.957,141.42L182.96,141.419C183.296,141.345 183.408,141.14 183.475,140.884C183.587,139.942 184.488,109.754 184.463,109.018L184.463,109C184.463,108.901 184.459,108.815 184.445,108.739C184.439,108.702 184.437,108.668 184.415,108.646C184.384,108.614 184.335,108.604 184.275,108.588C184.182,108.565 184.072,108.55 183.942,108.54L183.921,108.538C182.562,108.379 179.33,108.413 178.058,108.535C177.931,108.558 177.8,108.638 177.696,108.737C177.615,108.814 177.537,108.901 177.537,109C177.537,109.493 178.446,139.824 178.53,140.903C178.58,141.072 178.692,141.294 178.892,141.365L178.933,141.382Z" style="fill:rgb(38,28,0);fill-opacity:0.25;"/>
            <path d="M171.194,30.669L171.217,30.672L170.55,30.005C170.55,29.531 170.502,29.147 170.482,28.793C170.438,28.01 170.496,27.332 170.991,26.456C172.418,23.932 177.668,16.028 179.314,14.114C179.694,13.672 180.361,13.385 181.048,13.388C181.751,13.39 182.42,13.694 182.791,14.159C184.28,16.026 189.701,24.59 190.771,27.172L190.86,27.561C191.007,30.004 187.701,139.197 187.638,141.292C187.642,141.525 187.67,142.862 187.716,143.263C187.743,143.503 187.832,143.661 187.888,143.735C191.675,146.057 194.204,150.236 194.204,155C194.204,162.287 188.287,168.204 181,168.204C173.713,168.204 167.796,162.287 167.796,155C167.796,150.352 170.203,146.261 173.841,143.905C173.918,143.809 174.035,143.637 174.076,143.42C174.039,143.615 174.091,143.817 174.217,143.97C174.287,144.055 174.376,144.12 174.475,144.161C174.397,144.282 174.322,144.37 174.28,144.416C170.783,146.643 168.463,150.553 168.463,155C168.463,161.919 174.081,167.537 181,167.537C187.919,167.537 193.537,161.919 193.537,155C193.537,150.442 191.1,146.449 187.458,144.254C187.391,144.189 187.116,143.89 187.053,143.339C187.004,142.911 186.974,141.451 186.971,141.285C187.013,139.88 190.342,30.051 190.195,27.601C190.191,27.541 190.178,27.483 190.155,27.428C189.098,24.877 183.741,16.419 182.27,14.575C182.011,14.25 181.537,14.056 181.046,14.055C180.562,14.053 180.087,14.238 179.82,14.548C178.188,16.446 172.986,24.282 171.572,26.784C171.154,27.522 171.111,28.096 171.148,28.755C171.168,29.12 171.217,29.517 171.217,30.005L171.217,30.026C171.22,30.095 171.228,30.313 171.239,30.67L171.217,30.693L171.194,30.669ZM174.568,144.004L174.084,143.387L174.095,143.338L174.588,143.964C174.581,143.977 174.574,143.991 174.568,144.004ZM174.591,143.957L174.104,143.305C174.202,142.974 174.146,141.514 174.144,141.414C174.13,140.987 170.623,31.873 170.552,30.053C170.566,30.41 170.859,30.693 171.217,30.693C171.225,30.693 171.233,30.693 171.24,30.693C171.552,40.025 174.797,140.982 174.81,141.392C174.813,141.508 174.852,143.127 174.744,143.494L174.731,143.546C174.702,143.698 174.65,143.837 174.591,143.957ZM170.552,30.053L170.55,30.019L171.194,30.669C171.08,30.653 170.583,30.556 170.552,30.053ZM183.974,108.542L183.946,109.118L183.935,109.108L183.927,109.099L183.925,109.129L183.944,109.148L183.946,109.118C183.974,109.144 184.019,109.172 184.06,109.196C184.222,109.167 184.364,109.079 184.463,108.956C184.463,108.97 184.463,108.985 184.463,109L184.463,109.018C184.465,109.074 184.462,109.295 184.454,109.658L184.013,109.216L183.997,109.214L183.988,109.205L183.942,109.206L183.921,109.205L183.924,109.141L183.796,109.012L183.797,109.041C183.8,109.098 183.809,109.15 183.823,109.198L183.821,109.197C183.899,109.476 184.152,109.68 184.453,109.685C184.354,114.228 183.578,140.014 183.475,140.884C183.408,141.14 183.296,141.345 182.96,141.419L182.957,141.42C182.395,141.528 180.724,141.526 179.667,141.461C179.643,141.46 179.62,141.458 179.596,141.456C179.597,141.448 179.598,141.439 179.598,141.431C179.62,141.139 179.45,140.875 179.191,140.767L179.193,140.77C179.444,140.897 179.59,141.17 179.552,141.453C179.259,141.429 178.975,141.388 178.933,141.382L178.892,141.365C178.692,141.294 178.58,141.072 178.53,140.903C178.446,139.824 177.537,109.493 177.537,109C177.537,108.901 177.615,108.814 177.696,108.737C177.8,108.638 177.931,108.558 178.058,108.535C179.33,108.413 182.562,108.379 183.921,108.538L183.942,108.54C183.952,108.541 183.963,108.541 183.974,108.542ZM184.454,109.675L184.443,109.664L184.454,109.666C184.454,109.669 184.454,109.672 184.454,109.675ZM184.443,109.664C184.347,109.651 183.934,109.574 183.823,109.198L183.844,109.2L183.857,109.201L183.921,109.205L183.897,109.205L183.997,109.214L184.443,109.664ZM182.812,140.769L182.817,140.754C182.943,139.142 183.767,111.599 183.797,109.195C182.475,109.049 179.488,109.08 178.208,109.19C178.272,111.754 179.077,138.588 179.189,140.744C179.322,140.761 179.52,140.784 179.708,140.796C180.705,140.857 182.277,140.867 182.812,140.769Z" style="fill:rgb(31,24,0);fill-opacity:0.1;"/>
        </g>
        <path d="M187.143,144.692C190.65,146.788 193,150.622 193,155C193,161.623 187.623,167 181,167C174.377,167 169,161.623 169,155C169,150.721 171.244,146.962 174.619,144.837C174.619,144.837 175.123,144.352 175.258,143.647C175.38,143.236 175.347,141.376 175.347,141.376C175.347,141.376 171.826,31.829 171.754,30.005C171.754,28.754 171.447,28.094 172.039,27.048C173.443,24.564 178.607,16.782 180.227,14.899C180.58,14.488 181.513,14.486 181.85,14.909C183.306,16.736 188.612,25.108 189.659,27.633C189.807,30.097 186.434,141.28 186.434,141.28C186.434,141.28 186.466,142.935 186.52,143.4C186.621,144.286 187.143,144.692 187.143,144.692ZM183.064,141.946C183.677,141.815 183.886,141.457 184,141C184.102,140.467 185.136,109.34 185.029,108.805C184.997,108.347 184.453,108.071 183.983,108.004C182.817,107.838 179.164,107.834 178,108C177.533,108.067 177,108.529 177,109C177,109.5 177.935,140.571 178,141C178.079,141.312 178.325,141.733 178.711,141.871C179.026,142.051 182.235,142.108 183.064,141.946Z" style="fill:rgb(92,105,153);"/>
        <path d="M183.541,105.739C182.374,106.072 179,106.028 177.91,105.905C176.675,105.554 176.338,104.895 176.312,104.424C176.001,102.33 173.647,29.062 173.999,28.234C173.897,27.327 179.011,20.744 180.048,19.279C180.718,18.476 181.303,18.521 182.053,19.295C183.22,20.795 187.461,27.189 187.38,28.223C187.679,29.577 185.278,103.017 185.038,104.23C184.991,104.974 184.257,105.534 183.541,105.739Z" style="fill:white;"/>
    </g>
</svg>
