<?xml version="1.0" encoding="UTF-8" standalone="no"?>
<!DOCTYPE svg PUBLIC "-//W3C//DTD SVG 1.1//EN" "http://www.w3.org/Graphics/SVG/1.1/DTD/svg11.dtd">
<svg width="100%" height="100%" viewBox="0 0 310 310" version="1.1" xmlns="http://www.w3.org/2000/svg" xmlns:xlink="http://www.w3.org/1999/xlink" xml:space="preserve" xmlns:serif="http://www.serif.com/" style="fill-rule:evenodd;clip-rule:evenodd;stroke-linejoin:round;stroke-miterlimit:2;">
    <g id="Second-Hand" serif:id="Second Hand">
        <g id="Second-Hand-Shadow" serif:id="Second Hand Shadow" transform="matrix(1,0,0,1,-96.555989,-95.892449)">
            <path d="M248.535,256.635C246.474,255.548 245.068,253.383 245.068,250.892C245.068,248.356 246.526,246.157 248.65,245.091L250.065,102.892C250.067,102.633 250.278,102.423 250.538,102.422L252.55,102.412C252.811,102.41 253.025,102.621 253.027,102.882L254.468,245.094C256.589,246.161 258.044,248.358 258.044,250.892C258.044,253.379 256.642,255.542 254.585,256.63L255.044,301.888C255.044,301.908 255.043,301.927 255.041,301.947C255.041,301.947 254.949,302.856 254.129,303.578C253.62,304.028 252.818,304.419 251.544,304.42C250.252,304.421 249.454,304.024 248.954,303.569C248.147,302.836 248.086,301.913 248.086,301.913L248.085,301.871L248.535,256.635Z" style="fill-opacity:0.15;"/>
            <path d="M248.086,302.579L247.42,301.934L247.418,301.895L248.085,302.538L247.418,301.865L247.864,257.022C245.789,255.769 244.401,253.492 244.401,250.892C244.401,248.243 245.844,245.927 247.987,244.691L249.398,102.886L249.423,102.659L249.491,102.446L249.596,102.254L249.735,102.088L249.902,101.95L250.094,101.846L250.307,101.779L250.534,101.755L252.546,101.745L252.775,101.767L252.99,101.832L253.184,101.936L253.353,102.073L253.493,102.24L253.6,102.433L253.669,102.647L253.694,102.875L255.13,244.694C257.271,245.931 258.711,248.245 258.711,250.892C258.711,253.488 257.326,255.763 255.256,257.016L255.711,301.881L255.705,302.014C255.705,302.014 255.603,303.167 254.57,304.078C253.972,304.605 253.039,305.086 251.545,305.087C250.025,305.088 249.094,304.597 248.506,304.063C247.483,303.133 247.421,301.956 247.421,301.956C247.444,302.307 247.735,302.579 248.086,302.579C248.143,302.579 248.199,302.572 248.252,302.558C248.375,302.865 248.588,303.237 248.954,303.569C249.454,304.024 250.252,304.421 251.544,304.42C252.818,304.419 253.62,304.028 254.129,303.578C254.949,302.856 255.041,301.947 255.041,301.947C255.043,301.927 255.044,301.908 255.044,301.888L254.585,256.63C256.642,255.542 258.044,253.379 258.044,250.892C258.044,248.358 256.589,246.161 254.468,245.094L253.027,102.882C253.025,102.621 252.811,102.41 252.55,102.412L250.538,102.422C250.278,102.423 250.067,102.633 250.065,102.892L248.65,245.091C246.526,246.157 245.068,248.356 245.068,250.892C245.068,253.383 246.474,255.548 248.535,256.635L248.085,301.871L248.086,301.913C248.086,301.913 248.101,302.136 248.211,302.45L248.086,302.579Z" style="fill-opacity:0.07;"/>
        </g>
        <g id="Second-Hand1" serif:id="Second Hand" transform="matrix(1,0,0,1,-96.555989,-95.892449)">
            <path d="M249.013,256.342C246.964,255.384 245.543,253.303 245.543,250.892C245.543,248.44 247.014,246.328 249.122,245.393L250.54,102.897L252.552,102.887L253.996,245.396C256.101,246.332 257.569,248.442 257.569,250.892C257.569,253.299 256.152,255.378 254.107,256.338L254.569,301.893C254.569,301.893 254.336,303.943 251.544,303.945C248.72,303.947 248.56,301.876 248.56,301.876L249.013,256.342Z" style="fill:rgb(183,16,8);"/>
            <path d="M249.013,256.342C246.964,255.384 245.543,253.303 245.543,250.892C245.543,248.44 247.014,246.328 249.122,245.393L250.54,102.897L252.552,102.887L253.996,245.396C256.101,246.332 257.569,248.442 257.569,250.892C257.569,253.299 256.152,255.378 254.107,256.338L254.569,301.893C254.569,301.893 254.336,303.943 251.544,303.945C248.72,303.947 248.56,301.876 248.56,301.876L249.013,256.342ZM249.613,256.348L249.161,301.85C249.176,301.951 249.267,302.401 249.677,302.773C250.035,303.099 250.619,303.346 251.544,303.345C252.462,303.344 253.051,303.096 253.418,302.772C253.834,302.405 253.946,301.964 253.969,301.85L253.507,256.344C253.505,256.109 253.639,255.895 253.852,255.795C255.693,254.931 256.969,253.059 256.969,250.892C256.969,248.686 255.647,246.787 253.752,245.944C253.538,245.849 253.398,245.637 253.396,245.402L251.958,103.49L251.134,103.494L249.722,245.399C249.72,245.634 249.58,245.846 249.365,245.941C247.467,246.783 246.143,248.685 246.143,250.892C246.143,253.063 247.422,254.936 249.267,255.798C249.48,255.898 249.615,256.113 249.613,256.348Z" style="fill:rgb(98,2,2);"/>
        </g>
    </g>
</svg>
