<?xml version="1.0" encoding="UTF-8" standalone="no"?>
<!DOCTYPE svg PUBLIC "-//W3C//DTD SVG 1.1//EN" "http://www.w3.org/Graphics/SVG/1.1/DTD/svg11.dtd">
<svg width="100%" height="100%" viewBox="0 0 310 310" version="1.1" xmlns="http://www.w3.org/2000/svg" xmlns:xlink="http://www.w3.org/1999/xlink" xml:space="preserve" xmlns:serif="http://www.serif.com/" style="fill-rule:evenodd;clip-rule:evenodd;stroke-linejoin:round;stroke-miterlimit:2;">
<defs>
    <filter id="blur">
        <feGaussianBlur stdDeviation="0.5"/>
    </filter>
</defs>

<g id="Second-Hand-Shadow"
   transform="translate(0,0)"
   opacity="0.35"
   filter="url(#blur)">
    <path id="Second-Hand-Shadow" serif:id="Second Hand Shadow" d="M152.457,160.45C150.408,159.492 148.987,157.411 148.987,155C148.987,152.548 150.458,150.436 152.566,149.501L153.984,7.005L155.996,6.995L157.44,149.504C159.545,150.44 161.013,152.55 161.013,155C161.013,157.407 159.596,159.486 157.551,160.446L158.013,206.001C158.013,206.001 157.78,208.051 154.988,208.053C152.164,208.055 152.004,205.984 152.004,205.984L152.457,160.45Z" style="fill:#000;"/>
</g>

<g id="Second-Hand" serif:id="Second Hand">
   <path id="Second-Hand" serif:id="Second Hand" d="M152.457,160.45C150.408,159.492 148.987,157.411 148.987,155C148.987,152.548 150.458,150.436 152.566,149.501L153.984,7.005L155.996,6.995L157.44,149.504C159.545,150.44 161.013,152.55 161.013,155C161.013,157.407 159.596,159.486 157.551,160.446L158.013,206.001C158.013,206.001 157.78,208.051 154.988,208.053C152.164,208.055 152.004,205.984 152.004,205.984L152.457,160.45Z" style="fill:#b71008;"/>
    <path d="M152.457,160.45C150.408,159.492 148.987,157.411 148.987,155C148.987,152.548 150.458,150.436 152.566,149.501L153.984,7.005L155.996,6.995L157.44,149.504C159.545,150.44 161.013,152.55 161.013,155C161.013,157.407 159.596,159.486 157.551,160.446L158.013,206.001C158.013,206.001 157.78,208.051 154.988,208.053C152.164,208.055 152.004,205.984 152.004,205.984L152.457,160.45ZM153.057,160.456L152.605,205.958C152.621,206.058 152.711,206.508 153.121,206.881C153.479,207.206 154.063,207.453 154.988,207.453C155.906,207.452 156.495,207.203 156.862,206.879C157.278,206.512 157.39,206.072 157.413,205.957L156.951,160.452C156.949,160.217 157.083,160.002 157.296,159.902C159.137,159.038 160.413,157.167 160.413,155C160.413,152.794 159.091,150.894 157.196,150.052C156.982,149.956 156.842,149.744 156.84,149.51L155.402,7.598L154.578,7.602L153.166,149.507C153.164,149.742 153.024,149.954 152.809,150.049C150.911,150.891 149.587,152.792 149.587,155C149.587,157.17 150.866,159.044 152.711,159.906C152.924,160.006 153.059,160.22 153.057,160.456Z" style="fill:#620202;"/>
</g>
</svg>
