<?xml version="1.0" encoding="UTF-8" standalone="no"?>
<!DOCTYPE svg PUBLIC "-//W3C//DTD SVG 1.1//EN" "http://www.w3.org/Graphics/SVG/1.1/DTD/svg11.dtd">
<svg width="100%" height="100%" viewBox="0 0 420 420" version="1.1" xmlns="http://www.w3.org/2000/svg" xmlns:xlink="http://www.w3.org/1999/xlink" xml:space="preserve" xmlns:serif="http://www.serif.com/" style="fill-rule:evenodd;clip-rule:evenodd;stroke-miterlimit:2;">
    <g id="MInute-Hand" serif:id="MInute Hand" transform="matrix(0.901662,0,0,0.901662,-7.95158,16.6385)">
        <g id="Minute-Hand-Shadow" serif:id="Minute Hand Shadow" transform="matrix(1,0,0,1,-8.25101,-35.4991)">
            <path d="M247.999,95.674C247.726,96.546 247.661,125.247 247.186,126.12C246.638,127.127 239.8,136.359 239.471,137.465C238.936,139.262 243.785,239.817 243.785,239.817C242.651,240.58 241.13,241.719 240.315,242.817C236.345,248.16 237.458,255.709 242.801,259.679C248.144,263.649 255.694,262.536 259.664,257.193C263.634,251.85 262.521,244.3 257.178,240.33C256.908,240.131 256.631,239.944 256.345,239.768C256.345,239.768 261.613,138.942 261.291,137.893C260.846,136.443 253.389,127.608 252.831,126.146C252.346,124.878 251.731,95.95 251.556,95.52C251.263,94.798 249.911,93.893 249.911,93.893C249.911,93.893 248.246,94.883 247.999,95.674Z" style="fill:rgb(231,231,232);fill-rule:nonzero;stroke:black;stroke-opacity:0.17;stroke-width:2.22px;"/>
        </g>
        <g id="Minute-Hand-Base" serif:id="Minute Hand Base" transform="matrix(1,0,0,1,-8.25101,-35.4991)">
            <path d="M247.999,95.674C247.726,96.546 247.661,125.247 247.186,126.12C246.638,127.127 239.8,136.359 239.471,137.465C238.936,139.262 243.785,239.817 243.785,239.817C242.651,240.58 241.13,241.719 240.315,242.817C236.345,248.16 237.458,255.709 242.801,259.679C248.144,263.649 255.694,262.536 259.664,257.193C263.634,251.85 262.521,244.3 257.178,240.33C256.908,240.131 256.631,239.944 256.345,239.768C256.345,239.768 261.613,138.942 261.291,137.893C260.846,136.443 253.389,127.608 252.831,126.146C252.346,124.878 251.731,95.95 251.556,95.52C251.263,94.798 249.911,93.893 249.911,93.893C249.911,93.893 248.246,94.883 247.999,95.674Z" style="fill:rgb(231,231,232);fill-rule:nonzero;"/>
        </g>
        <g id="Minute-Hand-Trunk" serif:id="Minute Hand Trunk" transform="matrix(1,0,0,1,-8.25101,-35.4991)">
            <path d="M246.178,230.172C245.538,229.515 242.645,138.734 242.959,137.989C243.341,137.081 248.485,129.49 249.973,129.512C251.255,129.53 257.08,136.851 257.417,137.833C257.771,138.866 254.112,229.702 253.839,230.322C253.584,230.898 247.041,231.059 246.178,230.172Z" style="fill:rgb(216,199,150);fill-rule:nonzero;"/>
            <clipPath id="_clip1">
                <path d="M246.178,230.172C245.538,229.515 242.645,138.734 242.959,137.989C243.341,137.081 248.485,129.49 249.973,129.512C251.255,129.53 257.08,136.851 257.417,137.833C257.771,138.866 254.112,229.702 253.839,230.322C253.584,230.898 247.041,231.059 246.178,230.172Z" clip-rule="nonzero"/>
            </clipPath>
            <g clip-path="url(#_clip1)">
                <path id="Minute-Hand-Trunk1" serif:id="Minute Hand Trunk" d="M246.178,230.172C245.538,229.515 242.645,138.734 242.959,137.989C243.341,137.081 248.485,129.49 249.973,129.512C251.255,129.53 257.08,136.851 257.417,137.833C257.771,138.866 254.112,229.702 253.839,230.322C253.584,230.898 247.041,231.059 246.178,230.172Z" style="fill:rgb(216,199,150);fill-rule:nonzero;stroke:black;stroke-opacity:0.17;stroke-width:2.22px;stroke-linejoin:round;"/>
            </g>
        </g>
    </g>
</svg>
