<?xml version="1.0" encoding="UTF-8" standalone="no"?>
<!DOCTYPE svg PUBLIC "-//W3C//DTD SVG 1.1//EN" "http://www.w3.org/Graphics/SVG/1.1/DTD/svg11.dtd">
<svg width="100%" height="100%" viewBox="0 0 354 354" version="1.1" xmlns="http://www.w3.org/2000/svg" xmlns:xlink="http://www.w3.org/1999/xlink" xml:space="preserve" xmlns:serif="http://www.serif.com/" style="fill-rule:evenodd;clip-rule:evenodd;stroke-linejoin:round;stroke-miterlimit:2;">
    <g id="Minute-Hand" serif:id="Minute Hand">
        <g transform="matrix(1.1587,0,0,1.1587,-13.2486,-33.8076)">
            <path d="M168.035,174.383C170.782,175.785 172.665,178.642 172.665,181.935C172.665,186.611 168.868,190.408 164.192,190.408C159.516,190.408 155.719,186.611 155.719,181.935C155.719,178.562 157.694,175.647 160.55,174.284L156.944,109.011L162.554,101.758L163.709,65.029L164.593,65.031L165.754,101.626L171.246,108.903L168.035,174.383Z" style="fill:rgb(207,207,207);"/>
            <path d="M168.923,173.887C171.678,175.511 173.528,178.509 173.528,181.935C173.528,187.088 169.345,191.271 164.192,191.271C159.039,191.271 154.856,187.088 154.856,181.935C154.856,178.428 156.794,175.369 159.657,173.774L156.082,109.059C156.071,108.852 156.134,108.647 156.261,108.483L161.7,101.451L162.846,65.002C162.861,64.535 163.244,64.165 163.711,64.166L164.595,64.168C165.06,64.169 165.441,64.538 165.456,65.004L166.608,101.325L171.935,108.383C172.056,108.544 172.118,108.743 172.108,108.945L168.923,173.887ZM168.035,174.383L171.246,108.903L165.754,101.626L164.593,65.031L163.709,65.029L162.554,101.758L156.944,109.011L160.55,174.284C157.694,175.647 155.719,178.562 155.719,181.935C155.719,186.611 159.516,190.408 164.192,190.408C168.868,190.408 172.665,186.611 172.665,181.935C172.665,178.642 170.782,175.785 168.035,174.383Z" style="fill-opacity:0.4;"/>
        </g>
        <g>
            <path d="M175.083,162.031L174.796,152.606L179.481,152.616L179.047,162.034L175.083,162.031Z" style="fill:rgb(223,199,147);"/>
            <path d="M175.083,162.031L174.796,152.606L179.481,152.616L179.047,162.034L175.083,162.031ZM176.053,161.032L178.092,161.033L178.434,153.614L175.827,153.608L176.053,161.032Z" style="fill:rgb(151,129,87);"/>
            <path d="M174.612,149.027L172.938,114L181.109,113.962L179.489,149.002L174.612,149.027Z" style="fill:rgb(223,199,147);"/>
            <path d="M174.612,149.027L172.938,114L181.109,113.962L179.489,149.002L174.612,149.027ZM175.565,148.022L178.534,148.007L180.062,114.967C180.062,114.967 173.987,114.996 173.987,114.995L175.565,148.022Z" style="fill:rgb(151,129,87);"/>
            <path d="M172.49,109.986L171.488,92.972L177.036,86.145L182.491,93.039L181.535,109.997L172.49,109.986Z" style="fill:rgb(223,199,147);"/>
            <path d="M172.49,109.986L171.488,92.972L177.036,86.145L182.491,93.039L181.535,109.997L172.49,109.986ZM173.433,108.987L180.59,108.996C180.59,108.996 181.471,93.361 181.471,93.361L177.025,87.744L172.509,93.301L173.433,108.987Z" style="fill:rgb(151,129,87);"/>
        </g>
    </g>
</svg>
