<?xml version="1.0" encoding="UTF-8" standalone="no"?>
<!DOCTYPE svg PUBLIC "-//W3C//DTD SVG 1.1//EN" "http://www.w3.org/Graphics/SVG/1.1/DTD/svg11.dtd">
<svg width="100%" height="100%" viewBox="0 0 354 354" version="1.1" xmlns="http://www.w3.org/2000/svg" xmlns:xlink="http://www.w3.org/1999/xlink" xml:space="preserve" xmlns:serif="http://www.serif.com/" style="fill-rule:evenodd;clip-rule:evenodd;stroke-linejoin:round;stroke-miterlimit:2;">
    <g id="Centre-Pin" serif:id="Centre Pin" transform="matrix(1,0,0,1,7.95,-0.278)">
        <g transform="matrix(0.760396,0,0,0.760396,18.1034,32.9329)">
            <circle cx="198.51" cy="189.829" r="3.748" style="fill:url(#_Linear1);"/>
        </g>
        <g transform="matrix(0.622316,0,0,0.622316,55.6853,62.5795)">
            <circle cx="182.166" cy="184.309" r="3.214" style="fill:rgb(242,242,242);"/>
        </g>
        <g transform="matrix(0.762712,0,0,0.762712,21.1017,39.8316)">
            <circle cx="193.977" cy="180.207" r="1.572" style="fill:rgb(3,2,0);"/>
            <path d="M193.977,178.635C194.844,178.635 195.549,179.34 195.549,180.207C195.549,181.075 194.844,181.78 193.977,181.78C193.109,181.78 192.404,181.075 192.404,180.207C192.404,179.34 193.109,178.635 193.977,178.635ZM193.977,179.291C193.471,179.291 193.06,179.701 193.06,180.207C193.06,180.713 193.471,181.124 193.977,181.124C194.483,181.124 194.893,180.713 194.893,180.207C194.893,179.701 194.483,179.291 193.977,179.291Z" style="fill:white;fill-opacity:0.25;"/>
        </g>
    </g>
    <defs>
        <linearGradient id="_Linear1" x1="0" y1="0" x2="1" y2="0" gradientUnits="userSpaceOnUse" gradientTransform="matrix(0.0214976,7.43582,-7.43582,0.0214976,198.537,186.157)"><stop offset="0" style="stop-color:rgb(242,242,242);stop-opacity:1"/><stop offset="0.25" style="stop-color:rgb(242,242,242);stop-opacity:1"/><stop offset="1" style="stop-color:rgb(47,47,47);stop-opacity:1"/></linearGradient>
    </defs>
</svg>
