<?xml version="1.0" encoding="UTF-8" standalone="no"?>
<!DOCTYPE svg PUBLIC "-//W3C//DTD SVG 1.1//EN" "http://www.w3.org/Graphics/SVG/1.1/DTD/svg11.dtd">
<svg width="100%" height="100%" viewBox="0 0 354 354" version="1.1" xmlns="http://www.w3.org/2000/svg" xmlns:xlink="http://www.w3.org/1999/xlink" xml:space="preserve" xmlns:serif="http://www.serif.com/" style="fill-rule:evenodd;clip-rule:evenodd;stroke-linejoin:round;stroke-miterlimit:2;">
    <g id="Hour-Hand" serif:id="Hour Hand">
        <g transform="matrix(1.93182,1.38778e-17,-6.93889e-18,1.89168,-141.632,-167.353)">
            <path d="M162.317,175.582L162.513,162.831C162.513,162.831 157.999,158.479 158.024,153.132C158.03,152.013 158.449,150.461 159.265,148.804C159.874,147.567 160.815,146.307 161.608,145.105C163.545,142.166 164.229,139.714 164.229,139.714L164.588,128.542L165.296,128.547L165.645,139.707C165.645,139.707 166.856,142.858 168.003,144.719C168.801,146.013 169.87,147.629 170.454,148.733C171.353,150.433 171.917,152.261 171.85,153.526C171.632,157.644 167.443,162.789 167.443,162.789L167.418,175.523C169.969,176.538 171.779,179.073 171.779,182.035C171.779,185.891 168.714,189.021 164.938,189.021C161.163,189.021 158.098,185.891 158.098,182.035C158.098,179.128 159.841,176.633 162.317,175.582Z" style="fill:rgb(207,207,207);"/>
            <path d="M161.805,175.235C161.805,175.235 161.992,163.047 161.992,163.047C161.161,162.18 157.483,158.059 157.507,153.13C157.512,151.95 157.943,150.312 158.803,148.566C159.421,147.311 160.374,146.03 161.178,144.81C162.888,142.216 163.597,140.013 163.714,139.628L164.07,128.525C164.08,128.239 164.31,128.012 164.591,128.014L165.299,128.018C165.577,128.02 165.804,128.246 165.813,128.53C165.813,128.53 166.16,139.598 166.16,139.599C166.359,140.109 167.425,142.789 168.441,144.437C169.245,145.741 170.321,147.37 170.909,148.482C171.86,150.279 172.438,152.217 172.367,153.555C172.164,157.383 168.655,162.081 167.961,162.976C167.961,162.976 167.936,175.172 167.936,175.172C170.505,176.345 172.297,178.978 172.297,182.035C172.297,186.183 168.999,189.55 164.938,189.55C160.877,189.55 157.58,186.183 157.58,182.035C157.58,179.032 159.309,176.438 161.805,175.235ZM162.317,175.582C159.841,176.633 158.098,179.128 158.098,182.035C158.098,185.891 161.163,189.021 164.938,189.021C168.714,189.021 171.779,185.891 171.779,182.035C171.779,179.073 169.969,176.538 167.418,175.523L167.443,162.789C167.443,162.789 171.632,157.644 171.85,153.526C171.917,152.261 171.353,150.433 170.454,148.733C169.87,147.629 168.801,146.013 168.003,144.719C166.856,142.858 165.645,139.707 165.645,139.707L165.296,128.547L164.588,128.542L164.229,139.714C164.229,139.714 163.545,142.166 161.608,145.105C160.815,146.307 159.874,147.567 159.265,148.804C158.449,150.461 158.03,152.013 158.024,153.132C157.999,158.479 162.513,162.831 162.513,162.831L162.317,175.582Z" style="fill-opacity:0.46;"/>
        </g>
        <g>
            <g transform="matrix(1,0,0,1.13883,0,-22.5945)">
                <path d="M174.526,161.914L174.611,143.454L172.881,139.918L177.077,133.09L181.084,139.734L179.565,143.71L179.393,161.916L174.526,161.914Z" style="fill:rgb(223,199,147);"/>
                <path d="M174.526,161.914L174.611,143.454L172.881,139.918L177.077,133.09L181.084,139.734L179.565,143.71L179.393,161.916L174.526,161.914ZM175.53,161.036C175.53,161.036 178.402,161.038 178.402,161.038L178.566,143.563C178.566,143.563 179.999,139.812 179.999,139.812L177.069,134.952L173.99,139.962L175.612,143.275L175.53,161.036Z" style="fill:rgb(151,129,87);"/>
            </g>
            <g transform="matrix(1,0,0,1,0.0505,0.0685)">
                <path d="M171.246,134.948C171.246,134.948 166.442,130.379 166.343,123.1C166.258,116.829 171.425,111.281 171.425,111.281C171.425,111.281 175.761,116.454 175.805,122.829C175.848,129.212 171.246,134.948 171.246,134.948Z" style="fill:rgb(223,199,147);"/>
                <path d="M171.246,134.948C171.246,134.948 166.442,130.379 166.343,123.1C166.258,116.829 171.425,111.281 171.425,111.281C171.425,111.281 175.761,116.454 175.805,122.829C175.848,129.212 171.246,134.948 171.246,134.948ZM171.162,133.362C172.395,131.54 174.836,127.361 174.805,122.836C174.775,118.414 172.556,114.605 171.377,112.891C169.999,114.646 167.283,118.673 167.343,123.086C167.412,128.124 169.871,131.783 171.162,133.362Z" style="fill:rgb(151,129,87);"/>
            </g>
            <g transform="matrix(-1,0,0,1,353.986,-0.075732)">
                <path d="M171.214,134.591C171.214,134.591 166.68,128.072 166.676,122.426C166.672,116.155 171.425,111.281 171.425,111.281C171.425,111.281 175.926,116.379 175.883,122.779C175.844,128.718 171.214,134.591 171.214,134.591Z" style="fill:rgb(223,199,147);"/>
                <path d="M171.214,134.591C171.214,134.591 175.844,128.718 175.883,122.779C175.926,116.379 171.425,111.281 171.425,111.281C171.425,111.281 166.672,116.155 166.676,122.426C166.68,128.072 171.214,134.591 171.214,134.591ZM171.258,132.809C170.006,130.739 167.678,126.362 167.676,122.425C167.673,118.079 170.114,114.451 171.387,112.854C172.595,114.522 174.913,118.311 174.883,122.772C174.856,126.847 172.539,130.885 171.258,132.809Z" style="fill:rgb(151,129,87);"/>
            </g>
            <path d="M177.029,116.801L172.782,108.978L177.038,100.562L181.322,109.206L177.029,116.801Z" style="fill:rgb(223,199,147);"/>
            <path d="M177.029,116.801L172.782,108.978L177.038,100.562L181.322,109.206L177.029,116.801ZM177.047,114.737C177.047,114.737 180.191,109.175 180.191,109.175L177.029,102.795L173.911,108.961L177.047,114.737Z" style="fill:rgb(151,129,87);"/>
        </g>
        <g transform="matrix(0.440923,0,0,0.440923,85.4628,1.31149)">
            <circle cx="207.604" cy="76.971" r="1.134" style="fill:rgb(218,0,0);"/>
        </g>
    </g>
</svg>
