<?xml version="1.0" encoding="UTF-8" standalone="no"?>
<!DOCTYPE svg PUBLIC "-//W3C//DTD SVG 1.1//EN" "http://www.w3.org/Graphics/SVG/1.1/DTD/svg11.dtd">
<svg width="100%" height="100%" viewBox="0 0 512 512" version="1.1" xmlns="http://www.w3.org/2000/svg" xmlns:xlink="http://www.w3.org/1999/xlink" xml:space="preserve" xmlns:serif="http://www.serif.com/" style="fill-rule:evenodd;clip-rule:evenodd;stroke-linejoin:round;stroke-miterlimit:2;">
    <g id="New-Masks" serif:id="New Masks">
        <g id="Hours-Mask-Ring" serif:id="Hours Mask Ring">
            <g id="Hour-Mask" serif:id="Hour Mask" transform="matrix(1.32646,0,0,1.32646,-177.804,-189.336)">
                <path d="M423.21,361.375C411.888,403.887 373.096,435.244 327.038,435.244C272.116,435.244 227.526,390.654 227.526,335.732C227.526,280.809 272.116,236.219 327.038,236.219C373.053,236.219 411.815,267.518 423.178,309.969L381.663,321.093C375.206,296.973 353.182,279.19 327.038,279.19C295.832,279.19 270.497,304.526 270.497,335.732C270.497,366.938 295.832,392.273 327.038,392.273C353.208,392.273 375.249,374.456 381.682,350.301L423.21,361.375Z" style="fill:rgb(236,160,0);fill-opacity:0.83;"/>
            </g>
            <g transform="matrix(2.12611,0,0,2.15719,-346.764,-174.629)">
                <path d="M343.507,215.393C336.443,241.534 312.241,260.816 283.506,260.816C249.24,260.816 221.421,233.397 221.421,199.625C221.421,165.853 249.24,138.434 283.506,138.434C312.214,138.434 336.397,157.68 343.487,183.783L343.033,183.903C335.997,157.998 311.997,138.898 283.506,138.898C249.5,138.898 221.891,166.109 221.891,199.625C221.891,233.141 249.5,260.352 283.506,260.352C312.023,260.352 336.042,241.216 343.052,215.273L343.507,215.393Z" style="fill:url(#_Linear1);"/>
            </g>
            <g transform="matrix(0.434366,0,0,0.434366,160.366,136.215)">
                <path d="M389.264,320.853C369.357,395.601 301.151,450.737 220.169,450.737C123.602,450.737 45.202,372.336 45.202,275.769C45.202,179.202 123.602,100.801 220.169,100.801C301.073,100.801 369.225,155.83 389.206,230.469L386.982,231.065C367.264,157.408 300.008,103.103 220.169,103.103C124.873,103.103 47.504,180.472 47.504,275.769C47.504,371.066 124.873,448.435 220.169,448.435C300.086,448.435 367.394,394.024 387.039,320.259L389.264,320.853Z" style="fill:url(#_Linear2);"/>
            </g>
        </g>
        <g id="Minutes-Mask-Ring" serif:id="Minutes Mask Ring">
            <g id="Minutes-Mask" serif:id="Minutes Mask" transform="matrix(1.76054,0,0,1.76054,-307.843,-326.388)">
                <path d="M422.37,336.149C419.584,390.095 374.901,433.041 320.267,433.041C263.838,433.041 218.026,387.229 218.026,330.8C218.026,274.372 263.838,228.559 320.267,228.559C374.899,228.559 419.581,271.501 422.37,325.445L395.142,326.872C393.097,287.314 360.33,255.823 320.267,255.823C278.886,255.823 245.29,289.419 245.29,330.8C245.29,372.181 278.886,405.777 320.267,405.777C360.332,405.777 393.1,374.283 395.143,334.722L422.37,336.149Z" style="fill:rgb(233,92,0);fill-opacity:0.83;"/>
            </g>
            <g transform="matrix(0.898739,0,0,1.06078,146.981,46.9477)">
                <path d="M269.088,203.633C265.056,269.789 200.381,322.454 121.302,322.454C39.627,322.454 -26.683,266.274 -26.683,197.075C-26.683,127.876 39.627,71.695 121.302,71.695C200.377,71.695 265.049,124.355 269.087,190.506L267.976,190.556C263.968,124.902 199.782,72.638 121.302,72.638C40.241,72.638 -25.571,128.396 -25.571,197.075C-25.571,265.753 40.241,321.512 121.302,321.512C199.786,321.512 263.975,269.242 267.976,203.583L269.088,203.633Z" style="fill:url(#_Linear3);"/>
            </g>
            <g transform="matrix(0.92496,0,0,0.92496,32.5492,25.7141)">
                <path d="M435.919,259.149C430.617,361.829 345.568,443.571 241.579,443.571C134.174,443.571 46.976,356.373 46.976,248.968C46.976,141.564 134.174,54.365 241.579,54.365C345.564,54.365 430.61,136.101 435.919,238.775L434.839,238.832C429.559,136.728 344.986,55.447 241.579,55.447C134.771,55.447 48.057,142.161 48.057,248.968C48.057,355.776 134.771,442.49 241.579,442.49C344.991,442.49 429.567,361.202 434.84,259.092L435.919,259.149Z" style="fill:url(#_Linear4);"/>
            </g>
        </g>
        <g id="Seconds-Mask-Ring" serif:id="Seconds Mask Ring">
            <g id="Second-Mask" serif:id="Second Mask" transform="matrix(1.25889,0,0,1.25889,-70.6522,-90.5406)">
                <path d="M447.88,285.145C442.739,384.688 360.289,463.933 259.476,463.933C155.353,463.933 70.818,379.398 70.818,275.275C70.818,171.151 155.353,86.616 259.476,86.616C360.285,86.616 442.733,165.855 447.88,265.394L402.266,267.785C398.365,192.346 335.879,132.292 259.476,132.292C180.562,132.292 116.493,196.36 116.493,275.275C116.493,354.189 180.562,418.258 259.476,418.258C335.882,418.258 398.371,358.198 402.267,282.754L447.88,285.145Z" style="fill:rgb(224,58,0);fill-opacity:0.83;"/>
            </g>
            <g transform="matrix(0.781679,0,0,0.781679,127.626,96.7523)">
                <path d="M395.47,215.838C389.16,338.015 287.964,435.278 164.229,435.278C36.432,435.278 -67.324,331.522 -67.324,203.725C-67.324,75.928 36.432,-27.828 164.229,-27.828C287.958,-27.828 389.152,69.427 395.469,191.596L394.191,191.663C387.909,70.169 287.275,-26.548 164.229,-26.548C37.138,-26.548 -66.044,76.634 -66.044,203.725C-66.044,330.816 37.138,433.998 164.229,433.998C287.28,433.998 387.918,337.273 394.192,215.771L395.47,215.838Z" style="fill:url(#_Linear5);"/>
            </g>
            <g transform="matrix(1.09323,0,0,1.09323,65.8503,41.8079)">
                <path d="M390.889,207.292C384.969,321.92 290.024,413.174 173.935,413.174C54.033,413.174 -43.312,315.829 -43.312,195.927C-43.312,76.025 54.033,-21.32 173.935,-21.32C290.02,-21.32 384.962,69.926 390.888,184.548L389.975,184.596C384.073,70.457 289.531,-20.406 173.935,-20.406C54.537,-20.406 -42.398,76.53 -42.398,195.927C-42.398,315.324 54.537,412.259 173.935,412.259C289.536,412.259 384.08,321.39 389.975,207.245L390.889,207.292Z" style="fill:url(#_Linear6);"/>
            </g>
        </g>
    </g>
    <defs>
        <linearGradient id="_Linear1" x1="0" y1="0" x2="1" y2="0" gradientUnits="userSpaceOnUse" gradientTransform="matrix(-0.331935,-124.529,126.35,-0.327152,283.54,262.11)"><stop offset="0" style="stop-color:rgb(199,141,20);stop-opacity:1"/><stop offset="0.5" style="stop-color:rgb(219,158,29);stop-opacity:1"/><stop offset="1" style="stop-color:rgb(255,207,105);stop-opacity:1"/></linearGradient>
        <linearGradient id="_Linear2" x1="0" y1="0" x2="1" y2="0" gradientUnits="userSpaceOnUse" gradientTransform="matrix(-2.91073,360.726,-360.726,-2.91073,218.095,95.6385)"><stop offset="0" style="stop-color:rgb(156,112,20);stop-opacity:1"/><stop offset="0.5" style="stop-color:rgb(239,176,43);stop-opacity:1"/><stop offset="1" style="stop-color:rgb(255,218,141);stop-opacity:1"/></linearGradient>
        <linearGradient id="_Linear3" x1="0" y1="0" x2="1" y2="0" gradientUnits="userSpaceOnUse" gradientTransform="matrix(-1.76586,254.601,-300.504,-1.49612,124.285,71.386)"><stop offset="0" style="stop-color:rgb(207,97,27);stop-opacity:1"/><stop offset="0.47" style="stop-color:rgb(237,119,43);stop-opacity:1"/><stop offset="1" style="stop-color:rgb(224,183,142);stop-opacity:1"/></linearGradient>
        <linearGradient id="_Linear4" x1="0" y1="0" x2="1" y2="0" gradientUnits="userSpaceOnUse" gradientTransform="matrix(0.644735,392.872,-392.872,0.644735,242.812,53.3552)"><stop offset="0" style="stop-color:rgb(255,168,112);stop-opacity:1"/><stop offset="0.5" style="stop-color:rgb(237,119,43);stop-opacity:1"/><stop offset="1" style="stop-color:rgb(186,84,18);stop-opacity:1"/></linearGradient>
        <linearGradient id="_Linear5" x1="0" y1="0" x2="1" y2="0" gradientUnits="userSpaceOnUse" gradientTransform="matrix(-3.60135,467.879,-467.879,-3.60135,166.323,-30.6956)"><stop offset="0" style="stop-color:rgb(145,47,12);stop-opacity:1"/><stop offset="0.47" style="stop-color:rgb(229,91,43);stop-opacity:1"/><stop offset="1" style="stop-color:rgb(241,158,130);stop-opacity:1"/></linearGradient>
        <linearGradient id="_Linear6" x1="0" y1="0" x2="1" y2="0" gradientUnits="userSpaceOnUse" gradientTransform="matrix(-2.65127,437.99,-437.99,-2.65127,176.744,-23.1344)"><stop offset="0" style="stop-color:rgb(212,148,125);stop-opacity:1"/><stop offset="0.51" style="stop-color:rgb(196,97,63);stop-opacity:1"/><stop offset="1" style="stop-color:rgb(160,60,25);stop-opacity:1"/></linearGradient>
    </defs>
</svg>
