<?xml version="1.0" encoding="UTF-8" standalone="no"?>
<!DOCTYPE svg PUBLIC "-//W3C//DTD SVG 1.1//EN" "http://www.w3.org/Graphics/SVG/1.1/DTD/svg11.dtd">
<svg width="100%" height="100%" viewBox="0 0 310 310" version="1.1" xmlns="http://www.w3.org/2000/svg" xmlns:xlink="http://www.w3.org/1999/xlink" xml:space="preserve" xmlns:serif="http://www.serif.com/" style="fill-rule:evenodd;clip-rule:evenodd;stroke-linejoin:round;stroke-miterlimit:2;">
    <g id="Hands-Pin" serif:id="Hands Pin" transform="matrix(1,0,0,1,16,0)">
        <circle cx="139" cy="155" r="3"/>
        <path d="M139,152C140.656,152 142,153.344 142,155C142,156.656 140.656,158 139,158C137.344,158 136,156.656 136,155C136,153.344 137.344,152 139,152ZM139,152.733C137.749,152.733 136.733,153.749 136.733,155C136.733,156.251 137.749,157.267 139,157.267C140.251,157.267 141.267,156.251 141.267,155C141.267,153.749 140.251,152.733 139,152.733Z" style="fill:rgb(68,4,4);"/>
    </g>
</svg>
