<?xml version="1.0" encoding="UTF-8" standalone="no"?>
<!DOCTYPE svg PUBLIC "-//W3C//DTD SVG 1.1//EN" "http://www.w3.org/Graphics/SVG/1.1/DTD/svg11.dtd">
<svg width="100%" height="100%" viewBox="0 0 310 310" version="1.1" xmlns="http://www.w3.org/2000/svg" xmlns:xlink="http://www.w3.org/1999/xlink" xml:space="preserve" xmlns:serif="http://www.serif.com/" style="fill-rule:evenodd;clip-rule:evenodd;stroke-linejoin:round;stroke-miterlimit:2;">
    <g id="Hands-Pin" serif:id="Hands Pin" transform="matrix(1,0,0,1,16,0)">
        <circle cx="139" cy="155" r="3" style="fill:rgb(144,44,0);"/>
        <path d="M139,152C140.656,152 142,153.344 142,155C142,156.656 140.656,158 139,158C137.344,158 136,156.656 136,155C136,153.344 137.344,152 139,152ZM139,153.067C137.933,153.067 137.067,153.933 137.067,155C137.067,156.067 137.933,156.933 139,156.933C140.067,156.933 140.933,156.067 140.933,155C140.933,153.933 140.067,153.067 139,153.067Z" style="fill:rgb(47,14,0);"/>
    </g>
</svg>
