<?xml version="1.0" encoding="UTF-8" standalone="no"?>
<!DOCTYPE svg PUBLIC "-//W3C//DTD SVG 1.1//EN" "http://www.w3.org/Graphics/SVG/1.1/DTD/svg11.dtd">
<svg width="100%" height="100%" viewBox="0 0 310 310" version="1.1" xmlns="http://www.w3.org/2000/svg" xmlns:xlink="http://www.w3.org/1999/xlink" xml:space="preserve" xmlns:serif="http://www.serif.com/" style="fill-rule:evenodd;clip-rule:evenodd;stroke-linejoin:round;stroke-miterlimit:2;">
    <g id="Hour-Hand-New" serif:id="Hour Hand New">
        <g transform="matrix(1,0,0,1,-0.429577,0)">
            <path d="M164.254,147.028C165.271,148.212 167.43,150.571 167.43,155C167.43,161.623 162.053,167 155.43,167C148.807,167 143.43,161.623 143.43,155C143.43,153.179 144.178,150.3 145.32,148.611C146.379,147.376 148.61,144.67 148.656,142.936C148.581,140.769 147.727,127.602 146.759,110.324C145.907,95.143 145.067,79.811 144.794,75.448C144.742,74.628 144.712,74.182 145.15,73.487C146.797,70.879 154.496,60.601 155.427,60.569C156.442,60.584 163.137,70.604 164.828,73.068C165.204,73.617 165.578,75.148 165.551,75.813C165.093,86.869 161.874,139.379 161.98,143.077C162.192,144.639 163.065,146.18 164.254,147.028ZM150.47,138.81C150.413,140.074 151.256,140.838 151.85,140.975C153.479,141.134 157.304,141.152 158.859,141.002C159.472,140.894 159.741,139.863 159.816,139.245C160.177,136.253 160.724,124.318 160.588,121.376C160.558,120.719 160.119,119.938 159.467,119.856C157.922,119.662 152.708,119.679 151.262,120.072C150.389,120.31 149.902,121.013 149.904,121.919C149.91,122.841 150.148,136.039 150.47,138.81Z" style="fill:rgb(47,55,89);"/>
        </g>
        <path d="M149.434,114.984C148.808,108.098 147.225,83.797 146.88,76.895C146.843,76.15 146.81,74.711 147.182,74.065C148.401,71.951 154.393,63.989 155,63.975C155.458,63.984 160.856,71.941 162.076,73.807C162.461,74.396 162.738,75.175 162.722,75.878C162.559,82.914 161.004,108.049 160.476,115.079C160.42,115.824 160.064,116.916 159.329,117.047C157.207,117.23 152.749,117.188 150.926,116.952C150.076,116.77 149.513,115.851 149.434,114.984Z" style="fill:rgb(0,27,54);"/>
    </g>
</svg>
