<?xml version="1.0" encoding="UTF-8" standalone="no"?>
<!DOCTYPE svg PUBLIC "-//W3C//DTD SVG 1.1//EN" "http://www.w3.org/Graphics/SVG/1.1/DTD/svg11.dtd">
<svg width="100%" height="100%" viewBox="0 0 310 310" version="1.1" xmlns="http://www.w3.org/2000/svg" xmlns:xlink="http://www.w3.org/1999/xlink" xml:space="preserve" xmlns:serif="http://www.serif.com/" style="fill-rule:evenodd;clip-rule:evenodd;stroke-linejoin:round;stroke-miterlimit:2;">
    <g id="Hour-Hand-New" serif:id="Hour Hand New">
        <g id="Minute-Hand-Bottom-Shadow" serif:id="Minute Hand Bottom Shadow" transform="matrix(1,0,0,1,-0.429577,0)">
            <path d="M165.771,145.725C166.952,147.101 169.43,149.854 169.43,155C169.43,162.727 163.156,169 155.43,169C147.703,169 141.43,162.727 141.43,155C141.43,152.859 142.32,149.477 143.663,147.491C143.706,147.427 143.753,147.367 143.802,147.309C144.384,146.631 145.356,145.472 146.047,144.308C146.339,143.814 146.62,143.347 146.654,142.924C146.562,140.53 145.718,127.487 144.762,110.436C143.911,95.26 143.071,79.935 142.797,75.573C142.714,74.247 142.75,73.543 143.459,72.42C144.808,70.283 150.124,63.12 152.684,60.324C153.386,59.557 153.971,59.066 154.297,58.881L154.784,58.668L155.358,58.57L155.456,58.569L156.014,58.65L156.528,58.859C156.875,59.047 157.465,59.542 158.147,60.332C160.47,63.025 165.103,69.935 166.477,71.937C167.021,72.729 167.589,74.935 167.549,75.895C167.097,86.828 163.932,138.372 163.977,142.913C164.138,143.896 164.667,144.866 165.416,145.4C165.547,145.494 165.666,145.603 165.771,145.725ZM151.904,121.973C151.918,123.323 152.145,135.898 152.456,138.58C152.469,138.686 152.472,138.793 152.468,138.9C152.466,138.939 152.474,138.983 152.484,139.021C153.892,139.117 156.276,139.136 157.82,139.067L157.83,139.005C158.173,136.166 158.688,125.126 158.601,121.786C156.819,121.67 153.182,121.686 151.904,121.973Z" style="fill-opacity:0.16;"/>
        </g>
        <g id="Minute-Hand-Top-Shadow" serif:id="Minute Hand Top Shadow" transform="matrix(1,0,0,1,-0.429577,0)">
            <path d="M165.013,146.377C166.111,147.656 168.43,150.212 168.43,155C168.43,162.175 162.604,168 155.43,168C148.255,168 142.43,162.175 142.43,155C142.43,153.019 143.249,149.889 144.492,148.051C144.513,148.019 144.536,147.989 144.561,147.96C145.17,147.25 146.185,146.036 146.907,144.817C147.304,144.147 147.631,143.489 147.655,142.925C147.57,140.628 146.722,127.531 145.76,110.38C144.909,95.201 144.069,79.873 143.795,75.51C143.728,74.437 143.731,73.862 144.305,72.953C145.638,70.842 150.891,63.763 153.421,60.999C154.023,60.342 154.511,59.909 154.791,59.751L155.081,59.623L155.393,59.569L155.442,59.569L155.864,59.652L156.239,59.855C156.514,60.046 156.915,60.435 157.389,60.985C159.695,63.657 164.289,70.516 165.653,72.503C166.113,73.173 166.584,75.041 166.55,75.854C166.095,86.848 162.903,138.873 162.979,143C163.167,144.27 163.867,145.524 164.835,146.214C164.9,146.261 164.96,146.316 165.013,146.377ZM158.56,140.025C158.596,139.957 158.652,139.85 158.678,139.773C158.755,139.55 158.8,139.312 158.823,139.125C159.181,136.161 159.724,124.337 159.589,121.423C159.582,121.267 159.525,121.098 159.433,120.962C159.404,120.918 159.391,120.855 159.342,120.848C157.87,120.664 152.903,120.662 151.525,121.037C151.115,121.149 150.903,121.491 150.904,121.915C150.91,122.855 151.144,135.945 151.463,138.695C151.469,138.748 151.471,138.802 151.469,138.855C151.441,139.459 151.741,139.884 152.032,139.988C153.59,140.129 156.97,140.148 158.56,140.025Z" style="fill-opacity:0.31;"/>
        </g>
        <g transform="matrix(1,0,0,1,-0.429577,0)">
            <path d="M164.254,147.028C165.271,148.212 167.43,150.571 167.43,155C167.43,161.623 162.053,167 155.43,167C148.807,167 143.43,161.623 143.43,155C143.43,153.179 144.178,150.3 145.32,148.611C146.379,147.376 148.61,144.67 148.656,142.936C148.581,140.769 147.727,127.602 146.759,110.324C145.907,95.143 145.067,79.811 144.794,75.448C144.742,74.628 144.712,74.182 145.15,73.487C146.797,70.879 154.496,60.601 155.427,60.569C156.442,60.584 163.137,70.604 164.828,73.068C165.204,73.617 165.578,75.148 165.551,75.813C165.093,86.869 161.874,139.379 161.98,143.077C162.192,144.639 163.065,146.18 164.254,147.028ZM150.47,138.81C150.413,140.074 151.256,140.838 151.85,140.975C153.479,141.134 157.304,141.152 158.859,141.002C159.472,140.894 159.741,139.863 159.816,139.245C160.177,136.253 160.724,124.318 160.588,121.376C160.558,120.719 160.119,119.938 159.467,119.856C157.922,119.662 152.708,119.679 151.262,120.072C150.389,120.31 149.902,121.013 149.904,121.919C149.91,122.841 150.148,136.039 150.47,138.81Z" style="fill:rgb(0,99,144);"/>
        </g>
        <path d="M149.434,114.984C148.808,108.098 147.225,83.797 146.88,76.895C146.843,76.15 146.81,74.711 147.182,74.065C148.401,71.951 154.393,63.989 155,63.975C155.458,63.984 160.856,71.941 162.076,73.807C162.461,74.396 162.738,75.175 162.722,75.878C162.559,82.914 161.004,108.049 160.476,115.079C160.42,115.824 160.064,116.916 159.329,117.047C157.207,117.23 152.749,117.188 150.926,116.952C150.076,116.77 149.513,115.851 149.434,114.984Z" style="fill:rgb(153,153,153);"/>
    </g>
</svg>
