<?xml version="1.0" encoding="UTF-8" standalone="no"?>
<!DOCTYPE svg PUBLIC "-//W3C//DTD SVG 1.1//EN" "http://www.w3.org/Graphics/SVG/1.1/DTD/svg11.dtd">
<svg width="100%" height="100%" viewBox="0 0 310 310" version="1.1" xmlns="http://www.w3.org/2000/svg" xmlns:xlink="http://www.w3.org/1999/xlink" xml:space="preserve" xmlns:serif="http://www.serif.com/" style="fill-rule:evenodd;clip-rule:evenodd;stroke-linejoin:round;stroke-miterlimit:2;">
    <g id="Minute-Hand" serif:id="Minute Hand" transform="matrix(1,0,0,1,-26,0)">
        <path d="M187.143,144.692C190.65,146.788 193,150.622 193,155C193,161.623 187.623,167 181,167C174.377,167 169,161.623 169,155C169,150.721 171.244,146.962 174.619,144.837C174.619,144.837 175.123,144.352 175.258,143.647C175.38,143.236 175.347,141.376 175.347,141.376C175.347,141.376 171.826,31.829 171.754,30.005C171.754,28.754 171.447,28.094 172.039,27.048C173.443,24.564 178.607,16.782 180.227,14.899C180.58,14.488 181.513,14.486 181.85,14.909C183.306,16.736 188.612,25.108 189.659,27.633C189.807,30.097 186.434,141.28 186.434,141.28C186.434,141.28 186.466,142.935 186.52,143.4C186.621,144.286 187.143,144.692 187.143,144.692ZM183.064,141.946C183.677,141.815 183.886,141.457 184,141C184.102,140.467 185.025,109.744 185,109C185,108.325 184.811,108.069 183.983,108.004C182.592,107.842 179.278,107.877 178,108C177.533,108.067 177,108.529 177,109C177,109.5 177.935,140.571 178,141C178.079,141.312 178.325,141.733 178.711,141.871C179.026,142.051 182.235,142.108 183.064,141.946Z" style="fill:rgb(47,55,89);"/>
        <path d="M183.541,105.739C182.374,106.072 179,106.028 177.91,105.905C176.675,105.554 176.338,104.895 176.312,104.424C176.001,102.33 173.647,29.062 173.999,28.234C173.897,27.327 179.011,20.744 180.048,19.279C180.718,18.476 181.303,18.521 182.053,19.295C183.22,20.795 187.461,27.189 187.38,28.223C187.679,29.577 185.278,103.017 185.038,104.23C184.991,104.974 184.257,105.534 183.541,105.739Z" style="fill:rgb(0,27,54);"/>
    </g>
</svg>
