<?xml version="1.0" encoding="UTF-8" standalone="no"?>
<!DOCTYPE svg PUBLIC "-//W3C//DTD SVG 1.1//EN" "http://www.w3.org/Graphics/SVG/1.1/DTD/svg11.dtd">
<svg width="100%" height="100%" viewBox="0 0 310 310" version="1.1" xmlns="http://www.w3.org/2000/svg" xmlns:xlink="http://www.w3.org/1999/xlink" xml:space="preserve" xmlns:serif="http://www.serif.com/" style="fill-rule:evenodd;clip-rule:evenodd;stroke-linejoin:round;stroke-miterlimit:2;">
    <g id="Minute-Hand" serif:id="Minute Hand" transform="matrix(1,0,0,1,-26,0)">
        <path id="Minute-Hand-Bottom-Shadow" serif:id="Minute Hand Bottom Shadow" d="M173.275,143.325C173.284,143.307 173.291,143.289 173.294,143.27L173.31,143.198L173.347,141.416C173.287,139.533 169.827,31.892 169.756,30.084L169.754,30.006C169.754,28.33 169.506,27.465 170.298,26.064C171.74,23.514 177.047,15.528 178.711,13.595L179.182,13.164L179.666,12.883L180.37,12.657L181.051,12.592L181.737,12.663L182.451,12.903L182.943,13.203L183.414,13.663C184.925,15.557 190.421,24.248 191.507,26.867C191.592,27.073 191.642,27.291 191.655,27.513C191.802,29.952 188.513,138.675 188.434,141.3C188.44,141.584 188.464,142.799 188.507,143.173L188.508,143.184C192.41,145.67 195,150.035 195,155C195,162.727 188.727,169 181,169C173.273,169 167,162.727 167,155C167,150.127 169.494,145.832 173.275,143.325ZM188.769,145.857C188.904,145.67 189.007,145.456 189.071,145.224C189.271,144.502 189.048,143.744 188.523,143.244L188.529,143.262C188.529,143.262 188.421,143.153 188.412,143.146L187.726,145.063C188.088,145.309 188.437,145.574 188.769,145.857ZM179.024,109.936C179.155,114.67 179.785,135.806 179.944,139.986C180.557,140.011 181.448,140.039 182.071,140.026C182.246,136.126 182.883,114.564 182.987,109.931C181.829,109.871 180.17,109.883 179.024,109.936Z" style="fill-opacity:0.17;"/>
        <path id="Minute-Hand-Top-Shadow" serif:id="Minute Hand Top Shadow" d="M174.347,141.408C174.347,141.408 170.826,31.868 170.755,30.045L170.754,30.005C170.754,29.382 170.677,28.906 170.675,28.456C170.671,27.843 170.768,27.265 171.168,26.556C172.592,24.039 177.827,16.155 179.469,14.247C179.814,13.845 180.422,13.589 181.048,13.592C181.686,13.594 182.295,13.864 182.632,14.286C184.115,16.146 189.517,24.678 190.583,27.25C190.625,27.353 190.651,27.462 190.657,27.573C190.804,30.018 187.491,139.391 187.434,141.287C187.438,141.497 187.466,142.876 187.513,143.286C187.549,143.602 187.677,143.803 187.754,143.893C191.499,146.175 194,150.298 194,155C194,162.175 188.175,168 181,168C173.825,168 168,162.175 168,155C168,150.411 170.383,146.374 173.979,144.059C174.062,143.96 174.222,143.741 174.276,143.458C174.282,143.426 174.29,143.395 174.299,143.363C174.404,143.011 174.348,141.423 174.347,141.408ZM187.98,145.24C188.036,145.155 188.079,145.06 188.107,144.958C188.213,144.575 188.081,144.171 187.783,143.923L187.439,144.874C187.623,144.992 187.803,145.114 187.98,145.24ZM178.002,109.089C178.044,110.943 178.891,139.267 178.985,140.793C179.011,140.847 179.06,140.917 179.074,140.938C179.219,140.945 182.177,141.092 182.862,140.967L182.869,140.965C182.967,140.939 182.999,140.871 183.021,140.791C183.135,139.729 184.025,109.766 184.001,109.034L184,109.012C183.968,109.008 183.935,109.004 183.906,109.001L183.867,108.998C182.539,108.843 179.39,108.876 178.128,108.993C178.085,109.008 178.031,109.058 178.002,109.089Z" style="fill-opacity:0.22;"/>
        <path d="M187.143,144.692C190.65,146.788 193,150.622 193,155C193,161.623 187.623,167 181,167C174.377,167 169,161.623 169,155C169,150.721 171.244,146.962 174.619,144.837C174.619,144.837 175.123,144.352 175.258,143.647C175.38,143.236 175.347,141.376 175.347,141.376C175.347,141.376 171.826,31.829 171.754,30.005C171.754,28.754 171.447,28.094 172.039,27.048C173.443,24.564 178.607,16.782 180.227,14.899C180.58,14.488 181.513,14.486 181.85,14.909C183.306,16.736 188.612,25.108 189.659,27.633C189.807,30.097 186.434,141.28 186.434,141.28C186.434,141.28 186.466,142.935 186.52,143.4C186.621,144.286 187.143,144.692 187.143,144.692ZM183.064,141.946C183.677,141.815 183.886,141.457 184,141C184.102,140.467 185.025,109.744 185,109C185,108.325 184.811,108.069 183.983,108.004C182.592,107.842 179.278,107.877 178,108C177.533,108.067 177,108.529 177,109C177,109.5 177.935,140.571 178,141C178.079,141.312 178.325,141.733 178.711,141.871C179.026,142.051 182.235,142.108 183.064,141.946Z" style="fill:rgb(0,99,144);"/>
        <path d="M183.541,105.739C182.374,106.072 179,106.028 177.91,105.905C176.675,105.554 176.338,104.895 176.312,104.424C176.001,102.33 173.647,29.062 173.999,28.234C173.897,27.327 179.011,20.744 180.048,19.279C180.718,18.476 181.303,18.521 182.053,19.295C183.22,20.795 187.461,27.189 187.38,28.223C187.679,29.577 185.278,103.017 185.038,104.23C184.991,104.974 184.257,105.534 183.541,105.739Z" style="fill:rgb(153,153,153);"/>
    </g>
</svg>
