<?xml version="1.0" encoding="UTF-8" standalone="no"?>
<!DOCTYPE svg PUBLIC "-//W3C//DTD SVG 1.1//EN" "http://www.w3.org/Graphics/SVG/1.1/DTD/svg11.dtd">
<svg width="100%" height="100%" viewBox="0 0 310 310" version="1.1" xmlns="http://www.w3.org/2000/svg" xmlns:xlink="http://www.w3.org/1999/xlink" xml:space="preserve" xmlns:serif="http://www.serif.com/" style="fill-rule:evenodd;clip-rule:evenodd;stroke-linejoin:round;stroke-miterlimit:2;">
    <g id="Second-Hand" serif:id="Second Hand">
        <g id="Second-Hand-Shadow-Bottom" serif:id="Second Hand Shadow Bottom" transform="matrix(1,0,0,1,-96.555989,-95.892449)">
            <path d="M247.504,257.219C245.423,255.883 244.043,253.548 244.043,250.892C244.043,248.184 245.479,245.808 247.631,244.486L249.04,102.882C249.048,102.062 249.713,101.401 250.533,101.397L252.545,101.387C253.37,101.383 254.044,102.046 254.052,102.872L255.487,244.49C257.636,245.812 259.069,248.186 259.069,250.892C259.069,253.544 257.693,255.877 255.616,257.213L256.069,301.878C256.07,301.939 256.066,302.001 256.059,302.062C256.059,302.062 255.95,303.339 254.807,304.347C254.162,304.916 253.158,305.444 251.545,305.445C249.903,305.446 248.901,304.905 248.265,304.328C247.131,303.298 247.064,301.992 247.064,301.992C247.061,301.948 247.06,301.905 247.06,301.861L247.504,257.219Z" style="fill-opacity:0.17;"/>
        </g>
        <g id="Second-Hand-Shadow-Top" serif:id="Second Hand Shadow Top" transform="matrix(1,0,0,1,-96.555989,-95.892449)">
            <path d="M248.51,256.65C246.448,255.557 245.043,253.388 245.043,250.892C245.043,248.352 246.5,246.148 248.625,245.075L250.04,102.892C250.043,102.619 250.264,102.398 250.538,102.397L252.55,102.387C252.825,102.386 253.049,102.607 253.052,102.882L254.492,245.078C256.614,246.152 258.069,248.354 258.069,250.892C258.069,253.383 256.667,255.55 254.61,256.645L255.069,301.888C255.069,301.908 255.068,301.929 255.066,301.949C255.066,301.949 254.973,302.867 254.146,303.597C253.633,304.049 252.826,304.444 251.544,304.445C250.244,304.446 249.441,304.045 248.937,303.588C248.122,302.847 248.061,301.915 248.061,301.915L248.06,301.871L248.51,256.65Z" style="fill-opacity:0.32;"/>
        </g>
        <g id="Second-Hand-Top" serif:id="Second Hand Top" transform="matrix(1,0,0,1,-96.555989,-95.892449)">
            <path d="M249.513,256.347C249.515,256.151 249.402,255.972 249.225,255.889C247.346,255.011 246.043,253.103 246.043,250.892C246.043,248.644 247.392,246.707 249.325,245.85C249.504,245.771 249.62,245.594 249.622,245.398L251.035,103.395L252.057,103.389L253.496,245.401C253.498,245.597 253.614,245.773 253.793,245.853C255.723,246.711 257.069,248.646 257.069,250.892C257.069,253.099 255.77,255.005 253.895,255.885C253.717,255.969 253.605,256.147 253.607,256.343L254.069,301.858C254.048,301.97 253.935,302.449 253.484,302.847C253.104,303.182 252.495,303.444 251.544,303.445C250.585,303.446 249.981,303.185 249.61,302.847C249.168,302.446 249.076,301.961 249.061,301.857L249.513,256.347Z" style="fill:rgb(144,44,0);"/>
        </g>
    </g>
    <g id="Hands-Pin" serif:id="Hands Pin" transform="matrix(1,0,0,1,16,0)">
        <circle cx="139" cy="155" r="3" style="fill:rgb(144,44,0);"/>
        <path d="M139,152C140.656,152 142,153.344 142,155C142,156.656 140.656,158 139,158C137.344,158 136,156.656 136,155C136,153.344 137.344,152 139,152ZM139,153.067C137.933,153.067 137.067,153.933 137.067,155C137.067,156.067 137.933,156.933 139,156.933C140.067,156.933 140.933,156.067 140.933,155C140.933,153.933 140.067,153.067 139,153.067Z" style="fill:rgb(47,14,0);"/>
    </g>
</svg>
