<?xml version="1.0" encoding="UTF-8" standalone="no"?>
<!DOCTYPE svg PUBLIC "-//W3C//DTD SVG 1.1//EN" "http://www.w3.org/Graphics/SVG/1.1/DTD/svg11.dtd">
<svg width="100%" height="100%" viewBox="0 0 310 310" version="1.1" xmlns="http://www.w3.org/2000/svg" xmlns:xlink="http://www.w3.org/1999/xlink" xml:space="preserve" xmlns:serif="http://www.serif.com/" style="fill-rule:evenodd;clip-rule:evenodd;stroke-linejoin:round;stroke-miterlimit:2;">
    <g id="Second-Hand" serif:id="Second Hand">
        <g id="Second-Hand-Shadow-Bottom" serif:id="Second Hand Shadow Bottom" transform="matrix(1,0,0,1,-96.555989,-95.892449)">
            <path d="M245.892,303.31C245.734,303.001 245.62,302.632 245.576,302.19L245.892,303.31ZM245.892,303.31C246.676,304.836 248.56,304.876 248.56,304.876L245.56,301.846L245.997,257.986C243.894,256.336 242.543,253.771 242.543,250.892C242.543,247.95 243.955,245.335 246.139,243.69L247.54,102.867C247.556,101.228 248.886,99.905 250.525,99.897L252.537,99.887C254.188,99.879 255.535,101.206 255.552,102.857L256.979,243.694C259.159,245.339 260.569,247.953 260.569,250.892C260.569,253.766 259.221,256.328 257.124,257.979L257.569,301.863C257.57,301.989 257.563,302.115 257.549,302.239L257.539,302.314L257.238,303.263C257.099,303.533 256.919,303.784 256.701,304.004C256.498,304.209 256.268,304.382 256.019,304.519C256.452,304.301 256.891,303.955 257.192,303.408L257.057,303.833L256.56,304.644L255.799,305.472C254.955,306.216 253.655,306.943 251.546,306.945C249.392,306.947 248.091,306.196 247.256,305.438L246.498,304.581L246.014,303.744L245.892,303.31ZM257.539,302.314C257.481,302.747 257.357,303.108 257.192,303.408L257.238,303.263C257.39,302.967 257.492,302.646 257.539,302.314Z" style="fill-opacity:0.17;"/>
        </g>
        <g id="Second-Hand-Shadow-Top" serif:id="Second Hand Shadow Top" transform="matrix(1,0,0,1,-96.555989,-95.892449)">
            <path d="M247.002,257.485C244.912,256.039 243.543,253.624 243.543,250.892C243.543,248.104 244.97,245.645 247.134,244.211L248.54,102.877C248.551,101.784 249.437,100.902 250.53,100.897L252.542,100.887C253.643,100.882 254.541,101.766 254.552,102.867L255.984,244.214C258.145,245.65 259.569,248.106 259.569,250.892C259.569,253.62 258.203,256.032 256.119,257.479L256.569,301.873C256.57,301.955 256.565,302.037 256.556,302.119C256.556,302.119 256.438,303.576 255.138,304.722C254.426,305.349 253.324,305.944 251.545,305.945C249.733,305.946 248.631,305.336 247.929,304.698C246.635,303.523 246.566,302.03 246.566,302.03C246.561,301.972 246.56,301.914 246.56,301.856L247.002,257.485Z" style="fill-opacity:0.32;"/>
        </g>
        <g id="Second-Hand1" serif:id="Second Hand" transform="matrix(1,0,0,1,-96.555989,-95.892449)">
            <path d="M248.007,256.941C245.935,255.723 244.543,253.469 244.543,250.892C244.543,248.267 245.989,245.975 248.128,244.774L249.54,102.887C249.545,102.341 249.989,101.9 250.535,101.897L252.547,101.887C253.097,101.884 253.546,102.327 253.552,102.877L254.99,244.777C257.126,245.979 258.569,248.269 258.569,250.892C258.569,253.465 257.181,255.716 255.113,256.936L255.569,301.883C255.569,301.924 255.567,301.965 255.563,302.006C255.563,302.006 255.462,303.103 254.476,303.972C253.897,304.482 252.992,304.944 251.545,304.945C250.074,304.946 249.171,304.475 248.601,303.958C247.627,303.072 247.563,301.953 247.563,301.953C247.561,301.924 247.56,301.895 247.56,301.866L248.007,256.941Z" style="fill:rgb(47,14,0);"/>
        </g>
        <g id="Second-Hand-Top" serif:id="Second Hand Top" transform="matrix(1,0,0,1,-96.555989,-95.892449)">
            <path d="M249.013,256.342C246.964,255.384 245.543,253.303 245.543,250.892C245.543,248.44 247.014,246.328 249.122,245.393L250.54,102.897L252.552,102.887L253.996,245.396C256.101,246.332 257.569,248.442 257.569,250.892C257.569,253.299 256.152,255.378 254.107,256.338L254.569,301.893C254.569,301.893 254.336,303.943 251.544,303.945C248.72,303.947 248.56,301.876 248.56,301.876L249.013,256.342Z" style="fill:rgb(144,44,0);"/>
        </g>
    </g>
    <g id="Hands-Pin" serif:id="Hands Pin" transform="matrix(1,0,0,1,16,0)">
        <circle cx="139" cy="155" r="3" style="fill:rgb(144,44,0);"/>
        <path d="M139,152C140.656,152 142,153.344 142,155C142,156.656 140.656,158 139,158C137.344,158 136,156.656 136,155C136,153.344 137.344,152 139,152ZM139,153.067C137.933,153.067 137.067,153.933 137.067,155C137.067,156.067 137.933,156.933 139,156.933C140.067,156.933 140.933,156.067 140.933,155C140.933,153.933 140.067,153.067 139,153.067Z" style="fill:rgb(47,14,0);"/>
    </g>
</svg>
