<?xml version="1.0" encoding="UTF-8" standalone="no"?>
<!DOCTYPE svg PUBLIC "-//W3C//DTD SVG 1.1//EN" "http://www.w3.org/Graphics/SVG/1.1/DTD/svg11.dtd">
<svg width="100%" height="100%" viewBox="0 0 310 310" version="1.1" xmlns="http://www.w3.org/2000/svg" xmlns:xlink="http://www.w3.org/1999/xlink" xml:space="preserve" xmlns:serif="http://www.serif.com/" style="fill-rule:evenodd;clip-rule:evenodd;stroke-linejoin:round;stroke-miterlimit:2;">
    <g id="Second-Hand" serif:id="Second Hand" transform="matrix(1,0,0,1,-96.555989,-95.892449)">
        <path d="M249.013,256.342C246.964,255.384 245.543,253.303 245.543,250.892C245.543,248.44 247.014,246.328 249.122,245.393L250.54,102.897L252.552,102.887L253.996,245.396C256.101,246.332 257.569,248.442 257.569,250.892C257.569,253.299 256.152,255.378 254.107,256.338L254.569,301.893C254.569,301.893 254.336,303.943 251.544,303.945C248.72,303.947 248.56,301.876 248.56,301.876L249.013,256.342Z" style="fill:rgb(124,6,0);"/>
        <path d="M249.013,256.342C246.964,255.384 245.543,253.303 245.543,250.892C245.543,248.44 247.014,246.328 249.122,245.393L250.54,102.897L252.552,102.887L253.996,245.396C256.101,246.332 257.569,248.442 257.569,250.892C257.569,253.299 256.152,255.378 254.107,256.338L254.569,301.893C254.569,301.893 254.336,303.943 251.544,303.945C248.72,303.947 248.56,301.876 248.56,301.876L249.013,256.342ZM249.613,256.348L249.161,301.85C249.176,301.951 249.267,302.401 249.677,302.773C250.035,303.099 250.619,303.346 251.544,303.345C252.462,303.344 253.051,303.096 253.418,302.772C253.834,302.405 253.946,301.964 253.969,301.85L253.507,256.344C253.505,256.109 253.639,255.895 253.852,255.795C255.693,254.931 256.969,253.059 256.969,250.892C256.969,248.686 255.647,246.787 253.752,245.944C253.538,245.849 253.398,245.637 253.396,245.402L251.958,103.49L251.134,103.494L249.722,245.399C249.72,245.634 249.58,245.846 249.365,245.941C247.467,246.783 246.143,248.685 246.143,250.892C246.143,253.063 247.422,254.936 249.267,255.798C249.48,255.898 249.615,256.113 249.613,256.348Z" style="fill:rgb(53,0,0);"/>
    </g>
</svg>
