<?xml version="1.0" encoding="UTF-8" standalone="no"?>
<!DOCTYPE svg PUBLIC "-//W3C//DTD SVG 1.1//EN" "http://www.w3.org/Graphics/SVG/1.1/DTD/svg11.dtd">
<svg width="100%" height="100%" viewBox="0 0 310 310" version="1.1" xmlns="http://www.w3.org/2000/svg" xmlns:xlink="http://www.w3.org/1999/xlink" xml:space="preserve" xmlns:serif="http://www.serif.com/" style="fill-rule:evenodd;clip-rule:evenodd;stroke-linejoin:round;stroke-miterlimit:2;">
    <g id="Watch-Face" serif:id="Watch Face" transform="matrix(1,0,0,1,-95,-95)">
        <g transform="matrix(1.36815,0,0,1.36815,-76.3386,-127.206)">
            <circle cx="238.525" cy="275.705" r="111.83"/>
        </g>
        <g id="Numbers-Ring" serif:id="Numbers Ring" transform="matrix(3.68301,0,0,3.68301,-648.926,-333.389)">
            <path d="M244.074,130.162C259.659,130.162 272.312,142.815 272.312,158.4C272.312,173.985 259.659,186.638 244.074,186.638C228.489,186.638 215.836,173.985 215.836,158.4C215.836,142.815 228.489,130.162 244.074,130.162ZM244.074,130.57C228.714,130.57 216.244,143.04 216.244,158.4C216.244,173.76 228.714,186.231 244.074,186.231C259.434,186.231 271.905,173.76 271.905,158.4C271.905,143.04 259.434,130.57 244.074,130.57Z" style="fill:rgb(226,228,227);"/>
        </g>
        <g id="Tick-Groups" serif:id="Tick Groups">
            <g id="Ticks-Q2" serif:id="Ticks Q2" transform="matrix(6.12323e-17,1,-1,6.12323e-17,500,0.0026055)">
                <g id="Ticks-C" serif:id="Ticks C" transform="matrix(0.5,0.866025,-0.866025,0.5,341.506,-91.506)">
                    <g id="Tick-24" serif:id="Tick 24" transform="matrix(0.0563062,0.0250691,-0.031339,0.0703885,302.729,93.9667)">
                        <rect x="240.031" y="175.244" width="16.225" height="123.297" style="fill:white;"/>
                        <rect x="240.031" y="175.244" width="16.225" height="123.297" style="fill:white;"/>
                    </g>
                    <g id="Tick-18" serif:id="Tick 18" transform="matrix(0.0586181,0.0190462,-0.0238097,0.0732787,286.13,89.3099)">
                        <rect x="240.031" y="175.244" width="16.225" height="123.297" style="fill:white;"/>
                        <rect x="240.031" y="175.244" width="16.225" height="123.297" style="fill:white;"/>
                    </g>
                    <g id="Tick-12" serif:id="Tick 12" transform="matrix(0.0602879,0.0128146,-0.0160196,0.0753661,269.135,86.4136)">
                        <rect x="240.031" y="175.244" width="16.225" height="123.297" style="fill:white;"/>
                        <rect x="240.031" y="175.244" width="16.225" height="123.297" style="fill:white;"/>
                    </g>
                    <g id="Tick-6" serif:id="Tick 6" transform="matrix(0.0612971,0.00644259,-0.0080539,0.0766277,251.931,85.3096)">
                        <rect x="240.031" y="175.244" width="16.225" height="123.297" style="fill:white;"/>
                        <rect x="240.031" y="175.244" width="16.225" height="123.297" style="fill:white;"/>
                    </g>
                </g>
                <g id="Ticks-B" serif:id="Ticks B" transform="matrix(0.866025,0.5,-0.5,0.866025,158.494,-91.5061)">
                    <g id="Tick-241" serif:id="Tick 24" transform="matrix(0.0563062,0.0250691,-0.031339,0.0703885,302.729,93.9667)">
                        <rect x="240.031" y="175.244" width="16.225" height="123.297" style="fill:white;"/>
                        <rect x="240.031" y="175.244" width="16.225" height="123.297" style="fill:white;"/>
                    </g>
                    <g id="Tick-181" serif:id="Tick 18" transform="matrix(0.0586181,0.0190462,-0.0238097,0.0732787,286.13,89.3099)">
                        <rect x="240.031" y="175.244" width="16.225" height="123.297" style="fill:white;"/>
                        <rect x="240.031" y="175.244" width="16.225" height="123.297" style="fill:white;"/>
                    </g>
                    <g id="Tick-121" serif:id="Tick 12" transform="matrix(0.0602879,0.0128146,-0.0160196,0.0753661,269.135,86.4136)">
                        <rect x="240.031" y="175.244" width="16.225" height="123.297" style="fill:white;"/>
                        <rect x="240.031" y="175.244" width="16.225" height="123.297" style="fill:white;"/>
                    </g>
                    <g id="Tick-61" serif:id="Tick 6" transform="matrix(0.0612971,0.00644259,-0.0080539,0.0766277,251.931,85.3096)">
                        <rect x="240.031" y="175.244" width="16.225" height="123.297" style="fill:white;"/>
                        <rect x="240.031" y="175.244" width="16.225" height="123.297" style="fill:white;"/>
                    </g>
                </g>
                <g id="Ticks-A" serif:id="Ticks A">
                    <g id="Tick-242" serif:id="Tick 24" transform="matrix(0.0563062,0.0250691,-0.031339,0.0703885,302.729,93.9667)">
                        <rect x="240.031" y="175.244" width="16.225" height="123.297" style="fill:white;"/>
                        <rect x="240.031" y="175.244" width="16.225" height="123.297" style="fill:white;"/>
                    </g>
                    <g id="Tick-182" serif:id="Tick 18" transform="matrix(0.0586181,0.0190462,-0.0238097,0.0732787,286.13,89.3099)">
                        <rect x="240.031" y="175.244" width="16.225" height="123.297" style="fill:white;"/>
                        <rect x="240.031" y="175.244" width="16.225" height="123.297" style="fill:white;"/>
                    </g>
                    <g id="Tick-122" serif:id="Tick 12" transform="matrix(0.0602879,0.0128146,-0.0160196,0.0753661,269.135,86.4136)">
                        <rect x="240.031" y="175.244" width="16.225" height="123.297" style="fill:white;"/>
                        <rect x="240.031" y="175.244" width="16.225" height="123.297" style="fill:white;"/>
                    </g>
                    <g id="Tick-62" serif:id="Tick 6" transform="matrix(0.0612971,0.00644259,-0.0080539,0.0766277,251.931,85.3096)">
                        <rect x="240.031" y="175.244" width="16.225" height="123.297" style="fill:white;"/>
                        <rect x="240.031" y="175.244" width="16.225" height="123.297" style="fill:white;"/>
                    </g>
                </g>
            </g>
            <g id="Ticks-Q4" serif:id="Ticks Q4" transform="matrix(6.12323e-17,-1,1,6.12323e-17,-0.0026055,500)">
                <g id="Ticks-C1" serif:id="Ticks C" transform="matrix(0.5,0.866025,-0.866025,0.5,341.506,-91.506)">
                    <g id="Tick-243" serif:id="Tick 24" transform="matrix(0.0563062,0.0250691,-0.031339,0.0703885,302.729,93.9667)">
                        <rect x="240.031" y="175.244" width="16.225" height="123.297" style="fill:white;"/>
                        <rect x="240.031" y="175.244" width="16.225" height="123.297" style="fill:white;"/>
                    </g>
                    <g id="Tick-183" serif:id="Tick 18" transform="matrix(0.0586181,0.0190462,-0.0238097,0.0732787,286.13,89.3099)">
                        <rect x="240.031" y="175.244" width="16.225" height="123.297" style="fill:white;"/>
                        <rect x="240.031" y="175.244" width="16.225" height="123.297" style="fill:white;"/>
                    </g>
                    <g id="Tick-123" serif:id="Tick 12" transform="matrix(0.0602879,0.0128146,-0.0160196,0.0753661,269.135,86.4136)">
                        <rect x="240.031" y="175.244" width="16.225" height="123.297" style="fill:white;"/>
                        <rect x="240.031" y="175.244" width="16.225" height="123.297" style="fill:white;"/>
                    </g>
                    <g id="Tick-63" serif:id="Tick 6" transform="matrix(0.0612971,0.00644259,-0.0080539,0.0766277,251.931,85.3096)">
                        <rect x="240.031" y="175.244" width="16.225" height="123.297" style="fill:white;"/>
                        <rect x="240.031" y="175.244" width="16.225" height="123.297" style="fill:white;"/>
                    </g>
                </g>
                <g id="Ticks-B1" serif:id="Ticks B" transform="matrix(0.866025,0.5,-0.5,0.866025,158.494,-91.5061)">
                    <g id="Tick-244" serif:id="Tick 24" transform="matrix(0.0563062,0.0250691,-0.031339,0.0703885,302.729,93.9667)">
                        <rect x="240.031" y="175.244" width="16.225" height="123.297" style="fill:white;"/>
                        <rect x="240.031" y="175.244" width="16.225" height="123.297" style="fill:white;"/>
                    </g>
                    <g id="Tick-184" serif:id="Tick 18" transform="matrix(0.0586181,0.0190462,-0.0238097,0.0732787,286.13,89.3099)">
                        <rect x="240.031" y="175.244" width="16.225" height="123.297" style="fill:white;"/>
                        <rect x="240.031" y="175.244" width="16.225" height="123.297" style="fill:white;"/>
                    </g>
                    <g id="Tick-124" serif:id="Tick 12" transform="matrix(0.0602879,0.0128146,-0.0160196,0.0753661,269.135,86.4136)">
                        <rect x="240.031" y="175.244" width="16.225" height="123.297" style="fill:white;"/>
                        <rect x="240.031" y="175.244" width="16.225" height="123.297" style="fill:white;"/>
                    </g>
                    <g id="Tick-64" serif:id="Tick 6" transform="matrix(0.0612971,0.00644259,-0.0080539,0.0766277,251.931,85.3096)">
                        <rect x="240.031" y="175.244" width="16.225" height="123.297" style="fill:white;"/>
                        <rect x="240.031" y="175.244" width="16.225" height="123.297" style="fill:white;"/>
                    </g>
                </g>
                <g id="Ticks-A1" serif:id="Ticks A">
                    <g id="Tick-245" serif:id="Tick 24" transform="matrix(0.0563062,0.0250691,-0.031339,0.0703885,302.729,93.9667)">
                        <rect x="240.031" y="175.244" width="16.225" height="123.297" style="fill:white;"/>
                        <rect x="240.031" y="175.244" width="16.225" height="123.297" style="fill:white;"/>
                    </g>
                    <g id="Tick-185" serif:id="Tick 18" transform="matrix(0.0586181,0.0190462,-0.0238097,0.0732787,286.13,89.3099)">
                        <rect x="240.031" y="175.244" width="16.225" height="123.297" style="fill:white;"/>
                        <rect x="240.031" y="175.244" width="16.225" height="123.297" style="fill:white;"/>
                    </g>
                    <g id="Tick-125" serif:id="Tick 12" transform="matrix(0.0602879,0.0128146,-0.0160196,0.0753661,269.135,86.4136)">
                        <rect x="240.031" y="175.244" width="16.225" height="123.297" style="fill:white;"/>
                        <rect x="240.031" y="175.244" width="16.225" height="123.297" style="fill:white;"/>
                    </g>
                    <g id="Tick-65" serif:id="Tick 6" transform="matrix(0.0612971,0.00644259,-0.0080539,0.0766277,251.931,85.3096)">
                        <rect x="240.031" y="175.244" width="16.225" height="123.297" style="fill:white;"/>
                        <rect x="240.031" y="175.244" width="16.225" height="123.297" style="fill:white;"/>
                    </g>
                </g>
            </g>
            <g id="Ticks-Q3" serif:id="Ticks Q3" transform="matrix(-1,-1.22465e-16,1.22465e-16,-1,499.998,500.003)">
                <g id="Ticks-C2" serif:id="Ticks C" transform="matrix(0.5,0.866025,-0.866025,0.5,341.506,-91.506)">
                    <g id="Tick-246" serif:id="Tick 24" transform="matrix(0.0563062,0.0250691,-0.031339,0.0703885,302.729,93.9667)">
                        <rect x="240.031" y="175.244" width="16.225" height="123.297" style="fill:white;"/>
                        <rect x="240.031" y="175.244" width="16.225" height="123.297" style="fill:white;"/>
                    </g>
                    <g id="Tick-186" serif:id="Tick 18" transform="matrix(0.0586181,0.0190462,-0.0238097,0.0732787,286.13,89.3099)">
                        <rect x="240.031" y="175.244" width="16.225" height="123.297" style="fill:white;"/>
                        <rect x="240.031" y="175.244" width="16.225" height="123.297" style="fill:white;"/>
                    </g>
                    <g id="Tick-126" serif:id="Tick 12" transform="matrix(0.0602879,0.0128146,-0.0160196,0.0753661,269.135,86.4136)">
                        <rect x="240.031" y="175.244" width="16.225" height="123.297" style="fill:white;"/>
                        <rect x="240.031" y="175.244" width="16.225" height="123.297" style="fill:white;"/>
                    </g>
                    <g id="Tick-66" serif:id="Tick 6" transform="matrix(0.0612971,0.00644259,-0.0080539,0.0766277,251.931,85.3096)">
                        <rect x="240.031" y="175.244" width="16.225" height="123.297" style="fill:white;"/>
                        <rect x="240.031" y="175.244" width="16.225" height="123.297" style="fill:white;"/>
                    </g>
                </g>
                <g id="Ticks-B2" serif:id="Ticks B" transform="matrix(0.866025,0.5,-0.5,0.866025,158.494,-91.5061)">
                    <g id="Tick-247" serif:id="Tick 24" transform="matrix(0.0563062,0.0250691,-0.031339,0.0703885,302.729,93.9667)">
                        <rect x="240.031" y="175.244" width="16.225" height="123.297" style="fill:white;"/>
                        <rect x="240.031" y="175.244" width="16.225" height="123.297" style="fill:white;"/>
                    </g>
                    <g id="Tick-187" serif:id="Tick 18" transform="matrix(0.0586181,0.0190462,-0.0238097,0.0732787,286.13,89.3099)">
                        <rect x="240.031" y="175.244" width="16.225" height="123.297" style="fill:white;"/>
                        <rect x="240.031" y="175.244" width="16.225" height="123.297" style="fill:white;"/>
                    </g>
                    <g id="Tick-127" serif:id="Tick 12" transform="matrix(0.0602879,0.0128146,-0.0160196,0.0753661,269.135,86.4136)">
                        <rect x="240.031" y="175.244" width="16.225" height="123.297" style="fill:white;"/>
                        <rect x="240.031" y="175.244" width="16.225" height="123.297" style="fill:white;"/>
                    </g>
                    <g id="Tick-67" serif:id="Tick 6" transform="matrix(0.0612971,0.00644259,-0.0080539,0.0766277,251.931,85.3096)">
                        <rect x="240.031" y="175.244" width="16.225" height="123.297" style="fill:white;"/>
                        <rect x="240.031" y="175.244" width="16.225" height="123.297" style="fill:white;"/>
                    </g>
                </g>
                <g id="Ticks-A2" serif:id="Ticks A">
                    <g id="Tick-248" serif:id="Tick 24" transform="matrix(0.0563062,0.0250691,-0.031339,0.0703885,302.729,93.9667)">
                        <rect x="240.031" y="175.244" width="16.225" height="123.297" style="fill:white;"/>
                        <rect x="240.031" y="175.244" width="16.225" height="123.297" style="fill:white;"/>
                    </g>
                    <g id="Tick-188" serif:id="Tick 18" transform="matrix(0.0586181,0.0190462,-0.0238097,0.0732787,286.13,89.3099)">
                        <rect x="240.031" y="175.244" width="16.225" height="123.297" style="fill:white;"/>
                        <rect x="240.031" y="175.244" width="16.225" height="123.297" style="fill:white;"/>
                    </g>
                    <g id="Tick-128" serif:id="Tick 12" transform="matrix(0.0602879,0.0128146,-0.0160196,0.0753661,269.135,86.4136)">
                        <rect x="240.031" y="175.244" width="16.225" height="123.297" style="fill:white;"/>
                        <rect x="240.031" y="175.244" width="16.225" height="123.297" style="fill:white;"/>
                    </g>
                    <g id="Tick-68" serif:id="Tick 6" transform="matrix(0.0612971,0.00644259,-0.0080539,0.0766277,251.931,85.3096)">
                        <rect x="240.031" y="175.244" width="16.225" height="123.297" style="fill:white;"/>
                        <rect x="240.031" y="175.244" width="16.225" height="123.297" style="fill:white;"/>
                    </g>
                </g>
            </g>
            <g id="Ticks-Q1" serif:id="Ticks Q1">
                <g id="Ticks-C3" serif:id="Ticks C" transform="matrix(0.5,0.866025,-0.866025,0.5,341.506,-91.506)">
                    <g id="Tick-249" serif:id="Tick 24" transform="matrix(0.0563062,0.0250691,-0.031339,0.0703885,302.729,93.9667)">
                        <rect x="240.031" y="175.244" width="16.225" height="123.297" style="fill:white;"/>
                        <rect x="240.031" y="175.244" width="16.225" height="123.297" style="fill:white;"/>
                    </g>
                    <g id="Tick-189" serif:id="Tick 18" transform="matrix(0.0586181,0.0190462,-0.0238097,0.0732787,286.13,89.3099)">
                        <rect x="240.031" y="175.244" width="16.225" height="123.297" style="fill:white;"/>
                        <rect x="240.031" y="175.244" width="16.225" height="123.297" style="fill:white;"/>
                    </g>
                    <g id="Tick-129" serif:id="Tick 12" transform="matrix(0.0602879,0.0128146,-0.0160196,0.0753661,269.135,86.4136)">
                        <rect x="240.031" y="175.244" width="16.225" height="123.297" style="fill:white;"/>
                        <rect x="240.031" y="175.244" width="16.225" height="123.297" style="fill:white;"/>
                    </g>
                    <g id="Tick-69" serif:id="Tick 6" transform="matrix(0.0612971,0.00644259,-0.0080539,0.0766277,251.931,85.3096)">
                        <rect x="240.031" y="175.244" width="16.225" height="123.297" style="fill:white;"/>
                        <rect x="240.031" y="175.244" width="16.225" height="123.297" style="fill:white;"/>
                    </g>
                </g>
                <g id="Ticks-B3" serif:id="Ticks B" transform="matrix(0.866025,0.5,-0.5,0.866025,158.494,-91.5061)">
                    <g id="Tick-2410" serif:id="Tick 24" transform="matrix(0.0563062,0.0250691,-0.031339,0.0703885,302.729,93.9667)">
                        <rect x="240.031" y="175.244" width="16.225" height="123.297" style="fill:white;"/>
                        <rect x="240.031" y="175.244" width="16.225" height="123.297" style="fill:white;"/>
                    </g>
                    <g id="Tick-1810" serif:id="Tick 18" transform="matrix(0.0586181,0.0190462,-0.0238097,0.0732787,286.13,89.3099)">
                        <rect x="240.031" y="175.244" width="16.225" height="123.297" style="fill:white;"/>
                        <rect x="240.031" y="175.244" width="16.225" height="123.297" style="fill:white;"/>
                    </g>
                    <g id="Tick-1210" serif:id="Tick 12" transform="matrix(0.0602879,0.0128146,-0.0160196,0.0753661,269.135,86.4136)">
                        <rect x="240.031" y="175.244" width="16.225" height="123.297" style="fill:white;"/>
                        <rect x="240.031" y="175.244" width="16.225" height="123.297" style="fill:white;"/>
                    </g>
                    <g id="Tick-610" serif:id="Tick 6" transform="matrix(0.0612971,0.00644259,-0.0080539,0.0766277,251.931,85.3096)">
                        <rect x="240.031" y="175.244" width="16.225" height="123.297" style="fill:white;"/>
                        <rect x="240.031" y="175.244" width="16.225" height="123.297" style="fill:white;"/>
                    </g>
                </g>
                <g id="Ticks-A3" serif:id="Ticks A">
                    <g id="Tick-2411" serif:id="Tick 24" transform="matrix(0.0563062,0.0250691,-0.031339,0.0703885,302.729,93.9667)">
                        <rect x="240.031" y="175.244" width="16.225" height="123.297" style="fill:white;"/>
                        <rect x="240.031" y="175.244" width="16.225" height="123.297" style="fill:white;"/>
                    </g>
                    <g id="Tick-1811" serif:id="Tick 18" transform="matrix(0.0586181,0.0190462,-0.0238097,0.0732787,286.13,89.3099)">
                        <rect x="240.031" y="175.244" width="16.225" height="123.297" style="fill:white;"/>
                        <rect x="240.031" y="175.244" width="16.225" height="123.297" style="fill:white;"/>
                    </g>
                    <g id="Tick-1211" serif:id="Tick 12" transform="matrix(0.0602879,0.0128146,-0.0160196,0.0753661,269.135,86.4136)">
                        <rect x="240.031" y="175.244" width="16.225" height="123.297" style="fill:white;"/>
                        <rect x="240.031" y="175.244" width="16.225" height="123.297" style="fill:white;"/>
                    </g>
                    <g id="Tick-611" serif:id="Tick 6" transform="matrix(0.0612971,0.00644259,-0.0080539,0.0766277,251.931,85.3096)">
                        <rect x="240.031" y="175.244" width="16.225" height="123.297" style="fill:white;"/>
                        <rect x="240.031" y="175.244" width="16.225" height="123.297" style="fill:white;"/>
                    </g>
                </g>
            </g>
        </g>
        <g id="Inner-Ring" serif:id="Inner Ring" transform="matrix(5.01101,0,0,5.01101,-973.059,-543.746)">
            <path d="M244.074,130.162C259.659,130.162 272.312,142.815 272.312,158.4C272.312,173.985 259.659,186.638 244.074,186.638C228.489,186.638 215.836,173.985 215.836,158.4C215.836,142.815 228.489,130.162 244.074,130.162ZM244.074,130.362C228.599,130.362 216.036,142.926 216.036,158.4C216.036,173.875 228.599,186.439 244.074,186.439C259.549,186.439 272.112,173.875 272.112,158.4C272.112,142.926 259.549,130.362 244.074,130.362Z" style="fill:white;"/>
        </g>
        <g id="Outer-Ring" serif:id="Outer Ring" transform="matrix(5.34744,0,0,5.34744,-1055.17,-597.037)">
            <path d="M244.074,130.162C259.659,130.162 272.312,142.815 272.312,158.4C272.312,173.985 259.659,186.638 244.074,186.638C228.489,186.638 215.836,173.985 215.836,158.4C215.836,142.815 228.489,130.162 244.074,130.162ZM244.074,130.35C228.592,130.35 216.023,142.919 216.023,158.4C216.023,173.882 228.592,186.451 244.074,186.451C259.556,186.451 272.125,173.882 272.125,158.4C272.125,142.919 259.556,130.35 244.074,130.35Z" style="fill:white;"/>
        </g>
        <g id="_12-Hour-Numbers" serif:id="12 Hour Numbers">
            <g transform="matrix(1.21821,0,0,1.21821,-31.6148,-44.3927)">
                <path d="M148.251,174.423C154.361,174.423 159.321,179.383 159.321,185.493C159.321,191.603 154.361,196.564 148.251,196.564C142.141,196.564 137.18,191.603 137.18,185.493C137.18,179.383 142.141,174.423 148.251,174.423ZM148.312,176.853C143.192,176.853 139.745,180.387 139.745,185.507C139.745,190.627 143.172,193.806 148.292,193.806C153.412,193.806 156.71,190.376 156.71,185.256C156.71,180.136 153.432,176.853 148.312,176.853Z" style="fill:white;"/>
            </g>
            <path d="M114.499,248.742C114.889,246.435 115.629,243.117 117.436,241.046C119.243,238.974 122.672,236.731 125.656,236.335C128.653,235.937 132.838,236.687 135.446,238.33C138.054,239.972 139.789,242.52 140.693,245.464C141.598,248.407 141.32,253.93 140.601,256.369C140.231,257.623 139.539,258.596 138.967,259.071C138.55,259.418 137.822,259.212 137.441,258.842C137.061,258.472 136.597,257.795 136.68,257.196C136.849,255.967 138.336,253.009 138.341,251.01C138.345,248.909 137.559,246.3 136.709,244.593C136.003,243.175 134.402,241.985 133.36,241.222C132.513,240.603 131.057,240.091 130.455,240.013C130.116,239.969 129.678,240.419 129.747,240.754C129.993,241.959 131.331,244.375 131.669,246.633C132.032,249.051 132.247,253.422 131.583,255.558C130.967,257.54 129.738,258.746 128.411,259.774C127.299,260.635 125.271,261.572 123.87,261.44C122.226,261.284 120.899,261.311 118.566,259.4C117.163,258.251 115.707,256.279 115.115,254.566C114.518,252.835 114.173,250.667 114.499,248.742ZM118.125,248.595C117.871,250.446 118.371,253.069 119.057,254.546C119.559,255.629 121.209,257.112 122.241,257.457C123.272,257.802 124.775,257.675 125.816,257.08C126.875,256.475 128.285,255.218 128.596,253.825C129.01,251.964 128.916,248.195 128.305,245.914C127.27,242.052 126.604,240.988 125.006,240.261C123.827,239.724 120.871,242.382 120.064,243.397C118.948,244.801 118.419,246.453 118.125,248.595Z" style="fill:white;"/>
            <path d="M363.632,235.991C363.986,236.212 364.787,236.945 365.012,237.313C365.166,237.566 365.11,237.936 364.978,238.201C364.565,239.032 363.123,240.926 362.532,242.299C361.967,243.61 361.587,245.018 361.429,246.437C361.242,248.121 361.134,250.809 361.406,252.403C361.628,253.704 362.37,255.495 363.095,256.488C363.8,257.452 364.878,258.036 365.76,258.358C366.583,258.658 367.622,258.305 368.353,257.931C369.084,257.557 369.766,256.684 370.146,256.114C370.456,255.647 370.624,254.313 370.669,253.755C370.769,252.52 370.488,250.092 370.762,248.959C370.905,248.367 371.729,247.835 372.232,247.826C372.734,247.817 373.588,248.09 373.76,248.65C374.037,249.552 373.69,252.02 373.94,253.12C374.125,253.934 374.793,255.047 375.372,255.559C375.952,256.07 376.954,256.588 377.721,256.427C379.895,255.97 380.871,254.528 381.537,252.745C381.998,251.513 381.926,248.823 381.733,247.313C381.578,246.107 380.962,244.748 380.374,243.687C379.787,242.626 378.664,241.342 378.323,240.657C378.162,240.335 378.183,239.908 378.327,239.577C378.471,239.245 378.848,238.808 379.188,238.662C379.528,238.516 380.086,238.424 380.365,238.699C381.044,239.368 382.53,241.229 383.26,242.676C383.99,244.123 384.381,245.565 384.652,247.1C384.914,248.58 384.984,250.507 384.889,251.886C384.801,253.162 384.321,254.582 383.942,255.642C383.602,256.591 382.864,257.751 382.146,258.457C381.428,259.164 380.715,259.437 379.797,259.691C378.409,260.076 376.663,260.017 374.702,258.9C374.012,258.507 373.701,257.834 373.15,257.841C372.621,257.848 372.408,259.027 371.878,259.569C371.191,260.274 370.6,260.987 369.665,261.438C368.836,261.837 367.452,262.223 366.539,262.112C365.502,261.986 363.709,261.658 362.745,260.907C361.724,260.111 360.775,258.979 360.051,257.737C359.35,256.534 358.805,254.979 358.439,253.68C358.077,252.394 357.994,250.997 357.943,249.701C357.893,248.436 357.971,247.106 358.132,245.907C358.287,244.757 358.593,243.527 358.909,242.511C359.198,241.582 359.573,240.675 360.026,239.815C360.488,238.938 361.204,237.892 361.681,237.254C362.031,236.787 362.563,236.197 362.889,235.986C363.096,235.851 363.422,235.859 363.632,235.991Z" style="fill:white;"/>
            <path d="M305.14,155.012C304.692,154.889 303.978,154.523 303.649,154.213C303.387,153.968 303.125,153.258 303.291,152.94C304.866,149.918 311.312,139.092 312.973,136.074C313.134,135.781 313.24,135.356 313.127,135.083C313.014,134.811 312.409,134.506 312.066,134.433C311.356,134.282 309.731,134.327 308.864,134.178C308.247,134.072 307.442,133.816 307.097,133.544C306.824,133.328 306.751,132.89 306.792,132.545C306.837,132.167 306.892,131.413 307.348,131.329C308.311,131.152 311.584,131.368 312.884,131.453C313.75,131.51 314.334,131.524 315.161,131.79C316.011,132.064 317.197,132.66 317.677,133.126C318.036,133.474 318.271,134.138 318.038,134.581C316.127,138.216 308.477,151.411 306.327,154.821C306.137,155.123 305.484,155.106 305.14,155.012Z" style="fill:white;"/>
            <path d="M338.67,184.879C339.303,184.253 342.508,182.113 345.023,182.114C346.122,182.115 348.032,182.349 349.188,182.804C350.477,183.31 351.761,184.055 353.016,184.99C354.447,186.056 356.291,188.242 357.606,189.272C358.652,190.091 360.199,191.017 361.156,191.311C361.915,191.545 362.876,191.285 363.514,190.968C364.153,190.652 364.751,190.087 364.986,189.413C365.256,188.643 365.336,187.35 365.13,186.349C364.909,185.278 364.283,184.009 363.663,182.989C363.046,181.974 362.191,180.957 361.353,180.185C360.532,179.428 359.406,178.858 358.634,178.357C358.026,177.962 357.075,177.644 356.78,177.22C356.513,176.836 356.703,175.216 357.489,175.027C357.905,174.928 358.822,175.037 359.387,175.339C360.493,175.929 362.797,177.236 364.12,178.568C365.444,179.899 366.6,181.83 367.33,183.326C367.969,184.638 368.789,187.76 368.133,191.237C367.82,192.898 365.058,194.78 363.369,195.005C362.158,195.167 360.541,194.754 359.134,194.166C357.718,193.574 356.512,192.514 355.33,191.548C354.226,190.646 353.204,189.491 352.224,188.62C350.037,186.675 347.871,185.808 347.125,185.645C346.379,185.483 345.404,185.428 344.803,185.543C344.309,185.638 343.755,185.915 343.519,186.336C343.283,186.758 342.996,187.593 343.251,188.115C344.371,190.413 349.043,197.854 350.241,200.124C350.49,200.596 350.592,201.267 350.574,201.691C350.559,202.047 350.44,202.485 350.132,202.666C349.806,202.857 348.902,203.262 348.615,202.841C346.729,200.078 340.47,189.078 338.813,186.084C338.617,185.73 338.382,185.163 338.67,184.879Z" style="fill:white;"/>
            <path d="M268.215,140.63C264.459,140.697 248.517,140.618 248.517,140.618C248.517,140.618 247.871,140.333 247.797,139.972C247.647,139.237 247.498,137.351 247.818,136.164C248.212,134.704 248.899,132.656 250.243,131.09C251.809,129.264 254.015,127.719 256.413,127.097C258.927,126.445 261.979,125.581 263.451,124.704C264.405,124.136 265.739,123.286 265.718,121.596C265.698,120.055 264.773,119.505 263.817,118.936C262.765,118.308 261.01,117.799 259.535,117.819C257.904,117.842 255.873,118.254 254.404,118.816C253.129,119.304 251.132,120.671 250.295,120.75C249.519,120.824 249.005,119.545 249.005,119.545C249.005,119.545 248.695,118.578 249.005,118.303C249.755,117.64 251.869,116.192 253.504,115.565C254.939,115.014 257.88,114.475 259.417,114.514C261.153,114.559 263.245,114.973 264.804,115.569C266.161,116.087 267.454,116.992 268.232,118.025C268.99,119.031 269.212,120.45 269.262,121.601C269.312,122.743 269.145,123.718 268.577,124.683C267.965,125.721 267.143,126.46 266.004,127.166C264.868,127.87 262.585,128.791 261.325,129.235C259.883,129.745 257.403,130.209 256.178,130.941C255.147,131.557 254.571,132.23 253.877,132.89C253.32,133.419 252.791,134.204 252.512,134.746C252.293,135.171 252.202,135.668 252.202,136.145C252.202,136.625 252.407,137.585 252.407,137.585L266.952,137.66C266.952,137.66 268.116,137.658 268.443,137.965C268.769,138.272 268.946,139.059 268.908,139.503C268.871,139.942 268.656,140.622 268.215,140.63Z" style="fill:white;"/>
            <path d="M230.968,120.484C230.317,119.638 230.522,119.072 230.745,118.736C230.873,118.545 236.196,116.206 238.025,115.658C239.048,115.352 241.716,115.145 241.712,116.213C241.711,116.701 241.701,139.815 241.701,139.815C241.701,139.815 241.836,140.555 240.073,140.544C238.087,140.531 238.015,139.463 238.015,139.463C238.015,139.463 237.999,120.724 237.982,119.833C237.976,119.477 237.423,119.257 237.145,119.261C236.75,119.267 232.197,120.898 232.197,120.898C232.197,120.898 231.499,121.175 230.968,120.484Z" style="fill:white;fill-opacity:0.92;"/>
            <g transform="matrix(0.857171,-0.515033,0.515033,0.857171,-87.1408,159.885)">
                <path d="M230.968,120.484C230.317,119.638 230.522,119.072 230.745,118.736C230.873,118.545 236.196,116.206 238.025,115.658C239.048,115.352 241.716,115.145 241.712,116.213C241.711,116.701 241.701,139.815 241.701,139.815C241.701,139.815 241.836,140.555 240.073,140.544C238.087,140.531 238.015,139.463 238.015,139.463C238.015,139.463 237.999,120.724 237.982,119.833C237.976,119.477 237.423,119.257 237.145,119.261C236.75,119.267 232.197,120.898 232.197,120.898C232.197,120.898 231.499,121.175 230.968,120.484Z" style="fill:white;fill-opacity:0.92;"/>
            </g>
            <g transform="matrix(0.857171,-0.515033,0.515033,0.857171,-73.5803,151.928)">
                <path d="M230.968,120.484C230.317,119.638 230.522,119.072 230.745,118.736C230.873,118.545 236.196,116.206 238.025,115.658C239.048,115.352 241.716,115.145 241.712,116.213C241.711,116.701 241.701,139.815 241.701,139.815C241.701,139.815 241.836,140.555 240.073,140.544C238.087,140.531 238.015,139.463 238.015,139.463C238.015,139.463 237.999,120.724 237.982,119.833C237.976,119.477 237.423,119.257 237.145,119.261C236.75,119.267 232.197,120.898 232.197,120.898C232.197,120.898 231.499,121.175 230.968,120.484Z" style="fill:white;fill-opacity:0.92;"/>
            </g>
            <g transform="matrix(0.488352,-0.872646,0.872646,0.488352,-90.6989,347.039)">
                <path d="M230.968,120.484C230.317,119.638 230.522,119.072 230.745,118.736C230.873,118.545 236.196,116.206 238.025,115.658C239.048,115.352 241.716,115.145 241.712,116.213C241.711,116.701 241.701,139.815 241.701,139.815C241.701,139.815 241.836,140.555 240.073,140.544C238.087,140.531 238.015,139.463 238.015,139.463C238.015,139.463 237.999,120.724 237.982,119.833C237.976,119.477 237.423,119.257 237.145,119.261C236.75,119.267 232.197,120.898 232.197,120.898C232.197,120.898 231.499,121.175 230.968,120.484Z" style="fill:white;fill-opacity:0.92;"/>
            </g>
            <path d="M342.843,307.613C343.718,307.823 345.645,309.186 346.389,309.494C346.68,309.615 347.321,309.673 347.495,309.409C349.211,306.802 354.924,296.759 356.716,294.118C356.984,293.722 357.724,293.553 358.152,293.689C358.579,293.826 359.418,294.567 359.537,295.098C360.515,299.455 363.325,314.89 363.985,319.339C364.075,319.948 363.705,320.694 363.444,321.163C363.218,321.57 362.839,322.138 362.553,322.266C362.268,322.394 361.807,322.391 361.53,322.238C359.323,321.017 351.541,316.332 349.301,315.187C348.979,315.022 348.132,315.064 347.871,315.314C347.344,315.818 346.357,317.528 345.881,318.057C345.7,318.258 345.433,318.515 345.164,318.483C344.784,318.437 344.146,318.1 343.853,317.786C343.561,317.472 343.489,317.023 343.614,316.582C343.791,315.957 344.713,314.783 344.924,314.187C345.056,313.817 345.273,313.247 345.001,312.963C344.361,312.297 341.771,310.992 341.175,310.202C340.787,309.688 340.888,308.748 341.212,308.311C341.537,307.873 342.237,307.467 342.843,307.613ZM357.162,300.4C357.034,299.769 356.181,300.978 355.951,301.343C354.897,303.013 351.623,308.686 350.818,310.474C350.629,310.894 350.928,311.691 351.293,311.971C352.584,312.96 357.293,315.719 358.689,316.508C359.66,317.056 360.337,316.898 360.17,315.385C359.874,312.702 357.654,302.819 357.162,300.4Z" style="fill:white;fill-opacity:0.9;"/>
            <path d="M316.701,340.647C317.377,341.035 316.829,342.502 316.645,342.984C316.505,343.353 315.991,343.482 315.601,343.543C314.712,343.682 312.688,343.421 311.313,343.821C309.613,344.314 306.95,345.144 305.249,346.389C303.547,347.635 301.71,349.462 301.023,350.972C300.433,352.27 300.697,354.467 301.277,355.566C301.856,356.665 303.253,357.663 304.58,357.888C305.944,358.119 307.996,357.489 309.462,356.955C310.88,356.438 312.385,355.444 313.377,354.682C314.188,354.058 314.735,353.141 315.41,352.38C316.081,351.624 316.7,350.475 317.428,350.116C318.133,349.769 319.235,349.661 319.781,350.225C320.939,351.422 323.4,355.668 324.377,357.295C324.888,358.147 325.467,359.305 325.641,359.992C325.759,360.458 325.794,361.112 325.422,361.416C324.21,362.404 320.636,364.384 318.228,365.793C315.631,367.314 311.474,369.774 309.84,370.541C309.453,370.722 308.92,370.757 308.56,370.528C308.192,370.294 307.768,369.531 307.629,369.138C307.521,368.833 307.467,368.367 307.725,368.172C308.919,367.268 312.905,365.039 315.126,363.654C317.205,362.358 319.995,360.693 321.05,359.864C321.345,359.632 321.277,359.083 321.124,358.74C320.752,357.9 319.44,355.491 318.813,354.822C318.483,354.468 317.756,354.44 317.365,354.725C316.395,355.434 314.652,357.967 312.994,359.075C311.336,360.183 309.135,360.99 307.418,361.372C305.88,361.715 304.102,361.759 302.691,361.369C301.281,360.98 299.903,360.028 298.955,359.036C298.008,358.045 297.371,356.69 297.005,355.418C296.639,354.146 296.611,352.545 297.029,351.273C297.535,349.733 298.845,347.548 300.039,346.182C301.11,344.956 302.601,344.055 303.92,343.214C305.194,342.4 306.587,341.606 307.949,341.132C309.276,340.671 310.691,340.452 312.093,340.374C313.552,340.293 315.942,340.212 316.701,340.647Z" style="fill:white;"/>
            <path d="M248.82,357.183C250.989,357.207 253.481,357.76 255.435,358.937C257.508,360.186 260.117,362.202 261.258,364.677C262.413,367.181 262.797,371.33 262.364,373.964C261.959,376.429 260.408,378.744 258.66,380.478C256.912,382.213 254.274,383.708 251.876,384.371C249.479,385.034 246.297,384.914 244.277,384.553C242.621,384.257 240.512,383.184 239.755,382.545C239.351,382.203 239.276,381.219 239.506,380.812C239.736,380.405 240.594,379.701 241.14,379.761C242.071,379.864 244.101,381.003 245.569,381.165C247.218,381.347 249.328,381.317 251.034,380.854C252.68,380.407 254.364,379.354 255.554,378.453C256.613,377.649 257.634,376.369 258.173,375.444C258.611,374.691 258.811,373.385 258.787,372.903C258.773,372.625 258.298,372.48 258.029,372.551C256.976,372.83 254.588,374.391 252.649,374.748C250.413,375.159 246.791,375.413 244.617,375.016C242.679,374.662 240.66,373.286 239.425,372.196C238.342,371.24 237.41,369.905 237.204,368.475C236.977,366.902 237.195,364.37 238.065,362.757C238.934,361.144 240.68,359.7 242.423,358.797C244.215,357.868 246.652,357.16 248.82,357.183ZM241.142,366.403C241.031,367.655 241.719,369.385 242.825,370.236C244.017,371.152 246.387,371.849 248.291,371.901C250.224,371.954 252.654,371.257 254.425,370.554C256.075,369.899 258.597,369.09 258.599,367.696C258.602,366.302 256.158,363.333 254.44,362.19C252.776,361.082 250.427,360.731 248.602,360.82C246.787,360.908 244.109,361.793 242.865,362.723C241.7,363.595 241.253,365.151 241.142,366.403Z" style="fill:white;"/>
            <path d="M197.985,344.855C198.611,345.239 200.555,346.091 200.201,347.15C200.083,347.504 194.615,350.294 189.231,353.112C184.977,355.339 180.839,357.435 180.839,357.435C180.839,357.435 179.162,358.405 179.484,359.264C179.69,359.812 182.003,361.421 184.949,363.228C188.533,365.425 192.396,367.855 192.396,367.855C192.396,367.855 193.341,368.732 192.823,369.666C192.187,370.811 190.984,370.616 190.984,370.616C190.984,370.616 176.274,362.206 173.219,359.986C172.573,359.517 172.451,357.897 173.124,357.469C177.108,354.933 194.666,345.959 196.086,345.279C196.459,345.101 197.633,344.638 197.985,344.855Z" style="fill:white;"/>
            <path d="M132.523,317.171C131.545,315.307 130.503,312.369 130.476,310.235C130.449,308.18 130.791,306.167 132.16,305.053C135.215,302.568 138.331,304.337 139,303.927C139.415,303.674 139.855,298.531 141.842,297.202C145.68,294.634 148.655,296.224 151.37,298.079C155.384,300.821 157.155,305.537 158.133,308.568C158.9,310.949 158.848,314.25 157.862,316.07C156.875,317.889 153.819,319.668 151.681,319.526C148.602,319.321 148.012,317.778 147.006,318.185C146.472,318.401 146.406,321.012 145.563,321.893C144.581,322.919 143.26,323.657 141.663,323.695C140.066,323.733 138.034,322.933 136.547,321.8C135.059,320.666 133.407,318.856 132.523,317.171ZM135.367,315.37C135.888,316.587 136.878,318.017 137.939,318.703C139.693,319.839 141.014,319.747 141.953,319.379C142.892,319.011 143.544,317.486 143.479,316.265C143.401,314.824 142.452,312.269 141.325,310.758C140.198,309.246 138.503,307.148 136.581,307.328C134.509,307.523 134.549,309.494 134.346,310.726C134.121,312.089 134.762,313.957 135.367,315.37ZM144.545,310.147C145.201,311.558 147.302,314.163 148.717,314.808C150.216,315.491 151.888,315.866 153.119,315.125C154.35,314.384 155.563,311.934 155.147,310.303C154.606,308.18 153.937,304.606 150.953,302.093C147.524,299.204 146.119,299.642 144.871,300.03C143.622,300.419 143.099,302.544 143.095,303.991C143.09,305.703 143.772,308.485 144.545,310.147Z" style="fill:white;"/>
        </g>
        <g id="Outer-Numbers" serif:id="Outer Numbers">
            <g>
                <g transform="matrix(0.237904,0,0,0.237904,184.559,73.8175)">
                    <path d="M268.215,140.63C264.459,140.697 248.517,140.618 248.517,140.618C248.517,140.618 247.871,140.333 247.797,139.972C247.647,139.237 247.498,137.351 247.818,136.164C248.212,134.704 248.899,132.656 250.243,131.09C251.809,129.264 254.015,127.719 256.413,127.097C258.927,126.445 261.979,125.581 263.451,124.704C264.405,124.136 265.739,123.286 265.718,121.596C265.698,120.055 264.773,119.505 263.817,118.936C262.765,118.308 261.01,117.799 259.535,117.819C257.904,117.842 255.873,118.254 254.404,118.816C253.129,119.304 251.132,120.671 250.295,120.75C249.519,120.824 249.005,119.545 249.005,119.545C249.005,119.545 248.695,118.578 249.005,118.303C249.755,117.64 251.869,116.192 253.504,115.565C254.939,115.014 257.88,114.475 259.417,114.514C261.153,114.559 263.245,114.973 264.804,115.569C266.161,116.087 267.454,116.992 268.232,118.025C268.99,119.031 269.212,120.45 269.262,121.601C269.312,122.743 269.145,123.718 268.577,124.683C267.965,125.721 267.143,126.46 266.004,127.166C264.868,127.87 262.585,128.791 261.325,129.235C259.883,129.745 257.403,130.209 256.178,130.941C255.147,131.557 254.571,132.23 253.877,132.89C253.32,133.419 252.791,134.204 252.512,134.746C252.293,135.171 252.202,135.668 252.202,136.145C252.202,136.625 252.407,137.585 252.407,137.585L266.952,137.66C266.952,137.66 268.116,137.658 268.443,137.965C268.769,138.272 268.946,139.059 268.908,139.503C268.871,139.942 268.656,140.622 268.215,140.63Z" style="fill:white;"/>
                </g>
                <g transform="matrix(-0.126627,-0.214615,0.214615,-0.126627,231.98,219.789)">
                    <path d="M342.843,307.613C343.718,307.823 345.645,309.186 346.389,309.494C346.68,309.615 347.321,309.673 347.495,309.409C349.211,306.802 354.924,296.759 356.716,294.118C356.984,293.722 357.724,293.553 358.152,293.689C358.579,293.826 359.418,294.567 359.537,295.098C360.515,299.455 363.325,314.89 363.985,319.339C364.075,319.948 363.705,320.694 363.444,321.163C363.218,321.57 362.839,322.138 362.553,322.266C362.268,322.394 361.807,322.391 361.53,322.238C359.323,321.017 351.541,316.332 349.301,315.187C348.979,315.022 348.132,315.064 347.871,315.314C347.344,315.818 346.357,317.528 345.881,318.057C345.7,318.258 345.433,318.515 345.164,318.483C344.784,318.437 344.146,318.1 343.853,317.786C343.561,317.472 343.489,317.023 343.614,316.582C343.791,315.957 344.713,314.783 344.924,314.187C345.056,313.817 345.273,313.247 345.001,312.963C344.361,312.297 341.771,310.992 341.175,310.202C340.787,309.688 340.888,308.748 341.212,308.311C341.537,307.873 342.237,307.467 342.843,307.613ZM357.162,300.4C357.034,299.769 356.181,300.978 355.951,301.343C354.897,303.013 351.623,308.686 350.818,310.474C350.629,310.894 350.928,311.691 351.293,311.971C352.584,312.96 357.293,315.719 358.689,316.508C359.66,317.056 360.337,316.898 360.17,315.385C359.874,312.702 357.654,302.819 357.162,300.4Z" style="fill:white;fill-opacity:0.9;"/>
                </g>
            </g>
            <g>
                <g transform="matrix(0.206775,-0.135119,0.135119,0.206775,103.771,133.989)">
                    <path d="M268.215,140.63C264.459,140.697 248.517,140.618 248.517,140.618C248.517,140.618 247.871,140.333 247.797,139.972C247.647,139.237 247.498,137.351 247.818,136.164C248.212,134.704 248.899,132.656 250.243,131.09C251.809,129.264 254.015,127.719 256.413,127.097C258.927,126.445 261.979,125.581 263.451,124.704C264.405,124.136 265.739,123.286 265.718,121.596C265.698,120.055 264.773,119.505 263.817,118.936C262.765,118.308 261.01,117.799 259.535,117.819C257.904,117.842 255.873,118.254 254.404,118.816C253.129,119.304 251.132,120.671 250.295,120.75C249.519,120.824 249.005,119.545 249.005,119.545C249.005,119.545 248.695,118.578 249.005,118.303C249.755,117.64 251.869,116.192 253.504,115.565C254.939,115.014 257.88,114.475 259.417,114.514C261.153,114.559 263.245,114.973 264.804,115.569C266.161,116.087 267.454,116.992 268.232,118.025C268.99,119.031 269.212,120.45 269.262,121.601C269.312,122.743 269.145,123.718 268.577,124.683C267.965,125.721 267.143,126.46 266.004,127.166C264.868,127.87 262.585,128.791 261.325,129.235C259.883,129.745 257.403,130.209 256.178,130.941C255.147,131.557 254.571,132.23 253.877,132.89C253.32,133.419 252.791,134.204 252.512,134.746C252.293,135.171 252.202,135.668 252.202,136.145C252.202,136.625 252.407,137.585 252.407,137.585L266.952,137.66C266.952,137.66 268.116,137.658 268.443,137.965C268.769,138.272 268.946,139.059 268.908,139.503C268.871,139.942 268.656,140.622 268.215,140.63Z" style="fill:white;"/>
                </g>
                <g transform="matrix(-0.119366,-0.211815,0.211815,-0.119366,172.356,230.222)">
                    <path d="M363.632,235.991C363.986,236.212 364.787,236.945 365.012,237.313C365.166,237.566 365.11,237.936 364.978,238.201C364.565,239.032 363.123,240.926 362.532,242.299C361.967,243.61 361.587,245.018 361.429,246.437C361.242,248.121 361.134,250.809 361.406,252.403C361.628,253.704 362.37,255.495 363.095,256.488C363.8,257.452 364.878,258.036 365.76,258.358C366.583,258.658 367.622,258.305 368.353,257.931C369.084,257.557 369.766,256.684 370.146,256.114C370.456,255.647 370.624,254.313 370.669,253.755C370.769,252.52 370.488,250.092 370.762,248.959C370.905,248.367 371.729,247.835 372.232,247.826C372.734,247.817 373.588,248.09 373.76,248.65C374.037,249.552 373.69,252.02 373.94,253.12C374.125,253.934 374.793,255.047 375.372,255.559C375.952,256.07 376.954,256.588 377.721,256.427C379.895,255.97 380.871,254.528 381.537,252.745C381.998,251.513 381.926,248.823 381.733,247.313C381.578,246.107 380.962,244.748 380.374,243.687C379.787,242.626 378.664,241.342 378.323,240.657C378.162,240.335 378.183,239.908 378.327,239.577C378.471,239.245 378.848,238.808 379.188,238.662C379.528,238.516 380.086,238.424 380.365,238.699C381.044,239.368 382.53,241.229 383.26,242.676C383.99,244.123 384.381,245.565 384.652,247.1C384.914,248.58 384.984,250.507 384.889,251.886C384.801,253.162 384.321,254.582 383.942,255.642C383.602,256.591 382.864,257.751 382.146,258.457C381.428,259.164 380.715,259.437 379.797,259.691C378.409,260.076 376.663,260.017 374.702,258.9C374.012,258.507 373.701,257.834 373.15,257.841C372.621,257.848 372.408,259.027 371.878,259.569C371.191,260.274 370.6,260.987 369.665,261.438C368.836,261.837 367.452,262.223 366.539,262.112C365.502,261.986 363.709,261.658 362.745,260.907C361.724,260.111 360.775,258.979 360.051,257.737C359.35,256.534 358.805,254.979 358.439,253.68C358.077,252.394 357.994,250.997 357.943,249.701C357.893,248.436 357.971,247.106 358.132,245.907C358.287,244.757 358.593,243.527 358.909,242.511C359.198,241.582 359.573,240.675 360.026,239.815C360.488,238.938 361.204,237.892 361.681,237.254C362.031,236.787 362.563,236.197 362.889,235.986C363.096,235.851 363.422,235.859 363.632,235.991Z" style="fill:white;"/>
                </g>
            </g>
            <g>
                <g transform="matrix(0.112498,-0.207754,0.207754,0.112498,67.0217,218.495)">
                    <path d="M268.215,140.63C264.459,140.697 248.517,140.618 248.517,140.618C248.517,140.618 247.871,140.333 247.797,139.972C247.647,139.237 247.498,137.351 247.818,136.164C248.212,134.704 248.899,132.656 250.243,131.09C251.809,129.264 254.015,127.719 256.413,127.097C258.927,126.445 261.979,125.581 263.451,124.704C264.405,124.136 265.739,123.286 265.718,121.596C265.698,120.055 264.773,119.505 263.817,118.936C262.765,118.308 261.01,117.799 259.535,117.819C257.904,117.842 255.873,118.254 254.404,118.816C253.129,119.304 251.132,120.671 250.295,120.75C249.519,120.824 249.005,119.545 249.005,119.545C249.005,119.545 248.695,118.578 249.005,118.303C249.755,117.64 251.869,116.192 253.504,115.565C254.939,115.014 257.88,114.475 259.417,114.514C261.153,114.559 263.245,114.973 264.804,115.569C266.161,116.087 267.454,116.992 268.232,118.025C268.99,119.031 269.212,120.45 269.262,121.601C269.312,122.743 269.145,123.718 268.577,124.683C267.965,125.721 267.143,126.46 266.004,127.166C264.868,127.87 262.585,128.791 261.325,129.235C259.883,129.745 257.403,130.209 256.178,130.941C255.147,131.557 254.571,132.23 253.877,132.89C253.32,133.419 252.791,134.204 252.512,134.746C252.293,135.171 252.202,135.668 252.202,136.145C252.202,136.625 252.407,137.585 252.407,137.585L266.952,137.66C266.952,137.66 268.116,137.658 268.443,137.965C268.769,138.272 268.946,139.059 268.908,139.503C268.871,139.942 268.656,140.622 268.215,140.63Z" style="fill:white;"/>
                </g>
                <g transform="matrix(0.121658,-0.220408,0.220408,0.121658,66.5174,214.595)">
                    <path d="M268.215,140.63C264.459,140.697 248.517,140.618 248.517,140.618C248.517,140.618 247.871,140.333 247.797,139.972C247.647,139.237 247.498,137.351 247.818,136.164C248.212,134.704 248.899,132.656 250.243,131.09C251.809,129.264 254.015,127.719 256.413,127.097C258.927,126.445 261.979,125.581 263.451,124.704C264.405,124.136 265.739,123.286 265.718,121.596C265.698,120.055 264.773,119.505 263.817,118.936C262.765,118.308 261.01,117.799 259.535,117.819C257.904,117.842 255.873,118.254 254.404,118.816C253.129,119.304 251.132,120.671 250.295,120.75C249.519,120.824 249.005,119.545 249.005,119.545C249.005,119.545 248.695,118.578 249.005,118.303C249.755,117.64 251.869,116.192 253.504,115.565C254.939,115.014 257.88,114.475 259.417,114.514C261.153,114.559 263.245,114.973 264.804,115.569C266.161,116.087 267.454,116.992 268.232,118.025C268.99,119.031 269.212,120.45 269.262,121.601C269.312,122.743 269.145,123.718 268.577,124.683C267.965,125.721 267.143,126.46 266.004,127.166C264.868,127.87 262.585,128.791 261.325,129.235C259.883,129.745 257.403,130.209 256.178,130.941C255.147,131.557 254.571,132.23 253.877,132.89C253.32,133.419 252.791,134.204 252.512,134.746C252.293,135.171 252.202,135.668 252.202,136.145C252.202,136.625 252.407,137.585 252.407,137.585L266.952,137.66C266.952,137.66 268.116,137.658 268.443,137.965C268.769,138.272 268.946,139.059 268.908,139.503C268.871,139.942 268.656,140.622 268.215,140.63Z" style="fill:white;"/>
                </g>
            </g>
            <g>
                <g transform="matrix(-0.00245147,-0.247943,0.247943,-0.00245147,73.0634,304.821)">
                    <path d="M230.968,120.484C230.317,119.638 230.522,119.072 230.745,118.736C230.873,118.545 236.196,116.206 238.025,115.658C239.048,115.352 241.716,115.145 241.712,116.213C241.711,116.701 241.701,139.815 241.701,139.815C241.701,139.815 241.836,140.555 240.073,140.544C238.087,140.531 238.015,139.463 238.015,139.463C238.015,139.463 237.999,120.724 237.982,119.833C237.976,119.477 237.423,119.257 237.145,119.261C236.75,119.267 232.197,120.898 232.197,120.898C232.197,120.898 231.499,121.175 230.968,120.484Z" style="fill:white;fill-opacity:0.92;"/>
                </g>
                <g transform="matrix(-0.00166109,-0.235529,0.235529,-0.00166109,74.6225,311.789)">
                    <path d="M268.215,140.63C264.459,140.697 248.517,140.618 248.517,140.618C248.517,140.618 247.871,140.333 247.797,139.972C247.647,139.237 247.498,137.351 247.818,136.164C248.212,134.704 248.899,132.656 250.243,131.09C251.809,129.264 254.015,127.719 256.413,127.097C258.927,126.445 261.979,125.581 263.451,124.704C264.405,124.136 265.739,123.286 265.718,121.596C265.698,120.055 264.773,119.505 263.817,118.936C262.765,118.308 261.01,117.799 259.535,117.819C257.904,117.842 255.873,118.254 254.404,118.816C253.129,119.304 251.132,120.671 250.295,120.75C249.519,120.824 249.005,119.545 249.005,119.545C249.005,119.545 248.695,118.578 249.005,118.303C249.755,117.64 251.869,116.192 253.504,115.565C254.939,115.014 257.88,114.475 259.417,114.514C261.153,114.559 263.245,114.973 264.804,115.569C266.161,116.087 267.454,116.992 268.232,118.025C268.99,119.031 269.212,120.45 269.262,121.601C269.312,122.743 269.145,123.718 268.577,124.683C267.965,125.721 267.143,126.46 266.004,127.166C264.868,127.87 262.585,128.791 261.325,129.235C259.883,129.745 257.403,130.209 256.178,130.941C255.147,131.557 254.571,132.23 253.877,132.89C253.32,133.419 252.791,134.204 252.512,134.746C252.293,135.171 252.202,135.668 252.202,136.145C252.202,136.625 252.407,137.585 252.407,137.585L266.952,137.66C266.952,137.66 268.116,137.658 268.443,137.965C268.769,138.272 268.946,139.059 268.908,139.503C268.871,139.942 268.656,140.622 268.215,140.63Z" style="fill:white;"/>
                </g>
            </g>
            <g>
                <g transform="matrix(-0.272803,0.157503,-0.157503,-0.272803,191.323,346.244)">
                    <path d="M148.251,174.423C154.361,174.423 159.321,179.383 159.321,185.493C159.321,191.603 154.361,196.564 148.251,196.564C142.141,196.564 137.18,191.603 137.18,185.493C137.18,179.383 142.141,174.423 148.251,174.423ZM148.312,176.853C143.192,176.853 139.745,180.387 139.745,185.507C139.745,190.627 143.172,193.806 148.292,193.806C153.412,193.806 156.71,190.376 156.71,185.256C156.71,180.136 153.432,176.853 148.312,176.853Z" style="fill:white;"/>
                </g>
                <g transform="matrix(-0.129401,-0.199576,0.199576,-0.129401,133.36,393.566)">
                    <path d="M268.215,140.63C264.459,140.697 248.517,140.618 248.517,140.618C248.517,140.618 247.871,140.333 247.797,139.972C247.647,139.237 247.498,137.351 247.818,136.164C248.212,134.704 248.899,132.656 250.243,131.09C251.809,129.264 254.015,127.719 256.413,127.097C258.927,126.445 261.979,125.581 263.451,124.704C264.405,124.136 265.739,123.286 265.718,121.596C265.698,120.055 264.773,119.505 263.817,118.936C262.765,118.308 261.01,117.799 259.535,117.819C257.904,117.842 255.873,118.254 254.404,118.816C253.129,119.304 251.132,120.671 250.295,120.75C249.519,120.824 249.005,119.545 249.005,119.545C249.005,119.545 248.695,118.578 249.005,118.303C249.755,117.64 251.869,116.192 253.504,115.565C254.939,115.014 257.88,114.475 259.417,114.514C261.153,114.559 263.245,114.973 264.804,115.569C266.161,116.087 267.454,116.992 268.232,118.025C268.99,119.031 269.212,120.45 269.262,121.601C269.312,122.743 269.145,123.718 268.577,124.683C267.965,125.721 267.143,126.46 266.004,127.166C264.868,127.87 262.585,128.791 261.325,129.235C259.883,129.745 257.403,130.209 256.178,130.941C255.147,131.557 254.571,132.23 253.877,132.89C253.32,133.419 252.791,134.204 252.512,134.746C252.293,135.171 252.202,135.668 252.202,136.145C252.202,136.625 252.407,137.585 252.407,137.585L266.952,137.66C266.952,137.66 268.116,137.658 268.443,137.965C268.769,138.272 268.946,139.059 268.908,139.503C268.871,139.942 268.656,140.622 268.215,140.63Z" style="fill:white;"/>
                </g>
            </g>
            <g>
                <g transform="matrix(-0.224653,-0.133169,0.133169,-0.224653,215.928,437.951)">
                    <path d="M230.968,120.484C230.317,119.638 230.522,119.072 230.745,118.736C230.873,118.545 236.196,116.206 238.025,115.658C239.048,115.352 241.716,115.145 241.712,116.213C241.711,116.701 241.701,139.815 241.701,139.815C241.701,139.815 241.836,140.555 240.073,140.544C238.087,140.531 238.015,139.463 238.015,139.463C238.015,139.463 237.999,120.724 237.982,119.833C237.976,119.477 237.423,119.257 237.145,119.261C236.75,119.267 232.197,120.898 232.197,120.898C232.197,120.898 231.499,121.175 230.968,120.484Z" style="fill:white;fill-opacity:0.92;"/>
                </g>
                <g transform="matrix(0.121703,-0.215538,0.215538,0.121703,105.476,371.884)">
                    <path d="M114.499,248.742C114.889,246.435 115.629,243.117 117.436,241.046C119.243,238.974 122.672,236.731 125.656,236.335C128.653,235.937 132.838,236.687 135.446,238.33C138.054,239.972 139.789,242.52 140.693,245.464C141.598,248.407 141.32,253.93 140.601,256.369C140.231,257.623 139.539,258.596 138.967,259.071C138.55,259.418 137.822,259.212 137.441,258.842C137.061,258.472 136.597,257.795 136.68,257.196C136.849,255.967 138.336,253.009 138.341,251.01C138.345,248.909 137.559,246.3 136.709,244.593C136.003,243.175 134.402,241.985 133.36,241.222C132.513,240.603 131.057,240.091 130.455,240.013C130.116,239.969 129.678,240.419 129.747,240.754C129.993,241.959 131.331,244.375 131.669,246.633C132.032,249.051 132.247,253.422 131.583,255.558C130.967,257.54 129.738,258.746 128.411,259.774C127.299,260.635 125.271,261.572 123.87,261.44C122.226,261.284 120.899,261.311 118.566,259.4C117.163,258.251 115.707,256.279 115.115,254.566C114.518,252.835 114.173,250.667 114.499,248.742ZM118.125,248.595C117.871,250.446 118.371,253.069 119.057,254.546C119.559,255.629 121.209,257.112 122.241,257.457C123.272,257.802 124.775,257.675 125.816,257.08C126.875,256.475 128.285,255.218 128.596,253.825C129.01,251.964 128.916,248.195 128.305,245.914C127.27,242.052 126.604,240.988 125.006,240.261C123.827,239.724 120.871,242.382 120.064,243.397C118.948,244.801 118.419,246.453 118.125,248.595Z" style="fill:white;"/>
                </g>
            </g>
            <g>
                <g transform="matrix(-0.254144,0.00200745,-0.00200745,-0.254144,314.55,427.665)">
                    <path d="M230.968,120.484C230.317,119.638 230.522,119.072 230.745,118.736C230.873,118.545 236.196,116.206 238.025,115.658C239.048,115.352 241.716,115.145 241.712,116.213C241.711,116.701 241.701,139.815 241.701,139.815C241.701,139.815 241.836,140.555 240.073,140.544C238.087,140.531 238.015,139.463 238.015,139.463C238.015,139.463 237.999,120.724 237.982,119.833C237.976,119.477 237.423,119.257 237.145,119.261C236.75,119.267 232.197,120.898 232.197,120.898C232.197,120.898 231.499,121.175 230.968,120.484Z" style="fill:white;fill-opacity:0.92;"/>
                </g>
                <g transform="matrix(0.130499,-0.213099,0.213099,0.130499,163.017,385.893)">
                    <path d="M132.523,317.171C131.545,315.307 130.503,312.369 130.476,310.235C130.449,308.18 130.791,306.167 132.16,305.053C135.215,302.568 138.331,304.337 139,303.927C139.415,303.674 139.855,298.531 141.842,297.202C145.68,294.634 148.655,296.224 151.37,298.079C155.384,300.821 157.155,305.537 158.133,308.568C158.9,310.949 158.848,314.25 157.862,316.07C156.875,317.889 153.819,319.668 151.681,319.526C148.602,319.321 148.012,317.778 147.006,318.185C146.472,318.401 146.406,321.012 145.563,321.893C144.581,322.919 143.26,323.657 141.663,323.695C140.066,323.733 138.034,322.933 136.547,321.8C135.059,320.666 133.407,318.856 132.523,317.171ZM135.367,315.37C135.888,316.587 136.878,318.017 137.939,318.703C139.693,319.839 141.014,319.747 141.953,319.379C142.892,319.011 143.544,317.486 143.479,316.265C143.401,314.824 142.452,312.269 141.325,310.758C140.198,309.246 138.503,307.148 136.581,307.328C134.509,307.523 134.549,309.494 134.346,310.726C134.121,312.089 134.762,313.957 135.367,315.37ZM144.545,310.147C145.201,311.558 147.302,314.163 148.717,314.808C150.216,315.491 151.888,315.866 153.119,315.125C154.35,314.384 155.563,311.934 155.147,310.303C154.606,308.18 153.937,304.606 150.953,302.093C147.524,299.204 146.119,299.642 144.871,300.03C143.622,300.419 143.099,302.544 143.095,303.991C143.09,305.703 143.772,308.485 144.545,310.147Z" style="fill:white;"/>
                </g>
            </g>
            <g>
                <g transform="matrix(-0.220971,0.127578,-0.127578,-0.220971,394.218,372.569)">
                    <path d="M230.968,120.484C230.317,119.638 230.522,119.072 230.745,118.736C230.873,118.545 236.196,116.206 238.025,115.658C239.048,115.352 241.716,115.145 241.712,116.213C241.711,116.701 241.701,139.815 241.701,139.815C241.701,139.815 241.836,140.555 240.073,140.544C238.087,140.531 238.015,139.463 238.015,139.463C238.015,139.463 237.999,120.724 237.982,119.833C237.976,119.477 237.423,119.257 237.145,119.261C236.75,119.267 232.197,120.898 232.197,120.898C232.197,120.898 231.499,121.175 230.968,120.484Z" style="fill:white;fill-opacity:0.92;"/>
                </g>
                <g transform="matrix(0.111126,-0.216132,0.216132,0.111126,223.297,378.783)">
                    <path d="M197.985,344.855C198.611,345.239 200.555,346.091 200.201,347.15C200.083,347.504 194.615,350.294 189.231,353.112C184.977,355.339 180.839,357.435 180.839,357.435C180.839,357.435 179.162,358.405 179.484,359.264C179.69,359.812 182.003,361.421 184.949,363.228C188.533,365.425 192.396,367.855 192.396,367.855C192.396,367.855 193.341,368.732 192.823,369.666C192.187,370.811 190.984,370.616 190.984,370.616C190.984,370.616 176.274,362.206 173.219,359.986C172.573,359.517 172.451,357.897 173.124,357.469C177.108,354.933 194.666,345.959 196.086,345.279C196.459,345.101 197.633,344.638 197.985,344.855Z" style="fill:white;"/>
                </g>
            </g>
            <g>
                <g transform="matrix(-0.13943,0.231573,-0.231573,-0.13943,441.446,281.343)">
                    <path d="M230.968,120.484C230.317,119.638 230.522,119.072 230.745,118.736C230.873,118.545 236.196,116.206 238.025,115.658C239.048,115.352 241.716,115.145 241.712,116.213C241.711,116.701 241.701,139.815 241.701,139.815C241.701,139.815 241.836,140.555 240.073,140.544C238.087,140.531 238.015,139.463 238.015,139.463C238.015,139.463 237.999,120.724 237.982,119.833C237.976,119.477 237.423,119.257 237.145,119.261C236.75,119.267 232.197,120.898 232.197,120.898C232.197,120.898 231.499,121.175 230.968,120.484Z" style="fill:white;fill-opacity:0.92;"/>
                </g>
                <g transform="matrix(0.128542,-0.205352,0.205352,0.128542,267.374,327.223)">
                    <path d="M248.82,357.183C250.989,357.207 253.481,357.76 255.435,358.937C257.508,360.186 260.117,362.202 261.258,364.677C262.413,367.181 262.797,371.33 262.364,373.964C261.959,376.429 260.408,378.744 258.66,380.478C256.912,382.213 254.274,383.708 251.876,384.371C249.479,385.034 246.297,384.914 244.277,384.553C242.621,384.257 240.512,383.184 239.755,382.545C239.351,382.203 239.276,381.219 239.506,380.812C239.736,380.405 240.594,379.701 241.14,379.761C242.071,379.864 244.101,381.003 245.569,381.165C247.218,381.347 249.328,381.317 251.034,380.854C252.68,380.407 254.364,379.354 255.554,378.453C256.613,377.649 257.634,376.369 258.173,375.444C258.611,374.691 258.811,373.385 258.787,372.903C258.773,372.625 258.298,372.48 258.029,372.551C256.976,372.83 254.588,374.391 252.649,374.748C250.413,375.159 246.791,375.413 244.617,375.016C242.679,374.662 240.66,373.286 239.425,372.196C238.342,371.24 237.41,369.905 237.204,368.475C236.977,366.902 237.195,364.37 238.065,362.757C238.934,361.144 240.68,359.7 242.423,358.797C244.215,357.868 246.652,357.16 248.82,357.183ZM241.142,366.403C241.031,367.655 241.719,369.385 242.825,370.236C244.017,371.152 246.387,371.849 248.291,371.901C250.224,371.954 252.654,371.257 254.425,370.554C256.075,369.899 258.597,369.09 258.599,367.696C258.602,366.302 256.158,363.333 254.44,362.19C252.776,361.082 250.427,360.731 248.602,360.82C246.787,360.908 244.109,361.793 242.865,362.723C241.7,363.595 241.253,365.151 241.142,366.403Z" style="fill:white;"/>
                </g>
            </g>
            <g>
                <g transform="matrix(0.00042918,0.247356,-0.247356,0.00042918,427.42,186.412)">
                    <path d="M230.968,120.484C230.317,119.638 230.522,119.072 230.745,118.736C230.873,118.545 236.196,116.206 238.025,115.658C239.048,115.352 241.716,115.145 241.712,116.213C241.711,116.701 241.701,139.815 241.701,139.815C241.701,139.815 241.836,140.555 240.073,140.544C238.087,140.531 238.015,139.463 238.015,139.463C238.015,139.463 237.999,120.724 237.982,119.833C237.976,119.477 237.423,119.257 237.145,119.261C236.75,119.267 232.197,120.898 232.197,120.898C232.197,120.898 231.499,121.175 230.968,120.484Z" style="fill:white;fill-opacity:0.92;"/>
                </g>
                <g transform="matrix(0.127887,-0.206819,0.206819,0.127887,282.783,269.925)">
                    <path d="M316.701,340.647C317.377,341.035 316.829,342.502 316.645,342.984C316.505,343.353 315.991,343.482 315.601,343.543C314.712,343.682 312.688,343.421 311.313,343.821C309.613,344.314 306.95,345.144 305.249,346.389C303.547,347.635 301.71,349.462 301.023,350.972C300.433,352.27 300.697,354.467 301.277,355.566C301.856,356.665 303.253,357.663 304.58,357.888C305.944,358.119 307.996,357.489 309.462,356.955C310.88,356.438 312.385,355.444 313.377,354.682C314.188,354.058 314.735,353.141 315.41,352.38C316.081,351.624 316.7,350.475 317.428,350.116C318.133,349.769 319.235,349.661 319.781,350.225C320.939,351.422 323.4,355.668 324.377,357.295C324.888,358.147 325.467,359.305 325.641,359.992C325.759,360.458 325.794,361.112 325.422,361.416C324.21,362.404 320.636,364.384 318.228,365.793C315.631,367.314 311.474,369.774 309.84,370.541C309.453,370.722 308.92,370.757 308.56,370.528C308.192,370.294 307.768,369.531 307.629,369.138C307.521,368.833 307.467,368.367 307.725,368.172C308.919,367.268 312.905,365.039 315.126,363.654C317.205,362.358 319.995,360.693 321.05,359.864C321.345,359.632 321.277,359.083 321.124,358.74C320.752,357.9 319.44,355.491 318.813,354.822C318.483,354.468 317.756,354.44 317.365,354.725C316.395,355.434 314.652,357.967 312.994,359.075C311.336,360.183 309.135,360.99 307.418,361.372C305.88,361.715 304.102,361.759 302.691,361.369C301.281,360.98 299.903,360.028 298.955,359.036C298.008,358.045 297.371,356.69 297.005,355.418C296.639,354.146 296.611,352.545 297.029,351.273C297.535,349.733 298.845,347.548 300.039,346.182C301.11,344.956 302.601,344.055 303.92,343.214C305.194,342.4 306.587,341.606 307.949,341.132C309.276,340.671 310.691,340.452 312.093,340.374C313.552,340.293 315.942,340.212 316.701,340.647Z" style="fill:white;"/>
                </g>
            </g>
            <g>
                <g transform="matrix(0.132459,0.210244,-0.210244,0.132459,369.042,106.066)">
                    <path d="M230.968,120.484C230.317,119.638 230.522,119.072 230.745,118.736C230.873,118.545 236.196,116.206 238.025,115.658C239.048,115.352 241.716,115.145 241.712,116.213C241.711,116.701 241.701,139.815 241.701,139.815C241.701,139.815 241.836,140.555 240.073,140.544C238.087,140.531 238.015,139.463 238.015,139.463C238.015,139.463 237.999,120.724 237.982,119.833C237.976,119.477 237.423,119.257 237.145,119.261C236.75,119.267 232.197,120.898 232.197,120.898C232.197,120.898 231.499,121.175 230.968,120.484Z" style="fill:white;"/>
                </g>
                <g transform="matrix(0.128532,-0.217887,0.217887,0.128532,263.745,216.058)">
                    <path d="M342.843,307.613C343.718,307.823 345.645,309.186 346.389,309.494C346.68,309.615 347.321,309.673 347.495,309.409C349.211,306.802 354.924,296.759 356.716,294.118C356.984,293.722 357.724,293.553 358.152,293.689C358.579,293.826 359.418,294.567 359.537,295.098C360.515,299.455 363.325,314.89 363.985,319.339C364.075,319.948 363.705,320.694 363.444,321.163C363.218,321.57 362.839,322.138 362.553,322.266C362.268,322.394 361.807,322.391 361.53,322.238C359.323,321.017 351.541,316.332 349.301,315.187C348.979,315.022 348.132,315.064 347.871,315.314C347.344,315.818 346.357,317.528 345.881,318.057C345.7,318.258 345.433,318.515 345.164,318.483C344.784,318.437 344.146,318.1 343.853,317.786C343.561,317.472 343.489,317.023 343.614,316.582C343.791,315.957 344.713,314.783 344.924,314.187C345.056,313.817 345.273,313.247 345.001,312.963C344.361,312.297 341.771,310.992 341.175,310.202C340.787,309.688 340.888,308.748 341.212,308.311C341.537,307.873 342.237,307.467 342.843,307.613ZM357.162,300.4C357.034,299.769 356.181,300.978 355.951,301.343C354.897,303.013 351.623,308.686 350.818,310.474C350.629,310.894 350.928,311.691 351.293,311.971C352.584,312.96 357.293,315.719 358.689,316.508C359.66,317.056 360.337,316.898 360.17,315.385C359.874,312.702 357.654,302.819 357.162,300.4Z" style="fill:white;fill-opacity:0.9;"/>
                </g>
            </g>
            <g>
                <g transform="matrix(0.240664,0.128893,-0.128893,0.240664,278.562,60.305)">
                    <path d="M230.968,120.484C230.317,119.638 230.522,119.072 230.745,118.736C230.873,118.545 236.196,116.206 238.025,115.658C239.048,115.352 241.716,115.145 241.712,116.213C241.711,116.701 241.701,139.815 241.701,139.815C241.701,139.815 241.836,140.555 240.073,140.544C238.087,140.531 238.015,139.463 238.015,139.463C238.015,139.463 237.999,120.724 237.982,119.833C237.976,119.477 237.423,119.257 237.145,119.261C236.75,119.267 232.197,120.898 232.197,120.898C232.197,120.898 231.499,121.175 230.968,120.484Z" style="fill:white;"/>
                </g>
                <g transform="matrix(0.128671,-0.208895,0.208895,0.128671,224.474,170.139)">
                    <path d="M363.632,235.991C363.986,236.212 364.787,236.945 365.012,237.313C365.166,237.566 365.11,237.936 364.978,238.201C364.565,239.032 363.123,240.926 362.532,242.299C361.967,243.61 361.587,245.018 361.429,246.437C361.242,248.121 361.134,250.809 361.406,252.403C361.628,253.704 362.337,255.006 363.063,255.999C363.768,256.963 364.878,258.036 365.76,258.358C366.583,258.658 367.622,258.305 368.353,257.931C369.084,257.557 369.766,256.684 370.146,256.114C370.456,255.647 370.585,255.063 370.63,254.505C370.73,253.27 370.471,249.837 370.745,248.704C370.889,248.112 371.773,247.716 372.276,247.707C372.778,247.698 373.588,248.09 373.76,248.65C374.037,249.552 373.69,252.02 373.94,253.12C374.125,253.934 374.68,254.738 375.26,255.25C375.839,255.761 376.635,256.265 377.415,256.189C378.251,256.107 379.284,255.849 379.971,255.275C380.578,254.767 381.38,253.521 381.537,252.745C381.799,251.456 381.925,248.302 381.731,246.793C381.577,245.587 380.962,244.748 380.374,243.687C379.787,242.626 378.664,241.342 378.323,240.657C378.162,240.335 378.183,239.908 378.327,239.577C378.471,239.245 378.848,238.808 379.188,238.662C379.528,238.516 380.086,238.424 380.365,238.699C381.044,239.368 382.53,241.229 383.26,242.676C383.99,244.123 384.381,245.565 384.652,247.1C384.914,248.58 384.984,250.507 384.889,251.886C384.801,253.162 384.321,254.582 383.942,255.642C383.602,256.591 382.864,257.751 382.146,258.457C381.428,259.164 380.574,259.533 379.673,259.844C378.832,260.134 377.838,260.061 377.03,259.935C376.241,259.812 375.383,259.307 374.702,258.9C374.021,258.493 373.701,257.834 373.15,257.841C372.621,257.848 372.408,259.027 371.878,259.569C371.191,260.274 370.6,260.987 369.665,261.438C368.836,261.837 367.452,262.223 366.539,262.112C365.502,261.986 363.709,261.658 362.745,260.907C361.724,260.111 360.775,258.979 360.051,257.737C359.35,256.534 358.805,254.979 358.439,253.68C358.077,252.394 357.994,250.997 357.943,249.701C357.893,248.436 357.971,247.106 358.132,245.907C358.287,244.757 358.593,243.527 358.909,242.511C359.198,241.582 359.573,240.675 360.026,239.815C360.488,238.938 361.204,237.892 361.681,237.254C362.031,236.787 362.563,236.197 362.889,235.986C363.096,235.851 363.422,235.859 363.632,235.991Z" style="fill:white;"/>
                </g>
            </g>
        </g>
        <g>
            <path d="M280.515,188.994L281.836,188.975L281.839,193.95C281.839,193.95 282.131,195.849 284.839,195.88C287.402,195.91 287.778,193.997 287.778,193.997L287.827,189.075L289.136,189.079L289.148,194.037C289.148,194.037 288.702,197.211 284.915,197.19C281.127,197.168 280.485,194.022 280.485,194.022L280.515,188.994Z" style="fill:white;"/>
            <path d="M271.957,196.913L270.937,196.897L270.947,195.818L275.016,188.954L276.056,188.948L280.181,195.838L280.176,196.897L279.147,196.884L277.885,194.732L273.136,194.758L271.957,196.913ZM273.61,193.56L277.26,193.586L275.443,190.524L273.61,193.56Z" style="fill:white;"/>
            <path d="M262.766,189.057L270.158,189.056L270.137,190.212L263.91,190.184L263.925,192.456L269.1,192.477L269.104,193.527L263.941,193.546L263.948,195.678L270.133,195.722L270.141,196.906L262.804,196.923L262.766,189.057Z" style="fill:white;"/>
            <path d="M252.955,196.921L252.987,189.077L258.983,189.079C258.983,189.079 261.25,189.126 261.207,191.604C261.171,193.662 259.109,193.869 259.109,193.869L261.283,196.301C261.283,196.301 261.335,196.897 261.109,196.908C260.567,196.936 260.026,196.892 260.026,196.892L257.414,193.962L254.205,193.958L254.2,196.912L252.955,196.921ZM254.165,192.937C254.165,192.937 257.81,192.984 259.002,192.946C259.622,192.926 260.146,192.413 260.134,191.479C260.118,190.146 259.1,190.096 259.1,190.096L254.12,190.112L254.165,192.937Z" style="fill:white;"/>
            <path d="M246.929,188.786C249.373,188.793 251.534,190.525 251.506,192.952C251.48,195.178 249.754,197.166 246.729,197.171C244.054,197.176 241.77,196.025 241.702,193.173C241.65,191.004 243.427,188.775 246.929,188.786ZM246.754,190.08C244.665,190.066 243.225,190.99 243.234,193.15C243.241,194.774 244.546,195.917 246.768,195.96C249.186,196.007 250.066,194.474 250.119,192.874C250.185,190.899 248.349,190.091 246.754,190.08Z" style="fill:rgb(255,254,254);"/>
            <path d="M231.991,196.856L230.673,196.872L230.707,189.387L232.215,189.413L235.666,193.588L239.284,189.344L240.607,189.366L240.638,196.963L239.319,196.951L239.34,191.159L235.859,195.312L235.376,195.321L231.986,191.282L231.991,196.856Z" style="fill:white;"/>
            <path d="M220.604,189.289L221.765,189.317C221.765,189.317 221.757,192.506 221.771,193.669C221.782,194.66 222.767,196.131 224.612,196.149C226.498,196.167 227.538,194.663 227.548,194.015C227.573,192.462 227.638,189.307 227.638,189.307L228.806,189.304C228.806,189.304 228.778,192.8 228.77,194.117C228.765,194.87 228.165,197.323 224.621,197.356C222.251,197.379 220.596,195.47 220.579,194.461C220.553,192.93 220.604,189.289 220.604,189.289Z" style="fill:white;"/>
            <path d="M210.779,189.304C210.779,189.304 215.946,189.241 216.227,189.326C217.2,189.62 219.238,189.972 219.245,193.262C219.252,196.35 216.74,196.815 216.281,196.992C215.895,197.139 210.785,197.077 210.785,197.077L210.779,189.304ZM211.803,190.403L211.787,195.879C211.787,195.879 215.589,195.96 216.094,195.844C217.177,195.597 218.13,195.05 218.103,193.108C218.08,191.36 217.015,190.603 216.442,190.429C216.189,190.353 211.803,190.403 211.803,190.403Z" style="fill:white;"/>
        </g>
    </g>
</svg>
